<?xml version="1.0" encoding="UTF-8"?>
<svg id="Boxes" xmlns="http://www.w3.org/2000/svg" viewBox="0 0 319.31 247.49">
  <defs>
    <style>
      .cls-1 {
        fill: #8380ff;
      }

      .cls-1, .cls-2, .cls-3 {
        stroke-width: 0px;
      }

      .cls-4 {
        opacity: .3;
      }

      .cls-2 {
        fill: #421b36;
      }

      .cls-3 {
        fill: #a0d2f4;
      }
    </style>
  </defs>
  <g>
    <path class="cls-1" d="m205.14,184.59c-2.84,3.96-79.41,58.98-82.83,61.79-.31.26-1.52.37-3.47.32-19.39-.19-111.69-13.23-114.28-18.36C1.71,222.72,0,123.54,0,123.54l83.4-49.96s80.86,6.71,110.92,9.23c5.87.5,9.8.82,10.81.92,6.26.57,2.85,96.92,0,100.86Z"/>
    <polygon class="cls-2" points="121.56 246.39 120.41 138.33 121.9 138.31 123.06 246.37 121.56 246.39"/>
    <path class="cls-2" d="m121.19,139.31c9.94-7.8,20.53-14.79,31.12-21.68,11.5-7.48,23.14-14.75,34.69-22.17,5.67-3.64,11.32-7.3,16.87-11.11.98-.67.05-2.27-.94-1.59-21.91,14.99-44.89,28.38-66.78,43.4-5.53,3.8-11,7.69-16.28,11.84-.94.74.39,2.04,1.32,1.31h0Z"/>
    <path class="cls-2" d="m1.27,125.19c30.77,4.13,61.66,7.31,92.48,11.01,8.85,1.06,17.69,2.17,26.53,3.35,1.17.16,1.68-1.62.5-1.78-30.77-4.13-61.66-7.31-92.48-11.01-8.85-1.06-17.69-2.17-26.53-3.35-1.17-.16-1.68,1.62-.5,1.78h0Z"/>
    <path class="cls-2" d="m178.12,133.12c-5.64,3.57-11.33,7.19-16.19,11.78-3.49,3.29-8.67,9.4-3.95,13.95,2.05,1.98,4.82,1.43,7.09.15,3.02-1.69,5.93-3.68,8.78-5.63,2.81-1.91,5.54-3.94,8.09-6.19,2.21-1.94,4.42-4.08,5.55-6.84,1.1-2.68,1.41-6.04-1.1-8.06-2.49-2-5.87-.49-8.28.83-1.05.57-.11,2.17.94,1.59,2.08-1.14,5.45-2.77,7,0,1.16,2.07-.09,4.98-1.28,6.76-1.41,2.11-3.45,3.83-5.39,5.45-2.07,1.73-4.26,3.33-6.49,4.85-2.23,1.52-4.51,2.97-6.79,4.41-2.01,1.27-5.04,3.48-7.09,1.09-3.67-4.27,2.62-9.7,5.55-12.29,4.44-3.92,9.48-7.1,14.47-10.27,1.01-.64.07-2.24-.94-1.59h0Z"/>
    <path class="cls-2" d="m51.69,152.92s-.2-19.43.33-20.68c1.94-4.58,77.79-54.8,77.79-54.8l19.39,1.61-78.43,56.04.62,21.16-19.7-3.32Z"/>
    <path class="cls-3" d="m59.4,212s-.68,19.86,1.37,21.39c2.06,1.53,22.29,3.06,22.29,3.06,0,0,.07-20.5-1.16-21.59-1.23-1.09-22.5-2.85-22.5-2.85Z"/>
    <path class="cls-3" d="m88.65,215.16s-.68,19.86,1.38,21.39c2.06,1.53,22.29,3.06,22.29,3.06,0,0,.07-20.5-1.16-21.59-1.23-1.09-22.5-2.85-22.5-2.85Z"/>
    <g class="cls-4">
      <path class="cls-2" d="m204.36,83.56c.99.08,1.61.14,2.01.18,0,.01,0,.03,0,.04-.69-.04-1.69-.1-1.23-.06.32.03.61.31.87.8-.32.37-.79.68-1.2,1.03-.74.09-1.5.15-2.37-.15.04-.24.07-.45.11-.68l1.8-1.16Zm-14.3,95.29c-4.63,2.91,1.75,7.41,2.6,1.72q-1.58-1.46-2.6-1.72Zm-49.19,35.33c.38-.6-.25-.89-.55-1.26-.5-2.31-3.26-1.19-4.11.39.5,2.44,3.52,3.12,4.67.87Zm-1.84-68c-1.48.6-3.11,1.26-1.69,2.93-.24.35-.42.6-.65.94,3.04,2.23,5.92-2.81,2.34-3.87Zm16.49,75.89c.22-.16.43-.32.65-.47-.25.11-.46.28-.65.47Zm-23.84-23.28c-.38,2.63,2.47,4.08,4.27,2.13,1.21-1.93-2.89-3.89-4.27-2.13Zm27.6-32.6c-1.04-1.59-3.28-.63-4.14.73.17,3.79,5.28,2.61,4.14-.73Zm-21.04-6.15c3.34-.21,3.41-3.57.14-4.01-2.38-.11-2.04,3.71-.14,4.01Zm58.98-68.43c-1.49-1.15-3.88-1.45-4.52.8.32.51.65,1.02.99,1.56,2.09,1.14,3.91-.17,3.54-2.36Zm-10.84,73.4c-2.62.37-3.67,1.9-1.63,3.9,2.83.87,4.39-2.49,1.63-3.9Zm-65,47.29l.03,2.46c.43-.7.6-1.6.24-2.29-.08-.06-.18-.12-.26-.17Zm34.79-83.51c-.21.36-.46.78-.72,1.21.38.89.39,1.98,1.76,2.08,4.17-1.85,1.56-4.6-1.77-4.61-.31.78.68.7.73,1.32Zm-5.3,89.14c.18.5.34.99.55,1.59,6.93,3.14,2.07-7.54-.55-1.59Zm-21.57-29.95q1.1-.63,1.73-2.03c-.29-5.56-7.42,1.17-1.73,2.03Zm57.23-9.8c1.21-1.06,2.25-2.68.37-3.68-4.18.03-5.04,3.14-.37,3.68Zm6.71,16.03c.49-.37.96-.73,1.43-1.09-.66.07-1.24.43-1.43,1.09Zm-30.75,3.5c-1.86-.31-2.76,1.63-1.93,3.12,2.24,3.1,5.71-3.17,1.93-3.12Zm-14.74,13.65c-2.09.64-1.97,2.86-.49,4.12,3.64-.53,4.1-3.49.49-4.12Zm35.99-25.67c.34.99.87,1.69,1.69,2.19.97-.54,1.71-1.06,2.6-1.8.32-2.96-3.73-3.01-4.29-.39Zm-45.27,34.88c-1.39.56-1.53,1.7-1.8,2.94.56.43,1.1.86,1.59,1.23.76-.17,1.38-.31,2-.45,1.66-1.87-.19-2.92-1.79-3.72Zm-3.82,14.42c-2.56-.08-3.26,2.34-1.66,3.53.91-.66,1.86-1.36,2.86-2.08-.16-.65-.56-1.22-1.2-1.45Zm73.15-108.38c.3.09.59.13.86.15.01-1.17.02-2.34.02-3.49-1.12.69-2.03,2.25-.88,3.34Zm-61.6,49.24c.13,3.44,2.97,3.6,4.17.62-.68-2.31-2.86-2.61-4.17-.62Zm20.73,35.86c-2.46.5-2.68,2.27-1.64,3.25,1-.73,1.99-1.46,2.98-2.19-.45-.35-.9-.71-1.34-1.06Zm33.31-47.37c3.69-1.3-.38-6.84-2.43-2.14-.37,1.39,1.07,2.51,2.43,2.14Zm-3.03-25.03c-1.04-.87-1.22-2.22-2.71-2.45-.62.79-1.2,1.53-1.74,2.23.25.73.94,1.24,1.36,1.86,2.24.23,2.3.19,3.1-1.64Zm-64.26,5.91c2.81.27,3.59-.52,3.16-3.23-2.1-1.38-5.09.95-3.16,3.23Zm24.27-26.68c-.58,1.16-2.28,1.2-1.63,2.93q1.7.98,3.19.9c.42-.56,1.28-1.3.84-2.08-.55-.6-1.49-2.78-2.4-1.75Zm-.62,56.01c-.76.77-.72,1.69-.85,2.61,3.42,4.12,6.26-3.49.85-2.61Zm14.74,32.47c-1.54-.09-1.19,1.58-2.05,2.43.51.79,1.23,1.12,1.95,1.13.9-.66,1.79-1.32,2.68-1.97.07-1.08-1.59-1.71-2.58-1.59Zm-26.1,10.19c-2.02-2.02-4.93-.02-3.32,2.38,1.58,1.74,4.18-.28,3.32-2.38Zm-1.05-71.62c.54-.64,1.14-1.12,1.37-1.88-.89-1.9-1.01-1.97-3.19-1.65-.34.66-.73,1.15-1.26,1.77.26,1.77,1.75,1.45,3.08,1.77Zm44.65,24.59v2.8c3.6,2.8,5.76-4.95,0-2.8Zm-45.03,8.65c-1.51.29-2.1,1.34-2.32,2.96,1.58,1.05,3.1,1.7,4.2-.23q-.44-1.82-1.88-2.73Zm-20.87,67.09c.49-.37,1.21-.91,2.15-1.6-1-.35-2.02.17-2.15,1.6Zm20.6-57.78c-1.52-.03-2.82,2.38-1.6,3.19.58.21,1.01.47,1.22,1.08,1.54.72,2.51-1.66,2.08-2.95-.64-.5-1.2-.94-1.7-1.33Zm40.55-48.26c.65.62.83,1.31,1.67,1.54.36-.19.8-.42,1.29-.69.16-.98.3-1.78.45-2.69-1.68-2.31-4.05-.64-3.41,1.84Zm6.98,20.58c-.63.21-1.17.39-1.69.57-4.11,5.53,7.41,2.98,1.69-.57Zm11.49-68.68v1.75c1.58,1.6,3.1,1.11,4.13-.7-.63-2.15-2.55-2.76-4.13-1.05Zm-72.89,114.85c1.69-1.73,2.25-3.64-.37-4.58-2.99,1.02-2.27,3.63.37,4.58Zm10.37,23.81c-.63-.14-1.25-.28-1.96-.44-1.14,1.61-1.22,2.1-.69,4.06.81-.01,1.42-.04,1.88-.11.38-.28.78-.57,1.17-.85.1-.53-.08-1.35-.4-2.66Zm34.35-73.91c.12.8.25,1.67.39,2.59,5.36,2.69,3.63-6.02-.39-2.59Zm21.63-6.29c.29-.41.65-.92,1.06-1.5-.61-1.7-1.56-3.14-3.53-1.98-.97,1.76.02,4.2,2.47,3.48Zm-39.82,9.42c1.77.53,3.93-1.28,2.96-3.05-2.06-2.16-5.08.87-2.96,3.05Zm6.11-17.98c-1.3.35-2.11,1.16-2.59,2.58,4.46,2.93,6.44-.17,2.59-2.58Zm-21.74,62.28c-.33-1.1-1.14-1.48-1.83-1.88-1.42.18-1.25,1.55-1.98,2.17.82,3.4,3.23,2.76,3.81-.29Zm13.14-49.07c2.89-2.76-1.68-6.17-2.84-1.78.9,1.93.94,1.96,2.84,1.78Zm-.38,56.4c.47-.64.91-1.25,1.33-1.82q-.51-1.06-.2-2.35c-2.02-.37-3.02.85-4.11,2.02.57,1.37,1.81,1.63,2.99,2.15Zm10.6-50.65c-.56-.13-1.17-.28-1.96-.47-5.24,4.02,2.52,6.33,1.96.47Zm40.22,17.64c2.69.1,2.82-3.33.31-4.21-2.14.74-2.87,3.64-.31,4.21Zm-57.92,17.62c1.13,1.5,3.7,1.08,4.06-.83-1.54-2.77-4.46-2.72-4.06.83Zm-6.88-67.62c-1.05.53-4.06.41-2.59,2.21.96,2.24,3.09,1.81,4.18-.13-.19-.85-.59-1.54-1.59-2.08Zm15.56,6.01c-.22-1.4-1.45-1.36-2.45-1.72-4.64,2.33,1.59,6.11,2.45,1.72Zm-15.74,31c-.93-.06-1.72-.76-2.74-.73.46,1.49.88,2.86,1.32,4.26,1.49.21,1.8.06,3.09-1.58-.35-.81-1.5-.98-1.67-1.95Zm-9.57,74.03c-1.81.58-2.88,1.48-1.87,3.04.92-.68,1.95-1.43,3.07-2.24-.26-.39-.64-.7-1.2-.8Zm48.89-62.65c-.6-2.34-2.24-2.63-4.1-1.26-.26,1.28.35,2.06,1.2,2.81,1.12-.29,3.29.06,2.9-1.54Zm.55-13.76c.32.44.65.9,1.08,1.48.83-.21,1.51-.39,2.2-.57,2.01-3.7-2.37-5.08-3.28-.91Zm-57.83,33.5c.7-1.21.57-2.22-.04-3.28l.04,3.28Zm76.97-72.41c.03,1.34-.39,2.85,1.6,3.47,2-.53,1.85-1.7,1.67-3.42-1.08-1.01-2.12-.78-3.27-.05Zm-70.81,99.74c4.59,3.27,5.62-3.75.82-2.48-.33.78-1.04,1.46-.82,2.48Zm18.16,3.67c-.62-1.24-1.47-2.07-3.07-1.65-3.27,2.85,1.89,5.29,3.07,1.65Zm-13.97-88.14c-.4-1.26-1.33-1.8-2.63-2.02-.45.24-1.19.44-1.49.96-.11,3.47,2.38,3.7,4.12,1.06Zm64.83,38.32c1.45-1.37-.24-2.49-1.47-3.2-3.81,1.32-1.4,5.47,1.47,3.2Zm-75.08,27.91c.49-.66.57-1.67-.03-2.35l.03,2.35Zm76.86-25.56c-.18,1.7-.03,3.26,2.07,3.46,2.52-2.19.97-5.9-2.07-3.46Zm-70.1,35.19c2.09.37,4.44-.37,2.99-2.88-2.02-1.93-4.42.77-2.99,2.88Zm43.53-45.27q-1.45.7-1.97,2.66c2.06,3.2,6.41-.64,1.97-2.66Zm-17.09-26.75c-1.07-2.49-4.33-1.21-3.6,1.35,1.61,2,3.75,1.22,3.6-1.35Zm38.69,23.1c-.15.62-.28,1.18-.44,1.84,4.64,3.66,6.01-5.27.44-1.84Zm-7.4-38.78c-2.05,1.01-2.57,4.18,0,4.76.91-2.61,4.21-2.68,0-4.76Zm-44.26,81.83c-.56,1.21,1.47.82,1.67,1.9.93-.65,1.9-1.07,2.5-2.26-1.52-2.93-2.99-2.19-4.17.36Zm4.68-22.59c1.53.98,2.84.74,4.21-.58-1.8-3.52-3.74-3.62-4.21.58Zm-1.86,15.19c.14-1.04.48-1.63,1.27-2.4-1-1.15-2.24-1.24-3.48-1.54-.33.74-.63,1.4-.97,2.15,1.03.67,1.46,2.25,3.18,1.78Zm33.66-7.87c-1.56-1.53-3.96.14-3.3,2.24,1.95,1.75,4.79.2,3.3-2.24Zm1.8-5.18c-2.13,2.54-.48,2.64,1.44,3.77,2.63-1.62,1.59-4.38-1.44-3.77Zm-45.9,3.43c1.01-.29,1.7-.82,2.25-1.66-.37-1.13-1.22-1.85-2.11-2.46-1.28.27-1.87,1.02-2.05,2.23.47.79,1.12,1.44,1.91,1.89Zm2.32-38.71c-.57-1.15-1.21-2.15-2.78-2.23-4.02,1.43,1.49,5.96,2.78,2.23Zm-11.72,15.88c-2.15,1.09-2.1,4.51.71,4.24,2.6-.08.81-3.51-.71-4.24Zm.26-5.05c1.54.25,2.35-2.35,1.13-3.29-2.64-2.08-5.01,3.02-1.13,3.29Zm62.53-5.36c.55-.63-.13-2.73-.93-2.68-1.07.22-2.36.09-3.05,1.47.81,2.12,2.22,3.03,3.98,1.2Zm14.37-5.62c-.04-1.65-.96-2.43-2.51-2.17-3.82.98,2.23,6.46,2.51,2.17Zm-36.76-42.06c.62.89,1.54,1.52,2.41,2.28,4.08-2.03-1.69-6.97-2.41-2.28Zm32.05,1.68c-.87-1.27-.44-2.56-1.42-3.65-1.31-.06-2.18.46-2.86,1.51.96,1.4,2.54,3.65,4.28,2.14Zm-75.36,118.83v.92c.1-.12.19-.24.29-.36-.09-.21-.19-.38-.29-.56Zm42.38-79.59c-.56-.45-1.11-.89-1.78-1.43-2.66.82-2.56,4.56.51,4.13.37-.88,1.78-1.32,1.27-2.7Zm4.63-4.53c-1.25-1.77-3.43-1.69-3.64.77.3,3.21,3.95,2.04,3.64-.77Zm-10.54-1.06c-.8.13-1.49.24-2.38.39-2.37,4.02,7.08,4.57,2.38-.39Zm-26.62-16.2l-2.06,1.32c.9-.1,1.75-.6,2.06-1.32Zm65.76,54.59c-1.12-1.49-2.36-1.18-3.63-.64-.13.78-.25,1.47-.41,2.39,1.93,1.35,3.77.58,4.05-1.75Zm-63.91,22.57c-1.67-.47-1.7,2.55-.54,3.15.82-.26,1.44-.23,2.28.09,1.58-1.63.67-4.51-1.75-3.24Zm66.69-19.5c-1.66.5-2.59,1.76-2.38,2.74,1.07-.83,2.05-1.59,2.92-2.28-.16-.15-.33-.3-.54-.46Zm-15.25-75.07c3.27.48,3.79-3.5.69-3.98-.47.35-.92.69-1.33,1-.01,1.12-.27,2.17.64,2.98Zm-13.79,28.98c-.55-.22-.88.38-1.22.8-.06,7.32,7.43-1.24,1.22-.8Zm-50.4-4.25l.03,2.82c1.36-.96,1.47-2.09-.03-2.82Zm3.43,41.76c-1.09.92-1.71,3.53.42,3.43,3.48.61,2.13-5.39-.42-3.43Zm83.25-17.01c.1.13.18.22.27.33.03-.5.06-.99.08-1.5-.15.39-.22.8-.36,1.16Zm-2.09-6.47h-1.92c-.42.7-.81,1.34-1.29,2.12,2.74,2.18,7.05.28,3.21-2.12Zm-55.15,47.92c.17-1.26-1.38-1.29-2.27-1.54-1.4-.21-1.27,1.5-1.53,2.49,1.38,1.88,3.51,1.46,3.79-.95Zm47.82-115.98c.72,2.81,4.11,2.23,4.22-.68-.72-.36-1.39-.77-2.12-.87l-1.86,1.2c-.08.11-.16.24-.23.35Zm-9.04,46.22c.14,1.99,2.85,3.15,3.56.71.89-2.04-3.62-3.49-3.56-.71Zm-54.91,44.97q-.5.87-1.79,1.41c-.05,5.71,7.08.68,1.79-1.41Zm48.65-9.12c-2.76-1.43-4.4,2.4-1.61,3.93,1.49-.48,2.64-2.98,1.61-3.93Zm-3.5,10.17q.55,1.53,1.56,2.55c4.85.35.66-6.37-1.56-2.55Zm-5.53,20.16c.69-2.67-3.34-4.45-3.51-1.06.85.86,1.31,1.55,2.02,2.71.59-.68.95-1.06,1.49-1.65Zm-12.84-67.26c-2.26,6.07,6.27,2.7,1.64-.77-.46.21-.97.46-1.64.77Zm36.62,23.97c-.92-.96-1.86-1.52-3.18-1.15-.35.83-.69,1.64-1.1,2.6,2.08,1.63,3.49.66,4.28-1.45Zm-21.21-10.95c-1.05.24-1.41,1.11-1.72,2,.28,1.62,2.03,2.48,3.33,1.26.54-2.07.19-2.45-1.61-3.25Zm25.46,24.55c-.64-.31-1.27-.62-1.96-.96-.52.26-1.03.5-1.53.75-.39,3.02,1.67,3.06,4.16,2.51-.71-.85-.77-1.31-.68-2.31Zm-18.25-45.61c-.74-.85-1.4-1.62-2.31-2.2-1.76.82-1.42,1.96-1.35,3.59.52.22.98.42,1.29.56,1.34-.19,1.56-1.34,2.37-1.95Zm22.71-13.05c-.06-.77-.12-1.46-.19-2.25h-3.01c-1.66,2.78,1.23,4.64,3.2,2.25Zm-85.13,53.25l.04,3.52c.49-.51.56-1.38,1.27-1.79-.48-.83-.9-1.39-1.31-1.72Zm86.32-11.75c.27.33.51.64.74.92.04-.94.08-1.89.12-2.86-.55.28-.88.86-.86,1.93Zm-46.88-27.31c2.2.57,4.49.92,3.64-2.15-.48-.32-1.01-.68-1.57-1.06-1.2.72-2.41,1.37-2.07,3.21Zm7.75,38.88c-1.16.41-2.45.33-3.41,1.33.67,1.13,1.22,2.3,2.73,2.48.96-.43,1.16-1.47,1.84-2.19-.4-.55-.76-1.06-1.16-1.62Zm40.5-56.74c-.03-1.1-.06-2.17-.09-3.22-.06.04-.11.08-.17.13-1.33,1.37-.83,2.69.26,3.1Zm-42.92,85.37c-1.06.6-.55,1.5,0,2.43.6,1.74,1.99.63,3.12.16.02-1.64-1.5-3.64-3.12-2.59Zm40.36-52.83c.02-1.12,0-2.04-.09-3.1-.6-.37-1.12-.7-1.8-1.13-.87,1.2-1.44,2.23-1.23,3.66.95.28,1.9.72,3.13.56Zm-76.57,55.63c3.42-.2,1.94-4.34-.72-3.07-2.16.79-1.34,3.25.72,3.07Zm74.49-12.23c-1.4.04-1.74,1.53-1.18,2.5,1.32-1.09,2.17-1.86,2.43-2.21.04-.06.08-.14.12-.23-.36-.12-.81-.16-1.37-.05Zm-78.67-42.27c-2.14.44-4.48,2.32-1.37,3.36,2.74,1.12,3.28-1.74,1.37-3.36Zm77.55-20.22c1.56,1.51,3.35.54,3.6-1.42-1.23-.72-2.02-2.43-3.47-1.49.48,1.18-.9,1.99-.13,2.9Zm-41.95,85.63c.13.95.16,1.74.13,2.74,4.35,2.82,3.9-5.17-.13-2.74Zm45.79-76.55c.56-1.17-1.18-2.64-2.41-2.59-3.74.5.56,5.36,2.41,2.59Zm-39.55,6.32c-2.09.43-1.73,2.15-1.21,3.74q2.06.15,3.16-2.4c-.39-.82-1.2-1.05-1.95-1.34Zm-5.05,51.29c-.36.18-.76.38-1.12.55-.07.69-.14,1.3-.2,1.9,1.09,2.44,3.53.76,3.72-1.08-.56-1.03-1.48-1.15-2.4-1.37Zm-7.34-16.01c-.15-1.28-.19-2.66-2.17-3.02-.62,1.07-3,2.47-.87,3.36,1.14.21,2.17.82,3.05-.34Zm45.1-77.45c-1.59.24-1.28,1.56-1.96,2.8,3.62,3.06,5.48-.61,1.96-2.8Zm-78.79,82.36c.44-.26.87-.63,1.25-1.05-.56-.53-.79-1.29-1.28-1.77l.03,2.83Zm50.07-54.11c-1.02.78-1.55,1.6-1.44,2.76,3.17,2.87,5.8-2.13,1.44-2.76Zm17.76,67.89c1.08.81,2.2.81,3.35.07,1.06-2.1-1.22-2.18-2.63-2.72q-1.27.89-.72,2.65Zm6.64-68.73c2.42-.64,1.6-3.48-.62-3.77-.5.34-1.12.76-1.8,1.23.26.74.42,1.21.59,1.69.65.3,1.28.59,1.82.85Zm-60.98,93.58q-1.26.75-2.07,1.97.55,1.54,1.96,2.54c.3-.15.64-.31,1.11-.55-.03-1.49.39-2.95-1-3.96Zm74.16-98.27s.01,0,.02,0c0-1.3-.02-2.58-.03-3.84-1.35.96-1.62,2.99.01,3.84Zm-35.15-2.63c-.88-.75-2.94-1.61-3.38-.56.19.74-.33,1.28-.5,1.89,1.55,2.37,3.71,1.14,3.88-1.32Zm-37.72,46.4c-.97-.98-1.92-.1-2.91-.34-2.23,4.28,3.81,4.39,2.91.34Zm18.27,2.29c.32-.5.62-.96.97-1.51-1.09-2.16-4-2.2-4.47.6,1.22.44,2.16,1.43,3.5.9Zm-25.15,5.17c3.89-.16,1.35-4.58-1.19-3.21-.89.6-.26,3.38,1.19,3.21Zm12.48-16.57c.33,1.24.64,2.47,2.25,3.04.47-.56.97-1.15,1.6-1.9-.22-2.15-2.47-2.74-3.85-1.14Zm37.58,1.12c2.41,3.28,5-.12,2.78-2.65-1.27.44-2.5.87-2.78,2.65Zm-51.52,23.73c.9.91,2,.62,3.1.59.35-.48.68-.94,1.05-1.44-.37-.53-.73-1.04-1.05-1.5-2.56-.24-2.76-.02-3.11,2.35Zm27.61,3.59c-.76-.53-1.52-1.07-2.37-1.67-2.61.95-1.62,3.34.21,4.18.36-1.16,1.87-1.19,2.16-2.5Zm47.55-14.76c-.18.57-.31.99-.47,1.51.48.23,1.11.34,1.19,1.06.89.74,2.04-.64,3.08-.95-.48-2.29-1.96-2.78-3.81-1.62Zm-41.14,3.77c-.41.61-.76,1.14-1.13,1.69,1.5,5.32,6.75-1.37,1.13-1.69Zm3.83,5.09c.52,1.37.13,3.56,2.23,3.31,2.13-1.09.58-6.04-2.23-3.31Zm-41,35.75c1.29-.08,1.49-1.23,2.09-1.95-.19-2.17-2.52-2.18-3.79-.81.39,1.24.68,2.23,1.7,2.76Zm63.13-88.83c.79-3.53-3.45-3.74-3.77-.21,1.02,1.28,2.46.5,3.77.21Zm-51.52,12.97c-.39-2.89-4.31-3.7-3.46-.08,1.71,1.11,2.35,2.46,3.46.08Zm40.04,2.51c-.49.55-1.04,1.16-1.57,1.74.08.58.63.98.9,1.48,1.93.74,2.69-.15,3.32-1.89-.96-.54-1.52-1.37-2.66-1.34Zm-3.33,14.16c-.58-.43-1.34-1.07-2.04-.52-.3.86-.59,1.69-.91,2.64.73.29,1.1,1.16,1.99,1.33.68-1.19,3.02-2.31.97-3.45Zm-45.3-2.22c2.24,1.67,5.37.25,3.09-2.13-.65-.58-1.45.06-2.21-.12-1.19.08-.85,1.36-.88,2.24Zm-6.67-2.52l.03,2.87c.34-.14.69-.34,1.04-.59.09-1.26-.4-1.99-1.07-2.28Zm24.59,15c-.95-.68-1.58-1.31-2.73-1.5-.4.78-.74,1.46-1.07,2.1.95,2.76,3.7,1.63,3.8-.61Zm-2.88,8.58c-1.54,3.47,1.23,3.55,3.27,1.75.6-2.11-1.82-2.39-3.27-1.75Zm39.74-71.73c.31-.41.49-.78.57-1.12l-2.21,1.42c.08.05.15.11.23.15.52-.17,1.01-.33,1.41-.46Zm-4.69,67.06c-.59-.17-1.14-.32-1.7-.47-.59.45-1.14.88-1.54,1.83,2.05,2.52,5.02,2.41,3.24-1.36Zm-2.42-37.23v2.65c1.42,1.65,3.52-.3,3.4-2.12-.71-.35-1.4-.69-2.1-1.04-.44.17-.85.33-1.3.51Zm-3.57,4.19c-.44.32-.94.68-1.39,1.01q-.07,1.56.38,2.69c1.29-.66,3.25-.42,3.28-2.23-.6-.64-1.19-1.31-2.27-1.47Zm-31.56,7.92c.31-1.01.35-1.87,0-2.75-2-1.51-3,.13-3.12,2.07.84,1.02,1.92.81,3.12.68Zm10.33-.82c-.43-.68-.85-1.36-1.32-2.11h-2.16c-2.01,2.38,1.64,4.21,3.47,2.11Zm31.29-35.31c-1.31.69-3.3,2.83-1.37,3.98.58-.16,1.24-.34,1.87-.52-.03-.39-.05-.68-.07-.96.44-.05.81-.09,1.48-.17-.64-.98-.64-2.1-1.91-2.33Zm-52.59,129.98c.55.01.65-.54.95-.84,1.12-.41,1.48-1.1,1.3-2.36-1.32-.16-2.34-1.03-3.25.25-1.17.83-.03,2.56,1,2.96Zm69.43-128.86c-.79,2.11.45,3.34,2.45,2.9,2.27-1.76-.88-4.57-2.45-2.9Zm-20.3,5.86c-.03-2.27-3.41-2.24-3.72-.02-.31,2.1,3.67,2.26,3.72.02Zm23.46,3.71c-1.69-1.72-3.52-1.4-3.72,1.11,1.31,1.99,3.92,1.37,3.72-1.11Zm-79.99,106.8l.02,2.01c.4-.52.43-1.31-.02-2.01Zm31.28-103.78c1.21-.25,2.35-1.55,1.67-2.49l-2.64,1.7c.24.32.53.6.97.79Zm-15.9,57.24c-1.62,5.38,5.69,1.85,2.88-.76-.93.25-1.91.51-2.88.76Zm23.81,41.93c-.05.38-.09.73-.13,1.09.76-.56,1.52-1.11,2.28-1.67-.79-.04-1.44.32-2.15.58Zm16.98-98.12c-.42-.29-.89-.61-1.29-.89-1.47.21-1.84,1.34-2.46,2.29,1.8,2.15,4.42,1.72,3.75-1.4Zm-29.16,50.06c.2-.31.58-.68.51-.81-.51-.93.34-1.52.62-2.31-1.23-2.18-2.65-.05-3.91.99.77.9,1.39,1.94,2.78,2.13Zm-1.48-41.15c-.21.87-.4,1.67-.59,2.46,3.52,3.23,5.33-3.83.59-2.46Zm10.72,64.3c-.88.99-1.55,1.74-2.27,2.54.25.48.48.93.84,1.61.86-.92,1.7.25,2.55-.23.16-.45.32-.92.52-1.47-.49-.73-.98-1.46-1.64-2.45Zm45.18-91.29c-1.17,2.69,2.42,2.86,3.88,1.33-.64-1.58-2.64-3.17-3.88-1.33Zm-3.01,35.64c.47-.35.92-.69,1.35-1.02,0-.92.12-1.74-.11-2.62-1.44-.66-3.18.75-3.34,2.2.75.53,1.21,1.3,2.1,1.43Zm-1.67,8.02c1.12,1.65,3.9.9,3.3-1.14-1.17-2.31-4.06-1.51-3.3,1.14Zm-77.13,42.54c.75-1.12.59-2.26-.03-2.93l.03,2.93Zm18.78-.32c.38-.41.47-.78.05-1.17-.46-.43-.58-.79-.29-1.32.23-2.23-2.55.53-3.29,1.01.74,1.46,1.99,3.1,3.53,1.47Zm19.05,18.97v-2.19c-.81-.46-1.38-1.22-2.47-1.3-.14.19-.53.53-.47.66.37.8-.3,1.33-.44,2.02.95,1.52,2.23.62,3.38.8Zm13.06-97.43c.59-.45,1.04-.8,1.57-1.21-.23-.87-.45-1.71-.7-2.66-.94.63-1.67.83-2.72.91l-.08.05c-.09.64-.18,1.19-.27,1.82.73.36,1.41.7,2.2,1.09Zm-18.18,80.13c-2.32.3-4.3,1.38-1.7,3.29,1.9.99,3.43-1.74,1.7-3.29Zm36.79-83.84q-1.54.68-2.04,2.11c.69.6,1.18,2.11,2.15,1.23,1.21-.53,1.88-1.22,1.44-2.59-.57-.28-1.08-.53-1.55-.75Zm-65.6,92.8c-3.94-.26-1.3,7.64,1.51,1.65-.41-.66-1.01-1.17-1.51-1.65Zm20.41-63.5c-.58-.59-1.07-1.08-1.46-1.47-5.19.62-1.53,6.27,1.46,1.47Zm-22.77,94.28c2.01,2.05,3.84,1.22,3.66-1.75-.94-.21-1.79-.4-2.65-.6-.38.88-.71,1.63-1.02,2.35Zm85.36-92.05c.16-.06.32-.1.48-.15.02-1.14.05-2.28.07-3.42-.11-.03-.2-.08-.31-.11-.96.44-.58,1.44-1.25,2.04.42.68.71,1.15,1.01,1.64Zm-45.46-22.28q-2.32,1.35-1.29,3.69c2.31.15,4.21-2.88,1.29-3.69Zm5.73,45.05c.11-.72.2-1.4.29-2.03-.64-1.2-2.08-.86-3.16-.67-1.78,1.29,1.15,3.51,2.87,2.7Zm3.49,32.77s-.03.05-.03.05c.03-.01.07-.03.1-.04-.01,0-.03,0-.04,0,.52-.42,1.03-.84,1.51-1.23-.17-1.13-.61-1.99-1.55-2.62-1.19,2.18-2.58-.07-1.62,3.77.61.03,1.12.05,1.64.08Zm-26.72-66.92c-.63-.41-.97-.91-1.19-1.64-.61.05-1.09-.17-1.57.23-.04.95-.79,1.83-.31,3.12,1.21.19,3.94.07,3.07-1.7Zm31.76,62.54c1.81-1.56,1.81-1.66.19-3.76-1,.68-2.29.77-2.67,2.07.61.99,1.58,1.3,2.48,1.69Zm15.34-70.6c-.14-.8-.29-1.58-.43-2.41-.8-.23-1.55-.2-2.39-.04q-.62,1.79-.27,2.88c1,.07,2.33.42,3.09-.43Zm-58.83,112.69c1.79-.7,3.31-2.98.91-3.99-.69.24-1.33.47-2.01.71.19.37.32.64.46.91-.23.29-.45.57-.68.86.48.55.9,1.03,1.32,1.51Zm12.78-7.33c.33.79.66,1.59,1.02,2.46,4.6.27,1.92-5.91-1.02-2.46Zm57.44-72.36c3.15-.42,4.69-1.1,1.19-3.35-.66.53-1.25,1.01-1.88,1.5.02.69-.25,1.45.68,1.85Zm-44.39,65.28c-.4-.27-.75-.5-1.09-.73q1.07-1.35.21-2.73c-.94-.12-1.89-.21-2.64.59v1.47c1.14.5,2.26,2.43,3.53,1.39Zm-35.56,19.9c-1.38.49-.46,1.8-.16,2.8q1.91.19,3.27-.69c-.29-1.77-1.7-1.93-3.11-2.11Zm57.28-88.94c1.02-.61,1.15-1.59,1.54-2.29-.26-.73-.8-1.01-1.34-1.74-.57.1-1.07.18-1.44.25-1.52,1.53.08,2.83,1.24,3.78Zm-31.98,9.79c-.69.16-1.36.31-2.23.51.12,1.04.23,1.89.32,2.72,2.21.69,4.43-2,1.91-3.23Zm57.92-58.5c.38.59.84.95,1.32,1.14-.05-.87-.11-1.72-.17-2.54-.47.32-.88.83-1.15,1.39Zm-15.19,44.84c-4.99-.6-1.55,7.44.57,1.51-.17-.45-.35-.92-.57-1.51Zm-10.99-9.38c-.52.64-1.79,1.06-1.26,1.94.13.13.31.35.27.47-.32,1.04.44,1.15,1.19,1.35.52-.39,1.08-.8,1.64-1.22-.12-.68-.23-1.29-.35-1.98-.41-.16-.88-.34-1.49-.57Zm-40.14,62.61c-.24-.82-.37-1.48-.42-2.31-1.48-.74-2.94-.19-3.65,1.35.26.38.55.78.76,1.08,1.38-.42,2,.33,3.31-.13Zm55.88-64.25c-.08-.69.18-1.32.54-1.86-.66-1.38-2.35-1.43-3.34-.45-.49,2.61.58,2.61,2.8,2.31Zm-8.13-33.18c1.05.68,2.48,1.33,3.42.52-.2-.35-.36-.62-.56-.96.29-.22.59-.44.88-.66-.2-1.84-3.88-2.27-2.53.02-.49.28-.86.64-1.22,1.08Zm-20.26,23.81c1.95-2.05-.64-3.72-2.57-2.3-.49,2.53.4,2.78,2.57,2.3Zm-47.25,34.42l.03,2.64c.81-.54,1.18-1.61-.03-2.64Zm14.64,14.75c-1.12-1.73-3.13-.07-3.38,1.56,2.09,1.46,3.67,1.49,3.38-1.56Zm14.11-49.65c.28-1.01-.04-1.67-.61-2.18l-2.51,1.61c.09.2.19.41.32.66q1.55.24,2.8-.09Zm-23.42,69.06c-.19-.54-.36-1.01-.54-1.52-.63-.15-1.11-.53-1.79-.48-2.68,2.4.36,4.91,2.33,2Zm82.18-45.37c.03-.85.05-1.71.08-2.56-.72.43-.83,1.67-.08,2.56Zm-44.8,37.21c.22-.84.69-1.35.52-2.21-1.42-1.52-4.43.72-3.04,2.42.76-.06,1.63-.14,2.51-.21Zm-6.91-41.67c2.31-1.06,3.36.17,2.11-2.83-2.02-1.09-3.77,1.58-2.11,2.83Zm-33.04,14.14c.21-.28.43-.56.67-.88,3.72,1.68,2.14-3.97-.72-2.5.09,1.15-.54,2.51.04,3.37Zm44.44,32.39c.68-.21.74-.78.54-1.4.48-2.08-2-1.71-3.28-.93.28,1.52.91,2.77,2.74,2.33Zm13.62-70c.84-.18,1.22-.64,1.22-1.5-.79-.77-1.68-1.15-2.78-.82-.33.45-.63.87-1.09,1.51.67,1.19,1.53,1.97,2.64.81Zm-11.23,44.28c.23,1.71.37,2.06,1.16,2.86,2.13-.24,2.82-2.51.75-3.43-.68.2-1.23.37-1.91.57Zm22.79-59.41c.26.48.57,1.03.81,1.48,2.18.08,2.21-1.3,2.64-2.93-.46-.22-.8-.38-1.11-.53-1.01.43-2.06.69-2.35,1.99Zm-42.1,97.87c.08,1.59,2.44,1.7,3.24.52q.04-1.96-1.26-2.41c-.63.61-1.23,1.18-1.97,1.89Zm28-.29q.53,1.44,2.08,2.35c.63-.68,1.71-1.09,1.29-2.41-1.18-.96-2.52-1.6-3.37.05Zm12.79-45.52c.57-2.59-3.95-4.11-2.91-.8.33.17.65.33.95.49-.08.41-.14.71-.2,1.05,1.1.53,1.45-.6,2.16-.74Zm-61.24,4.92v-1.78c-1.34-1.67-2.51-.69-3.27.87,1.11,1.4,1.31,1.45,3.27.91Zm36.05-27.77c1.3.43,1.85-.6,2.11-1.66-.33-1.08-2.22-1.54-3.3-1.07-.6,1.43.93,1.83,1.19,2.73Zm.14,74.92c1.85,0,2.6-3.17.01-3.03-2.09-.35-1.59,2.91-.01,3.03Zm11.76-104.17c-.29-.38-.65-.8-1.04-1.13l-2.09,1.34c.46,1.77,1.73,2.23,3.13-.21Zm-8.01,78.11c-.66,1.39-.67,2.4,1.04,2.82,1.64-.43.47-1.75,1.28-2.62.99-1.74-1.72-1.09-2.33-.21Zm14.7-80.05c-1.79.84-.83,2.14-.81,3.66.68-.14,1.28-.26,1.83-.36q.85-2.39-1.02-3.29Zm.9,49.85c.81-.83,1.45-1.67.86-2.82-2.75-1.26-4.43,3.63-.86,2.82Zm-11.78,54.73c.72.45,1.36.84,1.97,1.22.94-.6,1.37-1.33,1.48-2.47-1.01-.3-1.79-.81-2.83-.71-.28.65-.44,1.26-.62,1.96Zm-48.33,13.21q-1.13-.87-2.54-.71c-.27.36-.54.71-.86,1.11.75,1.85,4.03,2.44,3.4-.4Zm28.42-92.76c-.56-1.66-2.79-1.13-3.64.08.71,1.82,3.99,2.32,3.64-.08Zm34.93,1.53c1.02-.28,1.93-.53,2.82-.78q-.12-1.26-1.04-2.1c-.7.48-1.69.08-2.48.6.23.76.44,1.42.71,2.28Zm-2.37,69.59c-.23-1.06-.11-1.53.23-2.61-3.87-.22-3.91,4.98-.23,2.61Zm-60.63-61.05c.2-.46,0-.87-.38-1.18l-2.49,1.6c.78.68,2.22.6,2.87-.42Zm23.5,12.75c-1.03-1.44-2.66-.15-3.4.92,1.39,2.06,3.79,1.1,3.4-.92Zm6.91,38.23c.29,1.35.86,1.15,1.56.31.82-.71.83-.71.12-1.91h-2.22c-1.05,1.08-1.24,2.12.54,1.6Zm15.23,5.7c-.06.02-.12.05-.17.07.07.02.13.03.17-.07Z"/>
    </g>
  </g>
  <g>
    <path class="cls-1" d="m172.94,89.76c-2.29,3.2-54.32,39.94-57.09,42.21-.25.21-1.23.3-2.81.26-15.68-.16-90.3-10.7-92.4-14.84-2.29-4.55-3.68-84.74-3.68-84.74L74.51,0s65.38,5.42,89.68,7.46c4.75.41,7.93.67,8.74.74,5.06.46,2.31,78.36,0,81.55Z"/>
    <g class="cls-4">
      <path class="cls-2" d="m140.56,83.18c-.46.51-.92,1.02-1.44,1.6-.75-.48-2.01-.54-2.08-1.6h-.39c.86-.98,1.12-1.23,1.51-2.48,1.9.05,2.58.43,2.41,2.48Zm-12.92,0c.02.71.1,1.4.68,1.91,2.33.37,2.89-.22,2.84-1.91,0-1.36-1.62-1.41-2.58-2.06-.66.63-1.41,1.07-1.34,2.06h.39Zm46.78-.37c-.07.12-.16.22-.19.37.04.13.07.26.1.4.03-.24.06-.5.09-.76Zm-28.77.37h.39c.39.87,1.26,1.09,1.74,2.01.78-.69,1.92-.85,2.17-2.01h-.39c-.11-.95-.86-1.33-1.56-1.84-.61.2-1.2.4-1.81.6-.19.43-.36.83-.54,1.24Zm13.14-1.51c-.78-.06-1.4-.1-2.13-.15-.4.54-.81,1.1-1.23,1.66h.39c-.09.36-.19.72-.32,1.2,1.78.94,3.77,1.44,3.84-1.2-.19-.52-.39-1.05-.56-1.51Zm-24.01-42.83c-.71.67-1.36.64-2.3.4-.3.8-.57,1.51-.83,2.2.5,1.75,2.86,1.18,3.88,2.58.08.09.43-.06.73-.11-.22-.59-.4-1.07-.57-1.5.99-1.43.89-1.72-.91-3.57Zm8.78,4.42c.52-.27,1.03-.53,1.6-.82.35-1.75.1-3.07-1.7-3.78-2.86.94-2.89,3.82.11,4.6Zm12.15-17.55c-.85,3.69,2.23,4.9,4.03,1.41-.28-2.2-2.52-3.12-4.03-1.41Zm-23.13,26.42c.37.13.79.27,1.23.42.73-.33,1.38-.7,2.01-1.16.09-.71.09-1.14.08-1.88-2.16-2.63-5.33.07-3.31,2.62Zm40.96,7.01c-.38-.87-.84-2.2-2.06-1.74-1.78.77-2.38,4.04-.03,4.52,1.19-.38,3.02-1.38,2.1-2.78Zm-34.1-6.51c-1.47.07-2.05,1.29-3.06,2.2.17,2.69,4.15,2.6,4.58.15-.53-.83-1.01-1.57-1.51-2.36Zm10.87-16.31c-.7-.75-1.43-1.53-2.15-2.29-5.43,1.31.57,7.32,2.15,2.29Zm.7-5.34c-1.1,2.55,3.64,4.48,3.67.76.04-2.58-2.47-2.88-3.67-.76Zm-24.61,20.58v-2.4c-.77-.39-1.51-.75-2.19-1.09-3.68,1.93-.12,5.85,2.19,3.49Zm28.05-9.49v-2.64c-.83-.49-1.63-1.02-2.75-.51-2.12,2.62.04,5.32,2.75,3.15Zm12.28-3.41c3.4-.35,2.55-3.47-.1-4.18-1.12-.25-1.2,1.48-1.94,2.03.04,1.31,1.27,1.47,2.04,2.16Zm-6.04-17.59c-.37,1.52-.31,3.31,1.51,3.63,4.04-.87,1.76-5.52-1.51-3.63Zm9.01,31.17c5.01,1.29,4.64-5.06,1.18-3.6-1.39.99-1.7,1.93-1.18,3.6Zm-19.38-5.56c-.27-.78-.41-1.58-.48-2.36-.97-.3-1.78-.85-2.72-.42.15.15.3.31.45.46-.65.33-1.3.66-1.94.99.62,1.92,3.36,2.87,4.7,1.33Zm-33.24,3.68c.14-1.75-1.44-2.5-2.63-2.07l.04,3.57c1.23.57,2.85.29,2.59-1.5Zm13.1,6.42c.53-.76.45-1.84,1.29-2.47-.41-2.26-4.11-1.92-4.18.58.88,1.84,1.12,2,2.89,1.89Zm44.19-10.21c.52.43,1.08.67,1.63.75.01-1.27.02-2.54.03-3.8-1.83.91-1.84.95-1.66,3.05Zm-43.79-8.41c.88-1.6.86-1.87-.2-3.65-.28-.02-.52-.03-.75-.03l-2.59,1.6c-.04.1-.08.18-.13.29,1.11.81,2.09,2.48,3.66,1.78Zm7.71.14c1.61.42,2.95-.89,2.54-2.52-2.38-3.11-6.1-.21-2.54,2.52Zm-2.55-7.6l-3.43,2.12c.15.24.33.48.61.69,2.26.83,3.94-1.26,2.82-2.81Zm18.9,29.84c-.51-1.12-.09-2.6-1.64-3.08-.86.29-1.54.86-2.15,1.38-.62,2.35,1.94,4.3,3.8,1.71Zm-36.22-13.51c1.64.88,2.66-.06,3.84-.93-.34-3.54-5.69-2.79-3.84.93Zm6.6-8.21q-1.75.5-2.87,1.95c.28,4.65,6.95.03,2.87-1.95Zm20.15-7.56c-1.49-2.44-3.22-1.8-3.73.81.47,3.08,4.67,1.79,3.73-.81Zm26.23-6.92c1.77.23,1.55-1.12,2.03-2.35.38-1.5-1.66-1.51-2.68-1.44-1.95.39-1.14,4.01.65,3.78Zm-44.01,22.26c1.25,1.67,4.51,1.12,3.71-1.29-.98-2.71-4.55-1.44-3.71,1.29Zm37.87-18.63c.44.52.85,1,1.34,1.58.94-.52,1.55-.86,2.02-1.12,1.15-3.77-4.43-4.73-3.35-.46Zm4.47-13.92c.73.68,1.67.61,2.47.85.44-.33.8-.6,1.21-.9.99-4.05-4.14-3.89-3.68.05Zm-12.76,47.95c-1.82,1.33-1.85,5.05,1.35,4.11,2.69-2.37.82-2.71-1.35-4.11Zm14.43,4.66c-2.55,1.35-2.39,4.68.73,4.12,2.35-.71.92-3.2-.73-4.12Zm-12.1-29.2v-2.38c-4.59-3.09-4.29,6.79,0,2.38Zm-17.87,21.79c.32.76.6,1.41.89,2.09q1.09.27,2.39.05c2.16-2.52-1.79-5.33-3.28-2.14Zm-4.66-12.67c.77,1.61,3.91,1.18,3.41-1.01.01,0,.02,0,.03,0,.27-3.3-4.49-1.68-3.44,1.01Zm30.61,10.54c.46-.61.92-1.22,1.44-1.91-.64-.67-.96-1.37-1.1-2.3-.81.09-1.51.17-2.13.24-1.68,1.57-.04,3.66,1.79,3.97Zm8.16,8.69c.05-1.23.1-2.49.14-3.77-1.9.86-1.41,3.01-.14,3.77Zm-25.74-12.24c-1.74-.8-3.34-.2-4.06,1.58,1.01,1.87,3.72,1.91,4.52-.34-.17-.47-.3-.82-.46-1.24Zm5.96,1.72c.65.31.21.92.56,1.6,2.56.79,3.88-2.34,1.93-3.75-1.16-.54-3.45.97-2.49,2.15Zm-36.62,20.23c.73-.46,1.33-1.05,2.29-.88,2.5-1.08-2.24-5.1-3.67-1.15.66.48.2,1.57,1.38,2.04Zm45.79-29.76c1.3,2.33,1.53,2.23,4,.79.13-2.59-3.8-4.12-4-.79Zm6.92-16.27c-.55.27-1.17.59-1.73.86-.19.78-.36,1.45-.54,2.2,2.39,3,5.91-1.54,2.28-3.06Zm-9.55.1c-1.53.65-3.51,3.72-.93,4.05,2.78.11,3.46-3.17.93-4.05Zm8.98,13.68c3.2-1.18,2.39-4.65-.93-4.44-.3-.05-.69.42-.5.63.76.84.44,1.79.34,2.79.35.33.71.66,1.09,1.02Zm-18.95,36.94c2.18,0,3.19-2.71,1.27-3.78-2.79-.41-3.53,2.16-1.27,3.78Zm-.45-56.24c.99-.32,2.18.27,3.08-.85-.15-1.56-1.74-2.67-2.9-2.5l-.9.56c-.21.32-.34.77-.32,1.39.38.51.69.92,1.04,1.4Zm22.67,32.37c.44.11.87.21,1.29.31.03-1.15.06-2.31.08-3.48-1.05.08-1.35,2.23-1.37,3.17Zm-12.46-41.18c1.15-.45,1.81-1.16,1.89-1.92l-2.47,1.53c.18.13.36.27.58.39Zm1.6,36.37c-.17-.47-.36-.99-.54-1.49.26-.45.76-.81.32-1.49-.46-.13-1-.28-1.49-.42-.95.71-1.62,1.46-1.8,2.52,1.24,1.92,1.72,1.97,3.51.89Zm-24.47-22.28c.81-.23,1.2-.82,1.29-1.49l-1.85,1.14c.18.12.37.24.56.34Zm-2.62,34.79c.27.57.54,1.12.79,1.64.73.16,1.35.29,1.91.41,3.23-2.53-.37-5.38-2.69-2.04Zm24.07-5.3c-.14.49-.28,1.03-.45,1.65.69.38,1.31.71,2.01,1.1,3.79-.37.96-5.68-1.56-2.74Zm5.05,3.98c.01.31.03.68.05.94-.33.39-.61.72-.85,1.01.48,1.16,1.5,1.21,2.38,1.51.94-.4,1.18-1.33,1.76-2.02-.63-1.34-1.91-2.48-3.33-1.43Zm-6.88-43.02c.64-1.59.58-2.77.11-3.36l-3.23,2c.53,1.08,1.78,1.1,3.12,1.36Zm-14.55,60.1c1.23-1.32,1.48-3.18-.78-3.26-3.92-.32-1.32,4.96.78,3.26Zm9.68-11.34c-.82-5.14-5.75,2.18-.77,2.37,1.29-1.06,1.28-1.06.77-2.37Zm-11.46-19.63c-2.18.16-.27,2.21-.18,3.29,1.38-.03,2.09-.38,3.24-1.6-.3-1.4-1.85-1.52-3.06-1.7Zm-27.29,27.15c-.14.17-.29.33-.45.48l.04,3.5c.19.16.38.31.58.48,2.82-1.01,1.12-2.79-.17-4.45Zm11.4-7.71c-.56-.14-1.46.11-1.67-.58-.77-1.71-2.28.16-2.29,1.36.81,2.14,5.21,1.76,3.96-.78Zm48.8-49.03c-.07-.96-.15-1.87-.23-2.72-.26.14-.51.34-.74.6-.5.89.11,1.69.97,2.12Zm-50.7,42.29c.76-.63,1.47-1.27,2.13-2.12-.66-.62-1.26-1.18-1.95-1.84-2.79.87-2.86,2.97-.17,3.96Zm37.37-22.74c-.94.46-1.23,1.33-1.71,2.02.74,2.97,3.43,2.45,3.7-.39-.71-.58-1.34-1.1-1.98-1.63Zm-14.03-9.81c.93-.39,1.71-.8,2.09-1.65-.75-.73-1.76-1.06-2.02-2.27-2.77.58-2.32,3.03-.07,3.92Zm26.28-20.71s0,0-.01.01c.07,0,.08,0,.01-.01Zm1.7,29.78c0-1.08-.02-2.16-.03-3.22-.39,0-.77.05-1.13.16-1.03,1.55.03,2.82,1.16,3.06Zm-2.68,39.36c-1.7-1.47-2.94.36-3.86,1.77,1.93,1.6,4.56,1.06,3.86-1.77Zm-36.71-4.61c1.41,2.33,3.61,4.32,3.91.24-.31-1.5-3.12-1.18-3.91-.24Zm32.03-53.8c-.36-1-.71-1.99-1.12-3.14-4.53.15-1.03,5.9,1.12,3.14Zm-53.67,38.94c-.17.03-.31.07-.45.12l.03,3.09c.26.12.51.24.78.34.54-.37,1.06-.73,1.7-1.16-.28-1.35-1.32-1.79-2.07-2.39Zm40.66-11.53c.52-.05,1.02-.09,1.6-.14.08.36.16.72.27,1.21,1.61.02,1.91-.45,1.67-2.49-.54-.36-1.12-.75-1.71-1.14-.5.19-.98.36-1.68.62.92.75-.42,1.14-.14,1.95Zm19.97-20.75c-1.55.76-1.77,2.89.09,3.25.05-.02.1-.04.15-.06-.03-1.08-.07-2.13-.11-3.16-.05,0-.08-.03-.13-.04Zm-46.65,46.08c-.41-.6-.7-.52-1.64.22.31,2.06.47,2.99,2.84,3.15,2.26-1.34-.28-2.21-1.2-3.38Zm26.24,1.82c.7.54,1.15,1.15,1.54,1.9q1.66-.38,1.71-.73c-.13-.25-.28-.52-.48-.9.33-.48.6-.88.91-1.34-1.66-1.27-2.96-.83-3.68,1.07Zm-26.51-10.64c-3.27,2.26,1.52,4.42,2.84,1.48-.59-1.42-1.87-1.22-2.84-1.48Zm20.25,12.59c1.08-1.06.89-3.94-1.1-3.38-3.27.64-1.04,3.1,1.1,3.38Zm-26.31,2.91c.53.98,1.65.48,2.27.97.67-.36,1.23-.65,2-1.06-.9-2.38-3.74-2.62-4.27.09Zm52.55-6.06c-.4.27-.82.65-1.25,1.16.39.38.73.79,1.11,1.14.05-.74.09-1.51.14-2.3Zm-20.83-23.05c-1.01.29-2.05.59-3.13.91v1.9c.71.18,1.32.33,2.08.53.68-1.26,2.66-1.92,1.06-3.34Zm6.86,30.79c3.01-.94,2.01-.59,2.13-3.27-3.11-.42-3.91.68-2.13,3.27Zm1.9-12.89c-1.7-.7-3.21.93-2.36,2.45,2.71.65,4.29.56,2.36-2.45Zm-30,3.25h1.22c.59-.63,1.14-1.22,1.69-1.8-.72-1.09-1.77-1.44-2.96-1.56-.95,1.18-.38,2.16.06,3.37Zm3.1,8.02c-.69-2.21-3.15-2.24-3.6.21,1.08,1.05,3.69,2.01,3.6-.21Zm29.08-3.69c.95.29,1.78.53,2.77.2-.13-.88.08-1.42.66-2.12-1.91-1.85-3.48-.23-3.43,1.93Zm-50.67-7.2l.03,2.9c.38.17.81.3,1.28.35,1.62-1.17-.23-2.14-.69-3.28-.23,0-.44,0-.62.03Zm27.39,2.2c1.74,1.47,2.47.47,3.49-.97-.77-2.05-4.57-1.03-3.49.97Zm6.01-3.94c.62-.41,1.19-.78,1.81-1.2-.53-.74-.75-1.27-.87-2.16-1.31.36-2.57.1-2.77,1.84.64.53,1.06,1.2,1.83,1.51Zm-12.71-3.97c.27-1.57.21-2.92-.88-4.08q-1.57.87-1.8,2c.72,1.02,1.46,1.61,2.68,2.08Zm-14.97-5.06c2.29-.5.04-4.97-1.24-3.25.15.26.31.52.47.77-.27.29-.52.56-.8.87.52.53.99,1.02,1.57,1.61Zm-1.38,8.19c.81-.96,1.87,0,2.64-.75-.17-1-.93-1.27-1.6-1.68-.99.27-2.86,2.14-1.04,2.43Zm33.46-16.28c-.3-.3-.44-.05-.69.17.38.32.45.11.69-.17Zm-31.09,34.47c-.13-.47-.25-.93-.37-1.39-.83-.54-1.68-.55-2.67-.21-.16.53-.32,1.07-.48,1.6h-.39c.48,2.31,4.16,2.58,4.7,0h-.78Zm46.98,0c-.1-.93-.82-1.31-1.54-1.81-.33.25-.6.46-.9.7.34.25.56.41.77.56-.12.22-.2.39-.29.55h-1.57c.55,1.7,3.92,2.59,3.52,0Zm-36.81,9.37c-.67-1.28-2.71-3.53-3.69-1.39.16,1.26-.02,1.56-.49,2.79,1.73,1.46,3.62.9,4.19-1.4Zm-14.8,3.46c-.65-.74-1.24-.97-1.76-.89l.04,3.79c1.65.29,3.24-.82,1.72-2.9Zm5.28,24.65c-.28-.64-.55-1.28-.82-1.88-1.84-1.09-2.84.81-3.75,2.11,1.94,2.26,2.87,2.17,4.57-.23Zm16.4-7.24c1.25-.34,1.83-1.2,2.16-2.33-.34-3.48-3.97-2.07-3.78.77.52.57.98,1.17,1.63,1.56Zm-21.9-26.87c-.68-.42-1.2-.54-1.64-.48l.04,3.55c1.63.22,2.93-.84,1.6-3.07Zm28.63,21.81c-.39-1.21.09-2.37-.65-3.46-1.11-.49-2.61-.39-3.04.91.89,2.67,1.02,2.77,3.7,2.55Zm19.33-19.98c-1.55-4.34-8.44.14-1.79,1.46.59-.48,1.13-.92,1.79-1.46Zm-31.03-2.3c-3.59,2.72,1.07,6.41,2.4,2.19q-.99-1.35-2.4-2.19Zm-11.6,15.86c-.88-2.4-3.49-2.73-3.93.12.88,2.34,3.07,2.23,3.93-.12Zm-6.11,12.08c-.21.01-.37.08-.55.12l.04,3.4c1.79-.11,3.71-1.65.51-3.52Zm20.76-12.07c.61.59,1.29,1.24,1.94,1.87.79-.22,1.45-.4,2.05-.57.28-1.11-.4-1.8-.87-2.83-1.29-.44-2.97-.32-3.12,1.52Zm-11.88-15.84c-.72.2-1.33.36-1.9.52-.32,2.23.05,2.41,2.07,2.81.62-.4,1.36-.87,2.09-1.34-.14-1.56-1.52-1.43-2.26-1.98Zm37.95,9.3c-1.57-.26-2.57,1.12-2.14,2.55.93-.73,1.83-1.43,2.69-2.11-.16-.16-.34-.32-.55-.44Zm10.75-7.97c-.03-.11-.04-.23-.09-.34-1.55-2.64-4.18-.44-2.97,2.11.19.2.39.34.6.44,1.2-1.01,2.05-1.76,2.47-2.21Zm-29.27,7.93c-2.38.84-2.66,1.36-1.65,3.43,2.85.78,4.49-2.05,1.65-3.43Zm14.09-.99c1.26-.85,1.8-3.24-.18-3.61-3.11.37-2.93,4.38.18,3.61Zm-36.41-2.35c-.96-.96-2.02-1.16-3.21-.81-1.34,2.15-.12,2.71,1.77,3.28,1.37.14,1.13-1.45,1.43-2.46Zm1.35,31.92v2.52c.98-.74,2.03-1.54,3.15-2.39-.42-.77-1.48-1.17-3.15-.13Zm.97-28.61c-.46.45-.95.93-1.44,1.41.37.7.68,1.3,1.07,2.02,3.32.84,3.75-3.25.37-3.43Zm28.24-9.22c-.91.24-2.08,1.03-1.13,1.98,1.39,2.95,2.41,1.84,3.91-.51-1.23-.19-1.69-1.5-2.78-1.47Zm-25.93,21.44c.6-1.56-.92-3.38-2.4-2.77-2.45,1.63.19,4.39,2.4,2.77Zm12.37-12.68c2.69-1.46,2.07-5.07-1.27-3.66-.07.61-.13,1.1-.19,1.6.85.39.25.95.16,1.52.45.19.91.38,1.3.54Zm9.01,5.11c-.71.35-1.17.86-1.66,1.55.61.7,1.12,1.29,1.69,1.94.59-.2,1.18-.39,1.68-.55,1.09-1.83.1-2.69-1.71-2.94Zm-5.61-13.05c-.89,2.73,2.65,3.42,3.44.82-.76-1.04-2.68-2.67-3.44-.82Zm10.16,12.19c1.15-1.01,2.55-.51,2.77-2.54-2.63-1.99-5.46-.09-2.77,2.54Zm-2.45-7.83c-1.04-.7-2.09-.22-3.22-.1-.11.65-.21,1.25-.31,1.79q1.12.89,3.14.59c.53-.67.7-1.43.38-2.28Zm-20.23,27.37c-.47.32-.99.68-1.51,1.04-.02.9-.14,2.01.43,2.63.73-.55,1.47-1.12,2.24-1.7.06-.84-.04-1.58-1.16-1.97Zm.6-18.17c-.67.07-1.23.13-1.84.19-.35.37-.85.76-1.01,1.28,1.74,1.89,2.25,1.97,4.26.02-.39-.71-.9-1.17-1.41-1.48Zm-10.39,12.23c.89-.37,1.98-.33,2.33-1.58-.39-.59-.86-1.15-1.66-1.49-2.57.63-3.57,1.74-.67,3.07Zm6.62,2.6c-.36-.38-.75-.78-1.1-1.15-1,.14-1.94.08-2.66.86-.35,1.12.49,1.67,1.15,2.39.88-.76,2.12-.86,2.61-2.1Zm29.58-13.95c.46-.36.93-.72,1.39-1.07-.65,0-1.15.48-1.39,1.07Zm9.3-8.79c.04.31.2.79.43,1.2.82-.65,1.57-1.25,2.28-1.83-.84-.97-2.12-1.09-2.71.63Zm-49.49,30.41c-.19.08-.35.15-.53.22l.03,2.91c.47-.04.94-.26,1.3-.79-.19-.93-.22-1.62-.8-2.35Zm16.81-17.63c-.06.48-.1.86-.17,1.45,1.03.31,1.94,1.35,2.94,1.04,0-.44-.34-.89-.05-1.41.55-1.71-1.75-2.15-2.73-1.08Zm1.93,12.06c.79-.75,1.21-1.1,1.26-2.14-.75-.17-1.36-.31-2.01-.45-2.48,1.08-1.73,2.82.74,2.59Zm-18.78-12.56c-.25.31-.47.55-.69.75l.03,2.44c2.1-.27,2.72-2.04.66-3.19Zm18.35-9.11c-4.63.56-.15,4.51,1.37,1.41-.47-.48-.91-.93-1.37-1.41Zm-15.26,33.88c.5-.38,1.05-.8,1.65-1.25-1-.39-1.91.5-1.65,1.25Zm9.28-17.06c.88-.67,1.85-.23,2.48-1.19-1.04-1.67-3.2-.73-2.48,1.19Z"/>
    </g>
    <path class="cls-2" d="m113.99,44.6c.11,9.84.21,19.68.31,29.52.17,15.68.33,31.37.5,47.05.04,3.6.08,7.2.12,10.8.01,1.19,1.88,1.19,1.86,0-.11-9.84-.21-19.68-.31-29.52-.17-15.68-.33-31.37-.5-47.05-.04-3.6-.08-7.2-.12-10.8-.01-1.19-1.88-1.19-1.86,0h0Z"/>
    <path class="cls-2" d="m115.07,45.53c17.8-13.95,38.3-23.93,56.94-36.66.98-.67.05-2.27-.94-1.59-18.77,12.82-39.39,22.9-57.31,36.95-.94.74.39,2.04,1.32,1.31h0Z"/>
    <path class="cls-2" d="m114.66,43.99c-24.72-3.31-49.54-5.88-74.3-8.85-7.31-.88-14.62-1.79-21.93-2.77-.58-.08-1.18.23-1.18.89.06,7.85.15,15.71.25,23.56.19,14,.41,28.01.89,42.01.17,4.94.32,9.89.75,14.82.19,2.23,0,4.39,2.38,5.29,4.24,1.59,9.02,2.16,13.45,2.93,7.83,1.36,15.7,2.52,23.56,3.65,17.38,2.48,34.79,4.71,52.23,6.78,1.7.2,3.39.4,5.09.6,1.19.14,1.18-1.71,0-1.85-16.64-1.93-33.26-4.04-49.85-6.33-8.27-1.14-16.53-2.33-24.77-3.66-5.58-.9-11.21-1.76-16.69-3.15-.73-.18-1.46-.38-2.18-.62-.33-.12-.94-.4-.94-.39-.07-.06.08.3.04.05-.03-.16-.09-.33-.12-.49-.1-.53-.16-.99-.21-1.53-.47-4.35-.6-8.75-.77-13.12-.52-13.64-.74-27.29-.94-40.94-.09-5.94-.16-11.87-.22-17.81-.02-2.02-.04-4.03-.06-6.05,0-1.03.18-2.29-.03-3.31-.03-.13,0-.29,0-.43-.39.3-.79.59-1.18.89,24.72,3.31,49.54,5.88,74.3,8.85,7.31.88,14.62,1.79,21.93,2.77,1.17.16,1.68-1.62.5-1.78h0Z"/>
    <path class="cls-2" d="m153.78,45.16c-4.57,2.9-9.18,5.83-13.13,9.55-2.9,2.74-7.09,7.77-3.19,11.53,1.72,1.66,4.04,1.22,5.95.15,2.44-1.37,4.79-2.98,7.1-4.55,2.28-1.56,4.51-3.21,6.58-5.03,1.81-1.59,3.61-3.35,4.54-5.61.91-2.23,1.14-5-.93-6.69-2.08-1.69-4.88-.47-6.91.64-1.05.57-.11,2.17.94,1.59,1.58-.87,4.23-2.2,5.42-.06.9,1.62-.11,3.9-1.03,5.29-1.13,1.69-2.77,3.07-4.33,4.37-1.66,1.39-3.42,2.67-5.21,3.89-1.8,1.23-3.64,2.4-5.49,3.56-1.54.97-3.94,2.77-5.51.91-2.85-3.37,2.2-7.67,4.49-9.69,3.58-3.16,7.64-5.72,11.67-8.27,1.01-.64.07-2.24-.94-1.59h0Z"/>
    <path class="cls-2" d="m58.75,56.41s-.16-15.71.27-16.72c1.57-3.7,53.01-36.57,53.01-36.57l15.68,1.3-53.53,37.56.5,17.11-15.93-2.69Z"/>
    <path class="cls-3" d="m86.39,107.18s-.55,16.05,1.11,17.3c1.67,1.24,18.02,2.47,18.02,2.47,0,0,.06-16.58-.94-17.46-.99-.88-18.2-2.31-18.2-2.31Z"/>
  </g>
  <g>
    <path class="cls-1" d="m316.46,204.35c-2.29,3.2-54.32,39.94-57.09,42.21-.25.21-1.23.3-2.81.26-15.68-.16-90.3-10.7-92.4-14.84-2.29-4.55-3.68-84.74-3.68-84.74l57.55-32.65s65.38,5.42,89.68,7.46c4.75.41,7.93.67,8.74.74,5.06.46,2.31,78.36,0,81.55Z"/>
    <g class="cls-4">
      <path class="cls-2" d="m305.66,175.62c2.45-2.06,2.34-1.78,4.39.26.56,1.94-1.25,2.2-2.68,2.74-1.3-.53-1.67-1.61-1.71-3Zm-35.7,58.75c2.88-.51,2.94-3.97-.1-4.05-2.78-.29-2.32,4.07.1,4.05Zm-11.88-63.05l.02,1.45c.27-.47.22-.98-.02-1.45Zm15.6-7.19c2.31.69,4.2-.26,3.34-2.87-1.05-.84-2.55-1.94-2.68.21-2.54.21-1.86.9-.66,2.66Zm12.92-1.61c-.83-3.01-3.58-3.11-4.71-.25,1.3,2.08,3.68,2.92,4.71.25Zm-8.39,11.95c-2.02,2.06,1.72,4.62,3.6,2.79.57-2.05-1.94-4.12-3.6-2.79Zm13.1,41.13c-.28-2.75-1.62-5.78-4.38-2.83-1.06,1.84,2.68,2.93,4.38,2.83Zm25.97-36.98c.46-.31.97-.65,1.51-1.01.02-.47.04-.95.05-1.43-1.19-4.34-7.32.63-1.56,2.44Zm-7.67-10.3c.14-.64.28-1.25.42-1.9-.5-.46-.97-.89-1.47-1.34-4.94.52-2.51,6.25,1.04,3.24Zm-23.85,1.74c-.79-1.42-2.28.13-3.38.47-.61,2.8,2.42,4.15,4.07,1.79.46-.85-.42-1.51-.69-2.27Zm-6.37-19.4c.85-.36,1.96-.31,2.39-1.58-.83-5.59-7.07-.35-2.39,1.58Zm8.8-4.15c-.56.75-1.13,1.26-1.41,2.15,2.41,5.45,7.15-1.56,1.41-2.15Zm-22.56,60.14c-1.12.78-1.98,1.65-2.49,2.89.74.56,1.39,1.06,2.12,1.61,2.76-.84,3.28-3.58.37-4.5Zm3.31,8.75c2.35,1.83,5.03-3.34,1.13-3.92-2.36.59-2.13,2.45-1.13,3.92Zm-10.98-53.87l.02,1.71c.15-.23.29-.5.38-.81-.08-.31-.22-.62-.4-.9Zm39.84-5.94c-.75.71-.9,1.85-1.46,2.84,1.41,2.41,3.26.58,4.34-.66-.18-2.01-1.63-1.98-2.88-2.17Zm-27.28,9.58c-3.53.83-2.53,3.43.12,4.18,2.57-.92,2.1-3.23-.12-4.18Zm39.18-35.31c-.74-.55-.54-1.97-1.92-2.2l-1.95,1.21c-.13.39-.24.74-.34,1.06.45,2.39,4.21,2.58,4.21-.06Zm-12.02,7.74c-1.55.23-1.29,1.25-1.2,2.46q1.67.99,2.87.84c.44-.62.88-1.24,1.38-1.94-.44-1.56-1.45-2.24-3.05-1.36Zm-36.59,73.72c-3.42.86-2.41,5.98,1.16,4.03-.1-.92.03-1.71.5-2.45-.65-.62-1.19-1.13-1.66-1.59Zm40.47-56.85c2.07,1.56,4.38-.25,3.39-2.62-.96-.94-3.67-1.09-3.26.63-.17.58-1.05,1.51-.13,1.99Zm-25.53,46.58c1.37-.92.46-2-.12-3.16-1.06-1.46-3.22.32-3,1.8-.26,1.65,2.13,2.47,3.12,1.36Zm7.61-8.54c4.03.83,1.95-7.56-1.28-2.96-.25,1.28.13,2.37,1.28,2.96Zm16-8.27c-3.69-.77-4.97,2.15-1.37,3.69,1.81-.19,2.67-2.38,1.37-3.69Zm-8.95-15.69c.2-.52.38-.99.55-1.43-1.59-3.57-3.32-2.46-4.59.49,1.19,1.34,2.62,1.01,4.04.95Zm-21.15,56.05c.8,1.31,2.07-.31,2.59-1.1,1.18-1.34-.99-2.15-1.84-2.8-1.13.14-1.51,1.02-1.98,1.75-.3.94.95,1.32,1.22,2.15Zm7.13-69.79c.17-.63.34-1.29.53-2.02-2.32-2.36-5.01-1.4-4.11,1.91,1.32-.33,2.35.62,3.59.11Zm16.6,51.82c-.56.68-1.05,1.26-1.62,1.96.11,1.83,1.85,2.9,3.47,2.11,1.2-1.29-.35-3.74-1.85-4.07Zm18.79-51.66c4.62,1.07,1.67-7.13-1.91-2.53,1.02.86.86,2.05,1.91,2.53Zm-26.69-9.5c.27-.54.53-1.05.78-1.57-.18-.5-.34-.98-.56-1.6-.36-.18-.68-.27-.98-.33l-2.16,1.34c-.39,1.48.61,3.45,2.92,2.16Zm-20.46,9.55c1.73-.17,2.18-1.03,1.99-2.08l-2.77,1.72c.22.14.47.27.78.37Zm43.11.91c-.68.26-1.4.53-2.06.78-1.28,2.51,2.02,3.75,3.59,2.41q.23-2.47-1.53-3.19Zm-4.06-10.04c.71-1.85.92-4.41-1.8-4.33-.88.99-1.15,1.6-1.47,2.98,1.13.49,1.87,1.51,3.27,1.35Zm8.19,33.03c-.54.44-1.12.91-1.75,1.42.49,1.12.77,2.26,1.91,2.96,1.15-.23,1.94-.86,2.33-2.1-.72-.83-1.02-2.08-2.49-2.28Zm-53.11,8.15c2.76,1.81,5.38-2.25,1.98-3.49-2.1.55-2.52,1.31-1.98,3.49Zm16.89,41.92c.41-.5.81-.97,1.23-1.47-.7-.88-1.01-2.03-2.42-2.16-.53.35-1.11.73-1.74,1.15-.43,2.9.69,2.77,2.93,2.49Zm4.07-26.99c-3.48,1.27-2.75,5.14.99,4.06.95-1.01.3-3.12-.99-4.06Zm1.73-34.28c-.59-.92-.64-2.26-2.3-2.48-2.36,1-2.6,3.47.13,4.08.94-.26,1.63-.79,2.16-1.6Zm33.05-41.72c0-1.03-.41-1.74-.98-2.09l-3.04,1.88c.38,2.18,2.8,1.79,4.02.21Zm-37.18,67.72c.05,1.57.5,2.79,1.81,3.51,1.38-.55,1.83-.96,2.37-2.31-1.12-1.59-2.21-2.19-4.18-1.19Zm30.36,3.54c.66-.7,1.66-1.25,2-2.64-.75-.47-1.12-1.31-2.02-1.57-2.68.43-2.86,3.83.02,4.21Zm-44.37,29.76c-.51,3.21,2.83,3.35,4.12.78-.93-2.8-2.2-2.19-4.12-.78Zm23.94-70.97c-.15.42-.32.89-.52,1.45,2.79,6.12,7.32-2.53.52-1.45Zm14.01-23.3c-.22,2.16-.8,3.8,2.09,3.26,3.47-1.02.58-4.59-2.09-3.26Zm-18.19,50.13c2.37-.09,3.6-1.55,2.19-3.78-2.37-1.38-4.29,2.42-2.19,3.78Zm7.47-6.44c-.35-.82-.28-1.93-1.46-2.26-2.82.3-2.98,3.75-.32,4.45.88-.46,1.45-1.2,1.78-2.18Zm23.38-40.89c.52-1.63-.04-2.68-1.43-3.35-2.31.53-1.75,1.66-2.07,3.55,1.27.53,2.4.24,3.5-.2Zm2.94,61.77c.17-.09.31-.17.46-.25.11-1.14.21-2.39.31-3.74-3.02-.48-3.56,1.94-.77,3.99Zm-55.83-.43c1.96-1.14,1.55-2.92-.22-3.99-.96-.8-1.58.52-2,1.27-1,1.69.78,2.45,2.22,2.72Zm8.66-9.36c.66.16,1.09-.03,1.31-.76.15-.99,1.07-1.39,1.35-2.26q-1.21-.16-2.53-1.19c-1.84,1.1-3.06,3.71-.12,4.2Zm17.06,16.81c.1,2.57,2.93,1.81,4.26.37-.97-2.28-3.64-3.58-4.26-.37Zm-22.67,34.28c.85-.11,1.67-.21,2.4-.3.86-.97.63-2.01.57-3.11-1.87-1.05-5.68,1.89-2.96,3.41Zm7.05-60.88c2.91-5.13-6.31-3.43-2.27.53.76-.18,1.44-.34,2.27-.53Zm42.33-16.8h-2.54c-2.49,2.46,2.5,5.05,3.52,1.79-.32-.58-.65-1.18-.97-1.79Zm2.16-4.77c-1.09.97-.85,3.68.79,3.57,4.05.53,1.92-4.96-.79-3.57Zm-4.76,35.5c.78.19,1.51.37,2.45.59,3.27-4.6-5.07-5.46-2.45-.59Zm3.09-21.31c-2.37-.73-3.68-.44-3.75,2.22.52.85,1.28,1.34,2.49,1.48.56-1.33,1.62-2.31,1.26-3.7Zm-11.17,40.95c.69-.52,1.27-.98,1.86-1.44.34-1.84-1.48-3.85-2.83-2.35-1.39,1.73-1.26,2.89.96,3.8Zm-.76-41.07c-1.95,1.94-1.13,2.83,1.1,3.74,2.74-.59,1.6-4.71-1.1-3.74Zm-36.77,50.31q.54-.93,1.76-1.4c-1.26-5.84-7.32-.62-1.76,1.4Zm16.4,7.18c.27.72.77,1.25,1.37,1.52.78-.57,1.57-1.13,2.36-1.7-.43-2.52-2.06-2.71-3.73.18Zm35.82-58.73c1.22-1.13,2.17-3.07-.06-3.9-.81.55-2.37.39-2.51,1.57-.31,2.08.97,1.73,2.57,2.33Zm-21.14,34.14c.1.94.18,1.75.26,2.55.59.31,1.1.57,1.73.9,3.11-1.91,1.41-5.15-1.99-3.45Zm3.27-54.87c-.08-2.63-3.93-2.13-3.35.66-.08,2.23,3.79,1.93,3.35-.66Zm10.67,60.6c.03.11.07.19.1.29,1-.76,1.89-1.46,2.66-2.07-1.81-.09-1.57.81-2.75,1.78Zm-15.94-57.6c-1.44-.25-2.42.09-2.85,1.42.87,4.2,5.71,1.96,2.85-1.42Zm.43-15.76l-1.38.85c.56-.05,1.05-.39,1.38-.85Zm-13.73,49.53c-.78-1.27-1.94-.84-3.03-.86-.33.46-.62.87-.89,1.25.11,3.17,4.11,2.68,3.92-.39Zm10.54-14.64c-.49,1.3.01,2.26.92,3.17,1.27.22,2.14-.34,2.77-1.37-.62-1.97-1.74-3.08-3.68-1.8Zm.37,21.33c.35.16.74.33,1.21.55.68-.92,1.91-1.13,2.42-2.14-1.67-2.65-5.39-2.19-3.64,1.59Zm-10.25,16.42c.5.93.94,1.77,1.39,2.61,1.35-.12,1.7-.25,2.81-1.05-.24-2.26-2.65-3.63-4.2-1.57Zm34.49-61.68c-2.46,2.64-.76,2.64,1.16,4.26.37-.2.65-.35.97-.52.07-.92.22-1.72.5-2.63-.91-.38-1.73-.73-2.62-1.11Zm-.86-5.99c.96.53,3.83,1.3,3.35-.69-.15-.45-.09-.76.1-1.06,0-.2-.02-.41-.02-.61-.24-.3-.47-.59-.73-.92-.75.27-2.04.31-2.21,1.2.14.83-1.74,1.36-.48,2.08Zm-25.15-2.13l-3.29,2.03c1.8,1.45,3.37.18,3.29-2.03Zm9.27,27.76c-1.02-.44-2.06-1.01-3.18.03-1.58,3.73,4.58,4.38,3.18-.03Zm-38.87,73.28c-.8.6-1.4,1.05-2.03,1.53v.28c1.69,4.64,6.74-.92,2.03-1.81Zm3.6-78.74c-1.78,1.94,1.18,5.17,2.8,2.83.78-1.65-1-3.59-2.8-2.83Zm21.65-8.46c-.74-1.19-1.73-1.14-2.93-.85-.28.71-.57,1.47-.84,2.16,2.05,2.84,3.36,1.39,3.77-1.31Zm-26.45,68.56c-.06,1.63-.86,3.29,1.08,4.49,1.01-.59,1.6-1.32,1.94-2.43-.43-.67-.92-1.41-1.44-2.22-.54.05-1.03.1-1.58.16Zm9.01-15.01c.67.66,1.42.51,2.04.41,4.8-3.43-2.53-5.92-2.04-.41Zm20.73,15.36c-3.05.44-2.88,3.69.02,3.73.45-.33.91-.66,1.36-.99.1-1.03-.58-2.49-1.38-2.74Zm-14.17-47.5c2.52-.42,1.16-4.35-1.33-4.04-1.4,1.12-.64,3.99,1.33,4.04Zm32.9-36.4c-6.05,1.4.99,7.24,1.01,1.48.38-.67-.58-1.07-1.01-1.48Zm-31.49,70.45c-.59-.3-1.21-.61-1.83-.92-.49.19-.96.37-1.46.56-.04.87-.08,1.69-.13,2.65,1.67,1.33,4.26-.14,3.42-2.29Zm39.8-3.29c.18-.25.37-.97.55-2.08-2.43.87-2.33,2.26-1.44,2.97.44-.39.76-.7.89-.88Zm-53.76-.63c-.87-2.23-5.14-.71-3.34,1.94,1.88,1.16,2.92-.18,3.34-1.94Zm25.53-16.27c3.98,1.21,2.48-5.34-.58-3.17-1.28,1.26-.09,2.11.58,3.17Zm-12.45-5.01c1.48-1.92,1.47-2.16-.22-3.32-.65.16-1.33.33-2.07.52-.26.47-.53.97-.85,1.56,1.31,1.32,1.45,1.38,3.14,1.24Zm-10.48,19.09c.75-.72,1.77-.9,2.1-1.95-.53-.64-.22-1.77-1.5-2.31-1.45,1.76-4.47,2.68-.6,4.26Zm6.59-8.01c-.85-.07-1.62-.14-2.55-.22-.4.43-.74.8-1.05,1.15.61,1.51.88,1.75,2.72,2.41.48-.62,1.12-1.09,1.44-1.84-.18-.46-.37-.98-.57-1.5Zm-8.08,40.1c-1.02-1.32-1.51-2.7-2.81-3.58-1.92.44-.43,1.37-1.7,1.86-1.21.68.47,2.27,1.42,1.72,1.17-.62,1.85.2,3.09,0Zm-5-65.71c.62.48,1.2.72,1.89,1.05.86-.78,1.56-1.4,2.32-2.09-.97-2.87-4.14-1.64-4.21,1.04Zm35.49-7.2c-.83.26-1.62.5-2.44.75-.14.26-.3.53-.51.91,1.19,3.48,6.8.92,2.94-1.66Zm20.61,24.51c0,1.81,1.52,2.21,3.03,2.36.16-.14.28-.29.39-.44.05-.8.09-1.61.13-2.44-.66-.32-1.25-.61-1.84-.9-.61.55-1.08.93-1.71,1.41Zm-34.01,45.21c-1.84-.49-2.24-.62-3.09,1.55.15.3.3.61.45.92.95-.68,1.92-1.38,2.9-2.09-.07-.12-.15-.25-.26-.38Zm23.08-47.99c1.44-1.77.22-4.39-2.11-3.06-2.05,1.38.21,3.76,2.11,3.06Zm-25.12,39.02c-.5.93-1.92,1.54-.95,2.7.77,1.3,3.67.67,3.08-.97.5-1.31-1.25-3.08-2.13-1.72Zm29.46-15.25c.55-.5,1.15-.87,1.36-1.53-.84-.95-1.59-1.8-2.44-2.75-2.28,1.46-1.6,4.11,1.07,4.28Zm-37.72-50.4c-.8.79-1.87.95-2.63,1.73.37.88.74,1.59,1.25,2.38,1.33-.54,2.91-.69,2.85-2.65-.83-.25-1.07-.65-1.47-1.46Zm37.14-9.56c-1.26.25-1.48,1.34-1.87,2.28,2.91,3.53,5.76-.93,1.87-2.28Zm-32.81,46.37c1.53-.83,1.76-1.97,1.34-3.34-.98-.69-.98-.68-1.99-.72-.99,1.39-1.73,3.69.65,4.06Zm-1.83,43.99c.53-.38,1.07-.77,1.62-1.16-.39.09-.79.2-1.19.22-.16.36-.3.66-.43.94Zm-1.68-86.45l-.76.47c.06.03.12.06.18.1.22-.21.41-.39.58-.57Zm44.8-18.87c1.37.35,1.98.05,2.35-.71-.08-.8-.16-1.55-.25-2.24-1.89-1.29-3.89.7-2.1,2.95Zm-27.17,65.29c1.45.91,1.52-.98,2.1-1.84q-.66-.98-2.38-1.57c-.49.45-1,.93-1.6,1.49q.54,1.32,1.88,1.93Zm9.71-18.28c1.15-.54,1.43-1.58,1.84-2.61-3.61-2.92-5.54.48-1.84,2.61Zm-39.35-19.12c2.58.73,4.08-1.07,2.37-3.05l-2.47,1.53c-.08.5-.06,1.03.1,1.52Zm13.84,57.87c-.27,2.41.61,3.13,3,2.69.19-.75.34-1.36.49-1.94-.55-1.27-2.47-1.44-3.49-.75Zm33.2-4.68c.34-.25.67-.5.99-.74-.5.02-.82.28-.99.74Zm-25.07-54.45c.03-2.87-2.62-2.52-3.78-.38.36,1.88,3.57,2.42,3.78.38Zm-22.03,17.53c-1.56,2.11.64,2.7,2.49,2.76.24-.65.46-1.22.63-1.67-.32-.7-.58-1.26-.91-1.97-.87.34-1.52.6-2.21.88Zm7.95,4.64c-1.8-1.74-2.36-.65-3.66.77,1.68,2.51,3.72,2.58,3.66-.77Zm28.89,33.47c.55.5.97,1.14,1.19,1.84,2.25.31,2.81-.8,2.42-2.66-1.69-.94-2.04-.86-3.6.82Zm-2.31-67.98v-.86c1.47.21,1.74.02,1.73-1.09.19-1.56-2.04-1.62-3.12-1.48-.11,1.05-.2,1.97-.31,3,.5.24.93.8,1.7.43Zm-.18,34.03c-2.73.27-2.23,2.99.18,3.28,2.33-.58,1.97-2.91-.18-3.28Zm-11.36,20.13c.77.96,1.48,1.98,2.95,2.15.54-1.23.56-2.25.21-3.49-1.76-.48-1.82-.45-3.15,1.34Zm-4.52,14.23c.85,1.54,3.5,2.48,3.91.1-.68-1.54-4.66-2.67-3.91-.1Zm25.33-53.7c-.66.93-1.25,1.89-1.69,2.93,2.2,1.09,2.86,1,3.87-.48-.7-.79-.98-1.94-2.18-2.45Zm7.27-16.5c.57.57.22,1.48,1.11,1.87.82-.61,2.13-.45,2.76-1.63-.65-.73-1.27-1.43-1.88-2.11-1.22.14-1.19,1.33-1.99,1.87Zm-27.53,73.38c-.15.34-.34.74-.51,1.1,1.26,1.64,1.3,1.68,2.77,2.1.46-.69.73-1.48.91-2.29-.82-1.22-2.14-1.13-3.17-.92Zm-15.49-45.67c-.75-3.71-5.76,1.75-2.23,2.18,1.2-.03,2.28-1.18,2.23-2.18Zm39.85,16.11c.91-.3,1.58-.66,2.44-1.22-.17-2.44-2.11-2.78-3.8-1.24.59.7.43,1.78,1.36,2.46Zm-2.67,4.46c-.13-1.24,0-2.87-1.14-3.58-.85-.3-2.08.55-1.33,1.34-1.04,1.79.56,2.77,2.46,2.24Zm-11.92,24.85c-1.66,1.83,1.46,4.06,2.88,2.17-.49-1.83-.69-2.91-2.88-2.17Zm10.11-15.39h1.65c1.66-3.27-1.09-3.69-3.01-1.9.48.67.88,1.23,1.36,1.9Zm7.76-1.94c.34,1.79,2.41,2.79,3.82,1.31v-1.31c-1.37-1.12-2.53-.63-3.82,0Zm-43.39-9.57c-.73-.65-3.22-2.6-3.05-.5.23.42.18.83.04,1.29-.07,1.9,2.35,1.24,3.01-.79Zm27.69,8.55c-1.13-1.14-2.59-.14-1.44,1.25-.32.18-.65.36-1.07.59.75,2.77,4.09.04,2.52-1.84Zm5-2.7c-.16-.76-.32-1.5-.48-2.27-1.13-.32-1.86.19-2.57,1.02.91.97,1.68,2.96,3.05,1.25Z"/>
    </g>
    <path class="cls-2" d="m257.51,159.19c.11,9.84.21,19.68.32,29.52.17,15.68.33,31.37.5,47.05.04,3.6.08,7.2.12,10.8.01,1.19,1.88,1.19,1.86,0-.1-9.84-.21-19.68-.31-29.52-.17-15.68-.33-31.37-.5-47.05-.04-3.6-.08-7.2-.12-10.8-.01-1.19-1.88-1.19-1.86,0h0Z"/>
    <path class="cls-2" d="m258.59,160.12c17.8-13.95,38.3-23.93,56.94-36.66.98-.67.05-2.27-.94-1.59-18.77,12.82-39.39,22.9-57.31,36.95-.94.74.39,2.04,1.32,1.31h0Z"/>
    <path class="cls-2" d="m258.18,158.58c-24.72-3.31-49.54-5.88-74.3-8.85-7.31-.88-14.62-1.79-21.93-2.77-.58-.08-1.18.23-1.18.89.06,7.85.15,15.71.25,23.56.19,14,.41,28.01.89,42.01.17,4.94.32,9.89.75,14.82.19,2.23,0,4.39,2.38,5.29,4.24,1.59,9.02,2.16,13.45,2.93,7.83,1.36,15.7,2.52,23.56,3.65,17.38,2.48,34.79,4.71,52.23,6.78,1.7.2,3.39.4,5.09.6,1.19.14,1.18-1.71,0-1.85-16.64-1.93-33.26-4.04-49.85-6.33-8.27-1.14-16.53-2.33-24.77-3.66-5.58-.9-11.21-1.76-16.69-3.15-.73-.18-1.46-.38-2.18-.62-.33-.12-.94-.4-.94-.39-.07-.06.08.3.04.05-.03-.17-.09-.33-.12-.49-.1-.53-.16-.99-.21-1.53-.47-4.35-.6-8.75-.77-13.12-.52-13.64-.74-27.29-.94-40.94-.09-5.94-.16-11.87-.22-17.81-.02-2.02-.04-4.03-.06-6.05,0-1.03.18-2.29-.03-3.31-.03-.13,0-.29,0-.43l-1.18.89c24.72,3.31,49.54,5.88,74.3,8.85,7.31.88,14.62,1.79,21.93,2.77,1.17.16,1.68-1.62.5-1.78h0Z"/>
    <path class="cls-2" d="m297.3,159.75c-4.57,2.9-9.18,5.83-13.13,9.55-2.9,2.74-7.09,7.77-3.19,11.53,1.72,1.66,4.04,1.22,5.95.15,2.44-1.37,4.79-2.98,7.1-4.55,2.28-1.56,4.51-3.21,6.58-5.03,1.81-1.59,3.61-3.35,4.54-5.61.91-2.23,1.14-5-.93-6.69-2.08-1.69-4.88-.47-6.91.64-1.05.57-.11,2.17.94,1.59,1.58-.87,4.23-2.2,5.42-.06.9,1.62-.11,3.9-1.03,5.29-1.13,1.69-2.77,3.07-4.33,4.37-1.66,1.39-3.42,2.67-5.21,3.89-1.8,1.23-3.64,2.4-5.49,3.56-1.54.97-3.94,2.77-5.51.91-2.85-3.37,2.2-7.67,4.49-9.69,3.58-3.16,7.64-5.72,11.67-8.27,1.01-.64.07-2.24-.94-1.59h0Z"/>
    <path class="cls-2" d="m202.27,171s-.16-15.71.27-16.72c1.57-3.7,53.01-36.57,53.01-36.57l15.68,1.3-53.53,37.56.5,17.11-15.93-2.69Z"/>
    <path class="cls-3" d="m229.91,221.77s-.55,16.05,1.11,17.3c1.67,1.24,18.02,2.47,18.02,2.47,0,0,.06-16.58-.94-17.46-.99-.88-18.2-2.31-18.2-2.31Z"/>
  </g>
  <path class="cls-2" d="m125.04,124.29c17.52-13.96,35.05-27.93,52.57-41.89.93-.75-.39-2.04-1.32-1.31-17.52,13.96-35.05,27.93-52.57,41.89-.93.75.39,2.04,1.32,1.31h0Z"/>
</svg>