<?xml version="1.0" encoding="UTF-8"?>
<svg xmlns="http://www.w3.org/2000/svg" viewBox="0 0 459.6 459.99">
  <defs>
    <style>
      .cls-1, .cls-2, .cls-3, .cls-4, .cls-5, .cls-6, .cls-7 {
        stroke-width: 0px;
      }

      .cls-2 {
        fill: #e0e0e0;
      }

      .cls-3 {
        fill: #4d6bff;
      }

      .cls-4 {
        fill: none;
      }

      .cls-5, .cls-7 {
        fill: #fff;
      }

      .cls-8, .cls-7 {
        opacity: .3;
      }

      .cls-6 {
        fill: #263238;
      }
    </style>
  </defs>
  <g id="Floor">
    <path class="cls-6" d="m457.88,372.03c0,.14-102.51.26-228.93.26s-228.95-.12-228.95-.26,102.49-.26,228.95-.26,228.93.12,228.93.26Z"/>
  </g>
  <g id="Cart">
    <g>
      <g>
        <path class="cls-2" d="m177.34,322.49c-5.23,6.87-10.46,13.74-15.69,20.61-6.79,8.92-13.58,17.84-20.38,26.76-.57.75-1.16,1.5-1.72,2.26-2.75,3.74-3.39,8.86-1.6,13.15,2.32,5.58,7.51,8.81,13.51,8.75,4.68-.05,9.35-.09,14.03-.13,9.62-.09,19.24-.19,28.86-.28,12.6-.12,25.19-.24,37.79-.36,13.68-.13,27.36-.26,41.04-.39,12.65-.12,25.29-.24,37.94-.36,9.72-.09,19.44-.19,29.16-.28,4.83-.05,9.66-.09,14.49-.14.21,0,.43,0,.64,0,1.7-.02,3.31-1.52,3.21-3.27-.1-1.76-1.46-3.23-3.27-3.21-3.31.03-6.61.06-9.92.1-8.58.08-17.15.17-25.73.25-12.01.12-24.02.23-36.03.35-13.4.13-26.81.26-40.21.39-12.98.12-25.97.25-38.95.37-10.61.1-21.21.2-31.82.31-6.3.06-12.61.12-18.91.18-.95,0-1.91.03-2.86.03-.1,0-.17,0-.28,0-.27,0-.54-.03-.82-.04.72.04.14.03-.06-.01-.47-.1-.93-.19-1.38-.34-.14-.04-.92-.37-.17-.03-.3-.13-.6-.28-.89-.44-.22-.12-.43-.24-.63-.38-.13-.08-.76-.58-.13-.07-.31-.26-.62-.52-.9-.8-.17-.17-.33-.35-.49-.53-.56-.57.36.56-.09-.1-.32-.47-.62-.93-.88-1.43-.08-.15-.37-.89-.07-.1-.09-.22-.17-.45-.25-.68-.13-.38-.23-.77-.32-1.16-.04-.18-.11-.97-.03-.09-.02-.24-.05-.48-.06-.72-.01-.24-.02-.49-.01-.73,0-.19.12-1.27-.01-.36.07-.49.17-.98.31-1.46.05-.16.11-.32.15-.48.22-.8-.31.57.06-.18.24-.48.48-.95.77-1.39.25-.39.51-.73,0-.03,5.26-7.01,10.62-13.95,15.93-20.92,6.72-8.83,13.45-17.66,20.17-26.49.39-.51.78-1.02,1.17-1.53,1.06-1.39,1.32-3.25-.04-4.58-1.13-1.11-3.52-1.36-4.58.04h0Z"/>
        <path class="cls-6" d="m177.34,322.49s.06-.08.2-.24c.15-.14.38-.36.76-.52.72-.32,2.14-.47,3.47.51.63.5,1.15,1.36,1.14,2.38.02,1.02-.52,2.06-1.27,2.96-1.42,1.87-3.06,4.04-4.91,6.49-7.43,9.79-18.26,24.06-31.89,42.01l-.27-.2.19-.25.1-.13v-.02s.02,0,.02,0c.01,0,0-.01.07-.05.25-.04.24.28.22.21-.02.04,0,.02-.01.03v.02s-.04.03-.04.03l-.05.07c-.12.18-.24.35-.34.55-.21.38-.43.78-.65,1.18l-.09.16-.04.06-.02.02s-.06.06-.14.05c-.08,0-.12-.05-.13-.07-.03-.05-.03-.12-.02-.15l.03-.11c.02-.06.04-.12.08-.18.02-.03,0,0,.06-.09.02-.02.04-.03.06-.04,0,0,.05-.02.11,0,.07.02.12.1.12.13,0,.07,0,.04,0,.07,0,.06-.01.07-.02.11-.06.24-.14.46-.2.69-.1.46-.2.92-.29,1.39l-.34-.05c.01-.1.03-.19.05-.29v-.04s.01-.02.01-.02v-.02s0,0,.02-.04l.02-.03s-.04-.02.14-.06c.11,0,.16.1.16.12v.02s0,.01,0,.01v.02s0,.02,0,.02v.02s0,.04,0,.04v.16c-.02.21-.06.41-.05.61,0,.42.03.86.07,1.3l-.35.03c0-.11-.02-.21-.03-.32v-.04s0-.02,0-.02h0s0-.02,0-.02h0s0,0,0,0c-.26-.05.44-.17.35-.04h0s.01.1.01.1l.02.17c.02.22.09.43.15.66.11.46.26.92.44,1.38l-.33.13-.11-.29v-.04s-.02-.02-.02-.02v-.02s-.01-.02-.01-.02c-.14.1.16-.33.31-.15.03.04.03.04.03.04h0s.04.08.04.08l.06.14c.07.2.18.35.3.54.22.36.45.73.69,1.11l.1.15s.01.02.03.07c0,0,.02.04.01.11,0,0,0,.04-.07.11-.07.06-.19.03-.17.03l-.04-.02s-.04-.03-.05-.04l-.07-.08-.12-.15-.03-.05-.02-.04s-.02-.05-.02-.08c0-.01,0-.11.07-.16.07-.05.1-.04.1-.04.03,0,.06,0,.09.02.09.06.08.06.11.09.18.17.32.33.48.5.32.33.68.62,1.02.93l-.23.28-.23-.19-.03-.03s-.03-.02-.04-.04c0-.01,0,.01-.02-.05,0-.02-.03-.05.01-.15.07-.11.19-.1.2-.09.05.02.06.03.06.03h.01s.07.06.07.06l.12.09c.16.13.33.22.52.34.36.24.78.4,1.17.61l-.15.34-.16-.07-.08-.04-.04-.02h-.02s-.02-.02-.02-.02c-.03-.02-.06-.05-.08-.08,0-.02-.06-.01,0-.19.16-.16.23-.05.22-.08h.01s.03.01.03.01l.04.02.09.03.17.07c.21.09.47.12.71.19.25.06.5.12.75.18.11.03.24.03.37.04,0,0,.06,0,0,0,0,0,.02-.02-.07.03-.02,0-.12.09-.07.22.05.1.09.1.11.11.03.01.04,0,.04.01h0s0,0,0,0h-.02s-.1,0-.1,0h-.2s.02-.39.02-.39c27.07-.26,59.11-.57,94.57-.91,17.73-.18,36.32-.36,55.57-.55,9.63-.09,19.42-.19,29.35-.29,4.97-.05,9.97-.1,15-.15,2.52-.02,5.04-.05,7.57-.07,1.28,0,2.51-.04,3.83-.02,1.39.11,2.6,1.17,2.99,2.48.21.66.26,1.41.02,2.09-.23.68-.67,1.26-1.23,1.68-.55.43-1.24.7-1.95.73l-1.96.03c-2.6.02-5.19.05-7.78.07-5.17.05-10.3.1-15.4.15-10.2.1-20.24.19-30.11.29-19.74.18-38.79.36-56.93.53-18.14.17-35.38.32-51.51.47-8.07.07-15.86.14-23.35.21-3.74.03-7.41.07-11,.1-1.8.02-3.57.03-5.33.05-1.76.04-3.54-.1-5.2-.61-1.67-.49-3.22-1.27-4.59-2.28-1.35-1.03-2.49-2.29-3.38-3.68-1.81-2.77-2.51-6.11-2.1-9.21.21-1.55.64-3.05,1.33-4.41.66-1.38,1.63-2.53,2.5-3.69,1.77-2.31,3.48-4.56,5.13-6.72,6.61-8.66,12.31-16.12,16.97-22.22,4.66-6.09,8.28-10.81,10.74-14.03,1.23-1.6,2.17-2.81,2.8-3.64.63-.82.97-1.23.97-1.23,0,0-.31.43-.93,1.26-.63.83-1.55,2.06-2.76,3.67-2.44,3.23-6.04,7.97-10.66,14.09-4.64,6.11-10.31,13.59-16.9,22.27-1.65,2.17-3.35,4.42-5.11,6.73-.88,1.16-1.83,2.3-2.46,3.64-.67,1.32-1.08,2.79-1.29,4.3-.39,3.03.3,6.28,2.07,8.98.87,1.36,1.98,2.58,3.3,3.58,1.33.98,2.85,1.74,4.47,2.21,1.63.49,3.35.62,5.1.58,1.76-.02,3.53-.04,5.33-.06,3.59-.04,7.26-.08,11-.11,7.49-.08,15.28-.16,23.34-.24,16.13-.16,33.37-.34,51.51-.52,18.14-.18,37.18-.37,56.93-.56,9.87-.1,19.92-.19,30.11-.29,5.1-.05,10.23-.1,15.4-.15,2.58-.02,5.18-.05,7.78-.08l1.94-.03c.59-.03,1.18-.26,1.66-.63.48-.36.86-.87,1.05-1.43.2-.56.16-1.18-.02-1.77-.34-1.13-1.37-2.03-2.55-2.12-1.22-.02-2.52.02-3.78.02-2.53.02-5.06.05-7.57.07-5.03.05-10.04.1-15,.14-9.93.09-19.72.19-29.35.28-19.25.18-37.84.35-55.57.52-35.47.3-67.5.67-94.59.8l.02-.38h.2s.1.02.1.02h.03s.02,0,.02,0h0s.01,0,.05.01c.01.01.06,0,.11.11.05.13-.05.22-.07.22-.09.04-.06.02-.07.03-.09,0-.06,0-.09,0-.14,0-.28-.01-.43-.05-.26-.06-.52-.13-.77-.19-.25-.07-.5-.1-.75-.2l-.17-.07-.08-.03h-.04s-.02-.02-.02-.02h0c0-.05.08-.04.11-.14,0-.09-.11-.01-.03-.06.04-.03.07-.06.1-.11,0-.01-.02-.02-.03-.03,0,0,0,0,0,0h.02s.04.03.04.03l.08.04.16.07-.15.34c-.41-.21-.84-.38-1.21-.63-.18-.11-.39-.23-.55-.36l-.12-.09-.06-.04s-.01.02,0-.02c.03-.04.03-.03.07-.05.01,0,.06-.01.08-.06,0-.04-.01-.04-.02-.05-.07.03.03-.02.06-.06.06-.05.05-.05.05-.05h0s0,0,0,0l.03.02.23.19-.23.28c-.35-.32-.72-.62-1.05-.96-.16-.16-.32-.35-.47-.5l-.03-.02s-.05.06.07-.13c0-.06.02-.02.1-.06.11-.05.07-.04.08-.04l.02.03.1.12.04.05c-.08.15-.35.24-.28.19l-.08-.13c-.24-.39-.47-.77-.7-1.14-.11-.18-.24-.37-.31-.58l-.06-.14-.03-.06s0,0,.06-.03c.02-.01.02,0,.05,0,.07.05.13-.09.08-.05-.03,0,.2-.05.14-.04h0s0,.01,0,.01v.03s.12.29.12.29l-.33.13c-.19-.47-.34-.94-.45-1.42-.06-.23-.14-.47-.16-.7l-.02-.17s-.02-.06,0-.08c.03,0,.09-.02.1-.02-.04.05.23,0,.14-.01,0,0,.04,0,.05,0,.09,0,.03,0,.05,0h0s0,0,0,0v.02s0,.04,0,.04c0,.11.02.22.03.32l-.35.03c-.04-.45-.08-.9-.07-1.33-.01-.23.02-.44.04-.64v-.15s.01-.03.01-.03c.02-.01-.08-.01.17-.02.21.07.16.05.16.06v.03c-.02.1-.04.19-.05.28l-.34-.05c.1-.48.2-.96.31-1.43.06-.23.15-.46.2-.67v-.06s.01,0,.01,0c.01,0,.11-.01.12,0,.03.03.06-.01.05,0,0,.03.03.05.06.07.08.03.08.03.07.03h0s-.06.15-.06.15l-.02.06s-.13-.05-.16-.02c.03-.02-.02-.06-.05-.05-.04-.03-.1-.09-.08-.07v-.02s.09-.14.09-.14c.23-.41.45-.81.66-1.2.1-.2.23-.38.35-.56l.05-.07.02-.03h0c-.1-.04.27.13.09.06-.02-.05-.07.12.1.12.06,0,.06,0,.08,0,.02,0,0,0,0,0h0s-.09.14-.09.14l-.19.25-.27-.2c13.68-17.92,24.56-32.16,32.01-41.92,1.87-2.44,3.52-4.59,4.95-6.46.76-.89,1.27-1.88,1.27-2.87.02-.98-.48-1.81-1.09-2.3-1.28-.96-2.68-.84-3.39-.54-.75.32-.96.74-.98.71Z"/>
      </g>
      <g>
        <circle class="cls-6" cx="331.23" cy="417.3" r="22.17" transform="translate(-103.58 109.41) rotate(-16.26)"/>
        <path class="cls-2" d="m346.41,417.15c.08,8.39-6.65,15.25-15.04,15.33-8.39.08-15.25-6.65-15.33-15.04-.08-8.39,6.65-15.25,15.04-15.33s15.25,6.65,15.33,15.04Z"/>
        <path class="cls-3" d="m316.22,382.39c-.24.25-.13,5.89,0,10.1.07,2.52,2.15,4.52,4.68,4.5h1.22s.75,20.09.75,20.09c.17,4.53,3.91,8.1,8.44,8.06h0c3.33-.03,6.32-2.03,7.62-5.09,3.62-8.5,10.5-24.77,10.5-24.77l-.12-12.81-33.08-.07Z"/>
        <path class="cls-6" d="m335.09,417.26c.02,2.13-1.69,3.88-3.83,3.9-2.13.02-3.88-1.69-3.9-3.83-.02-2.13,1.69-3.88,3.83-3.9,2.13-.02,3.88,1.69,3.9,3.83Z"/>
        <g class="cls-8">
          <path class="cls-5" d="m319.72,400.43c-3.56,1.74-6.39,4.95-7.66,8.71-.17.51-.32,1.05-.25,1.59s.4,1.07.92,1.23c.52.16,1.09-.1,1.47-.49.38-.39.61-.9.86-1.38.92-1.79,2.2-3.39,3.75-4.67.61-.5,1.26-.97,1.75-1.58.49-.62.81-1.43.61-2.2s-1.04-1.37-1.79-1.11"/>
        </g>
        <path class="cls-7" d="m332.32,434.85c-1.06.09-2.02.76-2.38,1.76-.21.57-.17,1.14.55,1.42,1.71.67,11.55-.68,17.15-8.03,4.6-6.03,4.95-12.79,4.05-13.31-.91-.52-2.23,0-2.65.44s-.14,7.72-5.94,12.88c-4.28,3.8-8.69,4.66-10.77,4.84Z"/>
        <path class="cls-6" d="m348.16,396.54c0,.14-5.87.32-13.1.39-7.24.07-13.11,0-13.11-.13,0-.14,5.86-.32,13.1-.39,7.24-.07,13.11,0,13.11.13Z"/>
        <g class="cls-8">
          <path class="cls-1" d="m346.79,401.51c1.54-3.65,2.64-6.23,2.64-6.23l-.12-12.81-33.08-.07c-.24.25-.13,5.89,0,10.1.07,2.52,2.15,4.52,4.68,4.5h1.22s0,.09,0,.09c-7.77,3.51-13.15,11.36-13.06,20.43.12,12.24,10.14,22.08,22.38,21.96,12.24-.12,22.08-10.14,21.96-22.38-.06-6.1-2.58-11.6-6.61-15.58Z"/>
        </g>
      </g>
      <g>
        <circle class="cls-6" cx="331.23" cy="417.3" r="22.17" transform="translate(-103.58 109.41) rotate(-16.26)"/>
        <path class="cls-2" d="m346.41,417.15c.08,8.39-6.65,15.25-15.04,15.33-8.39.08-15.25-6.65-15.33-15.04-.08-8.39,6.65-15.25,15.04-15.33s15.25,6.65,15.33,15.04Z"/>
        <path class="cls-3" d="m316.22,382.39c-.24.25-.13,5.89,0,10.1.07,2.52,2.15,4.52,4.68,4.5h1.22s.75,20.09.75,20.09c.17,4.53,3.91,8.1,8.44,8.06h0c3.33-.03,6.32-2.03,7.62-5.09,3.62-8.5,10.5-24.77,10.5-24.77l-.12-12.81-33.08-.07Z"/>
        <path class="cls-6" d="m335.09,417.26c.02,2.13-1.69,3.88-3.83,3.9-2.13.02-3.88-1.69-3.9-3.83-.02-2.13,1.69-3.88,3.83-3.9,2.13-.02,3.88,1.69,3.9,3.83Z"/>
        <g class="cls-8">
          <path class="cls-5" d="m319.72,400.43c-3.56,1.74-6.39,4.95-7.66,8.71-.17.51-.32,1.05-.25,1.59s.4,1.07.92,1.23c.52.16,1.09-.1,1.47-.49.38-.39.61-.9.86-1.38.92-1.79,2.2-3.39,3.75-4.67.61-.5,1.26-.97,1.75-1.58.49-.62.81-1.43.61-2.2s-1.04-1.37-1.79-1.11"/>
        </g>
        <path class="cls-7" d="m332.32,434.85c-1.06.09-2.02.76-2.38,1.76-.21.57-.17,1.14.55,1.42,1.71.67,11.55-.68,17.15-8.03,4.6-6.03,4.95-12.79,4.05-13.31-.91-.52-2.23,0-2.65.44s-.14,7.72-5.94,12.88c-4.28,3.8-8.69,4.66-10.77,4.84Z"/>
        <path class="cls-6" d="m348.16,396.54c0,.14-5.87.32-13.1.39-7.24.07-13.11,0-13.11-.13,0-.14,5.86-.32,13.1-.39,7.24-.07,13.11,0,13.11.13Z"/>
        <g class="cls-8">
          <path class="cls-1" d="m346.79,401.51c1.54-3.65,2.64-6.23,2.64-6.23l-.12-12.81-33.08-.07c-.24.25-.13,5.89,0,10.1.07,2.52,2.15,4.52,4.68,4.5h1.22s0,.09,0,.09c-7.77,3.51-13.15,11.36-13.06,20.43.12,12.24,10.14,22.08,22.38,21.96,12.24-.12,22.08-10.14,21.96-22.38-.06-6.1-2.58-11.6-6.61-15.58Z"/>
        </g>
      </g>
      <g>
        <circle class="cls-6" cx="169.2" cy="418.86" r="22.17" transform="translate(-278.38 357.72) rotate(-60.22)"/>
        <circle class="cls-2" cx="169.2" cy="418.86" r="15.19" transform="translate(-281.89 443.13) rotate(-71.08)"/>
        <path class="cls-3" d="m154.2,383.95c-.24.25-.13,5.89,0,10.1.07,2.52,2.15,4.52,4.68,4.5h1.22s.75,20.09.75,20.09c.17,4.53,3.91,8.1,8.44,8.06h0c3.33-.03,6.32-2.03,7.62-5.09,3.62-8.5,10.5-24.77,10.5-24.77l-.12-12.81-33.08-.07Z"/>
        <path class="cls-6" d="m173.07,418.82c.02,2.13-1.69,3.88-3.83,3.9-2.13.02-3.88-1.69-3.9-3.83-.02-2.13,1.69-3.88,3.83-3.9,2.13-.02,3.88,1.69,3.9,3.83Z"/>
        <g class="cls-8">
          <path class="cls-5" d="m157.69,401.99c-3.56,1.74-6.39,4.95-7.66,8.71-.17.51-.32,1.05-.25,1.59.07.54.4,1.07.92,1.23.52.16,1.09-.1,1.47-.49.38-.39.61-.9.86-1.38.92-1.79,2.2-3.39,3.75-4.67.61-.5,1.26-.97,1.75-1.58s.81-1.43.61-2.2c-.2-.76-1.04-1.37-1.79-1.11"/>
        </g>
        <path class="cls-7" d="m170.3,436.41c-1.06.09-2.02.76-2.38,1.76-.21.57-.17,1.14.55,1.42,1.71.67,11.55-.68,17.15-8.03,4.6-6.03,4.95-12.79,4.05-13.31-.91-.52-2.23,0-2.65.44-.42.44-.14,7.72-5.94,12.88-4.28,3.8-8.69,4.66-10.77,4.84Z"/>
        <path class="cls-6" d="m186.14,398.1c0,.14-5.87.32-13.1.39-7.24.07-13.11,0-13.11-.13,0-.14,5.86-.32,13.1-.39,7.24-.07,13.11,0,13.11.13Z"/>
        <g class="cls-8">
          <path class="cls-1" d="m184.77,403.07c1.54-3.65,2.64-6.23,2.64-6.23l-.12-12.81-33.08-.07c-.24.25-.13,5.89,0,10.1.07,2.52,2.15,4.52,4.68,4.5h1.22s0,.09,0,.09c-7.77,3.51-13.15,11.36-13.06,20.43.12,12.24,10.14,22.08,22.38,21.96,12.24-.12,22.08-10.14,21.96-22.38-.06-6.1-2.58-11.6-6.61-15.58Z"/>
        </g>
      </g>
      <g>
        <g>
          <path class="cls-2" d="m121.98,386.92c.09-.12.2-.27.2-.27,0,0,0,0,0,0-.06.08-.13.16-.19.25,0,0,0,0,0,.01Z"/>
          <path class="cls-6" d="m121.98,386.92s-.06.04-.05-.05h0c-.06-.1-.05-.25.04-.37l.02-.03.04-.03.03-.02.26.45h0s0,0,0,0h0s0,0,0,0h0s0,.01-.01.01l-.02.02s-.03.02-.05.03c-.03.02-.06.04-.1.05-.06.02-.11.03-.14.02-.06-.01-.05-.04,0-.1s.1-.15.11-.25c0-.05,0-.11-.01-.15,0-.02-.01-.04-.02-.05,0,0,0-.01,0-.02h0s0-.01,0-.01h0s0,0,0,0h0s.26.45.26.45h.01s.06-.06.06-.06c-.09.11-.23.17-.34.13h0c0-.08-.07-.05-.07-.03Z"/>
        </g>
        <g>
          <path class="cls-2" d="m368.66,396.28c-1.72.02-3.45.03-5.17.05-4.75.05-9.5.09-14.24.14-7.13.07-14.26.14-21.4.21-8.88.09-17.75.17-26.63.26-9.94.1-19.88.19-29.83.29-10.49.1-20.98.2-31.47.3-10.24.1-20.48.2-30.72.3l-28.42.27c-8.03.08-16.05.15-24.08.23-5.94.06-11.88.11-17.82.17-3.21.03-6.43.06-9.64.09-.74,0-1.5.04-2.24-.03.03-.01-.71-.14-.82-.17-.32-.08-.63-.18-.94-.29.03,0-.46-.21-.59-.28-.33-.17-.64-.37-.94-.57.16.09-.48-.38-.58-.48-.24-.22-.46-.46-.69-.7-.1-.1-.16-.16-.19-.2-.01-.03-.04-.06-.08-.13-.25-.39-.51-.77-.73-1.18-.07-.12-.12-.25-.19-.37,0,0,0-.01-.01-.02-.13-.34-.25-.68-.34-1.03-.09-.31-.15-.63-.22-.95.15.71-.04-.46-.04-.67-.01-.38,0-.75.02-1.13,0-.02,0-.03,0-.05.02-.12.04-.24.06-.36.08-.38.17-.76.29-1.13.04-.14.09-.27.14-.4.03-.07.11-.23.16-.34.17-.32.34-.64.53-.94.02-.03.08-.15.15-.26-.06.07-.1.13-.1.13.01-.03.06-.07.08-.1.01-.01.02-.03.03-.04.07-.11.14-.21.19-.25.07-.1.15-.2.22-.29.63-.83,1.26-1.65,1.89-2.48,2.3-3.02,4.6-6.04,6.9-9.06,6.09-7.99,12.17-15.99,18.26-23.98,3.42-4.49,6.67-9.18,10.31-13.5,2.48-2.95,5.53-4.78,9.27-5.6,1.81-.39,3.66-.61,5.49-.91,4.04-.66,8.08-1.34,12.12-2.03,10.66-1.81,21.32-3.68,31.97-5.55,11.9-2.09,23.8-4.2,35.7-6.32,10.55-1.87,21.1-3.75,31.65-5.61,6.61-1.17,13.22-2.35,19.84-3.45.64-.11,1.28-.21,1.92-.31,2.17-.37,2.89-.59,3.38-2.43.4-1.53-.56-3.73-2.3-3.97-1.57-.21-3.14.2-4.7.45-2.67.44-5.34.9-8.01,1.37-8.99,1.56-17.97,3.16-26.95,4.75-11.65,2.07-23.3,4.14-34.96,6.2-11.71,2.07-23.42,4.14-35.13,6.17-9.01,1.57-18.03,3.13-27.06,4.59-2.14.35-4.34.58-6.41,1.23-4.13,1.29-7.97,3.78-10.7,7.15-1.1,1.35-2.12,2.77-3.17,4.15-5.5,7.22-11,14.45-16.5,21.67-5.3,6.96-10.6,13.92-15.9,20.88-1.49,1.96-3.18,3.89-4.12,6.17-2.76,6.68.32,14.88,7.02,17.84,3.27,1.44,6.52,1.26,9.95,1.23,4.48-.04,8.96-.09,13.44-.13,6.96-.07,13.92-.13,20.89-.2,8.8-.08,17.6-.17,26.4-.25,10.03-.1,20.06-.19,30.08-.29,10.56-.1,21.12-.2,31.68-.3,10.39-.1,20.78-.2,31.17-.3,9.61-.09,19.22-.18,28.83-.28,8.2-.08,16.4-.16,24.6-.24,6.07-.06,12.14-.12,18.21-.18,3.32-.03,6.65-.06,9.97-.1.43,0,.85,0,1.28-.01,4.17-.04,4.12-6.52-.06-6.48Z"/>
          <path class="cls-6" d="m368.66,396.28s.21.01.64.04c.21.02.46.12.77.22.14.08.29.17.45.26.16.1.29.25.45.39.6.6,1.01,1.68.85,2.93-.11.62-.37,1.28-.89,1.8-.51.52-1.27.88-2.11.89-6.56.08-16.22.19-28.67.33-24.9.26-60.93.63-105.44,1.1-22.26.22-46.64.47-72.81.73-6.54.07-13.2.13-19.96.2-3.38.03-6.79.07-10.22.1-1.71.02-3.45.07-5.19-.12-1.74-.18-3.49-.62-5.05-1.46-3.18-1.6-5.62-4.56-6.75-7.96-1.16-3.4-1.01-7.27.58-10.57.81-1.64,1.94-3.08,3.04-4.5,1.09-1.43,2.19-2.87,3.3-4.31,2.2-2.89,4.41-5.8,6.64-8.73,4.46-5.85,8.97-11.78,13.53-17.78,2.28-3,4.58-6.01,6.88-9.05,1.15-1.52,2.31-3.04,3.47-4.56l1.75-2.29c.58-.77,1.17-1.54,1.85-2.24,2.69-2.82,6.15-4.91,9.91-6.05,1.89-.57,3.85-.81,5.78-1.11,1.93-.33,3.86-.65,5.8-.98,7.75-1.32,15.57-2.65,23.46-3.99,31.54-5.57,64.19-11.33,97.64-17.23,2.62-.45,5.24-.9,7.86-1.35.66-.1,1.34-.16,2.03-.13.66,0,1.47.21,1.99.72,1.05.98,1.49,2.54,1.04,3.9-.18.64-.55,1.37-1.23,1.73-.65.35-1.33.44-1.98.57l-3.9.65c-2.59.45-5.18.9-7.76,1.35-10.32,1.82-20.54,3.62-30.66,5.4-20.25,3.57-40.09,7.06-59.42,10.47-9.67,1.67-19.21,3.36-28.63,4.91-2.35.39-4.69.78-7.03,1.17-2.36.29-4.59,1.02-6.58,2.21-.99.6-1.91,1.3-2.75,2.1-.84.79-1.57,1.69-2.31,2.59-1.47,1.8-2.88,3.65-4.26,5.5-2.74,3.72-5.5,7.4-8.27,11.01-2.76,3.62-5.49,7.21-8.2,10.76-5.41,7.11-10.73,14.08-15.94,20.92l-.05.05c-.04.07-.08.12-.12.18v.02c-.06.06-.06.06-.09.08h0s0,0,0,0c0-.01,0,.03,0-.03l-.28-.27-.1.05h0s-.01.02-.01.02h0s.01-.02.01-.02l.03-.03.05-.07.38.26c-.3.54-.6,1.01-.83,1.51v-.02c-.11.31-.19.62-.27.93-.08.31-.17.61-.21.92v-.03c0,.4-.01.78-.02,1.16.01.16.04.36.07.55l.03.29v.05s0,.05,0,.05v.02s.02-.04-.04.09c-.03.06-.17.12-.24.09-.07-.02-.09-.05-.09-.05l-.03-.03c-.04-.06-.04-.07-.04-.07v-.02s-.03-.08-.03-.08l-.03-.14.44-.1c.08.34.15.68.24,1,.11.32.21.63.32.94v-.03c.29.63.65,1.11,1,1.71l-.05-.06c.25.26.5.5.74.75.12.13.22.22.36.32l.2.16.1.08.05.05s.01,0,.06.06v.02s.01,0,.04.06c0,.03.03.12-.06.22-.09.08-.17.06-.19.06-.1-.03-.04-.01-.07-.02l-.03-.02.24-.38c.26.16.51.31.75.45.13.08.23.14.37.2l.2.09.1.05.05.02h.03s.02.03.02.03h.02s.01.02.01.02c0,0-.01-.03.06.06.05.02.05.25-.06.3-.08.05-.1.04-.12.04l.07-.44c.3.09.58.18.87.27.13.04.28.06.43.09l.22.04.11.02h.06s.03.02.03.02h.03s.02.02.02.02c0,0,0-.02.1.08.05.05.05.19,0,.25-.04.06-.06.07-.08.08l-.09-.42c72.55-.64,132.96-1.17,175.23-1.54,21.13-.18,37.73-.32,49.06-.41,5.66-.04,9.99-.07,12.92-.09,1.46,0,2.56-.01,3.31-.01.74,0,1.12,0,1.12,0,0,0-.38.02-1.12.03-.75.01-1.85.03-3.31.05-2.93.04-7.26.09-12.92.16-11.32.12-27.92.3-49.05.53-42.28.42-102.7,1.01-175.28,1.72l.02-.23s-.04.12-.08.2c0,.01,0,0,0,0h-.02s-.05-.02-.05-.02l-.11-.02-.22-.04c-.15-.03-.29-.05-.45-.1-.3-.09-.6-.18-.91-.28l.07-.22s-.12.16-.12.19c0,0,0,0,0,0h-.02s-.05-.03-.05-.03l-.1-.04-.2-.09c-.13-.06-.28-.14-.4-.21-.25-.15-.51-.31-.78-.47l.24-.38s0-.03-.02.02c-.03.05-.05.13-.07.15-.05.02.02.03-.02.04l-.06.04s-.08.07-.09.09c0,0,0,0,0,0h0s-.04-.04-.04-.04l-.1-.08-.2-.15c-.13-.1-.28-.23-.4-.35-.24-.24-.48-.49-.73-.74l-.03-.03-.02-.03c-.3-.52-.72-1.09-1.01-1.7v-.02s-.01,0-.01,0c-.11-.32-.22-.65-.33-.98-.09-.33-.16-.68-.25-1.03l.44-.1.03.13v.05c.08-.03-.17.07-.18.07-.02.03-.02,0-.07,0h-.14c-.06,0-.02,0-.03-.02l-.03-.27c-.02-.19-.05-.36-.07-.59,0-.39.01-.78.02-1.19h0s0-.03,0-.03c.04-.32.13-.64.22-.96.08-.32.16-.65.29-.97h0s0-.02,0-.02c.24-.54.56-1.03.86-1.56l.38.26-.05.07-.03.03v.02s-.02.01-.02.01l-.02.02h0s-.1.06-.1.06l-.28-.27v-.03s0,0,0,0h0c.04-.08.11-.17.14-.21v.02c.06-.11.15-.21.24-.31l-.05.05c5.2-6.84,10.51-13.82,15.92-20.93,2.71-3.56,5.44-7.14,8.19-10.76,2.77-3.61,5.52-7.28,8.26-11.01,1.39-1.85,2.79-3.71,4.27-5.52.74-.9,1.49-1.82,2.35-2.64.86-.82,1.81-1.54,2.84-2.16,2.04-1.22,4.39-1.99,6.74-2.27,2.34-.39,4.69-.78,7.05-1.17,9.42-1.55,18.96-3.25,28.63-4.92,19.33-3.41,39.17-6.91,59.42-10.48,10.12-1.78,20.35-3.59,30.67-5.4,2.58-.45,5.17-.9,7.76-1.35l3.89-.65c.64-.12,1.29-.23,1.81-.51.52-.27.8-.82.99-1.42.4-1.15,0-2.55-.89-3.36-.45-.42-1.01-.57-1.67-.59-.64-.03-1.28.03-1.93.13-2.61.45-5.23.9-7.85,1.35-33.45,5.9-66.1,11.66-97.64,17.22-7.89,1.34-15.72,2.67-23.47,3.99-1.94.33-3.87.65-5.8.98-1.94.3-3.87.53-5.71,1.09-3.68,1.12-7.07,3.16-9.7,5.92-.66.68-1.24,1.44-1.82,2.21l-1.74,2.28c-1.16,1.52-2.32,3.04-3.47,4.56-2.31,3.03-4.6,6.05-6.89,9.04-4.57,5.99-9.08,11.92-13.54,17.77-2.23,2.93-4.44,5.83-6.65,8.72-1.1,1.44-2.2,2.88-3.3,4.32-1.11,1.42-2.22,2.83-3,4.42-1.53,3.18-1.68,6.93-.56,10.22,1.09,3.3,3.45,6.16,6.51,7.7,1.51.81,3.2,1.23,4.89,1.41,1.7.18,3.42.14,5.14.12,3.43-.03,6.84-.06,10.22-.1,6.76-.06,13.42-.12,19.96-.19,26.17-.24,50.55-.46,72.81-.67,44.51-.39,80.54-.71,105.44-.93,12.44-.1,22.11-.18,28.67-.24.81,0,1.55-.35,2.05-.85.5-.51.77-1.14.87-1.75.16-1.22-.22-2.29-.81-2.88-.16-.14-.28-.29-.44-.39-.16-.09-.3-.18-.44-.26-.3-.1-.55-.2-.75-.23-.42-.04-.64-.07-.64-.07Z"/>
        </g>
      </g>
      <g>
        <circle class="cls-6" cx="146.15" cy="431.83" r="22.17" transform="translate(-262.55 229.82) rotate(-45)"/>
        <path class="cls-2" d="m161.33,431.69c.08,8.39-6.65,15.25-15.04,15.33-8.39.08-15.25-6.65-15.33-15.04-.08-8.39,6.65-15.25,15.04-15.33,8.39-.08,15.25,6.65,15.33,15.04Z"/>
        <path class="cls-3" d="m131.14,396.92c-.24.25-.13,5.89,0,10.1.07,2.52,2.15,4.52,4.68,4.5h1.22s.75,20.09.75,20.09c.17,4.53,3.91,8.1,8.44,8.06h0c3.33-.03,6.32-2.03,7.62-5.09,3.62-8.5,10.5-24.77,10.5-24.77l-.12-12.81-33.08-.07Z"/>
        <path class="cls-6" d="m150.01,431.8c.02,2.14-1.69,3.88-3.83,3.9-2.13.02-3.88-1.69-3.9-3.83-.02-2.13,1.69-3.88,3.83-3.9,2.13-.02,3.88,1.69,3.9,3.83Z"/>
        <g class="cls-8">
          <path class="cls-5" d="m134.64,414.97c-3.56,1.74-6.39,4.95-7.66,8.71-.17.51-.32,1.05-.25,1.59.07.54.4,1.07.92,1.23.52.16,1.09-.1,1.47-.49.38-.39.61-.9.86-1.38.92-1.79,2.2-3.39,3.75-4.67.61-.5,1.26-.97,1.75-1.58.49-.62.81-1.43.61-2.2-.2-.76-1.04-1.37-1.79-1.11"/>
        </g>
        <path class="cls-7" d="m147.24,449.38c-1.06.09-2.02.76-2.38,1.76-.21.57-.17,1.14.55,1.42,1.71.67,11.55-.68,17.15-8.03,4.6-6.03,4.95-12.79,4.05-13.31-.91-.52-2.23,0-2.65.44-.42.44-.14,7.72-5.94,12.88-4.28,3.8-8.69,4.66-10.77,4.84Z"/>
        <path class="cls-6" d="m163.08,411.08c0,.14-5.87.32-13.1.39-7.24.07-13.11,0-13.11-.13,0-.14,5.86-.32,13.1-.39,7.24-.07,13.11,0,13.11.13Z"/>
      </g>
      <g>
        <circle class="cls-6" cx="344.1" cy="429.93" r="22.17" transform="translate(-22.71 19.2) rotate(-3.09)"/>
        <circle class="cls-2" cx="344.1" cy="429.93" r="15.19" transform="translate(-146.54 679.96) rotate(-78.33)"/>
        <path class="cls-3" d="m329.1,395.02c-.24.25-.13,5.89,0,10.1.07,2.52,2.15,4.52,4.68,4.5h1.22s.75,20.09.75,20.09c.17,4.53,3.91,8.1,8.44,8.06h0c3.33-.03,6.32-2.03,7.62-5.09,3.62-8.5,10.5-24.77,10.5-24.77l-.12-12.81-33.08-.07Z"/>
        <path class="cls-6" d="m347.97,429.89c.02,2.14-1.69,3.88-3.83,3.9-2.13.02-3.88-1.69-3.9-3.83-.02-2.13,1.69-3.88,3.83-3.9,2.13-.02,3.88,1.69,3.9,3.83Z"/>
        <g class="cls-8">
          <path class="cls-5" d="m332.59,413.06c-3.56,1.74-6.39,4.95-7.66,8.71-.17.51-.32,1.05-.25,1.59.07.54.4,1.07.92,1.23.52.16,1.09-.1,1.47-.49.38-.39.61-.9.86-1.38.92-1.79,2.2-3.39,3.75-4.67.61-.5,1.26-.97,1.75-1.58.49-.62.81-1.43.61-2.2-.2-.76-1.04-1.37-1.79-1.11"/>
        </g>
        <path class="cls-7" d="m345.2,447.48c-1.06.09-2.02.76-2.38,1.76-.21.57-.17,1.14.55,1.42,1.71.67,11.55-.68,17.15-8.03,4.6-6.03,4.95-12.79,4.05-13.31-.91-.52-2.23,0-2.65.44-.42.44-.14,7.72-5.94,12.88-4.28,3.8-8.69,4.66-10.77,4.84Z"/>
        <path class="cls-6" d="m361.04,409.17c0,.14-5.87.32-13.1.39-7.24.07-13.11,0-13.11-.13,0-.14,5.86-.32,13.1-.39,7.24-.07,13.11,0,13.11.13Z"/>
      </g>
      <g>
        <path class="cls-2" d="m30.37,114.38c9.75,3.84,19.51,7.75,28.99,12.21,1.12.53,2.24,1.07,3.34,1.64.44.23.88.46,1.31.71.6.35.16.25-.02-.06.18.32.68.64.92.92.09.11.19.21.28.32.26.31.34.44.01.01.25.32.51.63.76.95.63.81,1.25,1.63,1.85,2.46,3.86,5.26,7.52,10.68,11.16,16.1,5.36,7.97,10.65,15.99,15.9,24.02,6.31,9.64,12.57,19.3,18.81,28.98,6.65,10.31,13.27,20.63,19.88,30.96,6.39,9.98,12.76,19.98,19.12,29.98,5.53,8.69,11.05,17.39,16.56,26.09,4.03,6.37,8.07,12.74,12.09,19.12,1.92,3.05,3.85,6.09,5.77,9.14.08.13.16.26.25.39,1.48,2.35,5.15.07,3.67-2.29-1.34-2.13-2.68-4.25-4.02-6.37-3.57-5.66-7.15-11.33-10.73-16.98-5.23-8.27-10.47-16.53-15.71-24.78-6.23-9.81-12.47-19.61-18.73-29.4-6.62-10.37-13.26-20.74-19.93-31.09-6.4-9.94-12.82-19.87-19.27-29.78-5.55-8.52-11.12-17.02-16.77-25.47-4.08-6.11-8.18-12.22-12.44-18.21-1.29-1.82-2.6-3.63-3.98-5.38-.88-1.12-1.76-2.39-2.97-3.18-1.65-1.09-3.53-1.89-5.32-2.73-2.9-1.36-5.83-2.64-8.77-3.9-5.66-2.42-11.36-4.75-17.07-7.04-.96-.38-1.92-.77-2.88-1.15-1.09-.43-2.33-.25-2.93.86-.51.93-.23,2.5.86,2.93h0Z"/>
        <path class="cls-6" d="m30.37,114.38s-.57-.09-.96-.98c-.17-.43-.28-1.04-.05-1.71.22-.66.91-1.32,1.85-1.36.46-.03.95.07,1.42.27.47.18.97.38,1.48.58,1.04.42,2.17.87,3.39,1.37,2.45,1,5.27,2.16,8.45,3.46,3.18,1.31,6.72,2.72,10.53,4.45,1.91.85,3.92,1.71,5.97,2.66,1.03.47,2.08.97,3.11,1.55.51.3,1.03.6,1.51.99.48.39.89.84,1.29,1.31,1.55,1.89,2.99,3.97,4.56,6.05,1.54,2.11,3.01,4.35,4.59,6.63,3.11,4.57,6.47,9.37,9.86,14.48,13.56,20.47,29.53,44.97,47.02,72.33,17.52,27.33,36.68,57.46,56.66,89.15.19.31.45.7.52,1.13.09.42.06.89-.13,1.28-.34.81-1.1,1.36-1.93,1.52-.42.09-.87.03-1.28-.11-.4-.18-.76-.45-.99-.8-.45-.66-.83-1.3-1.25-1.95-1.63-2.59-3.26-5.17-4.88-7.73-3.24-5.13-6.46-10.21-9.64-15.24-6.37-10.05-12.61-19.89-18.69-29.48-6.1-9.57-12.04-18.9-17.79-27.92-5.77-9.01-11.35-17.71-16.72-26.08-5.34-8.37-10.56-16.34-15.48-23.95-2.46-3.8-4.86-7.51-7.2-11.11-2.36-3.58-4.66-7.06-6.88-10.44-8.88-13.5-16.72-25.21-23.64-34.5l.21-.16.11.14.05.07.03.03h.01s0,.02,0,.02h0s.02,0-.07-.04c-.15-.02-.17.22-.14.18v.02s.01,0,.01,0c-.07-.09-.14-.17-.2-.25-.14-.16-.27-.33-.4-.46-.28-.27-.6-.47-.83-.83l.23-.13c.04.06.09.12.15.17.02.02.08.05.07.05.02.03-.04-.08-.14.12,0,.03.02.07.02.07h-.01s-.05-.04-.05-.04c-.14-.1-.31-.19-.47-.28-.33-.18-.65-.36-.97-.53-.66-.33-1.31-.65-1.94-.96-1.27-.64-2.53-1.23-3.74-1.79-2.43-1.12-4.72-2.14-6.85-3.07-4.27-1.85-7.9-3.34-10.84-4.54-2.94-1.19-5.18-2.09-6.69-2.71-.75-.3-1.31-.53-1.7-.69-.38-.16-.57-.24-.57-.24,0,0,.78.28,2.3.87,1.52.6,3.77,1.48,6.72,2.64,2.95,1.18,6.59,2.66,10.87,4.49,2.14.92,4.43,1.93,6.87,3.04,1.22.56,2.48,1.14,3.75,1.78.64.32,1.29.64,1.95.96.32.18.65.35.98.53.16.09.33.17.5.29l.07.05.04.04s.04.06.04.1c-.1.22-.17.1-.17.13-.11-.03-.12-.06-.18-.1-.09-.07-.16-.15-.22-.25l.23-.13c.16.27.48.49.78.77.16.15.28.31.43.48.07.09.14.18.22.27h0s.01.03.01.03c.03-.04.01.2-.14.18-.09-.03-.06-.03-.07-.03h-.01s-.01-.03-.01-.03l-.02-.02-.03-.03-.06-.07-.11-.14.21-.16c6.95,9.28,14.83,20.97,23.73,34.46,2.23,3.37,4.53,6.85,6.9,10.43,2.34,3.6,4.75,7.3,7.22,11.1,4.93,7.6,10.15,15.57,15.51,23.93,5.37,8.36,10.96,17.06,16.74,26.06,5.75,9.02,11.7,18.34,17.81,27.91,6.08,9.59,12.33,19.43,18.71,29.48,3.18,5.03,6.4,10.11,9.64,15.24,1.62,2.57,3.24,5.14,4.88,7.73.41.64.81,1.32,1.23,1.92.19.29.47.49.77.63.31.1.65.16.99.08.66-.13,1.3-.59,1.55-1.21.3-.64.07-1.3-.35-1.93-19.98-31.69-39.12-61.82-56.63-89.17-17.47-27.37-33.4-51.89-46.92-72.38-3.39-5.12-6.73-9.91-9.83-14.49-1.57-2.27-3.04-4.53-4.57-6.63-1.56-2.08-3-4.16-4.53-6.05-.39-.46-.79-.9-1.25-1.27-.45-.37-.96-.67-1.47-.96-1.02-.58-2.06-1.07-3.08-1.55-2.05-.96-4.05-1.82-5.96-2.68-3.8-1.74-7.34-3.17-10.51-4.49-3.17-1.32-5.99-2.49-8.43-3.5-1.22-.5-2.35-.97-3.38-1.39-1.04-.37-1.95-.94-2.85-.87-.9.03-1.57.66-1.78,1.29-.23.64-.14,1.24.03,1.67.36.88.95.98.91,1Z"/>
      </g>
      <g>
        <g>
          <path class="cls-2" d="m355.9,177.12c.32,8.19.69,16.38,1.08,24.57.44,9.28.9,18.56,1.38,27.85.45,8.81.91,17.62,1.38,26.43.36,6.76.73,13.53,1.1,20.29.17,3.03.26,6.08.5,9.11,0,.04,0,.08,0,.12.08,1.39,2.24,1.33,2.16-.06-.14-2.5-.28-5-.42-7.49-.35-6.37-.7-12.74-1.04-19.11-.46-8.64-.92-17.28-1.36-25.92-.48-9.36-.95-18.71-1.4-28.07-.4-8.37-.79-16.74-1.12-25.11-.04-.89-.07-1.77-.11-2.66-.05-1.39-2.21-1.33-2.16.06h0Z"/>
          <path class="cls-6" d="m355.9,177.12s-.06-.21.1-.57c.14-.36.8-.76,1.54-.43.36.16.61.62.59,1.09.02.46.05.96.07,1.51.05,1.09.12,2.35.19,3.76.28,5.67.67,13.85,1.16,23.95,1.08,20.23,2.57,48.15,4.21,78.98,0,.29-.05.6-.25.85-.19.25-.47.41-.75.47-.56.12-1.23-.1-1.53-.65-.14-.27-.16-.59-.17-.8l-.04-.72-.08-1.43c-.11-1.91-.21-3.8-.31-5.68-.2-3.76-.4-7.46-.6-11.09-.38-7.27-.75-14.29-1.1-20.97-.66-13.36-1.25-25.4-1.75-35.52-.5-10.11-.78-18.3-1.01-23.95-.1-2.81-.18-5-.24-6.51-.02-.73-.04-1.29-.05-1.69,0-.38,0-.58,0-.58,0,0,.03.19.05.58.02.4.06.96.1,1.69.08,1.51.19,3.7.33,6.51.28,5.67.68,13.85,1.18,23.94.53,10.11,1.16,22.15,1.86,35.51.36,6.68.74,13.7,1.13,20.97.2,3.64.4,7.34.61,11.09.1,1.88.21,3.77.31,5.67l.08,1.43c.04.45,0,1.03.15,1.31.16.31.58.47.96.39.39-.07.61-.39.59-.78-1.72-30.84-3.12-58.77-4.06-78.99-.42-10.1-.76-18.28-1-23.95-.05-1.41-.1-2.67-.14-3.76-.02-.54-.03-1.05-.05-1.51.02-.46-.18-.83-.51-1-.67-.32-1.29.03-1.44.36-.17.33-.12.55-.15.54Z"/>
        </g>
        <g>
          <path class="cls-2" d="m329.66,174.71c.26,8.74.68,17.47,1.15,26.2.53,9.82,1.14,19.64,1.79,29.45.61,9.25,1.26,18.5,1.94,27.74.51,7.03,1.04,14.06,1.59,21.08.24,3.15.44,6.31.75,9.46,0,.04,0,.09.01.13.11,1.38,2.27,1.33,2.16-.06-.21-2.58-.41-5.17-.61-7.75-.52-6.65-1.02-13.3-1.52-19.96-.67-9.07-1.31-18.14-1.92-27.21-.66-9.83-1.28-19.67-1.84-29.5-.5-8.9-.95-17.81-1.25-26.72-.03-.97-.06-1.94-.09-2.91-.04-1.39-2.2-1.33-2.16.06h0Z"/>
          <path class="cls-6" d="m329.66,174.71s-.06-.22.12-.59c.17-.35.88-.77,1.63-.34.39.2.51.74.49,1.21.02.48.04,1.01.06,1.58.03,1.15.12,2.47.19,3.95.3,5.96.74,14.56,1.28,25.18,1.32,21.25,3.27,50.6,5.87,82.98.02.3-.05.64-.26.9-.21.26-.52.4-.82.44-.59.1-1.29-.22-1.51-.84-.11-.32-.1-.57-.13-.81l-.06-.75-.12-1.5c-.16-2-.31-3.99-.47-5.96-.3-3.95-.59-7.83-.88-11.65-.59-7.64-1.11-15.01-1.58-22.03-.47-7.02-.98-13.69-1.33-19.94-.37-6.25-.71-12.07-1.03-17.38-.16-2.66-.3-5.19-.44-7.58-.1-2.4-.2-4.65-.29-6.77-.17-4.22-.31-7.86-.43-10.84-.11-2.96-.19-5.27-.25-6.85-.02-.77-.04-1.36-.05-1.78,0-.4,0-.61,0-.61,0,0,.03.2.05.61.02.42.06,1.01.1,1.78.08,1.58.2,3.89.35,6.85.14,2.98.32,6.62.52,10.83.1,2.11.21,4.37.33,6.76.15,2.39.31,4.92.48,7.58.33,5.31.7,11.13,1.09,17.38.38,6.25.9,12.92,1.38,19.94.49,7.02,1.02,14.39,1.61,22.03.29,3.82.59,7.71.89,11.65.16,1.97.31,3.96.47,5.95l.12,1.5.06.75c.02.26.03.52.09.68.12.36.55.57.95.51.41-.05.67-.37.63-.78-2.6-32.39-4.49-61.74-5.72-83-.47-10.62-.85-19.23-1.12-25.19-.06-1.49-.13-2.81-.15-3.95-.01-.57-.03-1.1-.04-1.59.02-.49-.07-.92-.41-1.12-.66-.41-1.35-.05-1.52.28-.19.34-.14.57-.17.57Z"/>
        </g>
        <g>
          <path class="cls-2" d="m303.51,175.45c1.23,15.66,2.59,31.31,4.09,46.94,1.49,15.56,3.1,31.1,4.85,46.63.98,8.71,2,17.43,3.06,26.13.07.58.49,1.07,1.11,1.05.54-.02,1.12-.53,1.05-1.11-1.9-15.59-3.67-31.2-5.31-46.82-1.63-15.54-3.13-31.1-4.5-46.66-.77-8.74-1.5-17.48-2.18-26.22-.11-1.38-2.27-1.33-2.16.06h0Z"/>
          <path class="cls-6" d="m303.51,175.45s-.08-.23.11-.63c.18-.38.99-.76,1.71-.22.17.13.29.34.36.57.06.24.06.48.09.73.05.51.1,1.06.15,1.66.11,1.2.23,2.59.37,4.14.27,3.12.61,6.94.99,11.36.38,4.43.8,9.47,1.38,15.04,1.09,11.14,2.39,24.4,3.83,39.12,1.67,14.7,3.5,30.86,5.43,47.83.06.74-.54,1.29-1.18,1.39-.68.11-1.33-.44-1.46-1.05-.16-1.12-.26-2.12-.39-3.18-.24-2.09-.49-4.17-.73-6.24-.48-4.13-.96-8.2-1.43-12.2-.49-4-.89-7.93-1.28-11.79-.4-3.85-.79-7.62-1.17-11.31-1.48-14.72-2.98-27.97-3.83-39.13-.93-11.14-1.69-20.16-2.22-26.41-.25-3.1-.44-5.52-.58-7.18-.06-.81-.1-1.43-.14-1.87-.03-.42-.03-.64-.03-.64,0,0,.04.21.08.63.04.44.11,1.06.19,1.86.16,1.66.38,4.07.67,7.17.56,6.25,1.38,15.26,2.38,26.4.9,11.15,2.43,24.39,3.94,39.11.39,3.68.78,7.45,1.18,11.3.4,3.85.8,7.79,1.29,11.78.47,4,.95,8.07,1.43,12.2.24,2.06.49,4.14.73,6.24.13,1.03.24,2.13.38,3.11.1.43.48.73.89.67.39-.05.78-.45.73-.81-1.91-16.97-3.73-33.13-5.39-47.84-1.4-14.73-2.66-27.99-3.72-39.14-.55-5.57-.95-10.62-1.3-15.05-.35-4.43-.65-8.24-.9-11.37-.12-1.56-.23-2.94-.32-4.15-.05-.6-.09-1.15-.13-1.66-.03-.51-.05-.98-.38-1.23-.65-.51-1.42-.18-1.6.16-.2.36-.13.61-.16.6Z"/>
        </g>
        <g>
          <path class="cls-2" d="m113.58,169.02c.47,1.35.95,2.7,1.42,4.05,1.29,3.67,2.58,7.34,3.88,11.01,1.9,5.41,3.81,10.81,5.71,16.22,2.32,6.59,4.64,13.19,6.96,19.78,2.55,7.24,5.1,14.49,7.65,21.73,2.57,7.31,5.15,14.63,7.72,21.94,2.39,6.8,4.79,13.59,7.18,20.39,2.02,5.74,4.04,11.49,6.07,17.23,1.46,4.14,2.92,8.29,4.38,12.43.69,1.95,1.35,3.92,2.07,5.87.03.08.06.17.09.25.46,1.31,2.53.68,2.07-.64-.47-1.35-.95-2.7-1.42-4.05-1.29-3.67-2.58-7.34-3.88-11.01-1.9-5.41-3.81-10.81-5.71-16.22-2.32-6.59-4.64-13.19-6.96-19.78-2.55-7.24-5.1-14.49-7.65-21.73-2.57-7.31-5.15-14.63-7.72-21.94-2.39-6.8-4.79-13.59-7.18-20.39-2.02-5.74-4.04-11.49-6.07-17.23-1.46-4.14-2.92-8.29-4.38-12.43-.69-1.95-1.35-3.92-2.07-5.87-.03-.08-.06-.17-.09-.25-.46-1.31-2.53-.68-2.07.64h0Z"/>
          <path class="cls-6" d="m113.58,169.02s-.23-.29.03-.83c.13-.26.45-.49.87-.56.41-.07,1,.13,1.2.69.74,2.06,1.82,5.08,3.21,8.96,2.77,7.8,6.77,19.07,11.7,32.99,9.84,27.88,23.42,66.38,38.43,108.9.16.39.09.92-.22,1.25-.31.32-.73.48-1.16.46-.42-.02-.87-.27-1.07-.66-.19-.4-.25-.68-.39-1.02-.47-1.32-.93-2.64-1.39-3.95-.92-2.63-1.84-5.24-2.75-7.83-1.82-5.18-3.62-10.28-5.38-15.3-3.53-10.03-6.93-19.71-10.17-28.93-6.47-18.44-12.3-35.04-17.19-48.99-4.87-13.94-8.82-25.23-11.55-33.04-1.35-3.9-2.4-6.92-3.11-8.99-.35-1.02-.61-1.8-.8-2.34-.18-.53-.25-.8-.25-.8,0,0,.11.26.31.79.2.54.48,1.31.85,2.33.74,2.06,1.82,5.08,3.21,8.96,2.77,7.8,6.76,19.07,11.7,32.99,4.92,13.94,10.79,30.53,17.3,48.95,3.25,9.22,6.66,18.89,10.2,28.92,1.77,5.01,3.57,10.12,5.39,15.3.91,2.59,1.83,5.2,2.76,7.82.46,1.31.93,2.63,1.39,3.95.12.31.23.71.35.95.12.25.37.37.64.4.27.02.57-.1.74-.28.17-.2.22-.45.12-.73-14.95-42.54-28.48-81.06-38.28-108.96-4.87-13.94-8.82-25.23-11.55-33.04-1.35-3.89-2.4-6.92-3.12-8.99-.18-.51-.7-.7-1.09-.65-.4.05-.7.27-.83.5-.26.5-.03.81-.07.8Z"/>
        </g>
        <g>
          <path class="cls-2" d="m142.94,169.71c.4,1.35.8,2.71,1.2,4.06,1.08,3.66,2.17,7.31,3.25,10.97,1.61,5.44,3.22,10.88,4.83,16.32,1.95,6.59,3.91,13.18,5.86,19.78,2.15,7.27,4.31,14.54,6.46,21.8,2.16,7.29,4.32,14.58,6.48,21.86,2.03,6.84,4.05,13.68,6.08,20.52,1.7,5.74,3.4,11.48,5.1,17.22,1.23,4.15,2.46,8.31,3.69,12.46.58,1.95,1.12,3.92,1.74,5.86.03.08.05.17.08.25.39,1.33,2.46.7,2.07-.64-.4-1.35-.8-2.71-1.2-4.06-1.08-3.66-2.17-7.31-3.25-10.97-1.61-5.44-3.22-10.88-4.84-16.32-1.95-6.59-3.91-13.18-5.86-19.78-2.15-7.27-4.31-14.54-6.46-21.8-2.16-7.29-4.32-14.58-6.48-21.86-2.03-6.84-4.05-13.68-6.08-20.52-1.7-5.74-3.4-11.48-5.1-17.22-1.23-4.15-2.46-8.31-3.69-12.46-.58-1.95-1.12-3.92-1.74-5.86-.03-.08-.05-.17-.08-.25-.39-1.33-2.46-.7-2.07.64h0Z"/>
          <path class="cls-6" d="m142.94,169.71s-.2-.29.05-.82c.13-.25.42-.5.84-.58.4-.09,1,.09,1.19.65.63,2.07,1.54,5.09,2.72,8.98,2.34,7.82,5.71,19.11,9.88,33.05,8.3,27.94,19.75,66.51,32.41,109.11.13.39.05.9-.24,1.22-.28.33-.7.49-1.12.49-.42,0-.87-.25-1.08-.64-.1-.2-.15-.38-.19-.53l-.15-.5c-.39-1.33-.78-2.65-1.17-3.96-.78-2.63-1.55-5.25-2.32-7.84-1.54-5.19-3.05-10.3-4.54-15.33-2.97-10.05-5.84-19.74-8.57-28.98-5.45-18.47-10.36-35.1-14.48-49.08-4.1-13.97-7.42-25.27-9.72-33.1-1.13-3.9-2.01-6.93-2.62-9.01-.29-1.02-.51-1.8-.67-2.35-.15-.53-.21-.8-.21-.8,0,0,.1.26.26.79.17.54.41,1.32.72,2.33.62,2.07,1.54,5.09,2.71,8.98,2.34,7.82,5.71,19.11,9.88,33.05,4.15,13.96,9.1,30.59,14.59,49.05,2.74,9.23,5.62,18.92,8.6,28.97,1.49,5.02,3.01,10.14,4.54,15.33.77,2.59,1.54,5.21,2.32,7.84.39,1.31.78,2.63,1.17,3.96l.15.5.08.25.08.19c.13.23.36.36.63.37.57.01,1.06-.5.86-1.04-12.6-42.62-24-81.2-32.26-109.15-4.1-13.97-7.42-25.27-9.72-33.1-1.14-3.9-2.02-6.93-2.63-9-.16-.51-.7-.68-1.08-.61-.39.06-.68.29-.81.52-.26.49-.05.8-.1.79Z"/>
        </g>
        <g>
          <path class="cls-2" d="m169.76,170.51c.26,1.02.52,2.04.77,3.06.72,2.83,1.43,5.66,2.15,8.49,1.08,4.25,2.16,8.5,3.24,12.76,1.36,5.34,2.72,10.68,4.09,16.02,1.54,6.02,3.08,12.04,4.63,18.06,1.64,6.38,3.29,12.77,4.94,19.15,1.64,6.33,3.29,12.65,4.95,18.98,1.56,5.96,3.13,11.91,4.72,17.87,1.38,5.17,2.77,10.34,4.18,15.51,1.11,4.05,2.23,8.1,3.39,12.13.23.78.45,1.56.68,2.34.39,1.33,2.46.7,2.07-.64-1.09-3.7-2.13-7.42-3.16-11.13-1.37-4.94-2.7-9.89-4.03-14.85-1.55-5.78-3.08-11.55-4.6-17.34-1.65-6.29-3.3-12.58-4.93-18.87-1.66-6.38-3.31-12.76-4.95-19.15-1.59-6.16-3.17-12.32-4.75-18.49-1.41-5.52-2.83-11.05-4.23-16.57-1.16-4.56-2.32-9.13-3.48-13.69-.81-3.2-1.62-6.4-2.43-9.6-.38-1.49-.71-3-1.13-4.48-.02-.06-.03-.13-.05-.19-.34-1.35-2.41-.71-2.07.64h0Z"/>
          <path class="cls-6" d="m169.76,170.51s-.17-.28.06-.78c.12-.23.37-.5.76-.6.36-.12.95-.03,1.2.47.58,1.97,1.28,4.87,2.26,8.61,1.93,7.49,4.71,18.31,8.15,31.67,3.46,13.37,7.59,29.28,12.17,46.95,2.33,8.83,4.77,18.09,7.3,27.69,2.56,9.59,5.25,19.52,8.16,29.64.12.37.06.85-.2,1.17-.26.33-.64.51-1.04.54-.39.03-.84-.12-1.09-.46-.26-.36-.29-.7-.39-1-.37-1.26-.73-2.51-1.07-3.77-.7-2.51-1.4-5-2.09-7.47-1.39-4.94-2.66-9.83-3.96-14.63-2.53-9.61-4.97-18.87-7.29-27.7-4.61-17.67-8.67-33.6-12.08-46.98-3.37-13.38-6.11-24.21-8-31.71-.93-3.74-1.64-6.64-2.14-8.63-.24-.98-.42-1.73-.54-2.25-.12-.51-.17-.77-.17-.77,0,0,.08.25.22.76.14.52.33,1.26.59,2.24.51,1.98,1.26,4.88,2.23,8.61,1.93,7.49,4.72,18.3,8.16,31.66,3.47,13.37,7.6,29.28,12.18,46.95,2.33,8.82,4.78,18.09,7.32,27.69,1.31,4.79,2.58,9.68,3.97,14.62.69,2.47,1.39,4.96,2.09,7.46.35,1.25.7,2.51,1.07,3.76.1.32.16.66.3.83.14.2.39.28.64.26.54-.03.96-.53.78-1.04-2.91-10.13-5.6-20.05-8.15-29.65-2.52-9.61-4.96-18.87-7.27-27.7-4.54-17.68-8.63-33.6-12.06-46.98-3.37-13.38-6.1-24.21-7.99-31.71-.95-3.74-1.63-6.67-2.16-8.61-.22-.45-.74-.55-1.09-.45-.37.09-.61.33-.73.55-.23.47-.07.76-.11.75Z"/>
        </g>
        <g>
          <path class="cls-2" d="m194.95,172.56c2.06,9.02,4.15,18.03,6.27,27.04,2.12,9.01,4.26,18.01,6.44,27,2.17,8.99,4.37,17.98,6.6,26.96,2.23,8.98,4.49,17.95,6.77,26.92,2.28,8.97,4.6,17.93,6.94,26.88.29,1.11.58,2.23.87,3.34.35,1.34,2.42.71,2.07-.64-2.35-8.95-4.67-17.91-6.96-26.87s-4.56-17.94-6.79-26.92c-2.24-8.98-4.44-17.96-6.62-26.96-2.18-8.99-4.33-17.99-6.46-27-2.12-9.01-4.22-18.02-6.29-27.04-.26-1.12-.51-2.24-.77-3.37-.31-1.35-2.38-.72-2.07.64h0Z"/>
          <path class="cls-6" d="m194.95,172.56s-.14-.26.06-.74c.1-.23.34-.48.7-.61.34-.13.89-.12,1.2.33.16.21.19.49.26.74.06.26.13.54.2.83.14.58.29,1.22.45,1.91.33,1.38.71,2.97,1.13,4.76,1.72,7.16,4.09,17.56,7.2,30.36,6.11,25.63,14.83,60.97,25.02,99.86.1.36.05.8-.19,1.12-.23.32-.58.51-.96.58-.37.07-.8-.04-1.09-.33-.3-.3-.35-.7-.43-.97-.32-1.21-.63-2.41-.94-3.61-.62-2.4-1.24-4.79-1.85-7.16-1.22-4.74-2.43-9.41-3.61-14-2.37-9.18-4.55-18.06-6.68-26.51-4.19-16.91-7.91-32.15-10.91-44.98-3.06-12.82-5.43-23.21-7.06-30.4-.81-3.58-1.44-6.37-1.87-8.28-.21-.94-.36-1.65-.47-2.16-.1-.49-.14-.74-.14-.74,0,0,.07.24.2.73.12.5.3,1.21.52,2.14.45,1.9,1.11,4.68,1.96,8.25,1.69,7.17,4.11,17.55,7.22,30.36,3.05,12.82,6.81,28.05,11.02,44.95,2.14,8.44,4.33,17.32,6.71,26.5,1.19,4.59,2.39,9.26,3.62,14,.61,2.37,1.23,4.76,1.85,7.16.31,1.2.63,2.41.94,3.61.09.32.14.58.3.73.15.16.39.23.64.18.5-.08.89-.55.73-1.05-10.19-38.89-18.86-74.25-24.88-99.91-3.06-12.82-5.38-23.22-7.04-30.4-.41-1.79-.77-3.39-1.09-4.77-.15-.69-.3-1.33-.43-1.92-.06-.29-.13-.57-.18-.84-.06-.26-.09-.52-.23-.71-.26-.4-.76-.43-1.09-.31-.34.12-.57.34-.67.56-.21.45-.07.73-.1.72Z"/>
        </g>
        <g>
          <path class="cls-2" d="m224.07,174.78c1.78,9.99,3.67,19.96,5.58,29.93,2.17,11.28,4.39,22.55,6.63,33.81,2.14,10.73,4.29,21.46,6.47,32.19,1.65,8.15,3.31,16.3,4.99,24.44.52,2.53,1.04,5.07,1.56,7.6.24,1.16.42,2.35.72,3.49.01.05.02.1.03.15.12.57.83.88,1.35.72.6-.18.83-.78.72-1.35-.63-3.02-1.25-6.04-1.87-9.06-1.58-7.71-3.16-15.41-4.72-23.12-2.14-10.52-4.26-21.05-6.36-31.57-2.25-11.3-4.48-22.6-6.67-33.9-1.98-10.23-3.93-20.48-5.78-30.73-.19-1.07-.39-2.14-.58-3.22-.1-.58-.84-.87-1.35-.72-.61.19-.82.77-.72,1.35h0Z"/>
          <path class="cls-6" d="m224.07,174.78s-.02-.06-.03-.18c-.01-.12-.02-.3.05-.53.07-.23.25-.51.59-.64.33-.14.8-.11,1.19.19.2.14.33.4.35.66.05.25.1.52.15.79.1.56.22,1.16.34,1.82.25,1.32.55,2.84.87,4.54,1.31,6.85,3.21,16.74,5.55,28.95,4.82,24.42,11.56,58.13,19.24,95.32.07.34.04.71-.13,1.04-.17.33-.51.57-.87.64-.37.07-.74,0-1.04-.2-.15-.1-.29-.23-.39-.39-.11-.16-.15-.38-.17-.49-.24-1.16-.48-2.32-.72-3.47-.47-2.3-.94-4.58-1.41-6.84-.92-4.53-1.83-9-2.73-13.38-1.77-8.78-3.48-17.24-5.11-25.31-3.26-16.13-6.08-30.68-8.44-42.9-2.42-12.21-4.14-22.13-5.41-28.97-.61-3.41-1.09-6.07-1.42-7.89-.15-.89-.27-1.57-.36-2.05-.08-.46-.1-.7-.1-.7,0,0,.06.23.16.69.1.48.23,1.16.41,2.04.35,1.82.86,4.46,1.52,7.87,1.33,6.83,3.11,16.74,5.57,28.94,2.41,12.21,5.27,26.75,8.55,42.87,1.64,8.06,3.36,16.53,5.14,25.3.9,4.39,1.81,8.85,2.74,13.38.47,2.26.94,4.55,1.41,6.84.24,1.14.47,2.29.71,3.44.04.18.05.26.11.35.05.09.13.17.23.23.19.12.45.18.66.13.46-.08.71-.58.6-1.07-7.69-37.19-14.36-70.92-19.09-95.36-2.27-12.22-4.11-22.12-5.39-28.98-.31-1.71-.59-3.23-.83-4.55-.11-.66-.22-1.27-.31-1.83-.13-.54-.07-1.12-.44-1.39-.34-.27-.79-.32-1.09-.19-.32.12-.5.37-.57.59-.14.44-.04.7-.07.69Z"/>
        </g>
        <g>
          <path class="cls-2" d="m250.49,174.61c1.55,6.84,2.75,13.75,3.93,20.66,1.53,8.99,2.93,18,4.32,27.01,1.52,9.86,2.99,19.73,4.49,29.6,1.39,9.15,2.79,18.3,4.29,27.44,1.18,7.18,2.38,14.36,3.86,21.48.14.66.28,1.31.42,1.96.3,1.36,2.36.72,2.07-.64-1.48-6.71-2.63-13.5-3.76-20.27-1.49-8.92-2.87-17.87-4.23-26.81-1.51-9.86-2.98-19.73-4.49-29.59-1.42-9.26-2.85-18.51-4.39-27.75-1.21-7.25-2.45-14.51-4-21.7-.14-.67-.29-1.35-.45-2.02-.31-1.36-2.37-.72-2.07.64h0Z"/>
          <path class="cls-6" d="m250.49,174.61s-.12-.23.03-.69c.09-.21.28-.46.59-.61.3-.15.77-.22,1.16.07.39.32.39.89.53,1.4.12.54.27,1.12.38,1.76.24,1.28.52,2.75.84,4.4,1.22,6.63,3.17,16.21,4.97,28.13.95,5.96,1.98,12.48,3.09,19.48,1.07,7.01,2.22,14.5,3.42,22.38,1.24,7.88,2.54,16.14,3.89,24.71.67,4.29,1.37,8.64,2.15,13.05.77,4.41,1.6,8.88,2.59,13.36.07.33.03.72-.17,1.02-.19.3-.49.52-.81.62-.33.1-.71.1-1.04-.1-.34-.18-.51-.57-.57-.87-.25-1.12-.48-2.24-.67-3.36-.4-2.24-.8-4.46-1.2-6.67-.79-4.41-1.57-8.76-2.34-13.03-1.34-8.57-2.63-16.85-3.86-24.73-2.44-15.76-4.45-29.98-6.39-41.88-.94-5.95-1.79-11.34-2.53-16.08-.75-4.73-1.46-8.79-2.06-12.11-.6-3.32-1.11-5.88-1.47-7.62-.18-.86-.31-1.52-.41-1.98-.09-.45-.12-.68-.12-.68,0,0,.07.22.18.67.11.46.26,1.11.46,1.97.39,1.73.93,4.3,1.56,7.61.63,3.31,1.37,7.37,2.15,12.1.77,4.73,1.64,10.12,2.61,16.07,1.98,11.9,4.03,26.11,6.5,41.87,1.24,7.88,2.54,16.14,3.89,24.72.77,4.27,1.55,8.61,2.35,13.02.4,2.2.8,4.42,1.2,6.66.19,1.12.42,2.23.67,3.35.07.5.48.72.95.58.45-.14.74-.58.63-1.03-.99-4.5-1.82-8.97-2.59-13.39-.78-4.41-1.47-8.77-2.14-13.06-1.34-8.57-2.63-16.84-3.86-24.72-1.19-7.88-2.32-15.37-3.37-22.39-1.09-7-2.1-13.53-3.03-19.49-1.75-11.93-3.64-21.51-4.8-28.15-.3-1.66-.56-3.13-.79-4.41-.1-.64-.25-1.22-.36-1.76-.14-.52-.14-1.07-.47-1.34-.34-.27-.77-.21-1.06-.08-.3.14-.48.36-.58.56-.15.42-.05.67-.07.67Z"/>
        </g>
        <g>
          <path class="cls-2" d="m278.27,175.64c-.39-.01-.8-.3-.87-.43-.06-.1-.11-.31-.03-.05.06.23.13.47.19.7.21.86.37,1.74.53,2.61.11.61.22,1.23.33,1.84.06.35.12.71.18,1.06.03.17.06.34.09.52.02.09.03.19.05.28.03.18-.01-.08-.02-.1l.03.19c.29,1.78.57,3.56.84,5.33.7,4.57,1.37,9.14,2.03,13.72.8,5.57,1.59,11.14,2.36,16.72.84,6.05,1.67,12.09,2.5,18.14.84,6.13,1.66,12.27,2.49,18.41.76,5.69,1.52,11.39,2.28,17.09.64,4.81,1.28,9.62,1.91,14.43.46,3.47.91,6.93,1.37,10.4.21,1.63.42,3.26.64,4.89,0,.07.02.14.03.21.08.58.49,1.07,1.11,1.05.54-.02,1.12-.53,1.05-1.11-.15-1.14-.3-2.29-.45-3.43-.41-3.11-.82-6.22-1.22-9.33-.6-4.58-1.21-9.16-1.82-13.74-.74-5.58-1.48-11.16-2.23-16.74-.82-6.13-1.65-12.26-2.48-18.38-.84-6.18-1.68-12.35-2.54-18.53-.8-5.75-1.6-11.49-2.42-17.23-.69-4.82-1.39-9.64-2.12-14.45-.53-3.52-1.07-7.03-1.68-10.54-.27-1.55-.42-3.3-1-4.78-.21-.53-.56-.9-1.18-.92-1.39-.04-1.32,2.12.06,2.16h0Z"/>
          <path class="cls-6" d="m278.27,175.64s-.26.06-.66-.2c-.18-.14-.38-.39-.44-.73-.06-.33,0-.8.38-1.1.38-.27,1.01-.28,1.45.1.44.4.57,1.03.77,1.64.35,1.26.51,2.75.81,4.41.53,3.32,1.24,7.39,1.95,12.12.7,4.73,1.53,10.11,2.37,16.08,3.42,23.84,7.89,56.8,12.65,93.24l.04.33c.02.15,0,.3-.04.44-.08.28-.26.51-.47.67-.41.34-1.08.41-1.55.08-.48-.3-.63-.94-.65-1.35l-.17-1.32c-.23-1.76-.46-3.5-.69-5.24-.46-3.47-.91-6.91-1.35-10.31-.9-6.79-1.77-13.4-2.62-19.8-1.72-12.79-3.32-24.72-4.76-35.44-2.9-21.45-5.27-38.07-6.69-47.16l.18-.03.02.13v.02s0,0,0,0c-.35.07-.1.02-.18.03h0s0-.04,0-.04v-.07s-.05-.26-.05-.26c-.03-.17-.06-.34-.08-.51-.05-.33-.11-.66-.16-.97-.11-.62-.2-1.2-.29-1.74-.2-1.06-.37-1.95-.51-2.67-.07-.35-.17-.66-.23-.92v-.02s-.01-.01-.01-.01h0s0,0,0,0c-.05.02.09,0,.07-.02h0s.01.05.01.05l.03.09c.02.05.06.09.1.13.08.07.17.13.25.17.32.18.51.16.51.17,0,0-.2.03-.53-.13-.08-.04-.17-.09-.26-.17-.04-.04-.09-.08-.12-.14l-.04-.09-.02-.05h0s.12-.05.07-.03h0s0,0,0,0h0s0,.04,0,.04c.07.26.17.57.25.92.15.72.33,1.61.55,2.66.1.54.2,1.11.32,1.74.05.31.11.63.17.97.03.17.06.34.09.51l.04.26v.07s.02.03.02.03h0c-.08.02.18-.03-.18.03h0s0-.02,0-.02l-.02-.13.18-.03c1.52,9.07,3.97,25.69,6.93,47.13,1.46,10.73,3.09,22.65,4.83,35.44.85,6.4,1.73,13.01,2.64,19.79.45,3.39.9,6.83,1.36,10.3.23,1.74.46,3.48.69,5.24l.17,1.32c.03.23.04.43.12.58.07.17.18.31.31.4.57.4,1.53-.22,1.21-1.02-4.76-36.43-9.18-69.4-12.5-93.25-.85-5.96-1.62-11.35-2.3-16.09-.68-4.73-1.36-8.8-1.86-12.12-.28-1.66-.42-3.16-.76-4.4-.18-.61-.31-1.23-.7-1.58-.39-.35-.97-.34-1.31-.12-.34.26-.41.69-.36,1,.05.33.22.56.39.7.37.26.63.21.62.24Z"/>
        </g>
      </g>
      <g>
        <path class="cls-2" d="m389.37,173.44c-1.93.06-2.98,1.58-3.15,3.34-1.15,12.32-2.29,24.64-3.44,36.96-1.83,19.61-3.65,39.23-5.48,58.84-.33,3.53-.66,7.05-.99,10.58-6.7,1.21-13.39,2.42-20.09,3.63-17.69,3.2-35.38,6.39-53.07,9.58-21.75,3.92-43.5,7.83-65.26,11.74-19.18,3.44-38.36,6.87-57.55,10.27-6.73,1.19-13.47,2.38-20.2,3.55-2.24.39-4.49.78-6.74,1.16-.79.13-1.59.26-2.38.4,1.32-.22-.11.01-.78.12-.21-.33-.42-.67-.62-1.01-2.55-4.23-4.81-8.65-7.08-13.04-8.34-16.08-16.3-32.35-24.26-48.62-9.74-19.9-19.38-39.85-28.99-59.81-7.96-16.54-15.9-33.09-23.85-49.63-2.23-4.64-4.46-9.29-6.73-13.92-.5-1.03-.98-2.08-1.53-3.08-1.9-3.43-6.2-5.24-9.64-6.68-3.97-1.66-8.08-3.09-12.23-4.24-4.03-1.12-5.55,5.18-1.54,6.3,4.16,1.16,8.27,2.54,12.09,4.26,1.22.55,2.42,1.13,3.57,1.81.28.17.55.34.82.51.09.06.15.09.19.12.03.02.06.05.1.08.21.17.93.97.83.77.17.27.32.54.46.82,1.65,3.22,3.19,6.51,4.77,9.77,7.19,14.89,14.32,29.81,21.49,44.71,9.59,19.94,19.2,39.87,28.88,59.77,8.58,17.62,17.18,35.23,26.06,52.71,2.85,5.61,5.71,11.22,8.74,16.73.9,1.64,1.81,3.29,2.81,4.88.69,1.1,1.45,2.38,2.63,3.03,1.06.58,2.02.42,3.11.25,1.66-.26,3.32-.54,4.98-.82,5.32-.9,10.63-1.83,15.95-2.77,17.69-3.11,35.37-6.27,53.05-9.43,21.63-3.87,43.26-7.76,64.89-11.65,19.36-3.49,38.72-6.98,58.08-10.47,10.51-1.9,21.01-3.8,31.52-5.7.49-.09.97-.18,1.46-.26,1.51-.27,2.17-1.88,2.29-3.19,1.15-12.32,2.29-24.64,3.44-36.96,1.83-19.61,3.65-39.23,5.48-58.84.42-4.47.83-8.94,1.25-13.41.16-1.75-1.74-3.19-3.34-3.15Z"/>
        <g>
          <path class="cls-4" d="m389.37,173.44c-1.93.06-2.98,1.58-3.15,3.34-1.15,12.32-2.29,24.64-3.44,36.96-1.83,19.61-3.65,39.23-5.48,58.84-.33,3.53-.66,7.05-.99,10.58-6.7,1.21-13.39,2.42-20.09,3.63-17.69,3.2-35.38,6.39-53.07,9.58-21.75,3.92-43.5,7.83-65.26,11.74-19.18,3.44-38.36,6.87-57.55,10.27-6.73,1.19-13.47,2.38-20.2,3.55-2.24.39-4.49.78-6.74,1.16-.79.13-1.59.26-2.38.4,1.32-.22-.11.01-.78.12-.21-.33-.42-.67-.62-1.01-2.55-4.23-4.81-8.65-7.08-13.04-8.34-16.08-16.3-32.35-24.26-48.62-9.74-19.9-19.38-39.85-28.99-59.81-7.96-16.54-15.9-33.09-23.85-49.63-2.23-4.64-4.46-9.29-6.73-13.92-.5-1.03-.98-2.08-1.53-3.08-1.9-3.43-6.2-5.24-9.64-6.68-3.97-1.66-8.08-3.09-12.23-4.24-4.03-1.12-5.55,5.18-1.54,6.3,4.16,1.16,8.27,2.54,12.09,4.26,1.22.55,2.42,1.13,3.57,1.81.28.17.55.34.82.51.09.06.15.09.19.12.03.02.06.05.1.08.21.17.93.97.83.77.17.27.32.54.46.82,1.65,3.22,3.19,6.51,4.77,9.77,7.19,14.89,14.32,29.81,21.49,44.71,9.59,19.94,19.2,39.87,28.88,59.77,8.58,17.62,17.18,35.23,26.06,52.71,2.85,5.61,5.71,11.22,8.74,16.73.9,1.64,1.81,3.29,2.81,4.88.69,1.1,1.45,2.38,2.63,3.03,1.06.58,2.02.42,3.11.25,1.66-.26,3.32-.54,4.98-.82,5.32-.9,10.63-1.83,15.95-2.77,17.69-3.11,35.37-6.27,53.05-9.43,21.63-3.87,43.26-7.76,64.89-11.65,19.36-3.49,38.72-6.98,58.08-10.47,10.51-1.9,21.01-3.8,31.52-5.7.49-.09.97-.18,1.46-.26,1.51-.27,2.17-1.88,2.29-3.19,1.15-12.32,2.29-24.64,3.44-36.96,1.83-19.61,3.65-39.23,5.48-58.84.42-4.47.83-8.94,1.25-13.41.16-1.75-1.74-3.19-3.34-3.15Z"/>
          <path class="cls-6" d="m389.37,173.44s.25-.03.73.07c.47.11,1.2.36,1.88,1.08.32.36.64.84.73,1.45.08.61-.06,1.26-.11,1.98-.13,1.43-.28,3.09-.45,4.97-.69,7.53-1.71,18.63-3.02,32.94-1.32,14.31-2.94,31.83-4.82,52.19-.47,5.09-.96,10.36-1.46,15.79-.06.68-.13,1.36-.19,2.05-.09.7-.3,1.4-.69,2.01-.38.61-1.05,1.09-1.78,1.2-.69.12-1.38.25-2.07.38-2.77.5-5.58,1.01-8.44,1.53-11.41,2.07-23.48,4.25-36.16,6.55-25.36,4.58-53.16,9.59-83.04,14.98-14.94,2.68-30.4,5.44-46.33,8.3-15.94,2.83-32.33,5.8-49.19,8.68-1.06.17-2.11.35-3.17.52-1.06.14-2.09.43-3.25.38-1.18-.06-2.19-.82-2.88-1.67-.7-.87-1.25-1.8-1.78-2.74-2.24-3.72-4.19-7.62-6.23-11.5-1.02-1.94-2.03-3.89-3.05-5.84-1.03-1.95-2.05-3.91-3.02-5.9-1.96-3.97-3.94-7.97-5.93-11.98-3.97-8.03-7.99-16.15-12.04-24.35-2.03-4.1-4.07-8.22-6.11-12.36-2.01-4.16-4.04-8.33-6.07-12.53-8.11-16.79-16.38-33.88-24.77-51.25-4.18-8.69-8.39-17.44-12.62-26.26-4.25-8.8-8.46-17.75-12.9-26.55l.46-.25s.02.06.03.1c0,.03,0,.01,0,.07,0,.04-.04.15-.14.2-.09.05-.17.03-.19.03-.05-.01-.13-.06-.13-.06l-.08-.07-.12-.12-.23-.24c-.16-.16-.3-.31-.47-.45l.03.02c-1.12-.77-2.38-1.3-3.6-1.95-1.22-.66-2.55-1.17-3.86-1.71-2.66-1.04-5.43-1.96-8.23-2.76-.33-.1-.66-.18-1-.29-.34-.13-.7-.25-1-.48-.61-.41-1.11-1.05-1.3-1.77-.39-1.41,0-3.08,1.21-4.01.59-.47,1.36-.67,2.11-.63.75.1,1.39.32,2.05.5,1.32.39,2.63.8,3.94,1.24,2.61.88,5.17,1.86,7.69,2.93,2.51,1.07,5.07,2.21,7.14,4.09,1.02.92,1.89,2.12,2.42,3.36l1.8,3.66c1.18,2.44,2.36,4.88,3.53,7.31,2.34,4.87,4.68,9.72,7.01,14.55,9.3,19.32,18.39,38.35,27.42,56.93,4.5,9.3,8.96,18.49,13.37,27.59,2.2,4.55,4.39,9.07,6.57,13.56,2.18,4.49,4.43,8.92,6.62,13.33,4.4,8.83,8.75,17.54,13.04,26.13,4.32,8.57,8.36,17.17,13.22,25.1l-.24-.11c.32-.05.63-.1.94-.15l.23-.04.12-.02h.03s0,0,0,0h0s0,0,0,0c-.08-.41.13.56.08.47h0s-.01,0-.01,0h-.02s-.06.01-.06.01l-.46.08-.08-.47c22.71-3.87,44.56-7.82,65.47-11.54,20.91-3.74,40.88-7.32,59.8-10.7,37.83-6.81,71.47-12.86,100.03-17.99l-.12.14c3.31-35.26,5.93-63.11,7.72-82.15.9-9.51,1.6-16.83,2.07-21.77.15-1.23.16-2.32.38-3.25.24-.92.74-1.58,1.25-1.96.52-.38,1-.5,1.31-.54.32-.05.48-.04.48-.04,0,0-.16,0-.47.06-.31.05-.78.18-1.29.56-.5.38-.98,1.04-1.21,1.94-.21.91-.22,2.01-.36,3.24-.45,4.94-1.12,12.26-1.99,21.77-1.76,19.04-4.33,46.9-7.58,82.16v.12s-.12.02-.12.02c-28.56,5.17-62.19,11.25-100.02,18.09-18.92,3.4-38.88,6.99-59.79,10.74-20.91,3.73-42.75,7.69-65.47,11.57l-.08-.47.46-.08h.06s.01-.01.01-.01h0s0,0,0,0l.03.16c.06.34.05.31.05.31h0s-.03,0-.03,0l-.11.02-.23.04c-.31.05-.62.1-.94.15l-.16.03-.08-.13c-4.89-7.99-8.92-16.56-13.25-25.14-4.29-8.59-8.64-17.31-13.05-26.14-2.19-4.42-4.44-8.84-6.63-13.33-2.18-4.49-4.37-9.01-6.57-13.56-4.41-9.09-8.87-18.29-13.37-27.59-9.04-18.58-18.13-37.6-27.43-56.92-2.33-4.83-4.66-9.68-7.01-14.55-1.18-2.43-2.35-4.87-3.53-7.31l-1.79-3.65c-.54-1.26-1.32-2.31-2.31-3.22-1.99-1.8-4.5-2.93-7-3.99-2.51-1.07-5.06-2.04-7.66-2.91-1.3-.44-2.6-.85-3.92-1.23-.65-.19-1.33-.4-1.94-.48-.63-.03-1.25.14-1.75.53-1.01.77-1.37,2.25-1.03,3.45.16.62.58,1.14,1.09,1.49.5.37,1.17.5,1.85.7,2.82.81,5.6,1.73,8.28,2.78,1.33.55,2.66,1.05,3.9,1.72,1.24.66,2.53,1.21,3.65,1.97h.02s.01.02.01.02c.19.14.36.33.51.48l.23.23.11.1.04.04h0s-.04.04-.05.06c-.04.04-.06.09-.07.15.03.03-.17,0-.23.09l.44-.24c4.49,8.89,8.66,17.78,12.92,26.6,4.24,8.82,8.45,17.57,12.62,26.26,8.39,17.36,16.65,34.46,24.76,51.25,2.03,4.19,4.06,8.37,6.07,12.53,2.05,4.14,4.08,8.26,6.11,12.36,4.05,8.2,8.07,16.32,12.04,24.35,1.98,4.02,3.96,8.01,5.92,11.98.96,1.99,1.99,3.95,3.01,5.9,1.02,1.95,2.04,3.9,3.05,5.84,2.03,3.88,3.99,7.77,6.21,11.47.53.94,1.09,1.88,1.74,2.69.65.81,1.53,1.44,2.54,1.5,1,.05,2.08-.23,3.14-.38l3.17-.52c16.85-2.88,33.25-5.84,49.19-8.66,15.93-2.84,31.39-5.6,46.33-8.27,29.88-5.37,57.68-10.36,83.05-14.92,12.68-2.28,24.75-4.46,36.17-6.51,2.85-.51,5.67-1.02,8.44-1.52,1.34-.33,2.96-.19,3.65-1.43.76-1.12.68-2.57.84-3.92.51-5.44,1-10.7,1.48-15.79,1.91-20.35,3.56-37.87,4.9-52.18,1.35-14.31,2.4-25.41,3.12-32.94.18-1.88.34-3.54.48-4.97.05-.71.19-1.38.12-1.96-.08-.59-.39-1.07-.71-1.42-.66-.71-1.38-.97-1.85-1.09-.24-.06-.42-.08-.54-.08-.12,0-.18-.01-.18-.01Z"/>
        </g>
      </g>
      <g>
        <path class="cls-2" d="m63.02,169.13c2.97.09,5.95.18,8.92.27,8.09.24,16.19.48,24.28.73,11.87.36,23.75.71,35.62,1.07l43.75,1.31c15.97.48,31.95.96,47.92,1.43,16.07.48,32.14.96,48.21,1.44,14.98.45,29.97.9,44.95,1.35,12.71.38,25.41.76,38.12,1.14,9.1.27,18.21.55,27.31.82,4.31.13,8.64.38,12.96.39.19,0,.38.01.56.02,2.78.08,2.65-4.24-.13-4.32-2.97-.09-5.95-.18-8.92-.27-8.09-.24-16.19-.48-24.28-.73-11.87-.36-23.75-.71-35.62-1.07l-43.75-1.31c-15.97-.48-31.95-.96-47.92-1.43-16.07-.48-32.14-.96-48.21-1.44-14.98-.45-29.97-.9-44.95-1.35-12.71-.38-25.41-.76-38.12-1.14-9.1-.27-18.21-.55-27.31-.82-4.31-.13-8.64-.38-12.96-.39-.19,0-.38-.01-.56-.02-2.78-.08-2.65,4.24.13,4.32h0Z"/>
        <path class="cls-6" d="m63.02,169.13s-.15,0-.44-.04c-.28-.07-.74-.19-1.13-.64-.4-.42-.7-1.17-.57-2.04.06-.43.27-.89.67-1.22.39-.34.96-.45,1.53-.43,4.53.12,11.19.31,19.77.54,17.18.49,42.02,1.21,72.72,2.09,61.41,1.82,146.24,4.33,239.92,7.11.81,0,1.63.46,2.04,1.17.39.71.51,1.58.19,2.34-.13.39-.42.72-.76.97-.35.23-.77.35-1.17.36-.75.01-1.46-.03-2.2-.05-2.91-.09-5.82-.17-8.71-.26-5.78-.17-11.53-.35-17.24-.52-11.41-.34-22.65-.68-33.7-1.01-22.09-.67-43.4-1.31-63.7-1.92-40.6-1.24-77.16-2.35-107.86-3.29-30.7-.95-55.54-1.73-72.71-2.26-8.58-.28-15.24-.49-19.77-.64-2.25-.08-3.98-.14-5.14-.18-1.16-.04-1.75-.08-1.75-.08,0,0,.59,0,1.75.03,1.17.03,2.89.07,5.14.13,4.53.12,11.19.31,19.77.54,17.18.49,42.02,1.21,72.72,2.09,30.71.9,67.27,1.98,107.86,3.17,20.3.6,41.61,1.24,63.7,1.89,11.05.33,22.29.66,33.7,1.01,5.7.17,11.45.34,17.23.51,2.89.09,5.79.17,8.7.26.72.01,1.47.06,2.17.05.65,0,1.24-.38,1.46-.99.25-.59.15-1.32-.16-1.88-.34-.55-.94-.91-1.61-.91-93.69-2.83-178.51-5.4-239.92-7.26-30.7-.95-55.54-1.73-72.72-2.26-8.58-.28-15.24-.49-19.77-.64-.56-.02-1.09.08-1.47.4-.38.31-.59.75-.65,1.16-.13.84.15,1.57.53,1.99.38.44.83.57,1.1.65.29.04.44.07.44.07Z"/>
      </g>
      <g>
        <path class="cls-2" d="m90.72,226.47c39.27-1.15,78.54-2.3,117.82-3.44,38.74-1.13,77.48-2.26,116.23-3.4,22.21-.65,44.43-1.3,66.64-1.95,2.78-.08,2.66-4.4-.13-4.32-39.27,1.15-78.54,2.29-117.82,3.44-38.74,1.13-77.48,2.26-116.23,3.4-22.21.65-44.43,1.3-66.64,1.95-2.78.08-2.66,4.4.13,4.32h0Z"/>
        <path class="cls-6" d="m90.72,226.47s-.13,0-.4-.01c-.26-.03-.68-.12-1.07-.48-.39-.35-.75-.99-.7-1.78-.01-.77.51-1.77,1.57-2.03,4.11-.23,10.14-.36,17.92-.62,15.56-.47,38.07-1.16,65.88-2.01,55.64-1.65,132.48-3.92,217.35-6.43.72-.05,1.52.29,1.95.91.45.6.58,1.38.42,2.1-.14.72-.64,1.4-1.36,1.66-.73.26-1.4.17-2.05.21-2.64.08-5.27.15-7.89.23-5.24.15-10.45.3-15.61.46-10.34.3-20.52.6-30.53.89-20.01.58-39.32,1.14-57.71,1.67-36.78,1.05-69.9,2-97.72,2.8-27.81.78-50.32,1.41-65.88,1.84-7.77.21-13.81.37-17.91.47-2.04.05-3.6.09-4.66.11-1.05.02-1.59.02-1.59.02,0,0,.54-.03,1.59-.07,1.06-.04,2.62-.09,4.66-.16,4.1-.13,10.14-.32,17.91-.57,15.56-.47,38.07-1.16,65.88-2.01,27.82-.83,60.94-1.82,97.72-2.91,18.39-.54,37.7-1.11,57.71-1.7,10.01-.29,20.19-.59,30.53-.9,5.17-.15,10.37-.3,15.61-.46,2.62-.08,5.25-.15,7.89-.23.66-.04,1.35.02,1.87-.18.55-.19.93-.7,1.04-1.28.13-.57.02-1.22-.33-1.68-.34-.47-.9-.73-1.51-.7-84.87,2.45-161.72,4.67-217.36,6.27-27.81.78-50.32,1.41-65.88,1.84-7.77.23-13.83.33-17.9.52-1,.24-1.51,1.18-1.51,1.93-.05.77.29,1.4.66,1.74.38.36.79.45,1.04.49.26.02.4.04.4.04Z"/>
      </g>
      <g>
        <path class="cls-2" d="m123.06,292.38c.92.12,1.84,0,2.76-.09,1.85-.17,3.69-.36,5.54-.55,6.5-.68,12.99-1.41,19.49-2.13,9.5-1.06,19-2.14,28.49-3.23,11.52-1.32,23.04-2.65,34.56-3.98,12.57-1.46,25.15-2.92,37.72-4.38,12.66-1.48,25.33-2.95,37.99-4.44,11.75-1.38,23.5-2.75,35.26-4.13,9.99-1.17,19.98-2.35,29.96-3.52,7.13-.84,14.25-1.68,21.38-2.52,3.39-.4,6.78-.78,10.17-1.2.15-.02.29-.03.44-.05,2.74-.32,2.64-4.65-.13-4.32-2.32.27-4.65.55-6.97.82-6.33.75-12.65,1.49-18.98,2.24-9.33,1.1-18.65,2.19-27.98,3.29-11.39,1.34-22.78,2.67-34.16,4.01-12.54,1.47-25.08,2.93-37.61,4.4-12.69,1.48-25.37,2.96-38.06,4.43-11.83,1.37-23.66,2.74-35.49,4.1-10.06,1.16-20.13,2.31-30.2,3.44-7.36.83-14.72,1.66-22.09,2.45-3.65.39-7.31.87-10.97,1.1-.35.02-1.2-.06-.09.08-1.16-.15-2.32.36-2.61,1.59-.25,1.03.42,2.46,1.59,2.61h0Z"/>
        <path class="cls-6" d="m123.06,292.38s-.14,0-.41-.1c-.26-.1-.64-.35-.93-.84-.27-.47-.52-1.25-.17-2.06.31-.83,1.38-1.43,2.53-1.26v.11s-.33-.04-.33-.04l-.16-.02h-.04s-.02-.01-.02-.01c.03,0-.07,0-.05-.1.12-.06.08-.02.13-.03.22,0,.44.02.66-.01.45-.05.93-.1,1.42-.15.98-.1,2.05-.21,3.19-.33,2.28-.24,4.86-.51,7.73-.81,5.74-.65,12.63-1.42,20.57-2.32,15.87-1.84,35.89-4.16,59.12-6.85,46.46-5.45,105.76-12.42,170.35-20,.63-.08,1.37.08,1.83.6.46.51.63,1.19.59,1.82-.04.64-.3,1.28-.77,1.74-.46.48-1.17.66-1.74.71-2.32.27-4.63.55-6.94.82-4.61.54-9.19,1.08-13.73,1.62-9.09,1.07-18.05,2.12-26.85,3.15-17.6,2.06-34.58,4.05-50.76,5.94-32.35,3.74-61.49,7.11-85.96,9.94-24.47,2.8-44.28,5.03-57.97,6.51-6.85.72-12.16,1.32-15.77,1.65-1.81.17-3.18.31-4.11.37-.93.05-1.4-.06-1.4-.06,0,0,.12,0,.35.02.23.01.59.02,1.05-.02.92-.07,2.3-.23,4.1-.42,3.61-.36,8.92-.99,15.76-1.75,13.69-1.58,33.49-3.85,57.95-6.67,24.47-2.86,53.6-6.27,85.94-10.05,16.17-1.9,33.15-3.9,50.75-5.97,8.8-1.04,17.76-2.09,26.85-3.16,4.54-.54,9.12-1.08,13.73-1.62,2.3-.27,4.62-.54,6.93-.82.58-.06,1.06-.19,1.44-.57.37-.36.58-.87.62-1.4.03-.52-.11-1.06-.45-1.43-.34-.38-.86-.5-1.39-.44-64.59,7.54-123.9,14.46-170.36,19.88-23.24,2.64-43.26,4.91-59.13,6.72-7.94.86-14.83,1.62-20.58,2.24-2.87.29-5.46.54-7.74.77-1.14.11-2.2.21-3.19.31-.49.05-.97.09-1.42.14-.23.03-.46,0-.67,0-.03-.02-.05.05-.07-.05.04-.11.05-.02.08-.04l.16.02.31.04v.11c-1.13-.17-2.15.4-2.46,1.18-.35.77-.12,1.53.14,2,.27.49.64.73.89.84.26.11.4.11.4.12Z"/>
      </g>
      <path class="cls-3" d="m53.3,114.82c-.33,1.28-8.41,23.34-8.41,23.34l-28.98-11.18c-6.66-2.57-9.85-10.17-7.01-16.72h0c2.7-6.24,9.87-9.19,16.18-6.68l28.22,11.24Z"/>
      <g class="cls-8">
        <path class="cls-1" d="m29.17,115.39c.13,4.58-3.47,8.4-8.05,8.54-4.58.13-8.4-3.47-8.54-8.05-.13-4.58,3.47-8.4,8.05-8.54,4.58-.13,8.4,3.47,8.54,8.05Z"/>
      </g>
      <g class="cls-8">
        <path class="cls-5" d="m28.27,106.87c-.07-.37-.77-1.13-1.08-1.34-1.87-1.28-3.6-1.7-6.32-1.86-3.61-.2-6.74,1.31-9.27,3.91-.39.4-.78.92-.69,1.47.12.72,1.01,1.08,1.73.92.71-.16,1.29-.67,1.87-1.11,3.25-2.43,7.81-3,11.56-1.44.43.18.88.39,1.35.35.47-.04.94-.45.85-.91Z"/>
      </g>
      <path class="cls-7" d="m11.91,112.15c.02.67-.51,1.23-1.17,1.25s-1.23-.51-1.25-1.17c-.02-.67.51-1.23,1.17-1.25.67-.02,1.23.51,1.25,1.17Z"/>
    </g>
  </g>
  <g id="Speech_Bubble" data-name="Speech Bubble">
    <g>
      <g>
        <path class="cls-5" d="m238.1,150.65l-6.93-12.42c-8.02-1.23-15.81-4.62-22.44-10.26-19.08-16.22-21.4-44.84-5.18-63.92,16.22-19.08,44.84-21.4,63.92-5.18,19.08,16.22,21.4,44.83,5.18,63.92-6.77,7.97-15.71,13-25.21,14.99h.03s-9.36,12.87-9.36,12.87Z"/>
        <path class="cls-6" d="m238.1,150.65s.21-.31.6-.87c.41-.58,1-1.41,1.77-2.49,1.57-2.19,3.87-5.41,6.87-9.59l.11.22h-.03c-.08,0-.14-.07-.14-.15,0-.06.05-.12.11-.13,5.78-1.25,13.16-4.02,20.01-9.92,1.7-1.47,3.37-3.11,4.94-4.95,1.47-1.91,3.07-3.85,4.33-6.1,2.65-4.4,4.71-9.54,5.72-15.18,1.02-5.62.98-11.73-.37-17.8-1.34-6.07-4.02-12.1-8.02-17.41-7.9-10.68-21.64-18.05-36.28-17.85-7.43.12-14.76,1.9-21.01,5.39-6.29,3.41-11.58,8.23-15.5,13.76-3.95,5.53-6.36,11.82-7.46,18.04-1.09,6.24-.82,12.44.49,18.08,1.31,5.66,3.66,10.75,6.57,15.05.37.53.74,1.06,1.11,1.58.36.53.73,1.04,1.16,1.51.82.95,1.63,1.89,2.43,2.81,1.78,1.66,3.42,3.35,5.25,4.69,7.21,5.52,14.7,7.86,20.42,8.76.04,0,.08.03.1.07,2.2,4.02,3.9,7.12,5.06,9.24.57,1.05,1,1.85,1.31,2.41.3.54.44.84.44.84,0,0-.15-.25-.45-.77-.31-.55-.76-1.32-1.34-2.34-1.2-2.11-2.97-5.22-5.25-9.24l.1.07c-5.76-.85-13.33-3.16-20.63-8.7-1.85-1.34-3.51-3.04-5.32-4.71-.81-.93-1.63-1.87-2.47-2.83-.44-.47-.81-.98-1.18-1.52-.37-.53-.75-1.06-1.13-1.6-2.95-4.34-5.35-9.48-6.69-15.2-1.35-5.71-1.64-11.98-.54-18.3,1.1-6.3,3.54-12.68,7.53-18.29,3.96-5.61,9.32-10.5,15.7-13.96,6.34-3.54,13.77-5.35,21.31-5.47.92-.07,1.84.01,2.76.07l2.75.18,2.71.43c.9.13,1.8.28,2.67.54.88.23,1.75.46,2.63.69.88.2,1.7.59,2.55.88.84.32,1.69.59,2.51.96.8.39,1.6.78,2.4,1.17,6.34,3.19,11.78,7.79,15.81,13.2,4.05,5.39,6.75,11.5,8.1,17.65,1.36,6.15,1.38,12.34.33,18.02-1.04,5.7-3.14,10.89-5.83,15.33-1.28,2.27-2.9,4.22-4.4,6.14-1.59,1.86-3.28,3.51-5.01,4.98-6.95,5.92-14.41,8.67-20.23,9.88l-.02-.28h.02c.08,0,.14.07.13.15,0,.03-.01.06-.03.08-3.08,4.17-5.45,7.38-7.07,9.57-.78,1.06-1.38,1.86-1.8,2.42-.4.54-.6.79-.6.79Z"/>
      </g>
      <polygon class="cls-3" points="258.15 108.53 245.46 95.57 258.42 82.88 251.13 75.44 238.17 88.13 225.48 75.17 218.04 82.46 230.73 95.42 217.77 108.11 225.06 115.55 238.02 102.86 250.71 115.82 258.15 108.53"/>
    </g>
  </g>
</svg>