<?xml version="1.0" encoding="UTF-8"?>
<svg xmlns="http://www.w3.org/2000/svg" viewBox="0 0 195.87 417.96">
  <defs>
    <style>
      .cls-1 {
        fill: #8380ff;
      }

      .cls-1, .cls-2, .cls-3, .cls-4, .cls-5 {
        stroke-width: 0px;
      }

      .cls-2 {
        fill: #fff;
      }

      .cls-6 {
        opacity: .3;
      }

      .cls-3 {
        fill: #421b36;
      }

      .cls-4 {
        fill: #ffae7a;
      }

      .cls-5 {
        fill: #a0d2f4;
      }
    </style>
  </defs>
  <g id="Speech_Bubble" data-name="Speech Bubble">
    <g>
      <path class="cls-1" d="m31.31.13c-5.34.53-10.97,3.21-14.98,7.85-4.91,5.67-6.5,14.08-4.51,21.31,1.99,7.23,7.96,13.08,15.05,15.53,6.99,2.41,16.22,1.06,22.07-4.36,0,0,8.58,3.86,9.52,2.01.71-.79-3.31-6.37-5.26-8.18l-.05.06c3.72-6.41,5.47-15.1.01-23.94C49.09,3.79,41.05-.84,31.31.13Z"/>
      <g>
        <path class="cls-5" d="m24.47,20.6l3.16-.79c-.15-1.35-.29-2.7-.44-4.06.2-.31,1.38-2.12,3.84-2.62,1.93-.39,3.47.27,3.92.48.48,1.23.95,2.47,1.43,3.7.52.03,2.74.13,3.53-1.03,1.02-1.49-.95-4.12-2.68-5.42-1.31-.98-2.67-1.33-3.41-1.47-3.95-.74-7.11,1.53-7.91,2.15-1.31,1.02-2.14,2.18-2.65,3.14l1.19,5.92Z"/>
        <path class="cls-5" d="m41.15,18.26l-16.83,4.29,3.91,14.16s16.04-1.4,15.65-3.8c-.39-2.4-2.74-14.65-2.74-14.65Zm-5.74,12.23c-.51-.02-1.02-.05-1.53-.07v-1.73c-.66-.13-1.33-.26-1.99-.39-.32-1.3-.53-2.57-.17-2.73.02,0,.03-.01.04-.01.39,0,3.39-1.7,3.39-1.7l.91,3.63-1.04,1.07.39,1.93Z"/>
      </g>
    </g>
  </g>
  <g id="Lines">
    <path class="cls-3" d="m167.01,154.63c-5.2-6.76-11.48-12.61-16.68-19.37l-.64,1.11c9.97.27,19.94.54,29.91.81.62.02.99-.83.52-1.26-8.42-7.7-16.84-15.4-25.25-23.1-.11.41-.22.82-.33,1.23,14.54-4.39,28.37-10.95,40.96-19.44.41-.27.55-1.04,0-1.27-13.54-5.79-28.24-8.47-42.96-7.75.21.37.42.74.64,1.11,5.67-9.21,10.49-18.9,14.45-28.96.21-.52-.41-1.07-.91-.91-7.33,2.4-14.65,4.8-21.98,7.2.3.3.6.6.91.91l7.22-20.06c.32-.89-1.1-1.28-1.42-.39l-7.22,20.06c-.19.52.4,1.07.91.91,7.33-2.4,14.65-4.8,21.98-7.2l-.91-.91c-3.91,9.94-8.7,19.51-14.3,28.61-.28.46.08,1.14.64,1.11,14.44-.71,28.92,1.86,42.21,7.55v-1.27c-12.49,8.43-26.18,14.94-40.6,19.29-.51.15-.75.85-.33,1.23,8.42,7.7,16.84,15.4,25.25,23.1.17-.42.35-.84.52-1.26-9.97-.27-19.94-.54-29.91-.81-.51-.01-.98.66-.64,1.11,5.2,6.76,11.48,12.61,16.68,19.37.57.74,1.85,0,1.27-.74h0Z"/>
  </g>
  <g id="Character">
    <g>
      <g>
        <path class="cls-1" d="m65.77,229.84c-.6,1.74-2.79,19.75,3.85,45.72,1.36,5.3,3.38,16.1,4.86,23.99,5.76,30.74,15.56,77.42,15.56,77.42l12.26-3.48s6.96-41.12,3.97-62.08c-1.9-13.33-6.77-18.24-8.69-34.54-1.92-16.3,0-42.88,0-42.88l-31.82-4.16Z"/>
        <path class="cls-1" d="m25.97,228.23c-.6,1.74-.61,17.92,3.85,45.72.87,5.41,3.38,16.1,4.86,23.99,5.76,30.74,14.8,73.94,14.8,73.94h13.02s3.34-34.16,2.44-57.13c-.53-13.46-3.17-12.14-5.09-28.45-1.92-16.3-2.07-53.92-2.07-53.92l-31.82-4.16Z"/>
        <g>
          <path class="cls-5" d="m11.29,410.24c.46-.38.91-.67,1.74-1.2,0,0-.04-.1,0,0,.32.19,9.97,5.78,26.49,4.87,16.8-.93,29.43-10.48,29.43-10.48.31,2.23.37,4.14-.12,5.12-.06.11-.14.22-.23.34-.2.23-.49.46-.87.7-5.37,3.4-27.37,7.39-36.16,8.18-11.58,1.03-17.31-2.48-19.52-5.04-1.11-1.35-1.25-2.1-.77-2.49Z"/>
          <path class="cls-3" d="m16.86,406.92l20.49-11.36c2.09-1.22,4.19-3.41,6.31-6.07,0,0-.19-.14,0,0,2.25-5.72,7.23-6.35,9.86-3.1,1.74,2.16,2,5.59,1.94,7.88.25.01.49.03.74.02,6.3-.1,9.82-3.9,9.82-3.9,1.29,4.94,2.45,9.64,2.95,13.05,0,0-12.58,9.74-29.39,10.67-16.8.93-26.54-5.06-26.54-5.06l3.83-2.12Z"/>
          <path class="cls-3" d="m69.08,403.66c-14.09,9.82-39.72,17.05-54.94,5.9-.56-.41-.04-1.36.56-.96,16.52,10.99,38.32,2.57,54.13-5.38.3-.15.53.25.26.44h0Z"/>
        </g>
        <g>
          <path class="cls-5" d="m126.58,409.32s.09,2.18-.26,4.16c-.35,1.98-7.07,3.28-15.94,3.08-8.88-.19-14.05-4.16-14.42-4.6-.37-.44-1.4-7.15-1.4-7.15l32.02,4.51Z"/>
          <path class="cls-3" d="m107.24,387.5c.33.25,9.33,12.37,12.19,14.17,2.86,1.8,7.39,4.42,7.15,8.35-.24,3.93-16.94,3.72-23.47,2.24-6.53-1.47-6.37-.68-7.53-2.92-1.16-2.24-1.68-11.53-1.76-12.8-.07-1.26,3.57-16.43,13.42-9.04Z"/>
        </g>
        <path class="cls-3" d="m40.65,392.9s5.66-4.91,5.79-12.12c.07-3.82-2-11.36-.23-12.72,1.77-1.35,18.77,1.55,19.98,5.44,1.2,3.89-1.41,11.19-1.41,11.19l1.73,7.7-8.78,4.5-17.07-3.99Z"/>
        <path class="cls-2" d="m32.63,398.44c.58.84,1.48,1.4,2.22,2.09.82.77,1.45,1.81,2.31,2.52.74.6,1.74-.13,1.31-1.01-.5-1.05-1.68-1.89-2.61-2.55-.89-.63-1.98-1.32-3.1-1.28-.11,0-.2.13-.13.23h0Z"/>
        <path class="cls-2" d="m39.98,393.83c.4.81,1.49,1.34,2.15,1.94.79.71,1.4,1.62,2.25,2.25.7.52,1.65-.34,1.43-1.1-.36-1.22-1.52-2.17-2.57-2.82-.85-.52-2.15-1.15-3.14-.7-.16.07-.18.29-.11.42h0Z"/>
        <path class="cls-2" d="m44.93,387.9c.71.58,1.74.81,2.57,1.18.98.44,1.79,1.33,2.8,1.64.77.24,1.25-.62.96-1.25-.79-1.7-4.65-3.07-6.28-1.97-.12.08-.19.29-.05.4h0Z"/>
        <path class="cls-2" d="m46.73,380.47c1.76.12,3.52.66,5.25,1,1.24.25,1.73-1.49.52-1.9-1.98-.67-3.93-.5-5.92-.18-.64.1-.43,1.04.15,1.08h0Z"/>
        <path class="cls-5" d="m57.3,410.32c.66-3.09.92-6.13,2.59-8.92,1.63-2.73,3.99-4.56,6.77-6.01,1.19-.62.14-2.28-1.03-1.76-5.91,2.6-11.23,10.09-8.72,16.69.07.17.35.21.39,0h0Z"/>
        <path class="cls-5" d="m24.7,402.85c1.33,1.77,3.43,2.79,4.99,4.36,2.35,2.34,3.95,5.29,3.47,8.69-.22,1.53,2.07,2.24,2.37.65.59-3.1-.31-6.11-2.27-8.58-1.85-2.32-5.21-5.07-8.16-5.65-.27-.05-.61.25-.4.53h0Z"/>
        <path class="cls-3" d="m94,399.36c-.63-5.86-5.97-20.01-6.79-22.69-.86-2.83,18.98-6.16,19.29-3.16s2.64,16.4,2.64,16.4c0,0-6.87-.71-9.69,0-2.82.71-5.45,9.46-5.45,9.46Z"/>
        <path class="cls-2" d="m102.32,399.07c1.33-.14,2.43-1.1,3.74-1.4.78-.18,1.59-.27,2.39-.2.75.06,1.31.28,2.04.06.45-.14.55-.65.26-.99-1.75-2.09-8.16-.51-8.65,2.24-.02.13.06.31.22.29h0Z"/>
        <path class="cls-2" d="m99.25,393.65c1.32-.55,2.54-1.07,3.98-1.19,1.37-.11,2.59.47,3.91.44.6-.02.91-.74.49-1.18-1.1-1.14-3.27-1.16-4.74-.91-1.57.27-3.08,1.01-4.05,2.29-.19.25.13.67.42.55h0Z"/>
        <path class="cls-2" d="m97.81,388.59c2.08-1.12,4.36-1.27,6.66-1.21.97.02,1.12-1.39.22-1.66-2.73-.82-5.46.38-7.19,2.47-.18.22.04.54.31.4h0Z"/>
        <path class="cls-2" d="m95.36,383.03c2.28-.75,5-.46,7.29-.03,1.09.21,1.52-1.31.46-1.67-1.28-.43-2.7-.52-4.04-.34-1.59.22-2.55.82-3.9,1.6-.23.13-.08.52.18.44h0Z"/>
        <path class="cls-5" d="m100.45,412.83c3.97-4.34,13.08-11.68,19.21-7.28.84.6,1.81-.71,1.09-1.41-6.16-6.02-17.76,2.66-21.04,8.12-.27.45.37.97.74.57h0Z"/>
        <path class="cls-3" d="m75.61,45.02c-3.28,9.78-7.01,19.4-11.17,28.84-3.68-1.4-8.09-.63-11.08,1.91-3,2.55-4.45,6.78-3.66,10.63-4.06-2.38-9.72.21-11.73,4.46-2.02,4.25-1.07,9.4,1.1,13.58,2.73,5.25,7.34,9.49,12.81,11.74,5.47,2.25,11.75,2.47,17.35.58l21.98-10.34,9.54-47-25.14-14.42Z"/>
        <path class="cls-4" d="m13.47,120.65c.81.81,12.02,35.58,25.51,36.88,13.49,1.3,26.81-21.45,26.81-21.45l-10.56-15.44-16.41,13.16-12.19-19.66-13.16,6.5Z"/>
        <path class="cls-3" d="m49.01,138.98c-1.58,1.16-19.7,23.22-26.01,55.14-6.3,31.92-2.7,109.56-2.7,109.56-5.03,33.66,99.81,6.96,99.81,6.96l-16.34-134.69-13.07-29.48-41.7-7.49Z"/>
        <path class="cls-5" d="m86.36,85.64c-1.11,0-35.21,12.99-35.03,23.95.19,10.96-.05,14.97-.05,14.97,0,0-8.54,10.46-4.46,14.43,4.09,3.96,43.09,12.51,47.74,7.49s19.69-56.02,18.39-56.15c-1.3-.13-26.59-4.68-26.59-4.68Z"/>
        <g>
          <path class="cls-3" d="m88.54,25.87c-3.93-.32-8.09.73-10.98,3.41-2.89,2.68-4.26,7.11-2.79,10.77.29.72.68,1.43.66,2.2-.02.79-.46,1.49-.82,2.19-1.44,2.78-1.76,6.11-.88,9.11l25.88-23.79c-3.4-2-7.14-3.57-11.07-3.89Z"/>
          <g>
            <path class="cls-4" d="m111.43,40.27c-5.67-12.63-23.18-14.65-31.61-3.67-2.67,3.47-4.52,8.42-5.75,15.28-3.43,19.13,12.69,22.39,12.69,22.39l.69,14.08,3.3,2.63,14.74-5.04-.05-15.32s6.52-15.24,7.14-24.46c.14-2.05-.31-4.03-1.15-5.88Z"/>
            <path class="cls-3" d="m85.29,44.43c-.15.7.23,1.37.86,1.51.63.14,1.26-.31,1.41-1.01.15-.7-.23-1.37-.86-1.51-.63-.14-1.26.31-1.41,1.01Z"/>
            <path class="cls-3" d="m97.35,46.39c-.15.7.23,1.37.86,1.51.63.14,1.26-.31,1.41-1.01.15-.7-.23-1.37-.86-1.51-.63-.14-1.26.31-1.41,1.01Z"/>
            <path class="cls-3" d="m104.91,40.28c-1.9-2.16-5.18-4.25-8.22-3.2-.73.25-.55,1.2.17,1.29,1.3.16,2.53.02,3.82.43,1.27.4,2.71,1.09,3.69,2.02.36.34.86-.17.54-.54h0Z"/>
            <path class="cls-3" d="m95.99,73.34c-3.77.59-7.47.77-11.21-.14-.75-.18-1.07.96-.32,1.16,3.92,1.05,7.93.99,11.57-.91.06-.03.02-.11-.04-.1h0Z"/>
            <g class="cls-6">
              <path class="cls-3" d="m93.53,51.81c-.23,1.03,1.2,2.22,3.19,2.67,1.99.44,3.79-.04,4.02-1.07.23-1.03-1.2-2.22-3.19-2.67-1.99-.44-3.79.04-4.02,1.07Z"/>
            </g>
            <g class="cls-6">
              <path class="cls-3" d="m75.77,47.88c-.23,1.03,1.2,2.22,3.19,2.67,1.99.44,3.79-.04,4.02-1.07s-1.2-2.22-3.19-2.67c-1.99-.44-3.79.04-4.02,1.07Z"/>
            </g>
            <path class="cls-3" d="m96.61,29.42c-.53-5.16-7.5-8.29-12.05-6.81-.48.16-.42.92.12.91,2.68-.06,5.05-.04,7.41,1.43,1.87,1.17,2.95,2.91,4.37,4.52.05.05.15.01.14-.06h0Z"/>
            <path class="cls-3" d="m90.13,18.15c4.48,1.87,7.38,6.2,7.21,11.05-.03.77,1.17.77,1.2,0,.19-5.48-2.99-9.99-8.34-11.29-.16-.04-.21.18-.06.23h0Z"/>
            <path class="cls-3" d="m84.65,35.89c1.02-.27,2.66-.34,3.65.05,2.55,1.01,2.44,4.08,1.79,6.23-.88,2.94-2.63,5.27-4.46,7.66-.49.64.54,1.35,1.08.84,3.04-2.87,6.2-8.59,4.88-12.9-.93-3.03-4.55-4.32-7.17-2.42-.25.19-.11.62.22.53h0Z"/>
          </g>
          <path class="cls-3" d="m115.66,38.9c-3.33-5.03-8.81-8.54-14.74-9.59-.92-.16-4.4-1.26-4.8-.42.44,6.11,5.44,13.76,10.38,17.39.4.3.84.61.98,1.09.16.54-.11,1.09-.36,1.59-3.08,6.34-4.16,13.84-1.16,20.21,5.54-2.37,10.9-7.16,12.51-12.96,1.61-5.81.52-12.28-2.81-17.31Z"/>
          <path class="cls-3" d="m84.42,56.21c.31,1.43.71,3,1.91,3.84,1.31.92,3.2.61,4.48-.35,1.28-.96,2.07-2.44,2.68-3.92.25-.59.46-1.32.09-1.84-.41-.59-1.27-.57-1.98-.46-2.25.35-4.46.98-6.56,1.87"/>
        </g>
        <path class="cls-3" d="m84.21,119.83s-7.45-3.62-5.78-19.04c1.67-15.42,15.6-15.6,15.6-15.6,0,0,.17-14.58,11.93-16.02,1.08-.13,2.4-27.83,2.4-27.83l.82-7.99s11.62,4.09,12.37,15.05c.74,10.96-1.3,31.58-1.3,31.58,0,0,17.27,12.63,13.56,22.66s-6.13,9.29-6.13,9.29c0,0,12.07,8.17.37,18.57-11.7,10.4-21.25,6.2-21.25,6.2l-22.59-16.87Z"/>
        <path class="cls-1" d="m105.94,31.5c4.83,2.31,9.58,6.09,12.33,10.71,2.22,3.71,2.27,7.74,2.27,11.94,0,4.41-.2,8.83-.46,13.23-.21,3.49-.48,6.98-.78,10.47-.06.69-.27,1.52-.2,2.22.05.47.31.64.65.9,4.76,3.66,9.55,8.24,12.13,13.74.82,1.75,1.38,3.68,1.27,5.63-.14,2.52-1.48,5.08-2.63,7.27-.65,1.25-1.43,2.74-2.61,3.59-.24.17-.39.23-.61.31.01,0-.11-.02,0,.01-.71-.2-1.05.75-.48,1.14,3.56,2.43,6.12,6.97,4.77,11.28-1.44,4.6-6.12,8.11-10.15,10.35-3.16,1.75-6.71,2.86-10.35,2.82-1.12-.01-2.24-.13-3.32-.4-.33-.08-.65-.17-.97-.28-.08-.03-.52-.21-.23-.08-.73-.32-1.37.76-.63,1.08,4.73,2.05,10.73.66,15.11-1.53,7.02-3.52,15.67-11.41,10.61-19.81-1.05-1.74-2.52-3.36-4.21-4.51-.16.38-.32.76-.48,1.14,1,.29,2.07-.77,2.64-1.43,1.08-1.25,1.87-2.75,2.58-4.23.91-1.92,1.92-3.98,2.16-6.11.78-6.8-5.12-13.14-9.69-17.41-1.47-1.38-3.01-2.71-4.64-3.9.1.18.21.36.31.54.7-7.12,1.19-14.28,1.39-21.43.07-2.45.1-4.9.03-7.34-.06-2.2-.15-4.39-.86-6.49-1.38-4.06-4.32-7.43-7.61-10.1-2.06-1.68-4.32-3.24-6.72-4.39-.72-.35-1.36.73-.63,1.08h0Z"/>
        <path class="cls-1" d="m116.46,100.59l-3.55,2.91s10.28,57.76,12.85,58.05c2.57.29,4.9,0,4.9,0l-14.21-60.95Z"/>
        <path class="cls-1" d="m72.55,169.08s1.96,45.23,10.91,47.49c5.43,1.37,58.57-7.68,59.27-14.32.7-6.63-7.04-41.59-12.95-42.6-5.91-1.01-57.24,3.84-57.24,9.43Z"/>
        <path class="cls-4" d="m57.37,120.34s2.75,50.18,15.93,48.28c13.18-1.9,21.8-22.38,28.14-33.12,6.61-11.18,16.75-34.68,12.73-40.26-4.02-5.58-9.64-4.35-14.66-2.78-5.03,1.56-23.83,45.55-23.83,45.55,0,0-6.28-22.31-11.95-31.46"/>
        <path class="cls-4" d="m114.45,54.13c1.18-.3,2.48.24,3.28,1.16.8.92,1.15,2.17,1.18,3.39.05,2.03-.81,4.13-2.47,5.29-1.66,1.16-4.13,1.19-5.63-.17"/>
        <path class="cls-3" d="m116.52,60.1c-.08-.46,0-.73-.31-1.13-.26-.33-.63-.58-1.03-.71-.88-.28-1.91-.1-2.61.52-.52.46.14,1.26.73.94.55-.3,1.02-.47,1.65-.27.36.12,1.13.45,1.37.76.08.1.21-.01.2-.11h0Z"/>
        <g>
          <polygon class="cls-4" points="5.98 95.29 9.61 107.31 4.02 105.96 2.93 101.43 5.98 95.29"/>
          <path class="cls-3" d="m1.86,84.52s10.35,34.2,14.87,36.4c4.51,2.19,20.74.92,20.96-1.57.22-2.49-10.17-35.98-13.14-37.05-2.97-1.07-23.97-2.06-22.68,2.22Z"/>
          <path class="cls-4" d="m7.48,94.85s2.27-2.3.65-4.18c-1.62-1.88-5.14-1.04-6.85,3.68-1.71,4.72-2.4,8.81,2.41,11.01,0,0-.63,1.91,1.96,3.96,0,0-.68,2.78,1.83,5.2,0,0,.63,4.82,3.46,6.07,2.84,1.25,8.61.03,8.25-2.13-.36-2.16-6.02-3.32-6.02-3.32,0,0,4.52-.55,5.21-2.4.69-1.85-1.98-4.06-1.98-4.06,0,0,1.63-1.2.96-3.26-.68-2.06-3.22-2.99-6.72-2.95-3.5.04-6.26.9-6.26.9,0,0,1.23-7.57,3.1-8.52Z"/>
          <path class="cls-3" d="m3.91,104.6c2.63-1.44,5.6-2.14,8.6-2.05.66.02.66-1.01,0-1.03-3.18-.1-6.33.67-9.11,2.19-.58.32-.06,1.2.52.89h0Z"/>
          <path class="cls-3" d="m5.84,109.96c3.55-.7,7.16-1.04,10.78-1.02.66,0,.66-1.02,0-1.03-3.71-.02-7.41.33-11.05,1.05-.65.13-.37,1.12.27.99h0Z"/>
          <path class="cls-3" d="m7.88,115.07c2.82.78,5.79.83,8.64.15.64-.15.37-1.14-.27-.99-2.67.64-5.45.58-8.09-.15-.64-.18-.91.81-.27.99h0Z"/>
          <path class="cls-3" d="m5.72,103.43c-.02-2.62.71-5.18,2.1-7.4.35-.56-.54-1.08-.89-.52-1.48,2.37-2.26,5.13-2.24,7.92,0,.66,1.03.66,1.03,0h0Z"/>
          <path class="cls-3" d="m3.24,92.08c.92.51,2.02.54,2.98.1.84-.39,1.47-1.18,1.72-2.07.18-.64-.81-.91-.99-.27-.17.62-.6,1.13-1.2,1.43-.61.3-1.38.26-1.99-.08-.58-.32-1.1.57-.52.89h0Z"/>
          <path class="cls-2" d="m17.18,91.5c.83,1.24.69,2.79-.31,3.46-1,.67-2.48.2-3.31-1.05-.83-1.24-.69-2.79.31-3.46,1-.67,2.48-.2,3.31,1.05Z"/>
        </g>
        <path class="cls-5" d="m86.36,108.69s21.3,17.12,24.41,14.86c3.11-2.26,14.82-30.66-1.27-33.63-16.09-2.96-23.14,18.77-23.14,18.77Z"/>
        <g>
          <path class="cls-4" d="m70.63,124.65s-3.82-17.43-12.19-23.9c0,0-15.83-13.1-23.19-11.1,0,0-1.5,1.68.77,3.63,2.27,1.95,11.75,5.79,11.75,5.79,0,0-8.25.07-8.42,6.39,0,0-2.3,3.99.84,5.9,0,0-2.19,4.33.88,7.29,3.07,2.96,5.38,4.04,7.27,2.46,1.89-1.58,1.12-3.68,1.12-3.68l7.89,2.91,2.45,6.89,10.82-2.58Z"/>
          <path class="cls-3" d="m46.94,117.37c.85.41,1.7.82,2.55,1.22.29.14.69.09.86-.22.15-.28.09-.7-.22-.86-.85-.41-1.7-.82-2.55-1.22-.29-.14-.69-.09-.86.22-.15.28-.09.7.22.86h0Z"/>
          <path class="cls-3" d="m40.31,112.76c2.1-1.48,4.72-2.18,7.28-1.83.33.05.67-.08.77-.44.08-.29-.1-.72-.44-.77-2.89-.39-5.85.27-8.24,1.96-.65.46-.03,1.54.63,1.08h0Z"/>
          <path class="cls-3" d="m39.13,106.5c2.47-1.49,5.37-2.06,8.22-1.68.34.05.62-.32.62-.62,0-.37-.29-.58-.62-.62-3.06-.41-6.21.26-8.86,1.85-.69.41-.06,1.49.63,1.08h0Z"/>
          <path class="cls-3" d="m44.88,99.54c2.23-.34,4.52-.24,6.72.27.78.18,1.12-1.02.33-1.21-2.43-.56-4.92-.64-7.38-.27-.33.05-.52.47-.44.77.1.36.43.49.77.44h0Z"/>
          <path class="cls-3" d="m35.08,90.17c.58.85,1.47,1.38,2.49,1.49.98.1,2-.31,2.68-1.02.23-.24.24-.64,0-.88-.24-.24-.65-.24-.88,0-.06.06-.12.12-.19.18-.14.14.04-.02-.05.04-.03.03-.07.05-.11.07-.07.05-.15.09-.22.13-.05.03-.1.05-.15.07.06-.03,0,0-.03.01-.08.03-.16.06-.25.08-.04.01-.08.02-.13.03,0,0-.16.03-.11.02.05,0-.07,0-.08,0-.04,0-.09,0-.13,0-.1,0-.2,0-.29,0-.04,0-.09-.01-.02,0-.04,0-.08-.01-.12-.02-.08-.02-.16-.04-.25-.06-.05-.02-.1-.03-.15-.05-.1-.04.07.03-.03-.01-.08-.04-.15-.07-.23-.12-.08-.05-.16-.1-.24-.15.06.04-.09-.08-.12-.1-.07-.06-.14-.13-.2-.2,0,0-.08-.09-.05-.06.03.04-.06-.09-.06-.09-.19-.28-.55-.4-.86-.22-.28.16-.42.58-.22.86h0Z"/>
        </g>
        <path class="cls-3" d="m74.46,137.01c2.22,5.26,3.69,10.82,4.31,16.51.09.79,1.34.8,1.25,0-.64-5.8-2.09-11.46-4.36-16.84-.31-.73-1.52-.41-1.21.33h0Z"/>
        <path class="cls-3" d="m73.67,168.84c2.12,5.98,4.3,11.94,6.55,17.88,1.07,2.82,2.13,5.64,3.25,8.43.84,2.1,1.77,4.2,3.22,5.95,3.54,4.3,9.12,3.71,14.12,3.34,6.11-.45,12.2-1.2,18.24-2.25,5.98-1.04,11.91-2.37,17.77-3.99,1.95-.54,5.17-.84,5.32-3.41.08-1.29-.27-2.71-.46-3.98-.23-1.55-.5-3.09-.79-4.62-1.13-5.91-2.71-11.74-4.73-17.41-.93-2.62-1.82-5.44-3.19-7.87-.62-1.1-1.21-1.96-2.47-2.12-3.1-.39-6.4,0-9.5.24-1.74.13-3.48.29-5.21.49-.89.1-1.92.13-2.77.44-.75.28-.42,1.49.33,1.21,1.75-.65,4-.58,5.84-.74,2.96-.26,5.93-.47,8.9-.49.8,0,1.87-.13,2.64.14.31.11.84.9,1.15,1.45.72,1.28,1.22,2.7,1.75,4.06,1.99,5.09,3.63,10.33,4.91,15.65.64,2.66,1.18,5.34,1.63,8.04.23,1.41.45,2.82.63,4.24.11.86.26,1.87-.67,2.36-.61.33-1.37.46-2.03.65-5.45,1.56-10.98,2.87-16.55,3.93-5.6,1.06-11.24,1.86-16.91,2.4-2.72.26-5.45.5-8.17.58-2.62.08-5.37-.14-7.5-1.84-1.98-1.58-3.13-3.99-4.07-6.28-1.15-2.81-2.21-5.66-3.29-8.49-2.31-6.09-4.55-12.2-6.72-18.33-.27-.75-1.47-.43-1.21.33h0Z"/>
      </g>
      <g class="cls-6">
        <path class="cls-3" d="m46.04,340.77c-1.2.43-2.09.74-2.5.89-.08-.24-.13-.52-.15-.83.41-.42.96-.56,1.44-.81.72.08,1.09.37,1.21.76Zm.43-1.82c.36.34.66.77,1.17,1.06,3.79-1.1-1.7-4.77-1.17-1.06Zm11.95-5.07c1.42.43,2.57-.16,2.05-1.77-.64-.52-1.56-1.2-1.65.13-1.56.13-1.14.56-.4,1.64Zm6.52-2.29v-.14c-.56-.01-1.14.41-1.48,1.28.03.05.07.1.11.15.63-.46,1.11-.89,1.37-1.29Zm-20.01,2.79c-2.3.34-1.87,3.21.51,2.41.87-.9.6-1.94-.51-2.41Zm-2.85-11.75c.32-.27.65-.54.97-.81v-1.16c-1.94-1.93-3.81,1.78-.97,1.97Zm19.85,2.91c.52-.22,1.2-.19,1.46-.98-.51-3.46-4.33-.21-1.46.98Zm-15.17,6.23c-.1.41-.18.75-.26,1.12.45,1.44,2.12,1.39,2.54-.06-.25-1.01-1.36-1.95-2.28-1.06Zm9.73,2.75c-1.87.44-1.66,1.71-.52,2.34.55-.24,1.1-.48,1.63-.73.14-.59-.29-1.26-1.11-1.61Zm-15.72-8.04c-.58,2.71,2.79,2.48,2.24,0-.8-.53-1.53-.53-2.24,0Zm10.93-2.45c-.5-1.39-2.36-1.02-2.62.46.35.53.95,1.67,1.65.82.45-.38,1.12-.54.97-1.28Zm-9.28,13.37l.39,1.97c.43-.56.33-1.49-.39-1.97Zm2.38-17.57c1.21-.58,1.46-1.19,1.27-1.66l-2.39-.24c-.05.09-.09.2-.11.32.17.65.35,1.32,1.23,1.58Zm13.27,8.21c.81-.2,1.44.38,2.2.07.1-.39.21-.8.32-1.25-1.42-1.46-3.07-.87-2.52,1.18Zm6.99-5.5l.03-2.38c-1.78-.28-1.73,2.77-.03,2.38Zm-11.99,5.7c1.71-.17,1.38-1.45.64-2.55-1.62-.15-2.46,1.98-.64,2.55Zm-1.43-9.51l-2.07-.21c.04.39.13.76.32,1,.77.15,1.65.1,1.75-.79Zm-13.18-1.14l.41,2.07c.53.14,1.13-.23,1.55-1.2-.4-.53-.72-.84-1.05-.95l-.47-.05c-.13.02-.28.07-.44.14Zm3.49,16.42c1.39-.24,1.38-2.25-.09-2.38-.21.02-.4.1-.55.21l.43,2.16c.07,0,.13.01.21,0Zm6.6-6.08c-.07-.6.48-1.08.17-1.75-2.39-1.88-3.13,2.77-.17,1.75Zm-8.95-4.62l.29,1.46c.09-.25.14-.52.24-.79-.17-.31-.35-.52-.53-.67Zm20.88-2.13c-.45-1.36-2.03-1.2-2.46.1.15,1.84,2.05,1.55,2.46-.1Zm-5.98,12.3c.48-1.02-.62-2.22-1.71-1.75-1.09,1.2.72,3.2,1.71,1.75Zm10.48-5.22l.03-2.4c-.23,0-.48.04-.75.11-.17.44-.35.91-.51,1.34.48.67.89.95,1.23.95Zm-13.1,7.32c-.6-1.78-2.54-1.02-2.58.64.38.29.74.44,1.16.65.53-.48.96-.87,1.42-1.29Zm3.8-4.3c.82-.34,1.79-.42,1.75-1.64-.51-.16-.66-.4-.9-.91-.49.49-1.15.59-1.61,1.07.23.55.45.99.76,1.47Zm1.81-6.64c-.13-.37-.25-.73-.38-1.1-.42-.08-.79-.15-1.15-.21-.3.37-.57.7-.88,1.07.27.88,1.04.84,1.59,1.19.35-.34.58-.54.81-.95Zm-.9-5.41l-1.25-.13c.27.23.76.26,1.25.13Zm-6.92,11.58c1.65.47,2.6-.75,1.34-2.04-1.14-.27-1.66,1.02-1.34,2.04Zm13.47-.78c.02-1.78-1.61-1.56-2.32-.24.22,1.16,2.19,1.49,2.32.24Zm-17.49-.81c-1.12-.77-2.9.47-1.58,1.54.95.52,2.58-.59,1.58-1.54Zm.94-8.34q.14,1.03.74,1.6c2.78-.35,1.09-3.3-.74-1.6Zm7.6,1.34c1.67-2.5-3.69-2.68-1.09,0h1.09Zm-8.25,1.45c-1.56-1.82-2.77.65-1.27,1.81.88-.37.92-1.17,1.27-1.81Zm6.95,14.48c.39-.16.78-.32,1.18-.48-.37-.14-.84.11-1.18.48Zm36.2-21.54c-.36.07-.71.13-1.06.2.18.03.35.06.48.14.25.04.5-.11.58-.34Zm5.02.1c.72.09,1.07-.58,1.06-1.21-.82.15-1.66.3-2.49.45.28.41.83.72,1.44.76Zm-13.32,9.92c.6.51.54,1.19,1.09,1.51.39-.07.84-.14,1.33-.23.74-.95-.72-3.49-2.42-1.29Zm5.18-1.38c.04-.57.13-1.07.3-1.63-.56-.24-1.06-.45-1.61-.69-1.51,1.63-.47,1.63.71,2.64.22-.12.4-.22.59-.32Zm8.4-4.92c-.7.05-1.52-.28-2.05.68.11.58.56.85.91,1.19,1.4.39,2.4-.83,1.14-1.87Zm-5.05.84c-.44-.8-1.19-.78-1.98-1.1-.22.4-.84.6-.8,1.22,1.04,1.26,2.05,1.54,2.78-.12Zm-4.88-3.23c.09.51-1.07.84-.3,1.29.59.33,2.35.8,2.05-.43-.12-.37-.02-.59.2-.84-.19-.24-.38-.49-.59-.75-.02,0-.04,0-.07.01-.46.15-1.19.2-1.29.72Zm21.13-3.45c-.41.09-.65-.22-1.04-.26-.02.32-.03.62-.05.9-.25.14-.44.25-.65.37.33.81.99,1.03,1.76,1.18.94-.41,1.31-2.23-.02-2.19Zm-18.89,12.11c-.05.28-.03.52.03.71.8-.14,1.64-.28,2.5-.44-.8-1.02-1.29-1.06-2.54-.28Zm-8.45-7.6c.48.8,1.86,1.15,1.94-.74-1.25.24-2.01.38-2.01.38l.07.36Zm28.37,2.14c-.38-.42-.75-.83-1.12-1.25-.36.22-.69.43-1.05.65.09.45.07.92-.1,1.33,1.08,1.25,1.72.26,2.27-.74Zm-8-5.67c-.25.37.11.82.27,1.23,1.82.36,2.18-1.09,1.24-2.08-.44.08-.89.15-1.35.23.01.2.1.44-.16.61Zm-4.77,10.24c-.21.16-.4.3-.6.45.33-.06.65-.12.98-.17-.11-.1-.24-.2-.38-.28Zm-14.53-2.92c-.12.02-.22.06-.31.11l.42,2.12c1.14.12,1.68-1.6-.11-2.23Zm21.88,1.13c.11.26.22.5.32.75.73-.13,1.41-.26,2.03-.38.02-.2-.02-.41-.16-.61-.74-.39-1.83-.83-2.19.24Zm-11.18-6.56c-.17.88,0,2.32,1.16,2.16,1.78-1.09.6-2.46-1.16-2.16Zm8.01,7.05c-1-2.27-2.68-1.34-2.03.83.97.41,1.42-.36,2.03-.83Zm-8.38.23c.76.74,1.43.38,2.08.13,1.21-1.38-2.64-2.43-2.08-.13Zm8.11-5.89v-.91c-.68-.15-2.35-1.26-2.02.04-.25,1.86.68,1.66,2.02.88Zm-16.12,3.65c.5-.38,1.3-.28,1.69-1.01-.4-.45-.78-.88-1.15-1.31-.75.08-.73.82-1.22,1.16.35.35.14.91.68,1.16Zm19.81-3.94c.09.17.18.34.28.54.43.02.85.04,1.29.06.94-.91.13-1.49-.66-2.03-.75.22-.71.9-.92,1.43Zm-.84,2.79c-.09-.3-.17-.56-.28-.89-3.1-.47-2.17,3.07.28.89Z"/>
      </g>
    </g>
  </g>
</svg>