<?xml version="1.0" encoding="UTF-8"?>
<svg xmlns="http://www.w3.org/2000/svg" viewBox="0 0 448.8 383.25">
  <defs>
    <style>
      .cls-1 {
        fill: #ffe6de;
      }

      .cls-1, .cls-2, .cls-3, .cls-4, .cls-5, .cls-6, .cls-7 {
        stroke-width: 0px;
      }

      .cls-2 {
        fill: #8380ff;
      }

      .cls-3 {
        fill: #fff;
      }

      .cls-8 {
        opacity: .3;
      }

      .cls-4 {
        fill: #421b36;
      }

      .cls-5 {
        fill: #f9f9f9;
      }

      .cls-6 {
        fill: #ffae7a;
      }

      .cls-7 {
        fill: #a0d2f4;
      }
    </style>
  </defs>
  <g id="Background_Simple" data-name="Background Simple">
    <path class="cls-5" d="m134.82,374.28c66.61-.08,51.66-5.09,118.27-5.16,25.4-.03,51.03-.08,75.86-5.93,24.82-5.85,49.11-18.02,65.84-38.75,20.77-25.74,27.55-61.27,30.51-95.32,3.84-44.15,2.56-88.83-3.82-132.64-3.12-21.44-8.01-43.85-21.79-59.59-15.2-17.36-38.2-23.29-59.98-27.19-73.09-13.09-148.07-12.53-221.34-.7-22.66,3.66-46.23,8.91-63.89,24.75-20.5,18.39-29.46,48.1-32.19,76.8-2.73,28.7-.25,57.74-2.73,86.47-2.76,32.04-2.32,71.58-.57,103.71,1.76,32.13,27.91,75.29,117.25,73.55"/>
    <g>
      <g>
        <path class="cls-3" d="m221.05,33.69c-.34,0-.63.23-.7.57-1.12,5.36-9.76,46.8-8.81,48.13,1.01,1.42,68.18,2.03,68.59,1.42.41-.61,9.74-47.89,8.32-48.9-1.34-.96-60.86-1.19-67.4-1.22Z"/>
        <path class="cls-3" d="m221.05,33.69s32.79-25.03,37.95-25.16,29.44,26.6,29.44,26.6"/>
        <path class="cls-1" d="m211.98,82.29c9.71-7.86,19.11-16.08,28.56-24.24.61-.53-.28-1.41-.88-.88-9.46,8.16-18.85,16.38-28.56,24.24-.63.51.26,1.39.88.88h0Z"/>
        <path class="cls-1" d="m280.99,83.69c-7.27-8.04-14.28-16.31-21.55-24.36-.54-.6-1.42.29-.88.88,7.27,8.04,14.28,16.31,21.55,24.36.54.6,1.42-.29.88-.88h0Z"/>
      </g>
      <path class="cls-3" d="m224.83,39.2s4.81-25.94,6.94-26.29c2.13-.36,51.88.37,52.77,1.97.89,1.6-2.49,24.95-2.49,24.95,0,0-27.53,21.87-32.02,20.99-4.49-.87-5.44-.81-8.48-3.84-3.04-3.03-16.73-17.78-16.73-17.78Z"/>
      <path class="cls-1" d="m220.39,35.01c3.84,4.54,7.79,8.98,11.86,13.32,2.01,2.14,4.04,4.25,6.1,6.34,1.77,1.79,3.51,3.71,5.63,5.1,4.57,3.01,9.51,1.27,13.76-1.41,4.91-3.09,9.62-6.56,14.28-10.02,5.27-3.91,10.42-7.96,15.46-12.16.62-.52-.27-1.4-.88-.88-8.61,7.17-17.57,13.93-26.84,20.23-4.24,2.88-9.51,6.5-14.64,3.48-2.12-1.25-3.83-3.15-5.55-4.88-1.95-1.97-3.88-3.97-5.78-5.99-4.29-4.56-8.46-9.23-12.51-14.01-.52-.61-1.4.27-.88.88h0Z"/>
      <path class="cls-1" d="m225.98,39.04c.45-4.43,1.4-8.84,2.33-13.19.92-4.31,1.9-8.61,3.06-12.86-.2.15-.4.31-.6.46,5.83-.02,11.66.01,17.49.07,9.54.09,19.11.18,28.63.79,1.69.11,3.38.22,5.05.46.53.07,1.07.16,1.59.3.11.03.47.11.38.11.22,0,.15.21.01-.13.3.73,1.51.41,1.21-.33-.28-.69-1.11-.83-1.77-.97-1.25-.25-2.53-.37-3.79-.48-4.26-.38-8.55-.52-12.83-.65-9.75-.3-19.51-.38-29.26-.41-2.24,0-4.48-.01-6.72,0-.27,0-.53.19-.6.46-1.19,4.36-2.2,8.79-3.13,13.21-.92,4.35-1.85,8.74-2.3,13.17-.08.8,1.17.79,1.25,0h0Z"/>
      <path class="cls-1" d="m284.03,38.29c.56-7.58,1.43-15.13,2-22.7.06-.8-1.19-.8-1.25,0-.56,7.58-1.43,15.13-2,22.7-.06.8,1.19.8,1.25,0h0Z"/>
      <path class="cls-1" d="m234.23,27.33c2.04-.45,4.02-1.15,5.88-2.12,1.2-.63,2.86-1.55,2.79-3.14-.05-1.18-1.13-1.98-2.22-2.14-1.29-.19-2.42.59-2.81,1.82-1.12,3.54,2.84,5.33,5.66,5.49,2.94.17,8.59-.74,9.27-4.35.58-3.09-3.34-4.09-4.87-1.64-1.95,3.12,2.06,6.02,4.73,6.43,3.1.48,7.45-.28,9.93-2.3,1.92-1.56,2.58-5.42-.23-6.54-1.38-.55-2.84.21-3.53,1.45-.82,1.48-.47,3.21.71,4.38,3.68,3.67,9-.17,13.25.31.8.09.79-1.16,0-1.25-2.4-.27-4.6.59-6.91,1.05-2.04.41-6.16.34-6.27-2.66-.04-1.06.87-2.47,2.08-2.19.94.22,1.34,1.34,1.33,2.2-.03,2.34-2.76,3.3-4.63,3.79-2.08.55-4.4.95-6.51.3-1.09-.34-2.14-.98-2.72-1.99-.68-1.16-.5-2.88,1.06-3.14,1.68-.28,1.55,1.83.74,2.7-.87.93-2.25,1.42-3.44,1.76-2.17.61-5.11.85-7.12-.4-1.05-.65-1.87-2.05-1.24-3.27.71-1.37,3.15-.54,2.18.94-.65.98-2.36,1.58-3.39,2.02-1.32.56-2.68.97-4.08,1.28-.79.17-.45,1.38.33,1.21h0Z"/>
      <path class="cls-1" d="m233.54,32.69c14.51.15,29.02.3,43.53.45.8,0,.81-1.24,0-1.25-14.51-.15-29.02-.3-43.53-.45-.8,0-.81,1.24,0,1.25h0Z"/>
      <path class="cls-1" d="m234.25,37.83c13.27.11,26.53.22,39.8.33.8,0,.81-1.24,0-1.25-13.27-.11-26.53-.22-39.8-.33-.8,0-.81,1.24,0,1.25h0Z"/>
      <path class="cls-1" d="m239.22,42.95c7.82-.1,15.64-.2,23.45-.3.8-.01.81-1.26,0-1.25-7.82.1-15.64.2-23.45.3-.8.01-.81,1.26,0,1.25h0Z"/>
    </g>
    <g>
      <g>
        <path class="cls-3" d="m40.99,220.76c-.29,0-.53.2-.59.48-.94,4.49-8.18,39.24-7.39,40.35.85,1.19,57.16,1.7,57.5,1.19.34-.51,8.17-40.15,6.98-41-1.13-.8-51.03-1-56.51-1.02Z"/>
        <path class="cls-3" d="m40.99,220.76s27.49-20.99,31.82-21.1c4.33-.11,24.69,22.3,24.69,22.3"/>
        <path class="cls-1" d="m33.46,261.58c8.14-6.59,16.02-13.48,23.95-20.32.61-.53-.28-1.41-.88-.88-7.93,6.84-15.81,13.73-23.95,20.32-.63.51.26,1.39.88.88h0Z"/>
        <path class="cls-1" d="m91.32,262.61c-6.09-6.74-11.97-13.68-18.07-20.42-.54-.6-1.42.29-.88.88,6.09,6.74,11.97,13.68,18.07,20.42.54.6,1.42-.29.88-.88h0Z"/>
      </g>
      <path class="cls-3" d="m44.16,225.38s4.03-21.75,5.82-22.05,43.5.31,44.24,1.65c.74,1.34-2.09,20.92-2.09,20.92,0,0-23.08,18.33-26.84,17.6-3.76-.73-4.56-.68-7.11-3.22-2.55-2.54-14.02-14.91-14.02-14.91Z"/>
      <path class="cls-1" d="m40.37,221.93c3.24,3.82,6.56,7.56,9.99,11.22,1.69,1.8,3.39,3.57,5.12,5.33,1.49,1.51,2.97,3.13,4.77,4.29,3.73,2.4,7.79,1.08,11.29-1.08,4.2-2.6,8.21-5.58,12.18-8.52,4.44-3.29,8.79-6.72,13.04-10.25.62-.52-.27-1.4-.88-.88-7.16,5.96-14.59,11.58-22.29,16.81-3.57,2.43-8.02,5.59-12.36,3.05-1.79-1.05-3.23-2.66-4.68-4.13-1.62-1.64-3.22-3.3-4.8-4.98-3.6-3.82-7.09-7.74-10.48-11.74-.52-.61-1.4.27-.88.88h0Z"/>
      <path class="cls-1" d="m45.23,225.24c.38-3.72,1.18-7.41,1.96-11.06.77-3.6,1.59-7.2,2.56-10.75-.2.15-.4.31-.6.46,4.89-.01,9.77.01,14.66.06,8,.08,16.02.15,24,.66,1.43.09,2.87.19,4.29.39.42.06.85.13,1.26.24.1.03.4.13.32.1.2.08.03.02,0-.03.32.74,1.39.1,1.08-.63-.22-.51-1.03-.64-1.5-.73-1.07-.22-2.18-.32-3.27-.41-3.54-.31-7.09-.43-10.64-.54-8.19-.25-16.38-.32-24.57-.35-1.88,0-3.76,0-5.65,0-.27,0-.53.19-.6.46-1,3.67-1.85,7.39-2.63,11.11-.77,3.65-1.54,7.33-1.93,11.04-.08.8,1.17.79,1.25,0h0Z"/>
      <path class="cls-1" d="m93.9,224.62c.47-6.35,1.2-12.68,1.67-19.04.06-.8-1.19-.8-1.25,0-.47,6.35-1.2,12.68-1.67,19.04-.06.8,1.19.8,1.25,0h0Z"/>
      <path class="cls-1" d="m52.07,215.52c1.81-.4,3.57-1.03,5.2-1.92,1-.55,2.27-1.38,2.13-2.7-.25-2.27-3.54-2.29-4.32-.37-1.18,2.88,2.02,4.68,4.4,4.9,2.55.23,7.29-.45,8.16-3.4.76-2.57-2.29-4-3.97-2.04-2.09,2.44,1.13,5.29,3.41,5.77,2.67.56,6.54-.1,8.71-1.81,1.71-1.34,2.35-4.62-.05-5.69-2.79-1.25-4.41,2.73-2.84,4.69,2.9,3.63,7.85.24,11.47.62.8.08.79-1.17,0-1.25-2.57-.27-4.86,1.05-7.38,1.08-1.23.01-2.64-.35-3.3-1.49-.55-.94,0-2.92,1.4-2.56.97.25,1.16,1.65.88,2.44-.4,1.14-1.7,1.74-2.76,2.11-1.99.69-4.48,1.2-6.53.47-1.17-.42-2.78-1.68-2.3-3.14.17-.5.77-1.01,1.33-.94,1.24.16.79,1.61.23,2.19-1.62,1.66-4.88,2.04-7.05,1.64-1.13-.21-2.42-.76-2.72-1.99-.14-.56-.07-1.36.51-1.67.39-.21,1.23-.06,1.41.41.67,1.74-5.29,3.24-6.36,3.48-.78.17-.45,1.38.33,1.21h0Z"/>
      <path class="cls-1" d="m51.46,220.02c12.17.13,24.33.25,36.5.38.8,0,.81-1.24,0-1.25-12.17-.13-24.33-.25-36.5-.38-.8,0-.81,1.24,0,1.25h0Z"/>
      <path class="cls-1" d="m52.06,224.33c11.12.09,22.24.19,33.37.28.8,0,.81-1.24,0-1.25-11.12-.09-22.24-.19-33.37-.28-.8,0-.81,1.24,0,1.25h0Z"/>
      <path class="cls-1" d="m56.23,228.63c6.55-.08,13.11-.17,19.66-.25.8-.01.81-1.26,0-1.25-6.55.08-13.11.17-19.66.25-.8.01-.81,1.26,0,1.25h0Z"/>
    </g>
    <path class="cls-3" d="m148.7,249.8s-20.36,13.33-21.44,10.18c-.29-.85,10.51-17.38,10.51-17.38,0,0-12.11-10.37-9.58-11.53,2.53-1.16,15.4-.25,15.4-.25,0,0,5.36-19.01,7.63-14.95,2.28,4.06,2.13,17.09,2.13,17.09,0,0,18.8-7.36,16.3-3.53-2.5,3.83-12.77,13.58-12.77,13.58,0,0,10.76,14.8,7.54,14.69s-15.71-7.91-15.71-7.91Z"/>
    <g>
      <path class="cls-3" d="m84.26,298.32c-.28,0-.52.19-.57.46-.92,4.39-7.98,38.3-7.21,39.39.83,1.16,55.79,1.66,56.12,1.16.33-.5,7.97-39.19,6.81-40.02-1.1-.78-49.8-.98-55.15-.99Z"/>
      <path class="cls-1" d="m83.72,298.64c2.49,3.43,5.08,6.8,7.7,10.13,2.19,2.78,4.42,5.53,6.76,8.19,1.86,2.13,3.78,4.29,5.97,6.08,1.11.91,2.4,1.94,3.91,1.48,1.87-.57,3.61-1.91,5.19-3.01,5.48-3.81,10.65-8.09,15.78-12.35,3.64-3.03,7.26-6.09,10.82-9.21.61-.53-.28-1.41-.88-.88-7.75,6.78-15.63,13.51-23.92,19.63-1.95,1.44-3.94,2.91-6.08,4.06-1.39.74-1.93.85-3.24-.07-2.08-1.46-3.84-3.47-5.53-5.34-2.24-2.48-4.37-5.06-6.46-7.66-3.06-3.82-6.05-7.71-8.93-11.67-.47-.64-1.55-.02-1.08.63h0Z"/>
      <path class="cls-1" d="m76.92,338.17c7.95-6.43,15.64-13.16,23.37-19.83.61-.53-.28-1.41-.88-.88-7.74,6.68-15.43,13.41-23.37,19.83-.63.51.26,1.39.88.88h0Z"/>
      <path class="cls-1" d="m133.39,339.16c-5.95-6.58-11.68-13.35-17.63-19.93-.54-.6-1.42.29-.88.88,5.95,6.58,11.68,13.35,17.63,19.93.54.6,1.42-.29.88-.88h0Z"/>
    </g>
    <g>
      <path class="cls-3" d="m73.7,52.89c-.24,0-.45.17-.5.4-.79,3.8-6.91,33.14-6.24,34.08.72,1.01,48.28,1.44,48.56,1.01.29-.43,6.9-33.91,5.89-34.63-.95-.68-43.09-.84-47.72-.86Z"/>
      <path class="cls-1" d="m73.16,53.2c2.16,2.98,4.4,5.9,6.68,8.79,3.36,4.27,6.8,8.91,11.04,12.36.97.79,2.1,1.68,3.41,1.29,1.61-.48,3.11-1.63,4.47-2.58,4.77-3.31,9.27-7.04,13.73-10.75,3.15-2.62,6.28-5.27,9.37-7.98.61-.53-.28-1.41-.88-.88-6.7,5.87-13.52,11.69-20.69,16.98-1.68,1.24-3.4,2.51-5.25,3.51-1.18.63-1.6.73-2.71-.04-1.76-1.23-3.26-2.93-4.69-4.52-1.96-2.16-3.82-4.41-5.64-6.68-2.66-3.32-5.25-6.69-7.76-10.13-.47-.64-1.55-.02-1.08.63h0Z"/>
      <path class="cls-1" d="m67.4,87.43c6.88-5.56,13.53-11.39,20.22-17.16.61-.53-.28-1.41-.88-.88-6.69,5.78-13.35,11.6-20.22,17.16-.63.51.26,1.39.88.88h0Z"/>
      <path class="cls-1" d="m116.27,88.17c-5.15-5.69-10.11-11.55-15.26-17.25-.54-.6-1.42.29-.88.88,5.15,5.69,10.11,11.55,15.26,17.25.54.6,1.42-.29.88-.88h0Z"/>
    </g>
    <path class="cls-3" d="m188.02,31.69s3.07,15.04.52,14.64c-.69-.11-9.81-10.38-9.81-10.38,0,0-10.55,5.69-10.29,3.75.26-1.94,6.49-10.45,6.49-10.45,0,0-12.22-10.52-8.58-10.54,3.65-.02,12.3,4.46,12.3,4.46,0,0,2.77-13.98,4.31-11.16,1.54,2.82,3.86,12.39,3.86,12.39,0,0,14.31-1.59,12.91.34s-11.72,6.95-11.72,6.95Z"/>
    <path class="cls-3" d="m361.58,49.76s25.41,2.27,23.56,6.14c-.5,1.04-21.2,10.68-21.2,10.68,0,0,4.04,19.51,1.08,18.17-2.96-1.34-13.54-15.32-13.54-15.32,0,0-22.57,14.45-20.87,8.63,1.7-5.82,12.96-17.47,12.96-17.47,0,0-20.94-11.07-15.71-12.18,5.23-1.11,21.57-.23,21.57-.23,0,0,4.28-23.54,6.69-20.4,2.41,3.15,5.47,21.98,5.47,21.98Z"/>
  </g>
  <g id="Device">
    <g>
      <path class="cls-2" d="m284.87,63.7s139.85-1.19,151.28.84c11.44,2.03,14.5,6.52,11.65,17.25-2.39,9.01-80.92,282.86-83.14,288.81-3.29,8.8-9.8,12.65-18.26,12.65-7.73,0-144.37-.55-162.75-1.23-3.38-.12-9.26-3.52-7.25-13.39,2.48-12.17,92.7-279.89,95.37-291.4,2.85-12.31,13.09-13.53,13.09-13.53Z"/>
      <path class="cls-3" d="m287.88,75.11c-1.96,0-3.73,1.26-4.52,3.22-12.14,30.43-93.6,272.49-91.07,272.81,2.7.34,160.12,0,160.12,0l78.38-266.76c1-3.41.3-9.52-3.86-9.52l-139.04.25Z"/>
      <path class="cls-1" d="m247.32,221.97l-5.63,13.62c1.34-.56,131.31,4.28,131.31,4.28,0,0,4.07-11.81,4.48-14.65s-130.16-3.25-130.16-3.25Z"/>
      <path class="cls-1" d="m239.9,246.39l-4.65,11.42c1.34-.56,131.1,6.55,131.1,6.55,0,0,4.07-11.81,4.48-14.65.41-2.85-130.92-3.32-130.92-3.32Z"/>
      <path class="cls-1" d="m222.33,301.58l-4.65,11.42c1.34-.56,131.1,6.55,131.1,6.55,0,0,4.07-11.81,4.48-14.65.41-2.85-130.92-3.32-130.92-3.32Z"/>
      <path class="cls-1" d="m232.73,267.08l-6.1,19.29c1.34-.56,131.62,4,131.62,4,0,0,5.6-17.97,6-20.82.41-2.85-131.52-2.47-131.52-2.47Z"/>
      <path class="cls-1" d="m262.36,177.48s127.78-2.1,125.76.22-10.6,36.89-10.6,36.89l-129.8-3.64,14.64-33.47Z"/>
      <path class="cls-1" d="m270.2,156.91s123.33.81,122.36,1.55c-.97.74-.97,8.56-1.94,9.16-.97.61-124.4-.59-124.4-.59l3.98-10.12Z"/>
      <path class="cls-1" d="m275.53,141.28s123.33.81,122.36,1.55c-.97.74-.97,8.56-1.94,9.16-.97.61-124.4-.59-124.4-.59l3.98-10.12Z"/>
      <g>
        <path class="cls-2" d="m327.2,88.83c-.17,0-.32.12-.35.28-.56,2.68-4.88,23.42-4.41,24.08.51.71,34.11,1.02,34.32.71.2-.3,4.87-23.96,4.16-24.47-.67-.48-30.45-.6-33.72-.61Z"/>
        <path class="cls-4" d="m326.66,89.14c1.53,2.11,3.12,4.18,4.73,6.23,2.38,3.02,4.82,6.32,7.82,8.77.72.59,1.54,1.22,2.52.97,1.13-.29,2.2-1.12,3.14-1.77,3.41-2.35,6.62-5.01,9.8-7.66,2.25-1.87,4.48-3.76,6.69-5.69.61-.53-.28-1.41-.88-.88-4.71,4.12-9.49,8.21-14.53,11.93-1.18.87-2.38,1.76-3.67,2.47-.84.46-1.06.56-1.85,0-1.24-.87-2.29-2.08-3.31-3.2-1.35-1.5-2.64-3.05-3.9-4.63-1.88-2.34-3.71-4.73-5.48-7.16-.47-.64-1.55-.02-1.08.63h0Z"/>
        <path class="cls-4" d="m322.88,113.37c4.86-3.93,9.56-8.05,14.29-12.13.61-.53-.28-1.41-.88-.88-4.73,4.08-9.43,8.2-14.29,12.13-.63.51.26,1.39.88.88h0Z"/>
        <path class="cls-4" d="m357.41,113.63c-3.64-4.02-7.14-8.16-10.78-12.19-.54-.6-1.42.29-.88.88,3.64,4.02,7.14,8.16,10.78,12.19.54.6,1.42-.29.88-.88h0Z"/>
      </g>
      <path class="cls-4" d="m176,373.83c2.99.07,5.98.13,8.97.19,7.78.16,15.55.31,23.33.44,10.76.19,21.52.37,32.29.52,11.95.17,23.91.31,35.86.41,11.35.09,22.69.15,34.04.12,8.94-.02,17.89-.08,26.83-.35,3.01-.09,6.02-.2,9.03-.41,1.76-.12,3.59-.2,5.31-.61,1.89-.44,2.29-2.42,2.93-4.06,1.56-4.02,2.91-8.12,4.26-12.21,2.17-6.55,4.27-13.12,6.35-19.7,2.68-8.5,5.33-17.01,7.95-25.52,3.08-10,6.14-20,9.18-30.02,3.33-10.95,6.63-21.9,9.93-32.86,3.42-11.38,6.83-22.77,10.24-34.15,3.37-11.3,6.74-22.59,10.1-33.89,3.18-10.69,6.35-21.39,9.51-32.08,2.83-9.57,5.66-19.15,8.49-28.72,2.34-7.94,4.68-15.87,7.02-23.81,1.7-5.78,3.4-11.56,5.1-17.34.91-3.11,1.82-6.22,2.74-9.33.11-.39.23-.78.34-1.17.23-.77-.98-1.1-1.21-.33-.47,1.62-.95,3.24-1.42,4.86-1.33,4.52-2.65,9.04-3.98,13.56-2.03,6.91-4.06,13.82-6.1,20.72-2.59,8.79-5.18,17.57-7.78,26.36-3,10.15-6.01,20.31-9.02,30.46-3.27,11.01-6.54,22.02-9.82,33.03-3.38,11.36-6.78,22.72-10.18,34.07-3.35,11.2-6.72,22.39-10.1,33.58-3.18,10.52-6.37,21.04-9.58,31.55-2.85,9.34-5.72,18.67-8.63,28-2.38,7.65-4.78,15.28-7.23,22.91-1.75,5.44-3.52,10.89-5.4,16.29-.94,2.7-1.84,5.58-3.07,8-.06.13-.14.25-.21.37-.07.11,0,.03-.02.04,0,0-.07.05-.22.08-.24.06-.47.13-.71.17-1.78.37-3.65.45-5.48.57-7.17.46-14.37.54-21.55.62-10.41.12-20.82.12-31.23.07-11.84-.05-23.69-.16-35.53-.3-11.5-.14-23-.3-34.5-.49-9.38-.15-18.77-.32-28.15-.5-5.49-.11-10.99-.22-16.48-.33-.73-.02-1.47-.03-2.2-.05-.8-.02-.8,1.23,0,1.25h0Z"/>
      <path class="cls-4" d="m334.73,69.73h30.29c.8,0,.81-1.25,0-1.25h-30.29c-.8,0-.81,1.25,0,1.25h0Z"/>
      <path class="cls-2" d="m320.72,126.61c9.12.2,18.24.39,27.35.59,1.3.03,2.6.06,3.9.08,3.22.07,3.22-4.93,0-5-9.12-.2-18.24-.39-27.35-.59-1.3-.03-2.6-.06-3.9-.08-3.22-.07-3.22,4.93,0,5h0Z"/>
    </g>
  </g>
  <g id="Mails">
    <g>
      <g>
        <path class="cls-7" d="m125.82,278.05c-.32,0-.58.22-.65.53-1.04,4.98-9.06,43.44-8.18,44.68.94,1.32,63.29,1.88,63.66,1.32.38-.57,9.04-44.45,7.72-45.39-1.25-.89-56.49-1.11-62.56-1.13Z"/>
        <path class="cls-4" d="m125.28,278.36c2.85,3.92,5.79,7.76,8.79,11.57,2.43,3.08,4.9,6.12,7.49,9.08,2.14,2.45,4.34,4.94,6.86,7,1.23,1.01,2.68,2.2,4.36,1.68,2.15-.66,4.14-2.19,5.96-3.46,6.22-4.33,12.09-9.19,17.91-14.03,4.1-3.41,8.17-6.86,12.18-10.37.61-.53-.28-1.41-.88-.88-8.82,7.72-17.8,15.38-27.24,22.35-2.21,1.63-4.45,3.29-6.88,4.58-1.57.83-2.23.92-3.71-.13-2.33-1.65-4.31-3.88-6.21-5.99-2.55-2.82-4.97-5.75-7.35-8.71-3.49-4.36-6.9-8.79-10.18-13.3-.47-.64-1.55-.02-1.08.63h0Z"/>
        <path class="cls-4" d="m117.43,323.19c9.01-7.29,17.74-14.93,26.51-22.5.61-.53-.28-1.41-.88-.88-8.78,7.57-17.5,15.21-26.51,22.5-.63.51.26,1.39.88.88h0Z"/>
        <path class="cls-4" d="m181.49,324.43c-6.75-7.47-13.25-15.14-20-22.61-.54-.6-1.42.29-.88.88,6.75,7.47,13.25,15.14,20,22.61.54.6,1.42-.29.88-.88h0Z"/>
      </g>
      <g>
        <path class="cls-7" d="m347,175.41c-.38,0-.71.26-.79.64-1.26,6.04-10.99,52.7-9.92,54.19,1.14,1.6,76.77,2.28,77.22,1.6.46-.69,10.97-53.92,9.37-55.06-1.51-1.08-68.53-1.34-75.89-1.37Z"/>
        <path class="cls-4" d="m346.46,175.72c3.42,4.7,6.95,9.32,10.55,13.88,2.96,3.75,5.98,7.47,9.12,11.07,2.59,2.96,5.24,5.96,8.28,8.48,1.49,1.23,3.28,2.73,5.32,2.06,2.6-.86,4.99-2.67,7.21-4.22,7.53-5.25,14.64-11.14,21.69-17.01,3.18-2.65,6.34-5.32,9.48-8.01,1.66-1.42,3.42-2.78,4.98-4.3.07-.07.16-.14.23-.2.61-.53-.28-1.41-.88-.88-3.81,3.33-7.66,6.61-11.53,9.87-7.05,5.93-14.16,11.82-21.57,17.28-2.67,1.97-5.38,3.97-8.31,5.53-.66.35-1.65.88-2.28.91-.76.04-1.6-.53-2.24-.98-2.85-1.97-5.25-4.69-7.56-7.23-3.12-3.44-6.08-7.02-8.99-10.65-4.19-5.23-8.15-10.63-12.22-15.95-.07-.09-.13-.18-.2-.27-.47-.64-1.55-.02-1.08.63h0Z"/>
        <path class="cls-4" d="m336.73,230.08c10.93-8.85,21.51-18.11,32.16-27.29.61-.53-.28-1.41-.88-.88-10.65,9.19-21.23,18.45-32.16,27.29-.63.51.26,1.39.88.88h0Z"/>
        <path class="cls-4" d="m414.44,231.76c-8.18-9.05-16.08-18.37-24.26-27.42-.54-.6-1.42.29-.88.88,8.18,9.06,16.08,18.37,24.26,27.42.54.6,1.42-.29.88-.88h0Z"/>
        <g class="cls-8">
          <path class="cls-4" d="m379.28,215.89c.31-1,1.75.18,2.55.21.9,1.08-.34,1.59-1.12,2.12-1.54-.16-1.72-.94-1.43-2.33Zm-8.89-8.21c-.67.85.68,1.3,1.22,1.76.94-.2,1.22-.88,1.55-1.47-.75-1.56-1.93-2.01-2.77-.28Zm30.48-12.38c-.66.13-.28,1.24-.25,1.9.93-.2,1.87.76,2.75-.03-.19-.27-.33-.47-.47-.67.77-1.48-1.11-1.77-2.03-1.21Zm-25.95,23.14c1.24-.21,1.2-1.64.58-2.51-1.86-1.71-2.93,2.36-.58,2.51Zm7.49,1.97c.64-.4,1.31-.89,2.01-1.44-.2-.16-.47-.31-.81-.52-1.26.19-1.54,1.2-1.2,1.96Zm5.16-14.52c.22-.37.31-.71.31-1.01-.58.43-1.15.84-1.71,1.24.41.07.9-.04,1.4-.23Zm9.92-.92c.3-.38.6-.75.89-1.13-.49.06-.86.42-.89,1.13Zm-9.82,11.12c-.2-.28-.52-.51-.99-.59-1.57.76-.64,1.21-.86,2.31.61-.53,1.22-1.1,1.85-1.72Zm-17.75-11.32c-.33-.94-1.05-.94-1.71-1-2.23,2.1.91,4.19,1.71,1Zm22.65-1.01c-1.31.12-1.7,2.43-.21,2.64,1.73-.28,2.06-2.22.21-2.64Zm-20.61,8.75c-4.26,1.14,1.79,4.97.83.99-.27-.32-.51-.6-.83-.99Zm5.59,8.9c.66-.44,1.32-.72,1.63-1.46-1.53-2.25-2.77-1.64-2.38.9.24.18.47.35.75.56Zm-19.04-25.41c.2.39.4.77.59,1.14.94.3,1.42-.22,1.85-.93-.16-.58-.39-1.15-.65-1.68h-1.25q-.16.95-.55,1.46Zm45.56-2.11c1.52.61,2.57-1.26,1.4-2.21-.2-.11-.39-.17-.56-.19-.39.33-.8.66-1.22,1.01-.09.46.01.99.39,1.4Zm-42.39,5.65c.53.19.93.69,1.53.65.92-1.18,1.01-1.45-.17-2.45-.86-.93-2.22,1.29-1.36,1.8Zm33.42,7.21c-.07.55-.59.76-.92,1.21.13.23.27.41.41.55.5-.59.99-1.19,1.48-1.79-.29-.19-.62-.23-.97.03Zm-4.74-3.59c.02-.06.05-.11.07-.17-.08.06-.15.11-.23.17h.16Zm3.87-1.41c.62.74.75,1.65,1.96,1.61.41-.47.5-1.08.72-1.72-.43-.49-.96-.62-1.46-.87-.49.21-1,.38-1.21.98Zm-37.99-10.01c-.07,0-.12.03-.18.04.33.63.69,1.29,1.05,1.96,0,0,.01,0,.02,0,1.97-.38.44-2.04-.89-2Zm53.53-4.31c.04.15.1.3.16.44.54-.81.82-1.27.77-1.23-.05.04-.38.32-.93.78Zm-54.62,2.27c-.13-.24-.28-.4-.44-.51.13.24.25.48.38.74.02-.07.05-.15.06-.22Zm29.9,19.02c-.14-.56-.37-1.04-.64-1.38-.62.43-1.21.81-1.77,1.18.58.72,1.8.85,2.41.21Zm-9.19,2.35c.16-1.4-.87-1.01-1.76-1.33-.29.5-.55.95-.79,1.38.12.53.41.85.81,1.06.78-.12,1.18-.77,1.74-1.11Zm21.6-12.6c.14,1.27,1.52,2.61,2.26.92.8-1.53-1.56-2.31-2.26-.92Zm-6.9,10.14c.38-1.37.2-1.69-1.13-2.09-.82.73-1.5,1.61-.43,2.5.34-.86.98-.03,1.56-.41Zm-21.31,3.55c.23-.56.43-1.03.62-1.49-.89-1.01-1.13-1.03-2.4-.21-.06.24-.03.49.04.71.17.25.35.5.52.74.34.28.79.42,1.22.24Zm20.64.37c-.46.18-.94.37-1.42.56-.05.68-.19,1.29.47,1.71.5-.52,1.01-1.05,1.52-1.6-.13-.24-.31-.47-.57-.67Zm-5.45,2.33c.68-1.11.13-1.86-1.07-2.04-1.58,1.25-.92,2.85,1.07,2.04Zm-17.64-7.14c-.19-.39-.15-.94-.77-.98-.37.07-.77.26-1.07.56.36.57.72,1.13,1.09,1.69.53-.3,1.11-.61.75-1.27Zm41.35-18.93c-.41.34-.85.7-1.33,1.11.08.41.22.76.22,1.24.16.08.33.16.51.25.42-.61.82-1.18,1.17-1.69.03-.15.07-.3.11-.45-.26-.14-.46-.32-.67-.46Zm-15.44,20.84c-.38.27-.77.55-1.18.83.12.48.29.8.48,1.03.45-.51.9-1.02,1.35-1.55-.17-.12-.38-.23-.65-.32Zm-39.15-24.44c-.37-.44-.69-.82-.97-1.16-.04.08-.08.15-.13.23.21.57.65.89,1.09.93Zm31.89,25.73c.58,2.15,3.6.86,2.07-.86-1.01-.24-1.51.38-2.07.86Zm-6.39,3.32c-.77-1.3-3.1-1.91-2.18.3.64.88,2.01.9,2.18-.3Zm1.71-2.51v-.02c1.85.25,1.1-1.83-.18-1.96-.3.17-.59.32-.85.45-.27.66.06,1.8,1.03,1.53Zm-16.85-6.48c-.19-.58-.54-.93-.92-1.09.26.44.53.88.8,1.31.04-.07.07-.14.12-.22Zm-7.91-17.14c-.09-.11-.19-.22-.28-.33,0,0,0,.01,0,.02.08.15.18.24.28.31Zm10.94,14.16c-.28-1.09-2.27-1.56-2.76-.22.7,1.27,1.81.97,2.76.22Z"/>
        </g>
      </g>
    </g>
  </g>
  <g id="Lines">
    <g>
      <path class="cls-2" d="m151.82,68.67c.51-2.02-.06-4.19-.38-6.22-.42-2.65-.75-5.35-1.4-7.96-.48-1.95-3.29-1.1-2.96.82.43,2.46,1.15,4.88,1.78,7.29.55,2.09.89,4.43,2.23,6.16.19.25.64.27.73-.1h0Z"/>
      <path class="cls-2" d="m162.33,71.85c2.07-1.9,3.41-4.35,4.75-6.8,1.27-2.32,3.35-5.01,3.94-7.62.28-1.26-1.34-2.44-2.31-1.35-1.84,2.08-2.86,5.41-4.04,7.89-1.18,2.5-2.35,4.97-2.68,7.73-.02.18.23.25.34.14h0Z"/>
      <path class="cls-2" d="m170.43,78.54c4.56-.38,8.56-3.14,12.8-4.64,2.42-.86.77-4.47-1.34-3.17-3.86,2.38-8.55,4.07-11.55,7.59-.07.08-.03.23.09.22h0Z"/>
    </g>
  </g>
  <g id="Character">
    <g>
      <g>
        <path class="cls-4" d="m215.31,352.11c-6.12-42.89,3.66-78.75,3.66-78.75l81.89-11.77s28.01,27.25,27.91,27.7c0,0,21.21,30.44,21.21,62.82"/>
        <path class="cls-2" d="m267.76,326.58c3.37,8.61,7.06,17.1,10.46,25.7.29.74,1.5.42,1.21-.33-3.4-8.6-7.08-17.09-10.46-25.7-.29-.74-1.5-.42-1.21.33h0Z"/>
        <path class="cls-2" d="m267.91,325.94c-5.15-1.93-10.3-3.87-15.46-5.8-.75-.28-1.08.92-.33,1.21,5.15,1.93,10.3,3.87,15.46,5.8.75.28,1.08-.93.33-1.21h0Z"/>
        <path class="cls-2" d="m282,274.87c4.85,6.17,11.31,11.56,19.09,13.44,7.08,1.71,15.02.29,20.4-4.8.59-.55-.3-1.44-.88-.88-5.24,4.96-13.09,6.17-19.91,4.29-7.27-2-13.23-7.11-17.82-12.93-.5-.63-1.38.26-.88.88h0Z"/>
        <path class="cls-2" d="m215.48,305.35c10.48-3.65,17.43-13.75,17-24.85-.03-.8-1.28-.81-1.25,0,.4,10.53-6.12,20.18-16.09,23.65-.76.26-.43,1.47.33,1.21h0Z"/>
      </g>
      <g>
        <path class="cls-4" d="m198.32,107.18c2.46,6.55,2.54,14.08.08,20.67-2.43,6.51-7.48,11.31-12.58,15.78-8.02,7.03-16.32,15.24-15.38,26.81.08.98,1.55,1.02,1.56,0,.13-16.29,14.12-22.52,23.06-33.76,6.89-8.65,7.91-19.57,3.32-29.54-.02-.03-.07,0-.06.03h0Z"/>
        <path class="cls-4" d="m214.09,77.05c-5.74,2.97-10.99,7.64-14.45,13.92-3.46,6.29-4.99,14.27-3.46,21.59,1.25,6.01,4.47,11.54,4.3,17.73-.2,7.15-4.82,12.89-9.43,17.4-4.61,4.51-8.54,9.7-11.78,15.7-4.33,8.01-5.92,23.61,7.89,25.99l46.44-3.85v-112.37c-6.63-.63-13.39.72-19.51,3.88Z"/>
        <path class="cls-2" d="m75.75,167.31s45.35,31.56,70.24,36.6,73.59-2.24,73.59-2.24l8.45-40.12s-71.08,6.95-77.39,5.38-48.11-19.4-57.41-21.63c-7.06-1.69-22.74,17.55-17.49,22.02Z"/>
        <path class="cls-3" d="m209.26,181.17c-13.54.52-27.27-.36-40.8-.67-19.09-.45-38.18-.96-57.25-1.78-5.92-.25-11.85-.52-17.75-1.03-.76-.07-.94,1.21-.18,1.34,13.09,2.21,27.16,1.53,40.38,1.93,19.26.59,38.53,1.03,57.81,1.23,5.93.06,11.87.12,17.8-.16.55-.03.55-.87,0-.85h0Z"/>
        <g>
          <path class="cls-7" d="m27.83,94.02c-.63,0-1.17.43-1.3,1.05-2.08,9.94-18.09,86.78-16.33,89.25,1.88,2.63,126.42,3.76,127.18,2.63.75-1.13,18.06-88.8,15.43-90.68-2.49-1.78-112.86-2.21-124.97-2.25Z"/>
          <path class="cls-4" d="m27.29,94.33c5.58,7.67,11.35,15.22,17.23,22.67,4.91,6.23,9.92,12.4,15.14,18.38,4.22,4.83,8.56,9.72,13.5,13.84,2.37,1.98,5.27,4.48,8.53,3.36,4.31-1.47,8.26-4.46,11.95-7.05,12.41-8.69,24.14-18.4,35.78-28.1,7.89-6.57,15.71-13.22,23.45-19.97.13-.11.26-.22.38-.33.61-.53-.28-1.41-.88-.88-6.36,5.57-12.8,11.05-19.27,16.48-11.65,9.8-23.41,19.53-35.68,28.55-4.36,3.21-8.81,6.49-13.62,9-1.12.58-2.6,1.37-3.77,1.41-1.35.05-2.8-.97-3.91-1.74-4.71-3.3-8.69-7.78-12.53-12.02-5.16-5.7-10.06-11.63-14.87-17.63-6.87-8.57-13.55-17.3-20.04-26.16-.11-.14-.21-.29-.32-.43-.47-.64-1.55-.02-1.08.63h0Z"/>
          <path class="cls-4" d="m10.63,183.76c13.89-11.24,27.45-22.87,40.96-34.56,4-3.46,8-6.93,12.01-10.38.61-.53-.28-1.41-.88-.88-13.53,11.67-26.97,23.44-40.7,34.88-4.07,3.39-8.15,6.74-12.27,10.07-.63.51.26,1.39.88.88h0Z"/>
          <path class="cls-4" d="m138.6,187.11c-10.35-11.45-20.41-23.16-30.63-34.72-3.09-3.5-6.2-6.98-9.33-10.44-.54-.6-1.42.29-.88.88,10.35,11.45,20.41,23.16,30.63,34.72,3.09,3.5,6.2,6.98,9.33,10.44.54.6,1.42-.29.88-.88h0Z"/>
          <g class="cls-8">
            <path class="cls-4" d="m47.53,128.86c-.05-.98.06-2.41,1.39-2.32,2.64,1.42-1.57,4.18-1.39,2.32Zm65.96,10.61c.47-.6.93-1.2,1.39-1.79-.21-.14-.43-.26-.66-.38-1.47.49-1.33,1.54-.73,2.17Zm-16.69,10.07c.45,2.17,2.47,1.58,2.49-.25-.27-1.44-2.35-1.1-2.49.25Zm10.91-6.1c-.52.51.25,1.09.52,1.54.2.25.42.31.66.28.39-.48.77-.95,1.16-1.43-.43-.98-1.46-1.36-2.33-.39Zm-14.45,18.2c.2-.47.37-.89.57-1.37-2.4-3.34-3.72,2.25-.57,1.37Zm-29.93-8.26c1.46-2.35-1.71-2.27-2.22-1.21.35.51.69,1.01,1.03,1.5.41-.1.8-.2,1.18-.29Zm-5.16-6.82c-.23-.38-.58-.66-.97-1-.14,0-.26.03-.37.06.3.48.61.96.91,1.44.08-.14.2-.26.43-.5Zm71.52-30.49c-.04.52-.05.71.05,1.04.36-.54.7-1.03,1-1.49-.36.15-.71.3-1.06.45Zm-19.42,25.57c.03.47.38.76.81.88.5-.63,1-1.27,1.5-1.9-.71-.55-2.16,0-2.31,1.02Zm-4.69-1.26c-1.09.63-.85,2.23.5,2.18,2.35.09,1.11-2.81-.5-2.18Zm-44.99-1.12c1.09-1.56-2.11-2.65-2.1-.77-.18,1.18,1.63,2.22,2.1.77Zm41.46-.11c.12.23.25.5.41.8,4.33-.08.53-4.88-.41-.8Zm-64.77-28.85c.33.66.7,1.39,1.09,2.18.95-1.76-.06-2.97-1.09-2.18Zm21.2,33.81c-.1,1.14,1.81,2.04,2.16.85.45-2.05-1.28-2.85-2.16-.85Zm-12.28-23.44c.41-.03.64-.35.73-.76-.45-.53-.9-1.05-1.33-1.56-1.03.51-1.36,2.45.6,2.31Zm31.35,32.25c.5,1.04,2.13,1.18,2.13-.33-.02-.15-.05-.29-.09-.41-.5.14-.9.19-1.2.13-.22-.04-.49-.15-.79-.31-.07.26-.1.56-.05.93Zm8.11-2.98c.44.7,1.28.38,1.86.9,2.34-2.11-1.51-3.55-1.86-.9Zm-3.9,3.74c-1.08.93-2.12,1.8-.49,2.68.69.39,1.04-.51,1.42-.94.57-.77-.47-1.16-.93-1.74Zm-7.57-2.22c-2.91-.46-3.11,2.56.04,1.68.45-.56.62-1.08-.04-1.68Zm18.03-.55c1.5.12,2.28-2.11.5-2.18-1.56-.29-1.91,1.7-.5,2.18Zm-45.95-24.56c.24-.14.49-.29.74-.43.07-.39.13-.76.15-.87-.43-.55-.76-.96-1.04-1.32-.95,0-.84.86-1.26,1.21.18.33.36.66.54,1,.23.2.51.35.86.42Zm46.11,30.15c3.06-1.65-.72-4.47-1.15-.85.35.26.73.54,1.15.85Zm-22.63,3.47c-.09.3-.18.61-.27.91,2.24,3.49,3.84-3.09.27-.91Zm41.7-28.44c2.05-.09,1.57-1.56.7-2.1-.54.43-1.09.87-1.63,1.3.18.4.49.62.94.8Zm.5,3.09c-1.16.33-1.09.45-1.4,1.44.25,2.44,4.03-.11,1.4-1.44Zm11.45-8.95c.65-.6-.11-1.1-.33-1.79-1.58-.33-1.76.91-1.35,2.13.88.51,1.17.36,1.68-.35Zm-28.11,19.88c-1.38.55-2.15,1.82-.35,2.36,1.78.41,1.67-1.64.35-2.36Zm-16.27,10.99q-1.03.33-1.38,1.31c.17.25.36.53.56.81.36.09.72.18,1.16.29,1.19-.7.79-1.94-.34-2.41Zm18.35-2.48c-.19.44-.37.88-.55,1.29.12.31.22.58.32.84.66.05,1.25.11,1.83-.05.31-1.14-.19-2.58-1.6-2.08Zm4.1-6.24c.11-.46.22-.89.33-1.35-2.86-2.53-2.95,3-.33,1.35Zm-5.03-6.24c-.49.37-.98.73-1.47,1.08.09.03.16.08.27.09.64-.22,1.05-.6,1.2-1.17Zm-20.2,12.14c-1.43.39-1.92,2.09-.41,2.62,1.32-.65,1.89-1.8.41-2.62Zm18.41,5.19c1.47.46,2.4-1.46,1.02-2.19-1.36-.44-2.14,1.37-1.02,2.19Zm-14.99,8.95c-.72-.72-1.28-.36-1.94.11-1.27,1.89,2.79,2.74,1.94-.11Zm4.89-3.45c2.5-.62-1.3-4.13-1.22-1.37-.14.77.34,1.63,1.22,1.37Zm42.86-43.92c.44-.63.85-1.23,1.25-1.8-.15-.1-.3-.2-.47-.31-1.62.43-1.51,1.68-.77,2.11Zm-57.71,35.4c.96.85,1.29.72,2.13-.42-.36-2.24-2.57-1.77-2.13.42Zm24.96-4.62c-.83,0-.23,1.21-.58,1.62.46.78,1.1.66,1.81.54.2-.37.4-.76.57-1.08-.34-.92-1.15-.86-1.8-1.09Zm-44.97-18.9c-.29-.11-.6-.23-.95-.36.32.58.65,1.15.98,1.73,0,0,0,0,0,0-.22-.46.17-.88-.04-1.37Zm2.07,2.69c-.47.08-.81.23-1.05.42.35.6.7,1.21,1.05,1.81,1.07-.21,1.38-2.25,0-2.23Zm16.93,18.12c.35-.84.22-1.91-.92-2.1-1.78,1.03-1.16,3.07.92,2.1Zm36.1-17.93c-.08.58.51.77.55,1.33,3.69,1.39,1.82-3.11-.55-1.33Zm-39.57,21.15c.38-.28.76-.58,1.25-.95-.21-.44-.39-.8-.6-1.22-1.97-.8-2.58,1.63-.66,2.17Zm19.36,1.9c1.86-1.29-1.56-2.46-1.7-.55-.11,1.17,2.65,2.11,1.7.55Zm-41.7-37.06c.32.61.65,1.22.98,1.85.28-.33.39-.77.46-1.24-.72-.62-1.04-.79-1.45-.61Zm33.38,43.45c-.36.64-1.35.63-1.34,1.63.3.49.58,1.07,1.45.99,1.19-.53.81-1.89-.11-2.62Zm31.44-25.82c.16.31.32.6.47.89.72.12,1.4.26,1.79-.53-.1-.41-.2-.81-.31-1.25-.36-.18-.72-.37-1.08-.55-.68.37-.62.96-.87,1.44Zm-42.57,4.18c-.28.19-.59.4-.87.58-.09.36-.17.69-.26,1.08.95,1.03,1.15,1.04,2.1.2.05-.73.02-1.66-.97-1.87Zm-23.74-28.13c-.35-.75-.07-1.83-.94-2.16-.43.26-.88.53-1.3.78-.04.25,0,.48.09.7.05.1.1.2.16.31.44.66,1.34.98,1.99.37Zm49.42,37.01c-.21-.55-1.62-.98-1.9-.37-.38.71-.08,1.22.26,1.94,1.05.24,1.92-.47,1.64-1.57Zm-21.68-5.3c-.35-.28-.67-.54-.98-.78-1.27.25-1.23.58-1.32,1.73.88,1.39,2.12.24,2.3-.95Zm-4.81,3.69c1.07.77,2.26-.22,1.86-1.47-1.19-1.14-2.74.12-1.86,1.47Zm-14-20.14c.16.56.05,1.49.86,1.44,2.71.36,1.13-3.71-.86-1.44Zm2.84,8.43c-.3.89.29,1.1,1.03,1.51,3.02-2.02-1.28-3.34-1.03-1.51Zm29.77,29.18c.17.56.18.94.16,1.51.18.08.36.14.53.19.58-.26,1.19-.57,1.81-.94-.6-.91-1.53-.81-2.5-.77Zm-1.04-.4c.26-.38.53-.77.8-1.16-1.09-3.19-3.77.34-.8,1.16Zm-25.92-36.28c.31.06.61.18.9.25-.34-.39-.68-.77-1.03-1.16.04.31.08.62.12.91Zm-2.09-2.22c.21-.08.41-.16.61-.23-.44-.5-.87-.99-1.3-1.48-.17.41-.04,1.01.69,1.72Zm51.14,18.24c.19.77.99,1,1.63.85.27-.32.54-.65.81-.97,0-.04,0-.07-.02-.11-.36-1.49-2.09-1.01-2.42.24Zm-2.46-3.73c-.11.35-.21.7-.29.99.8,2.01,3.67-.14,1.85-1.31-.46.27-.99.34-1.56.32Zm-3.77-.03c-1.15-.9-1.63.2-1.93,1.24.9,1.92,2.42.33,1.93-1.24Zm19.63-13.14c-.28-.54-.75-.74-1.22-.87-.57.14-.91.25-1.29.7.35.59.68,1.13,1.05,1.75.8-.38,1.27-.86,1.46-1.59Zm-19.12,21.93c1.47,2.67,3.9.33,1.69-.92-.5.42-1.29.34-1.69.92Zm-25.55,10.03c-.66.22-1.66.16-1.68,1.07.2.3.38.58.57.87.37.08.74.15,1.07.22.84-.74,1.02-1.42.03-2.17Zm42.82-27.33c-.23.45-.4.81-.58,1.17.03.04.05.07.08.1.34-.44.67-.89,1-1.33-.15,0-.31,0-.5.05Zm.41-8.77c.61-.41,1.14-1,1.15-1.46-.52.42-1.04.84-1.57,1.27.13.07.26.14.42.19Zm-69.1-3c.63.38,1.31.24,1.68-.14-.48-.55-.95-1.1-1.41-1.64-.43.26-.52.95-.27,1.78Zm76.42-1c-.03.79.56,1.24,1.14,1.24.33-.47.65-.92.96-1.36-.44-.99-1.82-1.15-2.1.12Zm-3.41.61v-.32c-.41.33-.82.67-1.24,1.01.3.02.71-.16,1.24-.69Zm-59.92,13.62c.22.09.42.18.62.27-.17-.19-.34-.37-.51-.56-.04.09-.08.18-.11.29Zm28.15,22.58c.31.06.66-.45,1,0,.4.11.55-.55.73-.77-.17-.33-.3-.59-.48-.94-1.47-.74-2.58.57-1.25,1.71Zm25.45-27c-.41.01-.68.22-.64.54.1.75-.52.77-.7,1.39,1.45,1.59,3.37-.94,1.35-1.93Zm-55.17,2.58c.07-.03.13-.07.2-.1-.2-.22-.39-.44-.59-.66-.06.15-.12.3-.18.46.23.12.43.22.57.29Zm34.4,9.95c-.11-.25-.22-.47-.34-.65-.56.4-1.11.8-1.65,1.18.16.13.47.21,1.11.26.28-.28.59-.54.89-.78Zm-5.69,21.2c-.64-.83-2.24-.36-2.36.54.33.7,1.31,1.2,1.99.87.08-.06.17-.12.25-.18.03-.03.06-.05.09-.08-.19-.37-.01-.8.02-1.15Zm-18.76-15.82c.66,1.35,2.81.89,2.44-.65-1.58-.65-2-.53-2.44.65Zm16,2.27c-.66-1.32-1.91-.68-2.27.48.22.32.43.61.62.89,1.2.09,1.22.08,1.65-1.37Zm23.59-17.51c.46-.27.83-.67,1.04-1.32-.09-.86-.68-1.25-1.22-1.11-.19.15-.39.31-.58.46-.09.15-.18.33-.22.55.24.49.19,1.18.98,1.43Zm-18.15,11.74c-.19-.09-.37-.18-.54-.26-.57.4-1.13.78-1.68,1.14.89,1.02,2.73.7,2.22-.88Zm-1.06,18.12c.57-.13.87-.26,1.29-.63-.74-1.29-.32-2.11-2.14-1.26.06.85-.24,1.64.86,1.88Zm11.19-21.65c2.72-2.81-2.59-3.25-.81-.28.2.07.44.15.81.28Zm-12.88,13.16c.56-1.37-1.24-2-2.13-1.09-.43,1.35,1.38,1.86,2.13,1.09Zm-45.5-40.19c-.48.33.12.96.21,1.38.25.88,1.35.72,1.82.12,0-.04-.01-.08-.02-.12-.42-.49-.83-.98-1.23-1.45-.24-.04-.5-.02-.79.06Zm78.07,11.15c-1.07-1.13-3.08,1.63-.94,1.76,1.32-.16,1.46-.52.94-1.76Zm-59.67,22.68c-.61-.69-1.45-.87-1.91-.51.36.55.73,1.1,1.09,1.65.34-.18.64-.55.82-1.14Zm-4.18-14.61q-.67.44-1.1,1.1c.8,2.51,4.06-1.17,1.1-1.1Zm-6.48-10.33c.09,1.24.96,1.44,1.59.99-.42-.48-.84-.97-1.25-1.45-.14.12-.26.27-.34.46Zm13.22,16.66c-.12-.33-.24-.64-.35-.96-.82-.1-1.48.63-2.02,1.16.11.81.79.94,1.29,1.28.32-.62.61-1.02,1.09-1.48Zm.18,5.45c-.24-.23-.48-.45-.72-.68-.3.19-.52.44-.86.26-.41-.16-.71.35-1.03.52.54,1.8,2.01,1.45,2.61-.1Zm23.41,14.97c.43-.47.81-.9,1.25-1.4-.53-.7-1.44-1.06-2.2-.55-.06.4-.1.72-.16,1.1.38.23.57.68,1.11.85Zm-7.44,2.16c.06-.42.1-.82-.1-1.31-.37-.12-.79-.26-1.25-.42-1.33,1.5-.44,2.62,1.35,1.73Zm-23.76-22.84c-.01,2.6,3.06,1.21,1.74-.5-.63,0-1.26-.21-1.74.5Zm19.86,20.73c1.41-.45,1.86-1.26.68-2.26-.9.11-1.14.78-1.56,1.47.26.24.54.49.88.79Zm-2.57-4.85c-2.48.79.75,3.44,1.39.78-.27-.56-.87-.52-1.39-.78Zm31.61-7.03c-.31-.44-.63-.89-.98-1.38-.83.24-1.12.89-1.7,1.25.7.89,2.02,1.15,2.69.13Zm10.41-21.31c.25-.65.15-1.17-.1-1.5-.51.41-1.01.82-1.53,1.23.34.18.68.36,1.06.56.18-.09.37-.19.57-.3Zm-61.91,5.49c.63.54,1.71.42,2.03-.43-.09-2.44-2.88-.59-2.03.43Zm29.07,27.1c.07-.22.15-.47.23-.72-.16-.31-.32-.6-.48-.91-.63-.17-1.07-.03-1.44.34-.16.59.08,1.08.3,1.53.55.21.93-.11,1.39-.24Zm-15.07-2.25c1.36-.6,1.8-.17,1.35-1.89-.16-.08-.32-.17-.58-.3-.25.17-.49.34-.69.49.37.72-1.09,1.14-.09,1.69Z"/>
          </g>
        </g>
        <path class="cls-6" d="m257.31,86.92c-12.48-16.78-38.96-14.04-47.81,4.9-2.8,5.99-3.92,13.89-3.5,24.41,1.18,29.33,26.01,28.87,26.01,28.87l4.59,23.94,36.91-9.3-13.5-28.81s3-21.9.9-35.71c-.47-3.07-1.78-5.84-3.61-8.3Z"/>
        <path class="cls-4" d="m218.37,98.43c0,1.08.79,1.95,1.76,1.95s1.76-.87,1.76-1.95-.79-1.95-1.76-1.95-1.76.87-1.76,1.95Z"/>
        <path class="cls-4" d="m239.05,98.43c0,1.08.79,1.95,1.76,1.95s1.76-.87,1.76-1.95-.79-1.95-1.76-1.95-1.76.87-1.76,1.95Z"/>
        <path class="cls-4" d="m247.58,89.21c-3.65-2.61-8.65-4.05-12.93-1.91-.75.37-.19,1.4.53,1.27,4.2-.77,8.18-1.05,12.01,1.3.42.26.77-.38.38-.66h0Z"/>
        <path class="cls-4" d="m231.31,115.36c-2.2,2.21-4.58,3.36-7.65,2.02-.81-.35-1.53.77-.71,1.21,3.08,1.67,7.74.68,8.83-2.96.08-.27-.27-.47-.47-.27h0Z"/>
        <path class="cls-4" d="m245.35,140.74c-5.64,2.71-11.61,4.98-17.94,5-.79,0-.78,1.18,0,1.22,6.44.34,12.9-2.33,18-6.12.06-.04,0-.13-.06-.1h0Z"/>
        <path class="cls-4" d="m300.17,143.49c-6.44-4.24-15.38-20.24-15.38-20.24-3.32-8.06-6.63-16.12-9.95-24.17-1.79-4.35-3.61-8.74-6.2-12.46-3.08-4.42-6.21-8.21-10.46-10.88-7.47-4.69-19.47-7.11-30.61-2.6l5.1,3.83c6.46,4.9,22.39,17.91,23.86,27.96,1.46,10.06-.59,36.62.44,47.22,1.03,10.61,6.51,16.9,9.15,24.5,2.64,7.6,15.84,3.41,15.84,3.41l26.96.02c9.29-19.6-2.31-32.35-8.76-36.6Z"/>
        <g class="cls-8">
          <path class="cls-4" d="m236.29,107.61c0,1.6,2.5,2.89,5.58,2.89s5.58-1.29,5.58-2.89-2.5-2.89-5.58-2.89-5.58,1.29-5.58,2.89Z"/>
        </g>
        <path class="cls-6" d="m276.33,113.49c-.44-1.79-1.36-3.51-2.84-4.61-1.48-1.1-3.56-1.47-5.21-.65l-2.22,15.44c2.66,1.52,6.29.68,8.36-1.58,2.07-2.26,2.65-5.63,1.92-8.61Z"/>
        <path class="cls-4" d="m272.12,116.46c-.66-1.13-1.38-1.82-2.79-1.84-1.26-.02-2.49.63-3.19,1.67-.4.6.5,1.28.99.77,1.24-1.29,3.29-1.67,4.8-.46.1.08.26-.02.18-.14h0Z"/>
        <path class="cls-4" d="m216.35,89.06c5.73-3.42,10.62.69,10.5,6.96-.09,4.77-1.99,9.18-4.08,13.37-.42.83.75,1.53,1.25.73,3.35-5.23,6.33-14.44,2.96-20.3-2.33-4.06-7.68-4.51-10.98-1.22-.23.23.07.63.35.46h0Z"/>
        <path class="cls-2" d="m228.03,161.55s-14.28,7.51-22.92,28.02c-1.49,3.54-7.85,21.63-6.78,28.91,3.59,24.44,12.18,51.74,23.83,57.27,15.13,7.18,80.6-1.59,78.71-14.14-1.89-12.56-.37-91.38-4.48-95.31-4.1-3.92-30.76-5.96-30.76-5.96l-37.61,1.21Z"/>
        <path class="cls-3" d="m252.3,165.96c-2.09,7.25-3.97,14.5-5.47,21.9-1.36,6.74-3.09,13.91-3.16,20.82,0,.54.85.68.96.13,2.88-14.21,4.76-28.61,7.89-42.8.03-.14-.18-.2-.22-.06h0Z"/>
        <path class="cls-3" d="m245.86,260.22c.58,5.97,1,11.63,2.81,17.41.28.89,1.66.52,1.4-.39-1.58-5.54-3.4-11.27-3.99-17.03-.01-.14-.24-.14-.22,0h0Z"/>
        <g class="cls-8">
          <path class="cls-4" d="m259.24,237.73c.16-.06.31-.12.47-.18,1.28-.04,2.3.36,2.64,1.78-1.68,1.71-3.29.57-3.11-1.6Zm16.69-2.89c-.64.34-1.44.48-1.59,1.41.72.91,1.83.94,2.61,1.65,1.11-.97.36-2.81-1.02-3.05Zm-32.71,26.83c-1.35.69-2.87,2.06-.66,2.76,1.77.33,2.51-2.27.66-2.76Zm16.14-10.72c.36,1.23.7,1.29,1.87,1.46.38-.43.75-.85,1.15-1.3-.61-1.69-2.27-1.9-3.02-.16Zm11.97,5.96c.4,1.13.94,1.41,1.82,1.29.31-.46.63-.92.94-1.39-.01-.25-.05-.5-.07-.75-1.12-1.2-1.87,0-2.69.86Zm3.65-15.71c-.26.34-.85.6-.57,1.12.83,1.74,2.47,1.01,2.88-.66-.61-.95-1.48-1.65-2.31-.46Zm-21.74,23.55c-1.91-.54-3.47.62-2,2.43,1.48.4,2.39-1.06,2-2.43Zm9.39-16.19c.73,1.61,2.29.6,2.59-.75-.7-1.76-3.21-1.18-2.59.75Zm-33.41,11c-1.09-.7-2.78-1-2.82.76.41.6.89.95,1.63,1.05q1.35-.64,1.2-1.81Zm10.49-4.17c1.09-.79,1.34-1.13,1.59-2.25-2.04-1.55-4.1,1.29-1.59,2.25Zm46.52-27.85c-.5.19-1.07.41-1.68.64.59.33,1.3.26,1.68-.64Zm-22.34,27.87c1.28-.67,1.64-2.3.07-2.85-.75-.33-1.08.78-1.5,1.2-.43.77.75,1.5,1.43,1.65Zm3.33-9c.34-.43.69-.88,1.07-1.37-1.15-3.68-4.63.75-1.07,1.37Zm-21.53,8.99c.53-.36,1.07-.74,1.66-1.15-.62-3.55-4.69.01-1.66,1.15Zm10.34,7.13c-1.05-1.82-2.97-.28-2.44,1.51,1.19.18,2.88.16,2.44-1.51Zm26.36-31.18c.89-.77.87-1.89.27-2.45-.67.26-1.4.53-2.15.82.31.67,1.35,1.41,1.88,1.64Zm-26.7,18.45c-.85.02-1.45.65-2.3.89.29.67.51,1.09.87,1.7,1.41.43,2.82-1.41,1.44-2.58Zm6.01,8.31c.61-1.15.15-3.22-1.41-2.45-1.44.97-.46,2.82,1.41,2.45Zm6.65,4.84c-.21-.58-.36-1.17-1.05-1.44-.45.17-.91.34-1.34.51-1.21,2.32,1.36,2.87,2.4.93Zm-20.44.85h1.69c2.04-2.75-3.5-3.26-1.69,0Zm-1.5.61c-.6.69-1.19.23-1.78.49-.05.41-.11.85-.18,1.44,1.38,1.94,3.69-.4,1.96-1.93Zm-25.45-11.64c-.54,1.48-.5,1.86.62,2.65,2.04-.41,1.63-3.39-.62-2.65Zm48.6,2.7c2.01-.69,1.81-3.01-.43-2.81-.23.54-.43.97-.68,1.47.14.63.58.97,1.11,1.34Zm-16.29-6.57c.05-1.57-1.41-2.67-2.66-1.44-.8,1.57,1.65,2.29,2.66,1.44Zm9.73-12.21c.16,1.53,1.83.5,2.09-.49-.03-.22-.09-.42-.17-.6-.64.24-1.29.49-1.95.73.05.1.08.21.04.36Zm8.67,2.75c.87.85,2.3.92,2.66-.46-.47-1.65-3.55-1.57-2.66.46Zm-60.75,20.02c-.69-1.04-1.52-.79-1.96-.18.28.62.62,1.32,1.01,2.09.82-.35,1.41-1.15.95-1.9Zm29.22,1.95c2.38-1.78-.76-4.01-1.81-1.42.5.65.76,1.53,1.81,1.42Zm12.46-.37c.92-.86.41-2.23-.73-2.52-2.48.66-1.06,2.95.73,2.52Zm-6.63.38c1.19-.76,1.46-1.95.17-2.79-1.27.01-1.53.75-1.64,1.65.47.35.62,1.08,1.47,1.14Zm22.8-19.23c0,1.64,2.24,1.36,2.28-.09.25-1.87-2.91-1.58-2.28.09Zm-19.84,10.26c1.11-.71,1.78-2.23.08-2.72-.87.19-1.41.69-1.65,1.51q.48.61,1.57,1.2Zm-28.34,7.99c1.06,1.64,2.33.82,2.49-.94-1.12-1.36-2.42-.73-2.49.94Zm-.42,8.58c-.1-.41-.28-.79-.79-.78-.56,0-1.06-.08-1.5-.45-.79.34-.78,1.06-.4,1.62.57.22,1.18.43,1.83.64.32-.16.62-.48.86-1.02Zm60.03-24.2q-.69-.73-1.59-1.09-.7.55-1.06,1.47c.15.28.32.6.46.87,1.07.47,2.15-.17,2.19-1.25Zm-23.98-5.96c-.78.29-1.56.58-2.34.88,1,.63,2.16.6,2.34-.88Zm-23.65,14.91c-.26,1.34,1.02,1.69,2,1.08,1.81-2.14-1.43-2.89-2-1.08Zm49.31-12.79c-1.91.02-1.31,1.83-.09,2.32.34-.66.66-1.32.98-1.97-.21-.19-.51-.33-.89-.35Zm-33.92,14.76c-1.48,1.95,1.69,3.37,2.35,1.24-.61-.84-1.23-1.5-2.35-1.24Zm-32.9-.76c1.49.36,2.5-.63,1.97-1.45-.83.31-1.61.6-2.34.87.07.21.18.42.37.58Zm55.95-19.54c-.43-.34-.78-.61-1.12-.88-1.18.5-1.25.7-.76,2.64,1.48.29,2.2-.29,1.88-1.76Zm9.62-.07c-1.25,1.21,1.39,2.43,2.33,1.46.35-1.53-1.1-2.4-2.33-1.46Zm2.93,3.09c-.04.39.01.72.13.99.27-.56.53-1.12.78-1.66-.45-.06-.85.07-.91.67Zm-16.79-.95c-2.82.9-.62,3.52,1.28,2.02-.35-.83-.15-1.81-1.28-2.02Zm-5.71,24.07c-.34.34-.63.44-1.15.51-.07.55-.54.95-.26,1.46,2.12,1.86,3.59-1.32,1.41-1.97Zm-31.85,9.98c-.55-.97-2.62-1.28-2.39.28,0,.01,0,.02,0,.03.76.14,1.53.27,2.33.4.09-.21.13-.45.07-.7Zm-2.85-5.51c.24.35.49.72.73,1.07,1.4.49,1.72-.54,1.93-1.72-.46-.23-.75-.73-1.4-.77-.4.44-1.11.64-1.25,1.42Zm14.86.27c-.3-.54-.44-1.18-1.11-1.52-3.33.47-.42,4.17,1.11,1.52Zm21.11-21.66c-.45-.32-.84-.61-1.31-.94-3.49,1.16.18,4.4,1.31.94Zm8.32,16.28c1.27-1.97-1.84-3.24-2.28-.59.53,1.24,1.26.61,2.28.59Zm-28.78,7.24c-.84,1.57,1.64,2.93,2.18,1.23.17-1.39-1.07-2.51-2.18-1.23Zm14.02-12.36c-2.25-.57-3.31,2.13-.67,2.41.33-.35.66-.72,1.07-1.16-.15-.46-.28-.88-.39-1.25Zm1.99-3.25c-.8.34-.84.37-1.17,1.14-.67,3.04,4.5.76,1.17-1.14Zm-10.5-7.66c.1,1.06.88,1.14,1.68,1.35,2.4-1.86-.47-3.69-1.68-1.35Zm28.76,1.63c-1.64.55-2.32,2.35-.46,2.49,1.53.39,1.77-1.9.46-2.49Zm-17.91.28c-.44.1-.91.2-1.33.3-.14.43-.25.78-.36,1.11,1.14,2.57,3.7.36,1.69-1.41Zm-37.64,19.52c.61,1.05,2.17,1.19,2.45-.15.31-2.03-2.45-1.76-2.45.15Zm59.35-26.46c.4-1.14-.26-1.74-1.1-2.36-.74.39-1.11,1.01-1.42,1.72.58.92,1.58.73,2.51.63Zm-38.05,16.28c-.11.37-.22.75-.32,1.09q.56.64,1.58.93c.52-.29.77-.93,1.14-1.37-.59-1.21-.84-1.27-2.4-.65Zm.69-9.99c1.56.05,1.99-2.11.52-2.38-.36.13-.71.27-1.07.4-.58.67-.56,1.87.55,1.98Zm-5.05-.3c-.25.09-.49.18-.74.28.26.02.51-.07.74-.28Zm35.25,4.03c-1.79.15-1.3,1.86-.18,2.49,1.58-.07,2.02-2.72.18-2.49Zm-31.58-2.05c-.57-1.36-2.97-1.04-2.58.48.66,1.27,2.56,1.13,2.58-.48Zm26.97,2.61c-.39-.28-.82-.59-1.28-.91-3.01,1.16.94,4.67,1.28.91Zm-3.19,9c-.89.1-1.2-.71-1.9-.15-2.1,1.93,2.85,3.43,1.9.15Zm-30.21,6.08c-.66-1.81-2.42-.06-2.18,1.23,1.13,1.05,2.65.39,2.18-1.23Zm-.74-16.12c1.45-.93,1.24-2.09.44-2.4-.61.23-1.21.45-1.81.68.11.95.51,1.53,1.37,1.73Zm3.69,2.47c.53-.94-.04-1.83-.97-2.13-1.08-.14-.88,1.39-1.11,2.08q.86.48,2.07.05Zm36.61,2.16c.22.59.51.92.82,1.08.4-.64.8-1.28,1.19-1.93-.24-.18-.59-.32-1.09-.38-.56.28-.75.73-.93,1.23Zm-38.11,16.13c1.06-.15,1.38-.98,1.81-1.69-1.03-2.09-3.84.48-1.81,1.69Zm-.65-13.35c.18.74.32,1.49,1.34,1.6.45-.32,1.05-.55,1.14-1.38-.57-1.1-2.02-1.75-2.47-.22Zm-18.01,6.24c.89,1.24,2.44,2.2,2.39-.07.3-1.65-2.25-1.24-2.39.07Zm54.01-29.64c.2,1.14,2.26,1.03,2.39-.01-.36-.37.16-.72-.04-1.14-.01-.02-.03-.02-.05-.04-.73.27-1.47.55-2.23.84-.04.12-.07.24-.07.36Zm-63.59,23.47s-.05.02-.05.02c0,0,.03.07.07.18,0-.03.02-.06.02-.09,0-.04-.03-.07-.04-.11Zm51.32,2.88c-.32-.35-.64-.7-.98-1.06-1.31.17-1.93.97-1.22,2.15,1.41.39,1.72.2,2.2-1.09Zm-13.38-12.84c-.78.05-1.46.06-1.36,1.18.97,2.79,4.13-.81,1.36-1.18Zm.16-3.71c.41-.22.68-.54.83-.88-.51.19-1.02.38-1.53.57.21.11.45.22.7.3Zm39.64-10.82c-1.33-.88-2.54-.25-2.17,1.36,1.15,1.16,2.72.06,2.17-1.36Zm-29.67,13.07c-.16-.4-.18-.84-.15-1.28-.34-.21-.65-.4-1.03-.63-.35.73-1.63.82-1.23,2,1.05.58,1.45.57,2.41-.1Zm21.52,5.63c.18-.3.35-.61.53-.91-.3.18-.51.48-.53.91Zm-53.91.52c1.12,1.19,3.01,0,2.1-1.37-.74.28-1.46.55-2.17.81-.03.17-.02.35.07.56Zm7.25,3.92c-.61.11-.55.56-.7.88-.15.34-.72.27-.76.79.88,1.59,2.75,1.01,2.55-.79-.37-.3-.72-.58-1.08-.88Zm-17.12.89c-.32-.23-.58-.42-.94-.68-3.56,1.24,1.37,4.48.94.68Zm42.86,15.5c.7-.18,1.36-.39,2.01-.61-.53-.78-1.97-.28-2.01.61Zm-36.38-15.63c-.43-.28-.8-.53-1.19-.79-.44.79-1.35.93-1.49,1.77.72,1,1.55.56,2.38.32.07-.46.17-.85.3-1.3Zm59.35-22.94c.73-.74.27-1.39-.64-1.59-.41.22-.77.41-1.15.61-.02.49-.08.96-.22,1.41.64.68,1.92.62,2.01-.43Zm7.84-4.82c-.66.4-.29,1.14-.75,1.57.21.45.47.72.74.86.33-.8.61-1.51.85-2.12-.25-.15-.54-.24-.84-.32Zm-56.22,33.36c-1.06,0-3.05,1.54-1.23,2.03,1.36.3,2.94-1.22,1.23-2.03Zm-19.88,1.67c1.72.94,1.56.49,2.66-.29-.12-.34-.25-.67-.36-.98-.4-.12-.75-.22-1.13-.34-.43.51-1.41.52-1.17,1.61Zm42.2,5.41c.99,2.57,3.91.04,1.54-1.22q-.88.41-1.54,1.22Zm19.22-25.31c-.48.35-.81.79-.95,1.36.14,1.09,1.48,1.72,2.14.56-.31-.92.12-1.83-1.19-1.92Zm-9.02-2.61c-1.71.15-1.13,1.4-.27,2.28,1.85-.62,2.55-1.61.27-2.28Zm-25.99,21.03c-1.61-.2-1.83-.08-2.32,1.16,1.13,1.7,2.77.84,2.32-1.16Zm6.41-10.83c-.17-.96-1.08-1.96-1.97-1.3-1.36,2,.38,2.37,1.97,1.3Zm15.45,17.92c.59.57,1.28.65,2.04.45.11-.34.21-.64.34-1.02-.97-1.43-2.49-1.45-2.38.58Zm-12.38,3.14c-.56-.69-1.06-1.88-1.99-1.03-.43.3-.94.7-.66,1.28.57.76,2,.49,2.65-.25Zm9.57-30.88v1.08c2.85,2.22,2.78-3.59,0-1.08Zm-22.77,29.74c-.69-.24-1.11-.13-1.46.5.09.35.19.72.29,1.09.51.06,1.03.11,1.55.16h.21c.43-1.07.67-1.44-.59-1.76Zm-8.44-15.19c-1.87-.39-2.6,1.2-.67,1.92,1.3.24,1.44-1.11.67-1.92Zm24.57,12.87c-.34-.62-.6-.95-1.15-1.41-.88.47-1.53,1.19-1.06,2.27.8-.51,1.99.54,2.22-.86Zm-20.34.74c2.08,1.08,2.77-.63,1.17-2.08-1.08.89-1.15,1.03-1.17,2.08Zm-1.14-14.9c-.15-.26-.26-.47-.38-.68.12-.25.24-.49.37-.74-3.07-1.4-2.64,3,.02,1.42Zm37.91,1.1c-.33.33-.71.7-1.12,1.11,1.13,2.68,4.02-.54,1.12-1.11Zm-27.1,17.49c.22,0,.44.02.66.03.22-.29.4-.54.52-.7.75-3.74-3.42-.66-1.18.67Zm-23.43-12.26c.57-.38,1.48-1.53.58-1.95-.84-.2-1.54-.21-1.96.7.43.56.65,1.83,1.38,1.25Zm9.76,2.52c-.23-.58-.42-1.06-.59-1.49-2.69-.46-1.8,3.09.59,1.49Zm25.86,7.19c-.37.25-.76.52-1.15.79.21.81.6,1.21.99,1.35.29-.04.58-.08.86-.13.48-.38.54-1.25-.7-2.02Zm12.02-3.55c.31-.11.62-.21.9-.31.18-.38.35-.74.51-1.08-.22-.37-.59-.31-.9-.36-.35-.06-.62-.45-1.09-.2-.1.29-.22.63-.35,1.01.2.4.51.71.93.94Zm-12.15-13.55c-.16-.26-.29-.45-.41-.65-1.38.72-.22,1.83.55,2.44,1.26-.24,1.47-2.18-.14-1.79Zm17.08-5.33c.77-.07,1.92.57,2.29-.25-.07-1.68-2.67-1.77-2.29.25Zm-39.08,2.72c.42.85,1.91,1.38,2.38.31.29-1.31-2.29-1.7-2.38-.31Zm-12.5,14.5c-.99-1.48-2.28-.81-2.26.79.28.2.57.39.9.62.47-.49.89-.93,1.35-1.41Zm17.35-6.44c-.96-.35-1.22.59-1.96.81,1.47,1.79,2.95,1.62,1.96-.81Zm17.14-18.03s0,0,0,0c0-.01.01-.02.02-.04l-.03.03Zm-.48,1.49c.33.27.63.52.93.77.35-.28.66-.54.98-.8.26-1.1-.5-1.31-1.41-1.47-.2.49-.73.95-.49,1.49Zm6.76,22.2c-.54.25-.93.64-1.27,1.23.77.15,1.01.99,1.7.92.59-1.03.55-1.5-.42-2.15Zm-32.38,4.84c1.48-.95-1.25-2.01-1.94-.95.42,1.01,1.27.79,1.94.95Zm25.65-28.65c.1.27.24.23.43.12-.14-.13-.23-.3-.43-.12Zm.44.13s.03-.04.03-.04c-.02,0-.03.02-.04.02,0,0,0,0,.01.01Zm17.78,8c-.06-.16-.14-.22-.31-.16.08.17.1.31.31.16Z"/>
        </g>
        <path class="cls-4" d="m196.65,214.65c.72-12.62,6.32-24.75,14.55-34.19.52-.6-.34-1.48-.88-.88-9.03,9.91-13.32,21.82-13.97,35.07,0,.2.3.2.31,0h0Z"/>
        <path class="cls-6" d="m157.72,171.05c-.34-4.41-1.53-18.71-3.05-24.16-1.8-6.48-12.7-23.25-17.2-26.85-2.51-2.01-4.57-1.34-5.9-.36-1.35.99-1.74,2.84-1,4.35,2.21,4.52,8.89,12.34,8.89,12.34-4.32-2.88-13.68-4.86-17.64-3.96-3.96.9-1.26,6.66-1.26,6.66-3.06,4.32-.36,7.02,9.9,10.08,10.26,3.06,10.98,6.66,10.98,6.66l-5.4-1.62s-9-2.7-11.52-1.25c-2.52,1.45-1.98,4.49,2.7,7.01,4.68,2.52,9.72,4.5,9.72,4.5,0,0,1.44,5.22,2.88,12.96,1.44,7.74,12.6,13.32,12.6,13.32l.03-.11c3.06,5.4,12.64,15.83,14.34,15.07,2.24-1,14.29-15.36,14.05-17.57-.22-1.96-19.24-14-23.11-17.07Z"/>
        <path class="cls-2" d="m290.02,164.08c-7.61-1.04-15.13,2.53-19.63,8.75-10.15,14.02-32.02,43.71-34.65,42.95-2.73-.79-37.45-21.81-51.62-30.43-3.55-2.16-8.09-1.74-11.19,1.02l-13.55,12.05h0c-.6,22.04,12.09,42.25,32.15,51.39,18,8.2,39.91,15.15,56.49,10.77,33.73-8.91,52.01-54.82,52.01-54.82,0,0,13.14-38.53-10.01-41.69Z"/>
        <path class="cls-6" d="m12.09,134.49s-1.06-4.86.75-7.27c2.35-3.12,11.86-7.51,15.37-5.7,3.51,1.81,1.89,6.43-.15,7.09-2.03.66-7.29,1.3-9.06,2.47-1.6,1.06-1.15,2.27-1.15,2.27,0,0,10.54-2.17,12.95,1.31,2.41,3.48-1.06,5.28-1.06,5.28,0,0,4,4.91-2.67,7.61,0,0-.16,3.29-2.86,4.81-2.7,1.52-9.83,2.31-9.83,2.31,0,0-.54,6.5-1.5,6.54-3.2.12-8.16-10.49-5.22-13.14,0,0-.68-4.44,1.39-6.68l1.13-.96s-1.05-4.48,1.91-5.94Z"/>
        <path class="cls-4" d="m139.93,156.43c2.42.92,4.27,3.09,4.87,5.6.19.78,1.39.45,1.21-.33-.71-2.95-2.92-5.4-5.75-6.47-.32-.12-.69.13-.77.44-.1.35.12.65.44.77h0Z"/>
        <path class="cls-4" d="m120.55,139.69c10.65-.41,21.24,4.96,27.92,13.13.51.62,1.39-.27.88-.88-6.88-8.41-17.86-13.92-28.81-13.5-.8.03-.81,1.28,0,1.25h0Z"/>
        <path class="cls-4" d="m138.46,136.76c3.72,1.49,7.17,3.64,10.14,6.32.6.54,1.48-.34.88-.88-3.15-2.83-6.76-5.07-10.7-6.64-.75-.3-1.07.91-.33,1.21h0Z"/>
        <path class="cls-2" d="m232.73,165.87s-3.68-10.92-.27-12.13c3.41-1.21,26.53-8.22,30.04-2.15,3.51,6.07,3.14,8.75,3.14,8.75l-32.91,5.54Z"/>
        <path class="cls-4" d="m237.03,214.89c5.97,4.75,12.06,9.31,17.26,14.93.57.62,1.5-.31.93-.93-5.22-5.65-11.57-10.05-17.67-14.66-.38-.29-.89.36-.51.66h0Z"/>
        <path class="cls-4" d="m238.81,216.02c9.8-9.57,16.06-21.85,24.39-32.6.35-.45-.25-1.09-.64-.64-8.85,10.39-14.71,22.86-24.3,32.69-.35.35.19.89.54.54h0Z"/>
        <path class="cls-2" d="m160.4,201.81s-5.53-2.26-5.76-6.55c-.23-4.29,10.27-17.4,13.55-16.95,3.28.46,9.03,6.33,9.03,6.33l-16.26,16.94"/>
        <path class="cls-4" d="m159.47,199.35c4.23-5.63,9.21-10.49,15.4-13.94.71-.39.07-1.5-.63-1.08-6.22,3.66-11.63,8.45-15.36,14.67-.24.39.34.7.6.35h0Z"/>
        <path class="cls-4" d="m159.19,198.12c-1.72-1.08-3.13-2.34-4.06-4.18-.35-.68-1.35-.08-1.02.6.95,1.96,2.67,3.65,4.81,4.21.38.1.6-.43.27-.63h0Z"/>
        <path class="cls-4" d="m167.59,178.3c3.32.9,6.32,2.87,8.42,5.6.21.27.54.41.86.22.26-.15.43-.59.22-.86-2.31-2.99-5.52-5.18-9.17-6.18-.78-.21-1.11.99-.33,1.21h0Z"/>
        <path class="cls-4" d="m231.3,75.68c-8.82,1.49-16.63,9.24-18.21,18.08-.15.87,1.06,1.23,1.34.37,2.8-8.72,8.16-15.12,16.9-18.33.08-.03.05-.14-.03-.13h0Z"/>
        <path class="cls-4" d="m233.26,74.32c-6.51,4.14-11.93,11.63-12.28,19.55-.03.65.95.76,1.11.15,2.13-7.79,5.12-14.02,11.54-19.22.27-.22-.08-.67-.37-.49h0Z"/>
        <path class="cls-4" d="m233.18,74.35c-3.24,6.29-4.26,13.94-2.07,20.76.3.94,1.6.54,1.46-.4-1.09-7.02-1.07-13.37.83-20.27.03-.13-.15-.21-.21-.09h0Z"/>
        <path class="cls-4" d="m269.46,88.75c4.62,14.22,11.81,27.33,22.09,38.26,11.46,12.18,29.54,21.03,27.05,40.62-.09.68,1.06.83,1.2.16,3.2-16.26-10.24-26.42-21.02-35.79-13.28-11.53-22.93-26.93-29.03-43.33-.06-.17-.34-.1-.28.08h0Z"/>
        <path class="cls-2" d="m18.87,82.51s1.99-25.41,5.73-24.38c1.01.28,8.86,19.59,8.86,19.59,0,0,18.42-3.84,17.7-.99-.72,2.85-10.77,13.15-10.77,13.15,0,0,14.08,16.24,8.63,15.66-5.45-.58-17.62-8.73-17.62-8.73,0,0-6.5,20.41-8.32,15.94-1.83-4.47-3.67-19.16-3.67-19.16,0,0-21.64-.03-19.22-2.68,2.41-2.65,18.68-8.4,18.68-8.4Z"/>
        <g>
          <circle class="cls-2" cx="147.89" cy="94.02" r="17.62"/>
          <path class="cls-3" d="m145.07,86.72c.03-.19.12-.33.28-.43.16-.1.32-.15.5-.15.48-.03.81.07,1.01.29.2.22.28.4.26.55-.01.12-.06.4-.14.86-.08.45-.17.99-.28,1.61-.11.62-.22,1.26-.35,1.91-.13.65-.25,1.24-.37,1.77l-1.01-.02c.68-.56,1.34-.95,2.01-1.17.66-.23,1.25-.34,1.77-.34.91,0,1.72.21,2.41.62.7.41,1.24.97,1.63,1.69.39.72.59,1.52.59,2.42s-.2,1.78-.6,2.55c-.4.77-.97,1.4-1.72,1.87-.75.47-1.66.71-2.73.71-.53,0-1.06-.05-1.59-.14-.53-.09-1.03-.23-1.5-.4-.47-.17-.9-.38-1.28-.62-.12-.07-.22-.17-.29-.31-.07-.14-.11-.27-.11-.41,0-.15.04-.31.13-.5.09-.19.2-.34.33-.48.13-.13.28-.2.46-.2.11,0,.22.02.34.06.12.04.23.09.34.14.32.16.64.3.96.43.32.13.67.23,1.02.3.36.07.74.11,1.15.11.66,0,1.2-.15,1.6-.45.4-.3.7-.69.89-1.16.19-.48.29-.98.29-1.51,0-.42-.09-.84-.27-1.26-.18-.42-.46-.77-.85-1.05-.39-.28-.92-.43-1.58-.43-.61,0-1.16.1-1.66.31-.5.21-1.05.56-1.66,1.06-.15.11-.29.16-.44.16-.16,0-.31-.04-.47-.11-.15-.07-.27-.2-.34-.37-.07-.17-.08-.39-.03-.66.19-.85.35-1.67.49-2.47.14-.8.27-1.6.41-2.4.13-.79.27-1.59.4-2.38Zm-.68.2c0-.23.05-.41.15-.57.1-.15.22-.26.37-.33.15-.07.28-.09.42-.08.4.01.86.02,1.4.02s1.12,0,1.75-.02,1.25-.04,1.87-.07c.62-.03,1.2-.08,1.76-.13.27-.03.48.05.64.22.16.17.24.43.24.77s-.08.62-.25.79c-.17.17-.41.26-.73.29-.57.05-1.21.1-1.93.15-.72.05-1.46.08-2.23.1-.77.02-1.54.02-2.31,0-.15-.01-.31-.05-.5-.1-.19-.05-.34-.16-.47-.33-.13-.17-.19-.41-.19-.73Z"/>
        </g>
        <path class="cls-4" d="m123.52,154.59c.96,1.04,2.42,1.63,3.83,1.47,1.42-.16,2.69-.96,3.45-2.17.43-.68-.65-1.31-1.08-.63-.53.85-1.46,1.46-2.47,1.56-1.08.11-2.13-.33-2.85-1.12-.54-.59-1.43.29-.88.88h0Z"/>
        <path class="cls-4" d="m131.84,120.21c.3,1.61,1.4,3.07,2.89,3.76,1.62.76,3.56.63,5.08-.32.68-.43.05-1.51-.63-1.08-1.15.73-2.67.9-3.91.28-1.18-.59-1.98-1.68-2.22-2.97-.06-.33-.46-.52-.77-.44-.35.1-.5.44-.44.77h0Z"/>
        <path class="cls-4" d="m119.69,139.22c-.49,1.06-.01,2.18.8,2.94.76.72,1.76,1.13,2.8,1.2,2.05.13,3.95-1.36,4.43-3.33.19-.78-1.02-1.11-1.21-.33-.32,1.34-1.51,2.4-2.91,2.42-.71.01-1.43-.21-2-.65-.42-.31-1.1-1.04-.83-1.62.14-.31.09-.67-.22-.86-.27-.16-.71-.08-.86.22h0Z"/>
        <path class="cls-4" d="m120.25,133.94c1.16,1.48,2.92,2.64,4.87,2.52,1.87-.11,3.45-1.41,3.7-3.3.04-.34-.32-.62-.62-.62-.37,0-.58.29-.62.62-.17,1.35-1.58,2.1-2.83,2.06-1.49-.05-2.71-1.03-3.6-2.16-.21-.27-.67-.22-.88,0-.26.26-.21.62,0,.88h0Z"/>
        <path class="cls-4" d="m236.18,152.71c-.58,3.9.51,8.44,2.61,11.76.38.6,1.5.22,1.21-.51-1.5-3.78-2.42-7.29-3.28-11.25-.06-.26-.5-.28-.54,0h0Z"/>
        <path class="cls-4" d="m245.14,150.82c.65,1.92,1.65,3.7,2.34,5.61.7,1.92,1.22,3.89,1.72,5.87.23.9,1.57.52,1.38-.38-.79-3.86-2.25-8.39-4.76-11.49-.26-.32-.82.02-.69.4h0Z"/>
        <path class="cls-4" d="m253.54,149.74c3.32,2.98,4.55,6.58,5.36,10.82.15.78,1.31.56,1.34-.18.16-4.49-2.72-8.72-6.22-11.26-.36-.26-.81.32-.48.62h0Z"/>
        <path class="cls-3" d="m166.52,191.67c6.08,5.18,12.7,9.83,19.07,14.66,6.99,5.31,14.1,10.6,21.69,15.02,13.39,7.79,28.93,11.29,44.03,6.58.49-.15.29-.9-.21-.78-17.15,4.16-32.44.43-47.14-8.96-12.84-8.21-23.94-19.36-37.27-26.74-.13-.07-.3.11-.17.22h0Z"/>
        <path class="cls-3" d="m254.09,226.11c8.51-3.91,15.18-12.04,20.22-19.72,6.36-9.68,10.78-20.52,15.05-31.25.33-.82-.99-1.17-1.32-.36-4.24,10.36-8.38,20.82-14.43,30.29-5.4,8.45-12.05,14.5-19.71,20.78-.15.13.04.33.2.26h0Z"/>
        <path class="cls-3" d="m160.03,207.4c10.2,15.74,23.19,28.97,39.59,38.27,16.16,9.16,36.49,15.02,55.16,12.45.48-.07.36-.86-.11-.85-19.78.5-37.98-2.78-55.29-12.83-15.57-9.04-28.95-22.39-39.12-37.18-.1-.14-.33-.01-.23.14h0Z"/>
        <path class="cls-3" d="m275.72,162.02c1.84,3.84,3.13,8.03,3.67,12.26.12.94,1.46.77,1.29-.17-.82-4.45-2.36-8.38-4.79-12.18-.07-.11-.22-.01-.17.1h0Z"/>
        <path class="cls-3" d="m284.49,231.99c1.17,12.49,2.13,25.13,4.2,37.5.12.71,1.33.55,1.27-.17-1.06-12.5-2.89-25.03-4.85-37.41-.05-.35-.65-.27-.62.08h0Z"/>
        <path class="cls-4" d="m195.02,251.66c7.53,4.18,16.08,6.48,24.48,8.11,7.3,1.41,14.85,2.43,22.3,2.27,8.4-.19,16.59-4.35,23.4-8.99,7.61-5.18,13.68-12.29,19.12-19.63,6.29-8.49,11.99-17.63,16.25-27.32.32-.73-.76-1.37-1.08-.63-3.62,8.26-8.33,16.07-13.48,23.46-5.17,7.42-10.93,14.83-18.03,20.52-4.09,3.28-8.7,6.01-13.5,8.13-3.46,1.53-7.19,2.89-10.99,3.14-6.9.45-13.99-.47-20.78-1.62-9.26-1.58-18.8-3.91-27.08-8.51-.7-.39-1.34.69-.63,1.08h0Z"/>
        <path class="cls-4" d="m7.73,148.95c5.41-2.47,12.8-5.53,17.99-.88.6.54,1.48-.35.88-.88-5.68-5.1-13.52-2.06-19.51.68-.73.33-.1,1.41.63,1.08h0Z"/>
        <path class="cls-4" d="m9.94,141.65c3.24-1.25,6.63-2.06,10.09-2.33,1.69-.13,3.4-.14,5.09-.02,1.46.11,2.96.36,3.93,1.56.5.63,1.38-.26.88-.88-.94-1.16-2.34-1.63-3.78-1.82-1.78-.24-3.61-.23-5.4-.13-3.82.21-7.58,1.04-11.15,2.42-.74.29-.42,1.5.33,1.21h0Z"/>
        <path class="cls-4" d="m11.19,135.9c4.39-1.99,9.23-2.79,14.03-2.4.8.07.8-1.18,0-1.25-5.03-.42-10.07.49-14.66,2.57-.73.33-.1,1.41.63,1.08h0Z"/>
        <path class="cls-4" d="m22.61,122.16c.71,1.1,1.86,1.82,3.15,1.97,1.28.15,2.61-.37,3.5-1.29.56-.58-.32-1.46-.88-.88-.65.68-1.59,1.04-2.53.94-.87-.1-1.69-.62-2.16-1.36-.43-.67-1.52-.05-1.08.63h0Z"/>
        <path class="cls-4" d="m24.9,133.81c.24,1.23,1.12,2.36,2.27,2.87,1.27.57,2.79.46,3.94-.32.28-.19.4-.55.22-.86-.16-.28-.57-.41-.86-.22-.8.54-1.86.69-2.75.29-.86-.39-1.44-1.18-1.63-2.09-.07-.33-.46-.52-.77-.44-.35.1-.5.44-.44.77h0Z"/>
        <path class="cls-4" d="m26.28,138.91c-.6,1.33-.54,2.96.33,4.17.83,1.15,2.22,1.84,3.65,1.75.34-.02.62-.27.62-.62,0-.32-.29-.65-.62-.62-.98.07-1.98-.34-2.57-1.13-.62-.83-.75-1.99-.33-2.91.14-.31.09-.67-.22-.86-.27-.16-.71-.08-.86.22h0Z"/>
        <path class="cls-4" d="m20.24,145.43c-.43,1.67.4,3.62,2,4.35,1.65.75,3.64.18,4.68-1.28.2-.27.05-.7-.22-.86-.31-.18-.66-.05-.86.22-.66.92-2.05,1.27-3.04.8-1.08-.52-1.64-1.81-1.36-2.91.2-.78-1-1.11-1.21-.33h0Z"/>
        <path class="cls-4" d="m268.06,179.76c9.71-4.34,19.01-7.5,29.71-8.21.23-.02.23-.37,0-.36-10.29.56-20.94,2.97-29.82,8.38-.12.07-.02.24.11.19h0Z"/>
        <path class="cls-3" d="m213.99,201.65c6.5-11.9,11.33-24.34,19.19-35.51.4-.56-.52-1.07-.91-.53-7.94,10.78-14.19,23.27-18.94,35.77-.15.38.47.63.66.28h0Z"/>
        <path class="cls-4" d="m176.88,184.54c-.06.03.03,0,.14,0,.16,0,.31.01.47.03.5.07.99.23,1.46.38,1.51.48,2.98,1.11,4.43,1.76,4.3,1.91,8.5,4.07,12.67,6.24,9.43,4.91,18.72,10.09,28.1,15.07,4.8,2.55,9.48,5.36,14.07,8.28.68.43,1.31-.65.63-1.08-8.53-5.43-17.48-10.1-26.37-14.91-9.34-5.06-18.66-10.31-28.37-14.64-1.64-.73-3.31-1.47-5.04-1.99-.86-.26-1.96-.62-2.83-.21-.73.34-.09,1.42.63,1.08h0Z"/>
      </g>
    </g>
  </g>
</svg>