<?xml version="1.0" encoding="UTF-8"?>
<svg xmlns="http://www.w3.org/2000/svg" viewBox="0 0 435.77 429.4">
  <defs>
    <style>
      .cls-1 {
        fill: #ffe6de;
      }

      .cls-1, .cls-2, .cls-3, .cls-4, .cls-5, .cls-6, .cls-7, .cls-8 {
        stroke-width: 0px;
      }

      .cls-2 {
        fill: #8380ff;
      }

      .cls-3 {
        fill: #fff;
      }

      .cls-4, .cls-5 {
        fill: #421b36;
      }

      .cls-5 {
        opacity: .3;
      }

      .cls-6 {
        fill: #ffae7a;
      }

      .cls-7 {
        fill: #a0d2f4;
      }

      .cls-8 {
        fill: #efefef;
      }
    </style>
  </defs>
  <g id="Background_Simple" data-name="Background Simple">
    <g>
      <path class="cls-8" d="m275.97.04c39.44.96,82.46,2.69,111.67,30.97,28.64,27.73,36.71,71.93,39.6,113.07,3.56,50.58,1.74,101.58-5.41,151.73-5.23,36.72-15.01,75.93-42.48,98.77-24.75,20.58-50.19,28.93-81.52,30.75-43.17,2.5-92.73,3.34-137.56,1.8-35.62-1.23-74.34,3.18-103.15-19.19-25.61-19.9-37.42-54.12-44.54-87.04C-.92,258.4-4.36,205.33,6.2,142.21c3.9-23.31,9.14-52.03,22.82-70.68C53.45,38.21,98.75,21.45,137.84,14.28c0,0,101.44-15.13,138.13-14.24Z"/>
      <g>
        <path class="cls-3" d="m346.84,43.92s-130.74-4.89-138.64-4.25c-7.9.64-26.93,9.98-33.71,22.86,0,0,.27,1.81,1.4,3.28,1.37,1.77,3.97,1.67,7.2-2.34,1.75-2.17,10.09-17.49,25.35-19.25,15.26-1.75,97.78,3.63,97.78,3.63l35.65,3.16s6.08-7.04,5.53-7.06"/>
        <path class="cls-3" d="m184.8,17.43s126.67,32.75,134.05,35.63c7.38,2.88,22.95,17.27,25.76,31.55,0,0-.77,1.66-2.28,2.74-1.82,1.3-4.28.46-6.23-4.3-1.06-2.59-4.66-19.65-18.78-25.7-14.12-6.05-94.73-24.52-94.73-24.52l-35.06-7.18s-3.81-8.48-3.27-8.35"/>
        <path class="cls-3" d="m346.93,41.93s-3.38-.34-6.09-.76c-2.71-.42-12.34-8.15-30.01-11.86-23.09-4.84-35.3.17-35.3.17,0,0-11.88-6.97-20.47-3.16,0,0-10.12-8.47-33.6-10.82-17.97-1.8-29.48,2.67-32.19,2.25-2.71-.42-6.03-1.11-6.03-1.11-.59.62-2.13,8.52-2.13,8.52,0,0,7.39.79,7.87,2.99.48,2.2-4.57,36.99,33.26,39.47,0,0,16.72,1.7,24.94-9.24,8.04-10.7,9.14-23.19,9.14-23.19,0,0,7.36-5.18,15.25,2.94h0c-.46,2.54-2.06,13.26,1.82,24.3,4.54,12.91,20.99,16.34,20.99,16.34,36.81,9.05,42.5-25.64,43.62-27.59,1.12-1.95,8.4-.47,8.4-.47,0,0,.91-8,.54-8.77Zm-122.73,22.44c-30.49-2.41-29.73-18.93-31.06-30.46-1.32-11.53,9.86-12.95,10.42-13.15,3.43-1.19,11.9-.95,25.01,1.01,19.37,2.9,21.04,8.12,21.04,8.12,3.61.91,5.08,36.89-25.41,34.47Zm108.08-8.96c-4.74,10.59-9.01,26.57-38.8,19.66-29.8-6.91-17.54-40.76-13.82-40.54,0,0,3.17-4.48,22.51-1.39,13.09,2.09,21.24,4.42,24.15,6.59.47.35,10.71,5.09,5.97,15.68Z"/>
      </g>
      <g>
        <path class="cls-3" d="m149.55,50.31L19,85.9c.22.84,17.7,73.47,22.66,75.36,4.96,1.89,128.22-27.69,129.17-34.55.95-6.86-21.29-76.4-21.29-76.4Z"/>
        <path class="cls-1" d="m147.29,52.42c-4.13,5.8-8.27,11.61-12.4,17.41-7.23,10.15-14.45,20.3-21.68,30.45-2.31,3.25-4.63,6.5-6.94,9.75-.41.57-.8,1.15-1.22,1.72-1.08,1.45-2.61,2.5-4.39,2.89-1.96.43-3.7-.13-5.52-.78-13.51-4.84-26.88-10.07-40.27-15.22-11.05-4.25-22.04-8.73-33.21-12.64-.4-.14-.8-.28-1.2-.4-1.08-.32-1.54,1.37-.47,1.69,3.43,1.02,6.78,2.45,10.12,3.72,6.46,2.46,12.91,4.94,19.36,7.42,14.06,5.41,28.11,10.88,42.27,16.05,3.14,1.15,6.31,2.68,9.73,1.76,2.28-.61,4.01-2.09,5.36-3.97,1.78-2.49,3.55-4.98,5.32-7.47,7.09-9.95,14.17-19.9,21.26-29.85,3.3-4.64,6.6-9.27,9.91-13.91,1.75-2.46,3.59-4.87,5.26-7.38.08-.12.16-.23.24-.34.65-.92-.86-1.79-1.51-.88h0Z"/>
        <path class="cls-1" d="m42.46,160.42c7.86-13.8,15.72-27.6,23.58-41.39,2.34-4.11,4.68-8.22,7.02-12.33.56-.98-.95-1.86-1.51-.88-7.86,13.8-15.72,27.6-23.58,41.39-2.34,4.11-4.68,8.22-7.02,12.32-.56.98.95,1.86,1.51.88h0Z"/>
        <path class="cls-1" d="m169.76,126.25c-13.55-7.33-26.84-15.07-40.04-23-4.12-2.47-8.23-4.95-12.35-7.42-.97-.58-1.85.93-.88,1.51,13.27,7.96,26.49,16.01,39.98,23.59,4.12,2.31,8.26,4.59,12.41,6.83.99.54,1.88-.97.88-1.51h0Z"/>
      </g>
      <g>
        <path class="cls-3" d="m324.66,338.32l-100.55,27.42c.17.64,13.63,56.59,17.46,58.04,3.82,1.46,98.76-21.33,99.49-26.61s-16.4-58.85-16.4-58.85Z"/>
        <path class="cls-1" d="m322.74,339.85c-3.19,4.48-6.38,8.97-9.58,13.45-5.54,7.78-11.08,15.56-16.62,23.34-1.79,2.52-3.59,5.04-5.38,7.56-.32.45-.63.91-.96,1.35-.85,1.12-2.04,1.91-3.43,2.17-1.48.28-2.79-.2-4.15-.69-10.37-3.72-20.64-7.74-30.92-11.69-8.48-3.26-16.91-6.7-25.48-9.7-.32-.11-.63-.22-.96-.32-1.08-.32-1.54,1.37-.47,1.69,2.63.78,5.19,1.87,7.75,2.85,5.02,1.91,10.03,3.84,15.04,5.77,10.81,4.16,21.61,8.36,32.49,12.34,2.37.87,4.76,2.01,7.34,1.41,1.9-.43,3.35-1.63,4.47-3.17,1.37-1.9,2.72-3.82,4.08-5.73,5.46-7.67,10.92-15.33,16.38-23,2.54-3.57,5.09-7.15,7.64-10.72,1.36-1.91,2.81-3.77,4.08-5.73.06-.09.13-.18.19-.26.65-.92-.86-1.79-1.51-.88h0Z"/>
        <path class="cls-1" d="m242.35,423.24c7.86-13.79,15.71-27.58,23.57-41.38.56-.98-.95-1.86-1.51-.88-7.86,13.79-15.71,27.58-23.57,41.38-.56.98.95,1.86,1.51.88h0Z"/>
        <path class="cls-1" d="m340.32,396.64c-13.69-7.41-27.01-15.43-40.36-23.43-.97-.58-1.85.93-.88,1.51,13.34,8.01,26.66,16.03,40.36,23.43.99.54,1.88-.97.88-1.51h0Z"/>
      </g>
      <path class="cls-3" d="m48.24,228.71l112.68,169.76c14.45-2.92,129.88-83.41,127.5-87.84-6.5-12.11-113.29-169.72-117.39-168.42-4.15,1.31-124.82,83.27-122.79,86.49Z"/>
    </g>
  </g>
  <g id="Envelope">
    <g>
      <g>
        <path class="cls-2" d="m144.16,95.2c-.29,1.11-27.1,93.54-22.63,98.94,4.46,5.4,165.2,51.72,170.76,44.47,5.57-7.26,25.32-101.56,25.32-101.56,0,0-64.4-86.49-71.1-85.37-6.7,1.12-100.18,35.15-102.36,43.52Z"/>
        <path class="cls-4" d="m314,138.16c-3.14.88-6.28,1.76-9.42,2.64-7.54,2.11-15.09,4.23-22.63,6.34l-27.39,7.68c-7.9,2.21-15.8,4.43-23.69,6.64-2.62.73-5.23,1.47-7.85,2.2-.81.23-1.63.46-2.44.68-.38.11-.92.16-1.26.35-.05.03-.12.03-.17.05.28.08.57.15.85.23-19.21-18.57-38.42-37.15-57.63-55.72-5.37-5.19-10.74-10.38-16.11-15.57-.28.49-.57.98-.85,1.46,1.5.4,2.99.79,4.49,1.19,4.1,1.09,8.2,2.17,12.29,3.26,6.03,1.6,12.07,3.2,18.1,4.8,7.4,1.96,14.8,3.92,22.2,5.89,8.07,2.14,16.13,4.28,24.2,6.42,8.14,2.16,16.28,4.32,24.43,6.48,7.63,2.02,15.26,4.05,22.89,6.07l19.25,5.11c4.64,1.23,9.27,2.46,13.91,3.69,2.18.58,4.36,1.22,6.56,1.74.1.02.19.05.28.08,1.09.29,1.55-1.4.47-1.69-1.5-.4-2.99-.79-4.49-1.19-4.1-1.09-8.2-2.17-12.29-3.26-6.03-1.6-12.07-3.2-18.1-4.8-7.4-1.96-14.8-3.92-22.2-5.89-8.07-2.14-16.13-4.28-24.2-6.42-8.14-2.16-16.28-4.32-24.43-6.48-7.63-2.02-15.26-4.05-22.89-6.07l-19.25-5.11-13.91-3.69c-2.18-.58-4.36-1.22-6.56-1.74-.1-.02-.19-.05-.28-.08-.83-.22-1.49.85-.85,1.46,18.73,18.11,37.47,36.23,56.2,54.34,4.65,4.5,9.31,9,13.96,13.5,1.07,1.04,2.13,2.1,3.22,3.11.44.41.64.63,1.23.56.15-.02.32-.09.47-.13,2.37-.67,4.75-1.33,7.12-2,10.4-2.91,20.8-5.83,31.2-8.74,11.96-3.35,23.91-6.7,35.87-10.05,6.62-1.85,13.32-3.53,19.88-5.57.09-.03.19-.05.29-.08,1.08-.3.62-1.99-.47-1.69Z"/>
      </g>
      <path class="cls-5" d="m185.16,163.2c.82.95.73,2.58-.87,2.25v-2.4c.27.05.53.09.87.15Zm-.87,28.89v2.16c1.33.38,1.43-.7,1.42-1.74-.52-.15-.97-.29-1.42-.42Zm1.69,18.83c-.47-.72-.8-1.52-1.69-1.79v2.4c.59-.11,1.25,0,1.69-.61Zm-.32-23.22c.36-.78-.82-1.11-1.37-1.13v1.92c.52.08,1.02.35,1.54.18-.13-.36-.58-.57-.17-.97Zm-1.37-12.41v2.16c1.69.15,1.89-2.76,0-2.16Zm0-46.32v2.16c1.69,0,1.96-2.27,0-2.16Zm0-11.76v2.16c.63.1,1.01-.32,1.45-.6-.36-1.21-.42-1.27-1.45-1.56Zm1.05,63.84h-1.05v1.92c.82.02,1.58-.55,1.65-1.36-.17-.16-.42-.39-.6-.56Zm-1.05-29.28v2.16c.43.13.72-.17,1.03-.28.13-.38.24-.71.34-1.02-.34-.5-.87-.67-1.37-.86Zm0-11.04v1.92c1.74.24,1.88-2.04,0-1.92Zm0,28.56v1.92c.5.07,1.01.23,1.39-.26-.03-.94-.53-1.44-1.39-1.66Zm1.23,36.05c-.12-.45-.25-.89-.37-1.34-.32-.06-.59-.11-.86-.16v2.16c.63.2.95-.16,1.23-.67Zm-.02-5.44c-.08-.53-.13-1.03-.16-1.6-.37-.07-.71-.14-1.05-.21v1.92c.39.08.78.15,1.21-.11Zm-.23-51.78c.72-1.11.29-1.71-.97-1.63v1.68c.35.09.69.12.97-.05Zm-.97-22.99c.85.25,1.3-.21,1.73-.96-.85-.03-1.1-.6-1.73-.96v1.92Zm0,32.4v2.16c1.83.04,1.29-1.64,0-2.16Zm0-22.8v2.16c.6.11.81-.73,1.22-1.09-.29-.53-.67-.9-1.22-1.07Zm73.95,35.84c.15,1.59,2.36.84,2.6-.31,0-.02.01-.03.01-.04-.27-.48-.54-.95-.81-1.43-.89.38-2.06.51-1.8,1.78Zm-54.09,47.96c.52.13,1.03.26,1.55.39-.04-.16-.08-.33-.12-.49-.75-.56-1.17-.37-1.43.1Zm48.74-60.92c-1.87,1.76.97,3.4,1.87,1.91-.4-.7-.8-1.4-1.2-2.1-.24-.02-.47.02-.67.19Zm-12.96-11.89c.24-.46.49-.96.79-1.55-.22-1.01-2.04-1.88-2.23-.47-.04.68-.4,1.13-.64,1.77.73.1,1.33.54,2.08.24Zm4.58,49.36c-.3.22-.58.43-.85.63-.11,2.64,3.65,2.18,2.68-.33-.59-.1-1.21-.2-1.83-.3Zm34.83,31.39c1.35.06,2.62-2.33.52-2.8-1.31.53-2.47,2.4-.52,2.8Zm-36.03-73.06c.76-2.43-1.66-1.94-2.6-.42.4,1.7,1.72,1.82,2.6.42Zm-29.64-33.77c1.54-.48,1.33-2.43-.29-2.56-1.96.3-1.7,2.89.29,2.56Zm35.09,52.03c1.3-1.89-.92-3.54-2.23-1.75-.23,1.13,1.09,2.17,2.23,1.75Zm19.53,40.43c-3.87.78,1.53,5.44,1.09.89-.38-.26-.61-.72-1.09-.89Zm2.57,2.94c-.35.29-.71.59-1.05.87-.27,1.96,1.35,2.24,2.55,1.43.07-.95-.37-2.14-1.5-2.3Zm-4.59-5.23c-.38-.19-.75-.37-1.11-.55-.7.39-.84,1.08-1.12,1.62.21.39.39.73.62,1.15,1.52.44,2.51-.97,1.61-2.23Zm-16-.66c.68.17,1.14-.24,1.75-.58.22-3.73-4.35-1.49-1.75.58Zm-22.43-63.35c.9-.73,1.47-1.93.48-2.75-1.46-.24-1.75.02-2,1.1.35.67.57,1.5,1.51,1.66Zm31.65,28.83c-.48.64-1.47,1.31-1.11,2.13.67.62,1.99,1.39,2.27,0,.52-.94-.21-1.78-1.16-2.12Zm-37.64,45.99c2.45-.43,1.49-3.03-.62-2.47-.81.82-.51,2.25.62,2.47Zm11.86-46.07c.57-.27,1.44-.8,1.15-1.53-.7-1.64-2.28-1.09-2.78.19.51.54.76,1.67,1.62,1.35Zm49.36,46.24c-2.27.19-2.63,1.73-.46,2.55,1.5,0,1.74-1.93.46-2.55Zm-7.38,7.88c1.16,1.31,3.05-.47,2.08-1.91-1.26-.33-3.08.44-2.08,1.91Zm5,8.1c.57-2.24-2.93-1.48-2.54.37.68.17,1.35.34,1.99.49.25-.17.45-.44.55-.86Zm-50.38-73.57c-.26.18-.54.39-.87.62-.48,4.35,5.36.32.87-.62Zm-37.27-2.92c-.49.87-1.8,1.32-1.01,2.5.46.1.81.17,1.15.24.48-.3,1.07-.4,1.34-.94q-.61-1.45-1.48-1.8Zm42.28-.59c1.38,1.27,3.46-.6,1.79-1.8h-1.7c-.69.61-.34,1.2-.09,1.8Zm-34.71-12.26c.34.88,1.12.77,1.81,1.02,1.1-.67.64-1.43.79-2.46-1.47-.43-2.23.05-2.6,1.44Zm84.2,76.15c-.33.53-.63.99-.91,1.43,1.68,3.6,4.32-.91.91-1.43Zm-.55-9.22c.59.38,1.15.4,1.58.18-.38-.67-.76-1.36-1.15-2.06-.53.44-.82,1.14-.42,1.88Zm-27.22,3.73c-.58.12-1.11.24-1.61.35-.1.45-.19.83-.27,1.21.34.37.66.72,1.02,1.1,1.41-.6,2.59-1.67.87-2.66Zm6.13-37.34c.22-.89-.3-1.72.3-2.53-.71-.7-1.15-.66-2.58.21-.14.55,1.68,2.78,2.29,2.32Zm-6.66,19.76c-1.82,1-1.22,3.53.86,2.44.89-.86.4-2.26-.86-2.44Zm-8.9-14.03c-2.83,1.59,1.67,4.23,1.7.88-.52-.5-1.05-.81-1.7-.88Zm-18.64-24.09c-.31-.62-.16-1.37-.72-1.85-1.4-.21-1.44.33-1.94,1.45.75,1.09,1.63,1.53,2.66.4Zm51.94,68.48c-.71-1.83-1.56-1.77-2.76-.39.09,1.8,2.18,2.02,2.76.39Zm-17.49-28.07c.32-1.53-.64-2.22-1.73-1.9-.71.26-.24,1.07-.8,1.61.7.79,1.81,1.26,2.52.29Zm10.36,23.61c1.53-.78,2.08-2.54-.19-2.57-1.51.23-1.14,2.25.19,2.57Zm-8.09-37.85c2.6-1.22-1.51-3.49-1.88-.83.32.91,1.01,1.37,1.88.83Zm-2.56,18.08c-.76-.31-1.58.05-2.37-.12.02,2.68,3.71,3.52,2.37.12Zm12.71,10.84c2.05.72,3.13-2.47.57-2.44-.88.44-1.22,1.75-.57,2.44Zm-30.82-71.9c.77-.05,1.12-.46,1.15-.97-.28-.48-.56-.96-.83-1.44-1.76-.32-2.34,2.63-.32,2.41Zm-22.31,28.47c1.41-.72-.15-1.77-1.05-2-.59.41-1.03.89-1.13,1.6.79,1.29,1.27,1.11,2.18.4Zm44.2,46.02c1.34.75,1.89.57,2.57-.85-.64-1.99-3.08-1.13-2.57.85Zm-28.08-62.76c1.98.19,2.12-2.18.47-2.7-.7.27-1.35.55-1.44,1.45.39.39.65.76.97,1.26Zm-22.7-23.04c.5-.25,1.35.02,1.46-.68.04-1.64-1.67-2.68-2.59-.93.16.74.55,1.21,1.14,1.61Zm25.74,92.28c-.61.22-.69.75-.87,1.29.79.2,1.57.4,2.35.59.32-.66.04-1.6-1.48-1.88Zm-30.1-7.45c-.35-.51-.82-.85-1.45-1.01-.31.11-.64.22-.84.29-.51.57-.51,1.07-.25,1.45.64.16,1.29.33,1.93.49.37-.19.64-.57.6-1.21Zm50.81,4.78c-.26.14-.46.25-.65.34-.41-.12-.39-.79-1.08-.61-.05,4.67,4.51,2.12,1.73.27Zm20.95,4.72c.38-1.16-.61-2.59-1.72-1.98-1.22,1.68-.12,3.17,1.72,1.98Zm-71.62-37.9c-.73-1.63-2.56-2.34-2.85-.15.48,1.46,1.99,1.21,2.85.15Zm45.48-1.03c-1-.72-1.84-.77-2.28.52.45,2.19,3.6,1.66,2.28-.52Zm.55,35.6c-.21-.38-.35-.8-.63-1.12-1.58-.14-1.65-.11-2.17,1.21.77,1.25,2.29,1.53,2.8-.08Zm-34.4-55.13c-.12,1.79,2.78,1.75,2.68-.14-.74-.91-2.36-1.4-2.68.14Zm21.43-12.85c1.17-.18,1.59-1.58.81-2.28-2.22-1.25-2.66,1.37-.81,2.28Zm-48.7-5.74c-.46.17-.79.29-1.12.41-.17.5-.32.97-.48,1.44,1.55,2.21,3.78-.59,1.6-1.85Zm79.31,53.6c.05.48.09.59.47.65,1,.37,1.71-.09,2.11-1.02-.79-1.53-3.04-1.8-2.58.37Zm-8.42,3.69c1.58.53,1.77-.36,2.29-1.63-1.31-1.28-4.05.24-2.29,1.63Zm-74.06-23.02c.78-.36,1.66-.25,1.4-1.48-.51-.23-.9-.56-1.23-1.04-1.52.06-1.9,2.78-.17,2.53Zm20.9-14.3c.14.21.28.44.56.88.21-1.09.16-1.26-.77-3.04-2.21-.58-1.95,3.33.21,2.17Zm22.21-17.13c.54-.69,1.38-.58,1.58-1.62-1.71-2.5-4.13.74-1.58,1.62Zm27.39,64.63c-.66-1.06-2.36-1.08-2.72.26.45,1.8,3.07,1.54,2.72-.26Zm26.28,6.35c.4,1.38,1.55,1.14,2.15.27-.31-.55-.63-1.13-.97-1.73-.67.03-1.26.53-1.19,1.46Zm-96.15-10.89c1.7-1.35.62-1.78-.77-2.38-1.6.84-.96,3.35.77,2.38Zm-2.65-33.91c-1.13.09-1.94.6-1.93,1.81.82,1.26,1.66.94,2.5-.14-.3-.56.03-1.26-.57-1.67Zm20.52-58.88c.31-1.78-.94-1.61-2.32-1.54-.53,1.65,1.24,3.35,2.32,1.54Zm8.31,24.83c-1.55-1.22-2.26.37-2.24,1.85,1.58-.09,3.23.44,2.24-1.85Zm-23.69,45.39c-3.68,1.3,1.32,4.84,1.01.55-.4-.28-.63-.4-1.01-.55Zm.89,23.56c-.71-.45-1.86-.09-2.19.7.75.19,1.49.38,2.24.57.12-.36.13-.79-.05-1.27Zm62.89,13.54c.04-.51.74-.73.66-1.46-.94-1.3-2.25-1.29-2.7.39.67.36.94,1.37,2.04,1.07Zm-53.8-15.01c-.56-.98-1.04-2.55-2.44-1.77-.04,2.27,0,3.16,2.44,1.77Zm5.91-14.96q.61.75.77,1.42c1,0,1.47-.58,1.91-1.28-.53-1.4-2.3-1.88-2.68-.14Zm40.94.8c-.02.22-.03.4-.05.67.85,0,1.16-.75,1.79-.94v-1.25c-.97-.99-2.4-.39-2.53.93.26.2.53.41.79.6Zm-11.06-36.69c-1.21.76-1.59,2.33.23,2.55.45-.3,1-.36,1.33-.88-.34-.68-.47-1.53-1.56-1.67Zm10.57,19.09c.84,1.39,2.28.68,2.49-.64-.39-1.92-3.12-.79-2.49.64Zm-23.69-32.86c-.9-.86-2.31-.28-2.55.81.31.76.97,1.08,1.68,1.35.86-.54,1.01-1.3.86-2.16Zm42.05,85.39c1.91.32,1.8-2.78-.15-2.29-.92.25-1.3,2.7.15,2.29Zm-36.82-80.02c-3.43-.86-1.06,4.7.62,1.54-.22-.55-.42-1.05-.62-1.54Zm2.05,71.85c.29.07.58.15.87.22-.19-.13-.39-.24-.62-.3-.09.02-.17.05-.24.08Zm38.31-14.04c-1.81-.89-2.05,1.14-1.2,2.33,1.22.21,2.89-1.72,1.2-2.33Zm-40.48-17.37c-1.45-.67-2.99,2.28-.5,2.23,1.38-.11,1.52-1.48.5-2.23Zm-39.72,13.37q.41-1.13-.51-2.05c-.37.11-.78.23-1.18.35-.22.35-.43.68-.65,1.02.18.34.34.65.49.91.72.29,1.29.05,1.86-.23Zm6.85,1.01c-.16.44-.33.91-.49,1.36.61,1.25,2.29,1.07,2.57-.3-.51-1.22-.62-1.39-2.08-1.06Zm48.57-53.55c.58.75.86,1.62,1.94,1.24.49-.61.1-1.26.54-1.9-1.02-1.14-2.08-.62-2.47.66Zm28.68,63.17c.11.29.23.62.31.85.46.23.84.41,1.23.6.16-.08.34-.17.57-.29q-.16-.7.39-1.29c-.42-1.51-2.33-1.41-2.51.13Zm-65.41-82.29c1.21-.26,1.69-.64,1.4-1.9-.74-.59-1.73-.67-2.43-.12.35.74.2,1.95,1.02,2.02Zm63.8,83.87c-1.35.93-1.85,2.51.19,2.77.74-.59.79-.67,1.1-1.78-.34-.45-.77-.62-1.29-.99Zm-12.71,2.21c.72.71,2.25,0,2.53-1.16-.9-1.73-3.16-.56-2.53,1.16Zm-25.18-39.55c-1.83,1.42-.77,2.82,1.25,1.88,1.36-.54-.04-2.04-1.25-1.88Zm40.54,19.67c-.32-.56-.64-1.13-.96-1.7-.15.23-.27.48-.35.78.57.7.84.96,1.31.92Zm-5.33,26.2c-.52.33-.99.62-1.44.91-.52,3.38,4.6.86,1.44-.91Zm-28.01-26.87c.65-1.47-1.64-1.91-2.48-.95-.22,1.48,1.87,2.73,2.48.95Zm42.04,32.6q.89-.24,1.38-.65c-.14-.66.15-1.86-.69-1.89-1.84.39-2.46,1.36-.69,2.54Zm-36.91-14.61c1.47-.49.76-2.55-.69-2.49-1.27,1.01-1.29,2.71.69,2.49Zm-6.34-57.63c.42-.26,1.12.03,1.29-.64.39-1.35-.67-1.56-1.8-1.6-.24.24-.51.52-.8.82.31.52.53,1.74,1.31,1.42Zm-43.84-4.73v1.77c.22.11.43.21.66.32,2.59-.36.91-4.23-.66-2.1Zm6.48-35.41c-.33.78-.85,1.19-1.34,1.72,1.54,2.83,4.05-.11,1.34-1.72Zm-17.03,2.93c.95-.3,1.27-1.91.59-2.37-1.96-.83-3.04,2.14-.59,2.37Zm19.7-8.55c1.61-.36,2.02-2,.46-2.63-1.76-.2-1.54,1.81-.46,2.63Zm11.61,89.29c-.42.37-1.39.85-.88,1.57.44.49.79,1.66,1.6,1.1,1.88-.86.18-1.9-.72-2.67Zm43.02-.5c1.53.66,1.76-1.11,1.17-2.13-1.55-.67-3.11,1.68-1.17,2.13Zm-35.54,16.41c.25.36.36.73.71,1.01,3.7.38.69-4.75-.71-1.01Zm23.8,6.8h1.27c1.85-1.72-1.97-3.66-1.98-1.16.33.31.56.7.72,1.16Zm-12.14-92.7c.2.08.4.16.61.25-.2-.34-.4-.69-.6-1.03-.04.22-.06.47-.01.78Zm-22,.7q1.33-.6,1.58-1.04c-.18-.43-.38-.8-.6-1.15-.54-.08-1-.15-1.47-.22-.39.44-.59.94-.74,1.38.25.68,1.25.18,1.23,1.03Zm15.59,6.83c-.75-.97-2.2-.71-2.43.51.28,1.91,3.36,1.27,2.43-.51Zm-34.26-10.93c-.34-.37-.39-.7-.47-1.26-4.03-.53-.92,4.58.47,1.26Zm61.35,98.82c.56.39,1.57-.21,1.83-.74.44-2.13-2.13-1.91-2.61-.16.42.25.56.55.78.9Zm-24.08-43.71c.48-2.05-2.05-2.17-2.5-.32.19,1.32,1.98,1.2,2.5.32Zm22.02.93c.96-.38,1.51-2.11.33-2.61-.44.16-.81.24-1.31.33-.63,1.35-.45,1.76.98,2.28Zm-42.26-50.19c-.06-.39-.12-.78-.19-1.22-1.6-1.24-2.85,1.31-1.51,2.43.54-.44,1.36-.46,1.7-1.21Zm22.23,33c-.79.27-1.4.66-1.66,1.44.13.4.66.44.73.92.58.68,1.76-.31,2.1-.98-.41-.45-.54-1.13-1.17-1.38Zm-16.11-38.76c-.2-.2-.51-.37-.5-.53-.18-1.74-1.82-.75-2.3.23.53,1.4,2.1,1.85,2.8.3Zm30.14,78.96c1.87-.44,1.29-3.08-.38-2.65-1.01.87-.88,2.2.38,2.65Zm-38.8-98.79c.12-.97-.75-1.23-1.13-1.77-1.18-.1-1.3.71-1.47,1.5.66,1.05,1.72,1.21,2.6.28Zm24.54,35.44c-.44.65-.82,1.2-1.18,1.72,1.18,2.95,3.92-.77,1.18-1.72Zm-8.01-6.11c.75-1.39.68-1.64-.78-2.36q-1.1.71-1.1,2.1,1.11.44,1.88.27Zm60.98,87.69c-.23-.31-.42-.57-.68-.91-.41.03-.76.06-1.14.09-.2.56-.39,1.07-.56,1.52.92,1.77,2.3.9,2.37-.71Zm-36.89-33.71c.39,1.28,1.57,1.46,2.2.22.9-1.98-2.25-2.29-2.2-.22Zm-32.21-69.34c.01-1.9-2.55-1.58-2.51.14.66,1.12,2.21,1.37,2.51-.14Zm10.21,9.96c-1.7,1-.71,1.08-.7,2.3,2.39,1.38,2.66-1.49.7-2.3Zm26.95,86.12c.82-1,.66-2.11-.37-2.04-.64.35-1.66-.13-1.86.79.45,1.21.93,1.55,2.23,1.24Zm4.93,3.27c-.98.15-1.06.87-1.26,1.54.11,1.09,1.95,1.63,2.06.28.53-.95.11-1.54-.79-1.81Zm-47.89-12.47c-.06-.91-.38-1.39-1.04-2.03-2.99,1.16-.52,3.79,1.04,2.03Zm64.75,1.06c-2.89.52,1.15,4.43,1.3,1.17.09-.64-.65-1.3-1.3-1.17Zm-15.74.93c.19-1.28-2.46-1.61-2.09-.04-.16,1.88,2.15,2.14,2.09.04Zm-12.27-44.84c1.49-.55.58-2.27-.74-2.33-1.51.83-1.08,2.82.74,2.33Zm-9.28,37.68c.46-.18.9-.35,1.35-.52v-1.28c-1.64-1.67-3.56.85-1.35,1.8Zm-10.66,3.66c-1.94-.28-2.17.55-1.24,2.05,1.32.45,1.51.34,1.96-1.16-.35-.21-.56-.48-.72-.88Zm15.06,3.64c-.42-.4-.62-.79-1.11-1.01-.87.12-1.21.69-1.52,1.3.14,1.58,2.83,1.29,2.63-.29Zm23.17-8.08c.76,1.3,3.17.96,2.61-1.05-.66-.39-1.47-.96-1.87,0-.13.51-.9.44-.74,1.06Zm-75.47-88.61c.68-1.36-.18-2.89-1.7-1.91-.17.36-.31.67-.55,1.18.72.5,1.34,1.45,2.25.73Zm27.94,104.09c.51-.43.95-.81,1.42-1.2-.13-.82-.88-1.13-1.26-1.72-1.06.64-1.26.89-1.36,1.79.61.28.9.53,1.2,1.13Zm12.6-6.66c-.09-.65-.16-1.15-.23-1.71-.84.02-1.68.35-2.28.89.32,1.5,1.48,2.22,2.52.82Zm-26.21-2.29c.91-1.37.14-2.97-1.41-1.98-1.28,1.3-.12,2.36,1.41,1.98Zm-10.61-26.5c1.54.87,1.55.87,2.52-.19-.55-1.96-2.91-2.2-2.52.19Zm30.1-59.64c-.41.2-.83.41-1.29.63-.38.98.7,1.08.53,1.94,1.32-.04,1.57-.22,2.01-1.45-.34-.4-.68-.83-1.25-1.12Zm-22.25,63.83c-1.34-1.42-2.72,1.24-1.45,1.89.74.22,1.65.61,1.91-.58-.49-.32-.41-.84-.46-1.31Zm48.87-18.05c1.29-2.33-1.6-3.62-2-.85.52.6,1.05,1.14,2,.85Zm-40.76-8.17c-.33.07-.67.13-1.07.21.06.61-.69.91-.47,1.64.94,1.08,1.89.52,2.57-.45-.2-.63-.49-1.09-1.03-1.4Zm9.08,11.04c.82-1.21.51-1.54-.64-2.4-1.21-.02-1.67,1.29-.96,2.22.51-.07.97.47,1.61.18Zm-5.23,44.45c-.92-.76-2.2-.73-2.7.36.88.22,1.76.45,2.64.67.12-.25.16-.58.06-1.03Zm15.72-79.02c.44-.18.84-.34,1.33-.54.36-.69,0-1.47-.8-1.57-1.47-.84-2.22,2.07-.53,2.11Zm47.72,94.08c.36,1.25,3.27,1.42,2.56-.75-.78-.92-2.62-.41-2.56.75Zm-63.99-61.49c-.34-.1-.71-.21-1.04-.31-.5.34-1.03.56-1.17,1.21.63,2.07,3.49,1.08,2.22-.9Zm41.24-2.52c-.41,1.35.8,1.8,1.98,1.63,0,0,0,0,0,0-.42-.74-.84-1.48-1.27-2.23-.24.11-.49.3-.72.61Zm-35.36,32.62c.53-2-1.86-2.41-2.17-.39.39.37.58.74.79,1.2.53.5,1.41-.16,1.38-.81Zm30.59,6.85c-.34.42-.71.86-1.03,1.26.16.95.84,1.2,1.66,1.53.32-.62.6-1.18.89-1.76-.4-.5-.79-.94-1.52-1.03Zm-31.71-48.83c-.24.56-.96.59-1.22,1.25.32,1.73,2.56,1.44,2.72-.26-.28-.19-.59-.41-.86-.6-.1-.37-.27-.73-.63-.38Zm48.2,55.25c-.51,1.96,1.72,2.63,2.37.71-.89-1.19-.99-1.99-2.37-.71Zm-63.63-40.28c.07.5.15,1.03.22,1.53,1.15.6,1.76.14,2.47-.85-.73-.92-1.75-1.8-2.7-.67Zm10.21,39.55c.42-.64,1.09-1.12.7-2.08-1.06-.86-1.8-.35-2.45.67.19.95.99,1.1,1.76,1.4Zm39.78-5.94c1.62.82,2.48-2.94-.38-2.21-.22.57-.4.91-.7,1.42.39.3.83.36,1.08.79Zm-47.11-81.76c.27.92,1.08.76,1.81,1.05.3-.31.57-.59.85-.88-.41-1.71-2.42-2.16-2.66-.17Zm-14.86,81.36c.37-1.14-.17-1.8-1.02-2.29-.63.15-1.15.32-1.03,1.07,0,.04-.11.1-.17.16-.95,1.75,1.43.77,2.21,1.06Zm-3.99-65.67c.75-.51.87-1.12,1.06-1.99-.74-1.33-1.87-.73-2.37.43.19.71.56,1.28,1.31,1.56Zm29.84,9.85q-.33-.68-.83-1.12c-.91.1-1.53.51-1.73,1.55,1.02,1.03,2.38,1.4,2.56-.43Zm32.81,12.91c.57-.06,1-.06,1.55-.02,1.75-2.6-3.29-3.34-1.55.02Zm9.99,14.17c.23-.33.42-.61.62-.91-.16-.64-.57-1.09-1.15-1.44-1.19.21-1.16,1.15-1.44,1.89.6.67,1.31.49,1.97.46Zm-16.91-17.6c1.08-2.12-2.18-2.38-2.29-.43.39.92,1.46,1.34,2.29.43Zm-39.71,31.04c-.33,1.88,2.47,1.32,2.56-.15-.37-1.17-2.41-1.06-2.56.15Zm49.23,7.87c-1.11,1.95,1.27,2.7,2.26.95-.09-1.15-1.42-1.73-2.26-.95Zm-19.14-.6c.35-.38.67-.73,1.03-1.12-.2-.84-.47-1.53-1.27-1.79-1.84.45-1.03,2.31.24,2.9Zm33.1-1.65c.11.66.55.95.95,1.33,3.27-.12.69-4.14-.95-1.33Zm-77.39,3.65c.45.22.83.41,1.2.59.42-.2.74-.34,1.09-.57.31-2.18-2.96-2.59-2.29-.02Zm5.9-68.83c.55.08,1.05.15,1.71.24,1.1-2.2-1.38-3.17-2.31-1.06.21.29.42.57.61.83Zm-13.35,75.51c-.78.2-1.3.64-1.66,1.41.15.19.31.33.47.46.53.14,1.06.27,1.59.41.86-.22,1.19-1.2-.4-2.28Zm11.32-23.15c-.47.38-.84.67-1.18.94-.34,1.47,1.18,1.65,2.22,1.42.85-1.24-.33-1.51-1.04-2.36Zm44.5-47.65c-1.23-2.06-2.68-.78-2.25,1.04.9.73,2.22.08,2.25-1.04Zm-33.38,19.18c-.25.24-.53.5-.75.72v1.13c.48.29.92.61,1.51.69.34-.45.66-.88.94-1.26-.24-.9-.89-1.14-1.7-1.27Zm36.59-7.61q.6,1.3,1.77,1.23c.18-.41.48-.77.86-1.02-.68-1.41-2.22-1.85-2.63-.21Zm-33.58,29.86c1.46.02,1.62-1.02,1.14-1.97-.54-1.09-1.12.34-1.82.34-1.22.41-.11,1.66.68,1.63Zm39.68,3.96c-.11.25-.24.53-.35.78.3.49.56.92.86,1.42.92.34,1.18-.65,1.77-1.12-.33-1.01-.88-1.28-2.27-1.08Zm-47.53-23.93c.27-.4.51-.76.74-1.1-.32-2.2-1.9-1.49-2.51.19.45.65.98,1.05,1.77.91Zm-18.46,23.01c1.24.36,1.52-.44,2.04-1.32-1.25-1.68-3.68-.66-2.04,1.32Zm62.84,10.72c.28.5.72.73,1.19.84.45-.19.85-.36,1.41-.6-.16-2.09-2.14-2.39-2.6-.24Zm-7.68-38.87c-.32.4-.69.84-1.08,1.33,1.31,2.8,4.42-.81,1.08-1.33Zm-43.14-34.99q1.04-.64,1.46-1.28c-.23-.47-.62-.77-.99-1.23-1.95.42-2.34,1.58-.47,2.51Zm32.9,36.64c-.18-.75.05-1.52-.83-1.94-3.19.31-.06,4.11.83,1.94Zm-5.15,13.56c.25.5.3.69.32,1.14,3.69,1.61,1.93-4.21-.32-1.14Zm8.07,45.85c-.3-.24-.6-.49-.98-.81-3.84,1.52,1.23,4.28.98.81Zm36.21-9.55c-.7.26-1.07.79-1.33,1.48,1.06,2.81,3.69-.11,1.33-1.48Zm-19.22-17.86c1.02-1.8-.57-2.6-2-1.45-.05.38-.11.72-.15,1.05q1.31.83,2.15.4Zm-5.45-.92c-.19-.34-.39-.72-.58-1.06-1.34-.15-1.71.42-2,1.46.77,1.21,2.36,1.09,2.57-.4Zm-7.78-.78c-1.22,1.62,1.18,2.95,1.96,1.28.12-1.33-.77-2.02-1.96-1.28Zm22.72-4.87c.19.37.35.69.55,1.09,3.86.72.82-4.6-.55-1.09Zm-7.07,38.52c.65-.32.54-.96.71-1.63-2.98-2.12-3.01,2.96-.71,1.63Zm-47.92-67.28c-.76-1.41-2.49-1.88-2.64.12.53,1.63,1.93.96,2.64-.12Zm27.6-7.24c-1.44.42-1.61,2.53.11,2.78.52-.35.91-.78,1.04-1.45-.4-.39-.5-1.05-1.16-1.32Zm-23,.11c-2.16.38-1.74,2.73.47,2.24.68-.93.71-2.17-.47-2.24Zm39.39,81.26c.58.14,1.15.29,1.72.43-.57-1.57-1-1.25-1.72-.43Zm-44.98-78.89c1.41-.54,1.02-1.89-.24-2.21-.67.18-1.06.68-1.52,1.17.09,1.06,1.02.89,1.77,1.04Zm26.15,2.92c.18-.51.35-.98.5-1.41-.87-1.14-.69-1.47-1.83-.54-1.71.55.03,2.26,1.33,1.95Zm6.14,15.21c-1.92-.84-3.24,1.62-.56,2.09,1.01-.19,1.19-1.44.56-2.09Zm19.66,62.31c.29-.45.56-.85.85-1.29-.44-.37-.82-.7-1.24-1.05-.97.13-1.52,1.34-1.1,2.16.34.09.68.17,1.02.26.16-.03.32-.05.47-.08Zm29.8-9.38c.85,1.28,1.79,1.21,2.79.17-.67-1.69-2.12-2.06-2.79-.17Zm-62.49-114.36c-.27-.43-.53-.84-.79-1.23-.06.07-.12.14-.18.22.31.56.65.86.96,1.01Zm17.17,92.29c2.26.68,1.98-2.86.01-2.24-.7.98-1.22,1.22-.01,2.24Zm-42.39,8.62c1.1-.17.74-.95.67-1.86-.59-1.06-1.74.16-2.23.82,0,.97.7,1.39,1.56,1.04Zm6.75-5.57c-.2-.63-.18-1.08-.17-1.68-.49-.99-1.99-.64-2.23.4.19.36.37.7.58,1.09.69.21,1.11.41,1.81.19Zm17.36-24.75c-.44-.7-1.04-.95-1.9-.67-.17.47-.36.81-.7,1.28.94,1.4,2.53,1.09,2.59-.61Zm16.18,1.91c.45-.52.84-.97,1.2-1.38-.13-.78-.6-1.13-1.32-1.29-.45.15-.9.42-1.29.71.22.56.42,1.06.65,1.62.19.08.44.19.77.34Zm12.05-.54c1.85-1.41-2.12-3.34-1.8-1-.52,1.03,1.19,1.44,1.8,1Zm-30.62-40.82c.6.92,1.6.86,2.28.08-.05-2.78-2.52-2.08-2.28-.08Zm37.37,76.54c-.16.82.12,1.45.83,1.94.72-.23,1.54-.11,1.68-1.09-.86-1.03-1.23-1.67-2.51-.85Zm-17.33-28.08c-.22,1.13,1.39,1.42,2.09.83-.13-.39.15-.66.26-.98,0-1.34-2.37-1.22-2.34.15Zm-23-75.03c.49,1.42.55,1.46,1.75,1.31.25-.31.5-.62.75-.93-.18-.6-.75-.99-1.1-1.46q-1,.21-1.4,1.08Zm28.81,98.14c.12,1.28,2.35,1.35,2.53.02-.13-1.82-2.03-1.54-2.53-.02Zm-59.85-50.15c-.34.43-.55.88-.69,1.32.29.95,1.14.78,1.73,1.01.52-.23.7-.67.89-1.16-.2-.94-1.09-1.04-1.93-1.18Zm45.45,29.2c-.46,2.4,2.22,2.11,2.57.46-.8-.66-1.56-1.32-2.57-.46Zm-4.69-57.98c-.45.38-.89.71-1.14,1.22.12.72.48,1.18,1.22,1.33.43-.46.89-.82,1.46-1.13-.26-.83-.82-1.2-1.54-1.42Zm-24.05,1.04c-.05,1.36,2.12,1.5,2.54.29-.24-1.72-1.95-1.83-2.54-.29Zm19.77,58c-.2-.63-.55-1.13-1.14-1.42-1.12.54-1.74.16-1.33,1.8.12.35.53.26.84.3.76.34,1.37.22,1.63-.68Zm34.31-11.32c.17-1.37-.06-1.98-1.58-1.58-1.78,1.39.23,2.92,1.58,1.58Zm-64.75-1.91c-3.15,3.05,2.76,3.61,1.11.85-.56-.08-.67-.6-1.11-.85Zm46.68-11.3c-1.66.3-1.85,1.73-.47,2.6,1.41-.2,1.81-2.26.47-2.6Zm-18.54,1.83c.39,1.48,1.81.41,2.08-.51,0-1.5-1.49-1.47-2.26-.69-.35.41.01.82.18,1.2Zm-22.75-11.05c3.76.64.22-4.75-.61-.85.21.29.41.57.61.85Zm19.96,14.2h1.67c2.15-2.83-3.21-2.49-1.67,0Zm4.4-54.79c1.61-.73-.26-1.43-.83-2.22-.61.53-1.11,1.02-1.07,1.92.63.54,1.18.89,1.91.3Zm-12.06,84.22c-1.64.59-1.83,1.96-.25,2.49,1.63.29,1.46-1.9.25-2.49Zm15.04-69.73c.97-1.63-.63-3.28-1.98-1.41-.36,1.32.99,1.6,1.98,1.41Zm-11.48,63.28c.09-.48.18-.93.28-1.46-.2-.18-.43-.39-.67-.61-.64.32-1.49.1-1.88,1,.32.48.62.92.91,1.36.52.15.92-.15,1.36-.29Zm57.62.23c.59-1.1.78-1.62-.57-2.2-1.3.27-1.34.68-1.32,1.92.6.2,1.15.57,1.89.28Zm0,28.76c.52-1.26-.91-2.73-1.97-1.66-.68,1.18.97,2.74,1.97,1.66Zm-81.39-13.93c-.71.55-1.26,1.17-1.04,2.2,2.19.79,3.41-1.4,1.04-2.2Zm90.84,1.34c.21.48.38.96.72,1.36,1.28.01,1.75-.58,1.75-1.17-.19-.34-.38-.68-.57-1.02-.49-.31-1.23-.22-1.89.83Zm-73.24-4.65c.52-.3.55-.86.7-1.36q-.76-.52-1.12-1.13c-1.09-.2-1.54.33-.79,1.18-1.11.97.32,1.29,1.21,1.31Zm4.11-18.3c.27,1.02,2.29,1.64,2.35.13.35-1.93-2.29-1.69-2.35-.13Zm31.34-40.59c-.33-.31-.7-.66-1.06-1.01-3.49.42.22,4.4,1.06,1.01Zm-14.6,43.42c.21-1.67-2.4-1.59-2.51-.04.67,1.34,1.92,1.54,2.51.04Zm-35.74,1.1c.35-.19.73-.39,1.1-.59-.09-.65-.02-.77.18-1.52-1.25-.12-2.33-.35-2.58,1.17.36.45.7.83,1.3.94Zm24.16-47.5c-.2-1.41-2.36-.93-2.29.5.14,1.43,2.43,1.08,2.29-.5Zm21.45,64.82c3.09-.44,1.31-3.66-.72-1.75.34.5.13,1.23.72,1.75Zm16.27,7.16q-1.22-.72-2.2-.51c-.58.56-.26,1.1.03,1.78,1.04,0,2.62.32,2.16-1.26Zm-10.52-35.96c1.3.3,1.59-.63,1.69-1.74-1.84-.83-3.65,0-1.69,1.74Zm6.8-5.98c1.48-.93-.4-3.29-1.42-1.83-.97,1.01.27,2.14,1.42,1.83Zm-22.7,46.2c.19-1.01.77-1.52-.45-2.27-.62.25-1.33.25-1.57.98.49,1.46.6,1.54,2.02,1.29Zm8.4-54.64c.27-.31.5-.57.78-.89-.35-.66-.77-1.15-1.44-1.42-.46.42-1.18.51-1.32,1.11.33.45.59.82.87,1.19h1.12Zm-17.64-34.28c1.9-2.16-.23-4.29-1.51-1.33.63.35.65,1.25,1.51,1.33Zm-3.27,57.91c-2.76,1.78.84,3.7,1.45.95-.37-.44-.75-.84-1.45-.95Zm14.74-8.69c-2.25.51-.9,3.22.9,2.07.09-.56.16-1.01.24-1.5-.41-.21-.79-.4-1.15-.57Zm42.09,55.19c.7.18,1.39.35,2.06.51-.19-1.26-1.52-1.14-2.06-.51Zm-72.05-19c.07,1.67,1.91.75,2.14-.33-.24-2.01-2.27-1.37-2.14.33Zm43.93-4.47c-.9-.15-.75,1.04-.83,1.58.85,1.34,2.82.59,2.17-.99-.19-.53-.91-.35-1.34-.6Zm-10.15-44.7c-.13-.33-.26-.69-.4-1.05-.42-.13-.79-.25-1.3-.42-.25.54-.73.83-.78,1.46.6.98,2.11,1.49,2.47.01Zm1.64-21.51c-.7.44-.56,1.25-.87,2,1.08,1.01,2.26.49,2.35-.95-.36-.5-.77-.96-1.48-1.05Zm4.15,78.92c.03-.92-1.86-1.34-2.33-.62-.42.55.06,1.03.42,1.43.69,1.3,1.68.05,1.91-.81Zm-29.83-99.32c-.47.35-.87.65-1.31.98v1.23c1.81.94,3.34-1.01,1.31-2.2Zm28.39,13.93c.59.47,1.14-.41,1.53-.79.53-.75-.56-1.07-1.09-1.47-1.7.27-1.75,1.34-.44,2.26Zm25.27,93.12c-.19.28-.26.55-.26.81.75.19,1.5.37,2.23.56.05-.08.09-.16.13-.25-.07-1.23-1.06-1.87-2.1-1.12Zm-33.79-46.63c-.69.57-.58,1.3-1.05,1.92.83,1.65,2.9.06,2.25-1.37-.48-.05-.74-.24-1.2-.56Zm4.04-25.03c-.91-1.48-2.28-.19-2.17,1.13,1.18,1.27,2.7.16,2.17-1.13Zm1.24,44.59c1.37.5,2.3-1.41,1.09-2.26-1.45-.32-2.25,1.37-1.09,2.26Zm-14.33-2.58c.55-.18,1.1-.37,1.68-.56.48-2.42-1.45-1.92-2.62-.59.31.39.61.75.93,1.15Zm-17.95-12.54c.36,1.75,3.16.86,2.29-.81-.47.01-.85.08-1.1-.35-.65-.47-1.36.47-1.18,1.16Zm11.23-14.92c-.48-.36-.92-.69-1.39-1.04-2.58,1.85,1.03,4.23,1.39,1.04Zm-5.96,40.98c-.16-1.84-1.85-2.15-2.37-.32.17,1.77,1.39,1.11,2.37.32Zm54.34-21.58c-1.31-.41-1.74.6-2,1.69.42.64,2.3,1.08,2.03-.15.36-.56.21-.94-.04-1.54Zm-39.23-13.97c.17,2.23.72,2.86,2.34.86-.82-1.48-1.17-1.61-2.34-.86Zm-5.75,23.15c-.03.75.19.87.12,1.73.8.09,1.52-.35,2.22-.97-.08-1.05-1.98-2-2.34-.75Zm1.13-11.77c-3.04-.36.22,4.61,1,.93.06-.66-.48-.77-1-.93Zm-29.33-3.78c.91-.13,1.51-.44,1.68-1.33-1.56-1.77-3.95.01-1.68,1.33Zm43.17,17.88c-2.04,1.76,1.35,3.56,1.78.97q-.6-.68-1.78-.97Zm9.23-14.55c-.62.05-1.13.21-1.38.85.2.44.4.9.6,1.36h1.61c.12-.32.24-.6.37-.94-.45-.47-.83-.88-1.2-1.27Zm5.72-17.22c-.27.15-.54.3-.81.44-1.68,3.76,4.54,1.18.81-.44Zm22.21,25.11c.33.22.62.41.89.58,1.06-.37,1.02-1.14.9-2-.7-.38-1.39-.76-2.24-.1.16.52.31,1.04.45,1.52Zm-61.41-11.93c-.3-2.15-2.3-2.16-2.55,0,1.02.74,1.55.73,2.55,0Zm50.05,4.14c-.37.43-.57.89-.73,1.37,1.69,2.82,3.95-1.07.73-1.37Zm17.45,40.4c-.72.32-.68.98-.74,1.63.5.51,1.06.81,1.87.61,1.27-1.06.09-2.05-1.13-2.24Zm-48.93-48.98c-1.95,1.17-.6,2.62,1.23,2.17.1-.86.05-2.6-1.23-2.17Zm60.49,43.35c-.61,0-.96.3-1.04.88,2.01,3.37,4-1.34,1.04-.88Zm-46.7-5.63c0,.66-.63,1.28.1,1.98,2.56.55,2.56-2.97-.1-1.98Zm36.09-9.52c.32-.38.65-.75.8-1.38-2.28-2.74-3.74,1.34-.8,1.38Zm-44.42-10.83c-.17.36-.35.73-.55,1.16.39.39.47,1.23,1.39,1.19.43-.46,1-.85,1.12-1.64-.21-.22-.44-.48-.65-.71h-1.32Zm-41.19-70.68c-.51-1.41-1.81-1.56-2.9-.57.62,1.47,2.01,2,2.9.57Zm27.55-4.87c.31-.1.61-.2.89-.29,1.95-3.4-4.97-1.39-.89.29Zm9.84-4.39c-.3-.45-.84-.68-1.26-.98-.73.27-1.23.73-1.47,1.51,1.33,1.16,2.03,1.01,2.73-.53Zm20.77,30.04c-.15-.26-.3-.53-.45-.79.09.34.25.61.45.79Zm-24.93-31.22c1.01-.17,1.21-1.41.73-2.19h-.54c-.11-.16-.21-.32-.29-.45-.37.26-.7.51-1.15.83-.31,1.1.63,1.35,1.26,1.81Zm-5.57-.21c.57-.31.43-1.02,1.11-1.38-.54-.4-1.01-.75-1.52-1.13-1.4.47-1.36,2.94.41,2.51Zm-5.79,46.11c.81-.46.93-1.42.81-2.09-.31-.44-1.67-.42-1.92.03-.56,1.02.04,1.89,1.11,2.05Zm40.33-2.57c-.45.24-.82.44-1.21.65v1.51c1.73,1.42,2.87-1.49,1.21-2.16Zm-59.85-36.87c-1.47-.76-1.69-.23-2.11,1.24.79.25,1.23.97,2.05.71.06-.67.71-1.52.07-1.95Zm20.66-1.79c-.13-.38-.25-.71-.35-1.01q-1-.41-1.65-.35c-.12.31-.24.63-.37.97.26,1.65,1.46,1.49,2.37.38Zm-.58,17.9c1-1.75,0-3.03-1.74-1.66-.05.34-.09.68-.14,1.04.52.54,1.1.81,1.88.62Zm11.3,44.07c-1.07-.29-1.19.76-1.89,1.15.7,2.42,3.58.69,1.89-1.15Zm-13.97-48.4c-.74-1.25-2.12-.41-2.35.77.67,1.29,3.18.9,2.35-.77Zm-24.01,51.03c-.79.7-1.77.67-1.36,2.01.58.04,1.22.21,1.72.47,1.02-.82.49-1.94-.36-2.48Zm90.95,18.33c.25,2.06,2.29,2,2.36-.19-.8-.86-1.73-.85-2.36.19Zm-85.21-40.95c-1.55-.06-1.19,1.21-.62,2.11,1.29,1.11,2.81-2.31.62-2.11Zm69.36,48.2c1.13-.51,1.1-2.09.02-2.54-1.61.31-1.15.72-1.32,1.84.34.52.87.5,1.3.7Zm-13.54,6.89c-.26-.5-.86-.32-1.21-.64-3.12,1.15,1.6,4.29,1.21.64Zm-45.49-112.02c.12.35.25.72.38,1.11.55.09,1.01.53,1.7.25,1.35-2.23-.61-2.53-2.08-1.37Zm40.78,108.7c-1.25.85.22,2.31,1.3,1.97,1.77-.77.04-2.35-1.3-1.97Zm-13.57-72.28c-3.06,1.15-.03,3.67,1.27,1.12q-.48-.76-1.27-1.12Zm-29.5,8.17c.84.33,1.34-.32,1.97-.55-.06-2.64-3.95-1.22-1.97.55Zm11.9-5.83c.45-.5,1.21.19,1.52-.58-.18-3.78-4.42.85-1.52.58Zm-9.6-32.81c.15.89.81,1.14,1.42,1.52.21-.11.41-.22.62-.33.46-1.86-1.09-3.34-2.04-1.19Zm-1.81,85.02c1.13-.09.91-.87,1.02-1.67.02-.95-1.08-.65-1.75-.77-.21.34-.41.68-.7,1.16.85.18,1.02.85,1.43,1.29Zm34.55,20.49c-.4.37-.75.69-1.08.99.21,2.5,3.29,1.19,1.99-.75-.34-.09-.63-.17-.91-.25Zm-29.25-66.83c.9-.06,1.41-.66,1.88-1.42-1.48-2.1-3.15-.6-1.88,1.42Zm28.17,45.58c.25.26.51.55.75.8.48-.15.81-.25,1.16-.36.23-.36.46-.72.68-1.05-1.01-1.57-2.19-1.08-2.59.61Zm42.46.2c-.34-.6-.68-1.21-1.02-1.82-2.11-.1-.51,3.19,1.02,1.82Zm-60.32-72.14v-1.28c-3.3-1.97-2.7,3.2,0,1.28Zm50.11,69.28q1.03.1,1.73-.31.12-1.28-1-1.74c-2.01.76-1.66.4-.73,2.05Zm-53.61,9.08c1.77-1.11-.22-3.23-1.53-1.76-.36.8.57,1.8,1.53,1.76Zm22.6-31.29c-.4.22-.81.44-1.18.64-.19.56.17.95.28,1.39.31.1.61.2.87.29.39-.21.73-.39,1.14-.61.01-1.12-.1-1.29-1.11-1.72Zm-8.52-6.1c.54-.45.96-.9,1.02-1.67-.21-.19-.45-.39-.75-.65-2.04-.53-1.97,1.84-.27,2.32Zm39.96,32.03c-1.28.39-1.14,1.89.11,2.28,1.7-.29,1.56-2.32-.11-2.28Zm18.56,17.86c-.91-.85-2.08-.19-2.5.83.67,1.34,3.01,1.04,2.5-.83Zm-83.99-14.81c-.83-.52-1.27.08-1.83.71.82,3.19,3.4.27,1.83-.71Zm40.64-28.02c-.22-1.56-2.02-.92-2.18.4.78,1.59,2.13,1.42,2.18-.4Zm-40.42-33.47c1.71-3.31-4.15-2.01-1.04.23.37-.08.71-.16,1.04-.23Zm53.85,20.23c-.32-.56-.64-1.12-.95-1.67-.2.2-.34.46-.42.78.34.69.88.92,1.37.89Zm-61.31-16.19c-.77.85-.02,2.23,1.08,2.01,1.48-.75.79-3.16-1.08-2.01Zm-1.23,27.57c1.26-1.71-1.02-2.46-1.93-1.1-.46,1.56.79,1.63,1.93,1.1Zm56.41,11.81c1.24-.16,1.9-.35,1.53-1.73-1.25-1.11-1.4-.21-2.37.4.19.56.35,1.04.84,1.32Zm-49.64-55.67c.31,1.18,1.9,1.47,2.26.21.54-1.76-2.28-1.83-2.26-.21Zm40.84,50.56c-.23.45-.45.89-.67,1.34,2.13,2.79,3.75-1.57.67-1.34Zm-33.44,2.03c2.47-2.78-3.29-2.72-1.31,0h1.31Zm-11.21-.03c.1-.44.19-.78.27-1.13-.17-1.05-1.45-1.26-2.09-.4,0,.73.1,1.44.6,2.11.39-.34.75-.53,1.22-.58Zm3.82-.85c0,1.98,2.64,1.12,2-.8-1.08-.75-1.78-.48-2,.8Zm26.71,42.37c-.11.06-.24.1-.37.12.58.15,1.15.29,1.73.44-.19-.5-.74-.89-1.36-.56Zm-32.31-35.85c.19.42.58.5,1.02.67,1.4-1.05,1.57-2.6-.53-2.56-.26.3-.52.58-.78.88.25.2.43.35.61.5-.11.18-.21.34-.31.51Zm13.56-57.82c-.09-.47-.18-.92-.26-1.38-1.03-1-2.09.27-1.79,1.39,1,.82,1.06,1.32,2.05,0Zm-2.08,45.02c-.14,1.61,1.65,1.94,2.39.6-.5-1.51-2-1.83-2.39-.6Zm2.04-63.48c-.45-.57-1.92-.2-2.36.23.63.67.86,1.68,1.83,1.79.86-.36.63-1.29.53-2.02Zm56.14,85.95c-2.05,1.34.27,2.65,1.77,1.66-.03-.67-1.03-1.86-1.77-1.66Zm-9.74,7.21c-.47-.47-.57-1.15-1.3-1.32-1.58.38-1.59,1.9-.01,2.31.58-.14.92-.52,1.32-.99Zm15.01-18.49c-.11.32-.2.58-.31.9.39.63.97.82,1.54,1.05-.38-.67-.76-1.34-1.14-2.01-.03.02-.07.04-.1.06Zm-52.42-71.11c-.32-.63-.79-1.01-1.51-1.22-.41.34-.76.64-1.14.96.97,1.84,1.34,2.03,2.65.25Zm16.92,69.88c.46-2.17-2.18-2.51-2.19-.31.65.82,1.37.83,2.19.31Zm-41.69-48.04c-.21.4-.39.75-.63,1.19.24.49.22,1.14.96,1.36.3-.2.8-.1,1.07-.52-.12-.96.03-2.43-1.4-2.03Zm26.02,22.65c.47-.47.86-.85,1.41-1.39.05-.28-.03-.75-.7-1.1-1.41.1-2.23,2-.7,2.49Zm14.95-33.99c-.59.26-1.16.51-1.78.78.22,1.15,1.08,1.1,1.76,1.35.39-.32.75-.62,1.07-.89.15-.92-.5-1.02-1.05-1.25Zm8.33,45.12c1.46.32,1.33-1.39.56-2.05-1.55-.77-2.47,2.31-.56,2.05Zm-18.28-47.95c-.17,1,.15,2.46,1.53,2.04.35-.41.39-.89.64-1.47-.7-.52-1.33-1.34-2.16-.57Zm7.65,76.44c.92-1.28-.89-2.12-2.04-1.77-.32,1.43.93,2.67,2.04,1.77Zm15.73.31c3.65.72.54-4.51-.5-.99.17.33.3.6.5.99Zm-55.29-77.68c1.63.47,1.89,0,2.61-1.03-1.12-2.13-2.21-.58-2.61,1.03Zm58.95,40.42c1.38.19,1.26-1.78.24-2.23-.83-.04-1.21.54-1.62,1.05-.4.88.94.74,1.38,1.18Zm-62.15,45.15c-.22-.72-.71-1.14-1.2-1.49-.75.08-.89.69-1.27,1.18.51,1.55,1.52,1.49,2.47.31Zm10.14-30.39c-1.26,1.19-1.27,1.51-.51,2.45,1.87-.14,2.47-1.76.51-2.45Zm10.34-33.12c.49,1.94,2.64,1.04,2.11-.8-.7-.66-2.33-.24-2.11.8Zm-17.83,13.83c-.33-.26-.66-.52-1.03-.82-.36.2-.7.38-1,.55-.15,1.49.29,2.22,1.55,1.89.21-.48.69-.92.48-1.61Zm53.47,27.65c.37-.12.7-.23.99-.33.09-.54.18-1,.25-1.43-1.62-1.57-3.33.54-1.24,1.75Zm-19.21-45.1c-.53-1.31-1.65-.11-2.02.71.21.46.36.96.94,1.15.48-.24,1.11-.03,1.4-.6-.03-.4-.62-.73-.31-1.25Zm-3.25,45.02c1.45-.84.18-2.5-1.14-2.08-1.29.78-.09,2.2,1.14,2.08Zm-30.19-53.44c-.04.4-.08.83-.13,1.29.75.28,1.41.21,2.1-.27.08-.46.11-.86.12-1.29q-1-.57-2.09.27Zm-.29-16.79c.1.87.76.99,1.4,1.37.37-.34.68-.64.96-.9v-1.27c-1.12-1.01-1.39.48-2.37.79Zm44.25,65.07c-.59.06-.62.72-.75,1.26-.46.56.55.95.96.87,1.93.26,1.22-2.51-.21-2.13Zm-39.82-46.06c-.72.25-1.58.24-1.71,1.26.43.1.64.42.81.81h1.2c.29-.35.56-.67.88-1.06-.43-.37-.81-.69-1.18-1.01Zm71.97,89.29c-.44.11-.82.21-1.18.3-.13.38-.24.72-.33,1.02.85,1.95,4.12-.32,1.51-1.32Zm-15.88-30.38c.34,1.79,2.02.91,2.79-.24-1-.83-2.34-1.33-2.79.24Zm-13.72,3.91c1.21.26,1.58-.49,1.65-1.59-.3-.28-.58-.54-.89-.82-1.48.52-1.57,1.35-.76,2.42Zm-23.15-19.4c-.24.69-.97,1.33-.27,1.79.49.16,1.13.58,1.53.06,1.63-.96.05-2.1-1.26-1.85Zm7.56-68.01c-.18-2.24-1.94-1.09-2.35.35.66.76,2.58,1.14,2.35-.35Zm35.37,72.2c-.15.51.54.6.9.82,2.42-.88.33-3.69-1.18-1.72.04.35.47.51.28.9Zm-41.41,20.63c0-.54.08-.83.23-1.4-2.49-2.48-2.99,2.84-.23,1.4Zm-12.3-63.18c1.26-.23.58-.98.5-1.89-1.44-.96-2.05.54-1.64,1.63.27.42.53.46,1.14.26Zm88.11,93.94c0,3.19,4.2-.92,1.15-.89-.81,0-1.03.17-1.15.89Zm-.93,3.51c.34-1.35-.49-1.61-1.63-1.58-.66.51-.43,1.19-.59,1.81.82.33,1.52.15,2.22-.23Zm-61.95-19.58c1.2-.16,1.28-1.16,1.76-1.93-.77-.91-2.14-.04-2.61.8.18.48.37.91.85,1.13Zm20.2-16.67c-.44.43-.48.99-.64,1.44.6,1.35,2.07.93,2.53-.4-.23-.09-.47-.19-.7-.29-.02-.16-.03-.31-.05-.51-.39-.05-.76-.13-1.13-.24Zm-60.84-65.9c.08.82-.21,1.84.96,1.94.31-.16.67-.34,1.03-.52.61-1.2-1.44-2.4-1.99-1.43Zm41.47,68.7c-2.99,1.09-.44,3.4,1.17,1.4-.15-.65-.68-.95-1.17-1.4Zm-25.55-58.18c.23-.56.75-1.01.45-1.68-1.36-.08-1.33-1.53-2.24.64.17,1.16.81,1.32,1.79,1.04Zm60.97,47.34c-.38-.51-1.07-.7-1.63-.6-.32.45-.43.98-.94,1.37,1.11,1.32,2.53.81,2.57-.77Zm-29.33,1.39c.13-.43.33-.75.61-1.15-1.96-3.08-3.6,2.39-.61,1.15Zm-36.57-81.61c.42,1.88,2.28,1.49,2.6-.25-.43-.3-.8-.56-1.21-.84-.5.39-.95.74-1.4,1.09Zm67.02,76.8c-.11.31-.22.61-.38,1.05,1.51,3.54,3.72-2.4.38-1.05Zm-40.12-72.67c.56-.26,1.23-.42,1.62-1.14-1.14-2.85-3.34-.06-1.62,1.14Zm-6.49,4.79c1.96,1.87,3.41-.23,1.23-1.55-.92.12-1.08.77-1.23,1.55Zm32.35,55.72c.61-.29,1.28-.44,1.71-1.2-1.19-1.99-3.88-.52-1.71,1.2Zm-33.25-23.11c1.22-1.15.1-1.92-1.15-2.16-1.15,1.06-.44,2.62,1.15,2.16Zm-20.14,58.5c-2.35-1.22-2.45,2.96.02,1.96-.12-.8.58-1.3-.02-1.96Zm39.98-52.12c-1.35-.36-1.77,1.06-1.08,2.08,1.71.44,2.48-1.07,1.08-2.08Zm-27.23,51.01c.51.06.97.11,1.47-.05.47-1.34.25-1.79-1.13-2.12-.37.4-.86.62-.98,1.25.2.29.42.61.64.92Zm-1.86-4.98c-1.32.41-1.56,1.27-.82,2.08,1.43,1.07,2.74-1.27.82-2.08Zm6.67.4c-.81-.85-1.6.02-2.32.55.06,2.42,2.77,1.1,2.32-.55Zm12.93-35.47c.65,0,1.57.27,1.45-.75.32-2.78-4.15-.21-1.45.75Zm21.09,43.11c.25-.3.5-.59.77-.91-.44-3.17-4.85,1.51-.77.91Zm-.4-48.37c-.31.1-.64.21-1.02.34-1.2,3.61,4.11,1.36,1.02-.34Zm-7.08,58.2c-.28,1.31.95,2.71,2.05,1.42v-1.41c-.7-.2-1.34-.19-2.05,0Zm-25.94-117.19c.58,1.13.79,1.17,2,.41.57-2.16-1.49-2.57-2-.41Zm-23.58,3.45c.11-.51.08-.91-.04-1.22-.67.3-1.35.61-2.03.93.02.1.05.21.09.32.62.09,1.24.1,1.98-.03Zm20.79,63.15c.53.95,2.13.39,1.96-.42-.18-.4-.02-.65.2-1.01-2.03-1.02-1.74.01-2.16,1.42Zm-3.55-.67c-.19-.59-.5-.97-1.17-1.1-3,.29.99,4.13,1.17,1.1Zm4.93-22.11c.31-.38.58-.71.84-1.04q-.3-.71-1.18-1.25c-1.43.53-1.57,2.72.35,2.29Zm-10.29-8.91c.48.08,1.04.1,1.36.66.89.44,1.33-2.23.27-2.43-.72.27-2.09.78-1.63,1.77Zm82.54,96.18c-.38-.36-1.44.16-1.71.58.11.16.18.34.24.51.7.18,1.33.33,1.89.47.26-.43.13-.91-.41-1.56Zm-6.7-3.26c.96-.1,1.57-.5,1.77-1.42-.43-.59-.58-1.51-1.58-.95q-.13,1.06-.98,1.59c.28.28.55.55.78.78Zm-63.6-48.57c-.35.15-.05.63-.36.89-.49.63-.06,1.07.52,1.29.85.08.96-.52,1.33-.8.98-.68-.83-1.69-1.48-1.38Zm5.6-26.9c1.93.89,1.62.02,1.63-1.51-1.23-.85-3.27.43-1.63,1.51Zm-22.81-36.49c-.61.34-.34,1.03-.62,1.51.49.41.97.64,1.41.76.36-.41.66-.76,1.01-1.16-.35-.53-.92-1.02-1.81-1.1Zm15.74,60.72c-1.38-.39-2.06.78-1.41,1.94,1.35,1.1,2.38-1.08,1.41-1.94Zm10.11,17.12c-.24.72-.19,1.44.06,2.28.71-.37,1.43-.56,2.02-1.14-.88-1.34-.99-1.4-2.08-1.13Zm1.55,13.31v-1.57c-1.37-.84-1.91.03-2.1,1.1.7.79,1,.85,2.1.47Zm-23.85-19.41c-1.08.15-1.25,1.27-.95,2.16,2.03.73,2.66-1.15.95-2.16Zm10.08-38.73c.4.3.83.63,1.31.99.74-.21,1.46-.92,1.11-1.79-.76-.36-1.42-.34-2.15-.05-.15.29-.39.49-.27.85Zm-4.48-53.17q-.57.49-.92,1.31c.34.39.58.73.76,1.17,1.52-.28,2-2.48.16-2.48Zm6.61,57.83h-1.36c-.22.51-.41.98-.6,1.41,1.25,1.35,2.98.44,1.96-1.41Zm29.15,6.65c-.2-1.86-2.57-1.53-2.57.25.68.75,1.01-.7,1.82-.39-.25.37-.44.65-.63.92.76.91,1.19-.19,1.38-.78Zm-11.29-34.64c-.22-.61-.66-.86-1.63-.86-1.21-.1-1.02,1.06-.22,1.57.46.65,2.14.15,1.85-.71Zm-5.44-13.63c.68-.06,1.27.32,1.97.24-.41-.69-.82-1.37-1.22-2.03-.43.17-.61.86-.75,1.79Zm-41.35,6.93c-.38.04-.81.1-1.26.15-.1.35-.27.72-.48.98.34,2.45,3.52.08,1.74-1.13Zm.65,18.49c-.35-1.53-2.03-1.71-2.5-.16.97,1.29,1.46,1.32,2.5.16Zm37.92-5.51c.34.59.9.58,1.34.75,1.58-.51.58-1.49,0-2.36-.32.03-.59.04-.84.06-.19.58-.35,1.09-.5,1.55Zm-.63-4.07c-.63-.28-1.59-.53-2.01-.06.1.19.2.4.32.63-.22.21-.44.42-.69.65,1.09,1.67,2.45.25,2.38-1.22Zm33.76,65.22c.83-1.16.85-1.22.4-2h-1.33c-.24.37-.44.66-.61.92q.44,1.25,1.55,1.08Zm-45.27,16.46c0-.8-1.27-2.4-1.86-1.26-.93,1.81.64,2.6,1.86,1.26Zm49.21-40.58c.22.31.41.59.63.9.12.01.22.02.32.03-.24-.42-.47-.83-.71-1.25-.08.1-.16.21-.24.32Zm-57.3,22.73c.09.37.17.75.25,1.12,1.33,1.28,1.37.19,2.08-.81-.52-.92-1.81-1.39-2.33-.3Zm-15.28-21.61c.51-1.14-.09-2.47-1.45-2-1.5.8.28,2.37,1.45,2Zm9.78-1.95c-.09.39-.18.77-.26,1.13.27.71.94.62,1.51.81,1.66-.98.21-2.62-1.25-1.93Zm65.99,55c-.13,1.07.47,1.11,1.1,1.58,2.53.44.63-3.34-1.1-1.58Zm-78.19-51.46c-1.12-1.72-3.34-.37-1.81,1.34.78.09,1.72-.46,1.81-1.34Zm61.93,47.38c.95-.08,1.15-.73,1.25-1.47-.37-1.43-1.81-.65-2.49.23.39.5.8.9,1.24,1.24Zm-19.14-32.09v-1.3c-.29-.19-.55-.36-.82-.53-.34.18-.66.34-.95.49-.12.37-.23.71-.34,1.03.27.92,1.58,1.06,2.11.32Zm-4.75,13.91c.27,2.27,3,.2,1.49-1.25-.81-.42-1.61.24-1.49,1.25Zm-9.35,11.75c-.11-1.54-2-2.5-2.42-.56.82,1.15,1.13,1.22,2.42.56Zm25.49-15.09c.04-.19.09-.38.15-.65-.58-.1-1.04-.17-1.53-.25-.31.28-.68.51-.79.91.47.73,1.17.94,1.83,1.37.26-.3.51-.58.76-.86-.18-.21-.3-.36-.42-.5Zm-51.64-.36c-.93-.95-2.17-.23-2.03,1,.6,1.4,2.97.26,2.03-1Zm54.62-53.28c.83-1.33-.29-1.78-1.46-1.56-1.29,1.7.03,2.5,1.46,1.56Zm-12.45,26.72c-1.6.62-1.33,2.36.43,2.15,1.47-.45.7-1.74-.43-2.15Zm-33.32-33.83c-.53-.48-2.29-1.15-1.97.08.06.38-.24.6-.38.92.86,1.06,2.46.33,2.35-1Zm17.67,38.14c.63.23.75,1,1.37,1.14.29-.25.58-.5.85-.73v-1.2c-.32-.21-.61-.4-.88-.58-.62.31-1.11.67-1.34,1.37Zm-22.6-6.78c-.25,1.09-.39.96.39,1.97.45.03.91.12,1.39-.1-.05-.57-.05-1.07.02-1.63-.63-.2-1.18-.62-1.81-.23Zm31.99-20.46c-.19.28-.45.53-.59.88,1.42,3.28,3.93-1.33.59-.88Zm2.84,22.31c1.55.33,2.69-1.65.77-2-1.13.05-1.79,1.26-.77,2Zm-15.66-75.74c-.55.16-1.15.35-1.77.56.17.17.25.18.48.2.92.03,1.27-.33,1.29-.76Zm-3.47,82.02c-.96.42-1.64.95-1.44,2.07,1.12.38,1.46.31,2.3-.5-.22-.33-.7-.56-.47-1.11.04-.09-.26-.32-.39-.47Zm46.5,1.95c.13-.48.23-.89.37-1.42-2.63-1.61-3.25,2.87-.37,1.42Zm-53.78-64.58q.22,1.39.57,1.78c.51-.31,1.24-.08,1.7-.72-.09-1.47-1.1-1.61-2.28-1.05Zm58.16,70.62c1.39.17,1.51-.16,1.58-1.39-.33-.33-.62-.77-1.21-.81-.34.32-.69.63-1.06.97.29.51.5.87.7,1.22Zm-42.26-25.89c1.57-.03.4-1.73-.51-2.02-2.16,1-1.43,1.82.51,2.02Zm-10.99,44.32c-.97-.87-2.98.34-1.86,1.42,1.46.73,2.09.24,1.86-1.42Zm7.2-14.59c-.8.65-.7,2.21.44,2.4.35-.38.4-.88.84-1.16.7-.59-.63-1.78-1.28-1.24Zm13.44-15.98c-.51-1.43-1.73-1.54-2.77-.47.61,1.23,1.95,1.62,2.77.47Zm-22.1-73.22c-.21.39-.76.53-.79,1.22,2.01,2.03,4.07-1.69.79-1.22Zm-18.48,61.16q-.7-.83-2.04-.31c-.2.37-.48.73-.2,1.21,1.06.87,2.09.46,2.24-.91Zm9.52,34.24c-.34,1.78,0,1.74,1.24,1.94,1.1-1.53.95-2.91-1.24-1.94Zm68.98-17.46c.45.62-.06,1.61.96,1.89.72-.3.87-.36,1.16-.87-.23-.41-.46-.82-.7-1.23-.43-.1-.93,0-1.43.2Zm-75.63-19.12c-.19-.49-.39-.98-.6-1.52-.52.11-.97.2-1.4.29-.06.62.56.55.14,1.32-.13,1.26,1.74.91,1.86-.09Zm-3.74-50.34c-.83.42-1.89.54-1.15,1.7,1.39,1.03,3.57-1,1.15-1.7Zm37.59,83.57c-1.06.06-1.45.69-1.63,1.51.6.67,1.31.49,1.99.44q.48-1.18-.36-1.95Zm-19.73,10.61c.97-1.96-1.7-2.75-2.01-.64.45.9,1.21.65,2.01.64Zm27.51-86.51c-.22-.37-.44-.74-.65-1.1-.09.52.23.91.65,1.1Zm-18.58,31.14c-.11-1.51-1.95-1.52-2.08-.31.06,1.44,1.63,1.97,2.08.31Zm5.41,56.67c-.47-.06-.93-.13-1.38-.19-.21.46-.4.84-.64,1.25.89,1.45,3.29.41,2.02-1.06Zm-15.76-82.03c1.69,1,1.75-.06,1.67-1.47-.94-.64-3.38.55-1.67,1.47Zm-3.49,37.05c.44.61,1.79.74,2.34.15-.12-1.76-2.47-2.2-2.34-.15Zm17.27-23.69c.51,1.45,1.01,1.64,2.29.67,0-1.52-1.62-2.03-2.29-.67Zm6.46,51.02c-.74.7-.26,1.04-.27,1.88.93.21,1.65.13,2.08-.72-.25-.99-.96-1.19-1.82-1.16Zm-35.8-71.26c-.55-.43-1.04-.96-1.79-.53-1.34,2.07,1.86,2.9,1.79.53Zm17.04-16.5c-.38.15-.76.31-1.15.47.44.08.89-.13,1.15-.47Zm16.85.38c-.41-.62-.78-1.16-1.12-1.65-.33.3-.42.86-.42,1.57.55.26,1.13.25,1.55.08Zm7.37,18.35c-.18.37-.35.72-.52,1.05.6,1.28,1.88.93,2.39-.22-.2-1.06-1.07-.88-1.88-.83Zm-23.99,50.21c-1.25-1.8-2.36-2.16-2.04.48.32.77,1.61.18,2.04-.48Zm-19.39-.67c.15,1.81,1.48,1.85,2.41.44-.47-.96-2.07-1.57-2.41-.44Zm38.42,36.4c-.64.21-.49,1.03-.92,1.49.12.33.25.65.39,1.02.38-.02.72-.05,1.07-.07.2-.43.39-.81.56-1.15-.22-.61-.57-1.02-1.09-1.29Zm-8.2-106.12c-1.73-.31-2.25.92-.75,1.92.63-.33,1.18-.51,1.71-.92-.32-.34-.62-.65-.95-1Zm-9.4,54.54c-.29.36-.58.72-.86,1.07.46,1.37.94.93,2.12.84-.31-.98.13-2.11-1.26-1.91Zm28.83-20.92c.98-.08,2.19-1.01.92-1.84-1.21-.74-2.79,1.86-.92,1.84Zm7.76,36.25c1.02,1.34,1.2,1.48,2.56.46-.17-1.22-2.07-1.85-2.56-.46Zm-53.26-61.42c-2.32.01-1.13,3.44.59,1.71.09-.64.21-1.28-.59-1.71Zm.48,82.38c.79-1.87-1.14-2.57-1.86-.75.11,1.25.89,1.28,1.86.75Zm32.52-81.24c.45,1.4,2.47,1.14,2.41-.26-.51-1.19-1.82-.69-2.41.26Zm-24.03,13.24c-.46.11-.84.2-1.2.28q-.54,1.38.33,2.01c1.21-.06,1.6-1.31.87-2.29Zm8.93,10c.2-1.08-.45-1.76-1.51-1.31-1.3,1.49.79,3.01,1.51,1.31Zm-1.53,27.45c-1.02.99.37,2.82,1.47,1.85.97-1.01-.48-1.81-1.47-1.85Zm-15.59-17.04c-.49-.05-.92-.09-1.39-.14-.23.64-.8,1.12-.59,1.84,1.18.32,2.53.03,1.98-1.7Zm18.03,8.83c-.08.82.36,1.17.84,1.7,2.01.68,1.57-3.14-.84-1.7Zm22.41-18.69c.08-1.34-.86-2.26-2.23-1.48.5.52.45,1.02.33,1.48.64.54,1.24.56,1.9,0Zm6.02,74.19c-.8-1.52-2.11-.98-2.88.23,1.15,1.13,1.86.54,2.88-.23Zm21.49,21.73c.24.06.48.12.72.18-.05-.12-.13-.24-.26-.34-.15.06-.31.11-.46.16Zm-54.31-63.83c1.12-.49.64-2.56-.6-2.35-1.32.27-.5,2.31.6,2.35Zm35.12,43.83c-.94-.37-1.45.14-1.94.71q.27.56.23,1.31c1.49.33,2.02-.71,1.71-2.01Zm-17.61-67.24c1.29-.61-.1-2.74-1.18-1.63-.59,1.21-.26,2.15,1.18,1.63Zm49.37,83.25c-.03-.5-.06-.93-.09-1.41-.9-.66-1.61.35-2.11,1.04.8,1.23,1.14,1.09,2.21.36Zm-76.98-58.66c.16,1.3,1.95,2.14,2.32.51-.42-1.14-1.58-1.65-2.32-.51Zm98.62,58.52c-.15-.27-.31-.56-.47-.85-.05.11-.1.24-.14.38.16.19.37.35.61.46Zm-96.32-115.94c-.13-.21-.26-.4-.35-.54-.83-.2-1.42,0-1.89.77.38,1.69,2.11,1.39,2.23-.22Zm83.56,100.88c-.91-1.11-2.18-1.22-2.45.39.85,1.15,1.98.97,2.45-.39Zm-75.62-27.42c.33-.26.61-.58.64-1.08-.18-.14-.36-.29-.53-.42-.07-.35-.14-.68-.22-1.01-.65.15-.66.15-1.26.7-.01,1.05.17,1.3,1.36,1.81Zm50.55,21.28c-1,1.14.6,1.92,1.6,1.42.4-1.4-.48-2.62-1.6-1.42Zm-57.29-11.99c-.61.67-1.03,2.29.32,2.03,1.63-.32,1.4-2.4-.32-2.03Zm-1.59,4.95c.38-.48.66-1.22-.07-1.38-1.42-2.37-2.77,2.26.07,1.38Zm1.63-39.04c-.4.39-1.09.92-.31,1.33.65.47,2.06.3,2.13-.64-.48-.45-1.13-1.51-1.83-.69Zm44.08,48.68c-.47-.06-.83,0-1.33.11-.45,1.64,1.07,2.47,2.14,1.09-.28-.41-.54-.8-.81-1.21Zm-48.46-6.91c.09-.38.18-.76.26-1.13-.34-.52-.8-.77-1.39-.85-.29.36-.56.7-.82,1.02.68,1.15.84,1.23,1.96.96Zm28.54-5.46c.27-.66.7-2.1-.38-2.05-2.27-.49-.66,3.22.38,2.05Zm-27.98-42.24c-.56-.13-1.03-.24-1.48-.34q-.39.78-1.39,1.14c1.16,1.75,2.29.78,2.87-.8Zm52.58,27.79c1.23.24,1.33.18,1.83-1.09-.91-1.19-1.49-1.1-2.19-.09.19.35.3.79.37,1.18Zm-48.96-66.38h1.53c.04-.51.07-.97.1-1.4-1.22-.75-1.55-.66-2.11.57.15.25.3.52.48.83Zm50.99,76.95c-.39-.89-1.54-1.28-2.31-.55.23.55.43,1.05.63,1.55,1.13.15,1.17.12,1.68-1Zm-12.8-62.24c2.39-1.02.41-3.25-1.18-1.37.32.51.51,1.05,1.18,1.37Zm-40.72,28.47c.84.23,1.31-.15,1.69-.72.29-1.64-3.87-1.37-1.69.72Zm52.66-1.94c-1.17-.14-2.03,1.02-1.01,1.84,1.44.73,2.23-.82,1.01-1.84Zm-1.23,70.72c1.44,1.04,2.39.12,1.57-1.49-.93-.24-2.35.5-1.57,1.49Zm-55.86-75.98c-.75-.85-1.39-.16-1.94.51.55,1.37,1.03,1.02,2.1.66.52-.3.19-.88-.16-1.17Zm11.04-34.42c-.66-.97-1.32-.16-1.85.44.18.28.34.54.58.91,1.1.24,2.89-.34,1.27-1.36Zm-.49-9.95c1.19-.55,1.22-.6,1.06-1.77-.49-.2-.96-.19-1.32-.06-.05.02-.11.05-.16.07-.74.37-.9,1.29.43,1.76Zm-12.38,34.36c1.27.31,2.52-.62,1.64-1.81-1.27-.01-2.44.34-1.64,1.81Zm-2.42,14.47c3.28-.3.29-3.37-1.08-1.19.62.28.87.52,1.08,1.19Zm10.76,10.15c-.34,1.17.84,1.11,1.58,1.49,1.31-1.49-.02-2.82-1.58-1.49Zm1.64-56.53c.7-.68.95-1.39-.03-1.92-2.06.22-2.16,2.21.03,1.92Zm84.5,120.07c.88,1.93,2.44,1.7,2.57-.51-.98.63-2.18-.61-2.57.51Zm-58.25-78.44c-.69-.24-1.17.1-1.7.25-.11.22-.22.43-.33.66.19.3.38.59.59.92.94-.33,2.44-.64,1.45-1.84Zm7.14,73.62c.2.05.41.1.61.15.03,0,.07.02.1.03.19.05.38.09.56.14.13-.36.25-.66.37-.98-.6-2.13-2.61-1.11-1.64.66Zm14-78.64c.16.34.33.68.49,1.01.3.08.6.05.88-.05-.29-.51-.58-1.01-.87-1.52-.19.14-.36.31-.49.56Zm-23.14.9c.15.28.33.42.59.64,1-.27,1.7-.69,1.7-1.81-.14-.14-.31-.3-.45-.43-.98.18-1.49.8-1.84,1.6Zm-25.47,37.36c.7-.01,1.53.29,1.87-.73-.34-.54-.77-.93-1.38-1.08-1.19.53-1.26.77-.49,1.82Zm41.6-51.76c-.33-.56-.65-1.12-.98-1.68-.06.01-.12.02-.18.04-.87,1.19.1,2.28,1.16,1.64Zm-40.48,3.84c-.9-.79-1.34,1.07-1.05,1.7,1,.58,1.04.58,2.01-.38-.65-.33-.68-.84-.95-1.33Zm30.61,73.8c.72.34,1.14.32,1.9-.03-.15-2.49-2.24-2.23-1.9.03Zm-43.47-9.85c.04.38.13.8.21,1.18,3.11,1.49,2.02-2.72-.21-1.18Zm30.06-81.16c-.98.39-2.05,2.12-.45,2.19,1.28-.44,1.83-1.39.45-2.19Zm12.58,75.96c-.57-.41-.98-.8-1.62-.95-.37.39-.69.73-1.02,1.08.41,1.2,2.21,1.02,2.63-.13Zm-27.64-27.13c-.32.34-.59.61-.83.86q.36,1.16,1.43,1.45c.2-.48.52-.92.89-1.25-.42-.55-1.01-.3-1.49-1.06Zm4.1,10.86c.06-.41.12-.84.18-1.24-.19-.24-.37-.45-.58-.72-.55.45-1.42.28-1.86,1.16.69.45,1.54,1.14,2.27.81Zm13.71-79.17c-.2-.14-.52-.2-.93-.21-.07.22-.09.45-.24.63.24.32.45.6.66.88.79.2,1.1-.11,1.21-.59-.3-.36-.53-.6-.7-.71Zm-25.01,95.89c-.39-1.22-1.34-2.07-2.1-.64.21,1.49,1.06,1.62,2.1.64Zm20.3-90.05c-.52-.81-1.27-.87-1.95-.18.05.42-.5.8-.13,1.33,1.1.14,1.6-.11,2.08-1.15Zm-18.51,24.29c.48-.22.93-.43,1.47-.68-.91-2.13-3.96-.91-1.47.68Zm25.09,20.01c.79.14,1.63.41,1.97-.56-.2-.42-.59-.7-.93-1.05-.46.07-.92.14-1.51.24.2.58.33.98.46,1.38Zm3.52,64.5c-1.15-.04-.68,1.15-.44,1.82,1.66,1.26,2.09-1.62.44-1.82Zm17.45-.07c-.27.35-.53.69-.84,1.1.21,1.26.64,1.22,1.69,1.02.1-.32.2-.64.31-.96-.39-.42-.6-.95-1.16-1.15Zm-23.72-17.04c-.04.4-.09.82-.15,1.3,1.61,1.1,1.81.49,1.92-1.15-.66-.03-1.17-.57-1.78-.14Zm4.67,14.54c-.82-.25-3.09-.08-1.94,1.09,1.05.71,2.4.39,1.94-1.09Zm16.92,7.25c.72-1.53-.87-2.03-2.01-1.27-.62.84,1.25,1.55,2.01,1.27Zm-41.96-70.26c.08.46.17.92.25,1.38.79.26,1.32-.03,1.7-.68-.06-.64-.27-1.15-1.05-1.29-.26.17-.58.38-.9.58Zm8.6-31.84c.22.52.43,1.02.7,1.66,2.95-1.11.29-3.18-.7-1.66Zm-9.69,45.89c-.85-1.23-2.03.07-1.8,1.17.89.37,2.74.04,1.8-1.17Zm11.51-16.76c-.3-.27-.62-.55-1.04-.92-.39.68-1.26,1.19-1.21,1.84.24.19.59.22.86.34q1.06-.35,1.4-1.27Zm-21.69-9.61c-.12.37-.23.7-.34,1.03.26.57.7.85,1.25.96,1.15-.85.69-2.57-.91-1.99Zm83.36,67.07c-.03.43-.04.77-.07,1.16h1.66c.2-.3.4-.58.65-.94-.51-.33-.9-.59-1.29-.85-.38.25-.7.46-.96.63Zm-79.69-33.08c.36-.5.67-.93.98-1.36-1.83-1.75-3.32.97-.98,1.36Zm22.27-12.27c.43.08.4.56.7.77.26-.22.52-.44.8-.68.01-.52.51-1.43-.23-1.44-.58.15-1.58,0-1.61.83-.01.26.05.47.35.52Zm10.43,2.23c-.69-.93-2.51-.42-2.06.81.63,1.09,1.93.31,2.06-.81Zm25.32,42.72c-2.16-1.19-1.68,2.25.21,1.54.66-1,.38-1.04-.21-1.54Zm-46.43-9.95q.64-.31.92-.97c-.39-1.27-1.29-.88-2.24-.47.12.89.67,1.22,1.32,1.44Zm13.78-85.25c-1.56,1.71.51,2.41,1.49.78q-.45-1.01-1.49-.78Zm-17.52,64.77c.84.88,1.65.6,1.79-.61-.11-.29-.22-.58-.32-.84-.83-.35-1.8.67-1.47,1.45Zm12.63-64.92c-1.33-.2-1.56,1.1-.85,1.82.64.21.56-.96,1.32-.7.94-.12.26-1.35-.47-1.12Zm-4.54,61.5c.76,1.47,2.76,1.02,1.89-.71-1.04-.31-1.2-.25-1.89.71Zm4.95-3.35c-.31-.25-.59-.48-.86-.7-.56.05-.83.4-.94.92.29.41.58.83.87,1.24q1-.27.94-1.46Zm-2.04-33.88q.67.85,2.06.31c.27-1.31-1.62-1.99-2.06-.31Zm-12.43-9.54c-.27-.09-.57-.18-.83-.27-3.2,1.5,1.65,2.88.83.27Zm-6.87,74.59c-.33.46-1.09,1.17-.3,1.57.64.28,1.3.45,1.6-.31-.15-.42-.29-.78-.46-1.25h-.84Zm38.3-71.99c-1.13.17-2.42,1.7-.68,1.86,1.09.28,1.51-1.18.68-1.86Zm-40.09,70.9v-1.6c-.81-.7-1.29.49-1.97.74.46.88,1.12,1.13,1.97.86Zm8.17-56.46c-1.21.27-1.93.65-1.25,1.48.58-.21,1.09-.05,1.62.27.15-.16.28-.3.43-.46-.43-.4-.3-1.02-.8-1.29Zm-7.64,9.62c-.59-.77-2.28-.94-2.64.05.55.87,2.23.85,2.64-.05Zm84.22,45.43c-.6,1.22.79,1.34,1.72,1.42,1.03-1.36-.82-1.71-1.72-1.42Zm-84.73-63.55c-.54-.1-1.01-.26-1.5.23-.06.39-.13.77.07,1.13,1.19.71,2.22-.22,1.43-1.35Zm6.4,18.04c-.42-.51-.62-1.15-1.32-1.12-.1.19-.19.36-.31.58-2.49-.05.37,1.71,1.64.54Zm-4.68-31.05h1.2v-.98c-.29-.24-.59-.48-.94-.77-1.09.46-.52,1.04-.25,1.75Zm73.6,78.9c.16-.05.04-.14,0-.24-.15.06-.05.14,0,.24Zm-25.32,5.5v-.08s-.09.04-.09.04l.09.03Zm-53.97-9.05v-2.16c-1.03-.35-.93.61-1.17,1.22.2.6.69.76,1.17.94Zm0,11.28v-1.92c-1.31-.36-.98,1.16-.82,1.92h.82Zm0-17.28v-1.68c-.56.09-1.21.03-1.03.85-.15.76.24,1.21,1.03.83Zm0-22.56v-2.16c-1.64-.14-1.07,1.93,0,2.16Zm-.93,10.3c.24.42.3,1.1.93.98v-1.92c-.64-.36-1.57.33-.93.94Zm-.14,5.73c.2.6.44,1.02,1.08,1.02v-2.16c-.54.24-.7.8-1.08,1.14Zm.18-34.16c.32.78.33.77.89.86v-2.4c-.12,0-.24.02-.38.03-.17.51-.35,1.04-.51,1.51Zm.89-16.9v-1.68c-.29-.08-.59-.31-.94.13.04.71-.28,1.69.94,1.55Zm0,69.36v-2.16c-1.11-.3-1.12,2.32,0,2.16Zm0-57.84v-1.92c-.85-.22-.76.98-1.01,1.51.22.42.57.51,1.01.41Zm0-17.28v-1.68c-.18-.04-.36-.08-.52-.11-.23.44-.42.81-.61,1.17.16.61.66.59,1.13.62Zm0,11.52v-1.92h-.37c-.52.66-1,2.2.37,1.92Zm-.45,17.23c.15.02.3.03.45.05v-1.92c-.46-.28-.89-.14-1.08.38q.51.73.62,1.49Zm.45,17.33v-1.68c-1.17-.07-1.41,1.88,0,1.68Zm0-12v-1.68c-.59.23-.99.61-1.05,1.22.27.46.61.57,1.05.46Zm0,52.32v-1.44c-1.1-.66-1.32,1.92,0,1.44Zm-1.03-93.46q.18.89,1.03,1.06v-1.44c-.34.13-.8-.05-1.03.38Zm-20.61,17.93c-.28-.88-1.1-1.82-2.11-1.56-.29.1-.53-.09-.76-.46v-1.65c-2.01-1.1-3.93.26-1.66,1.96,2.65-.79,1.86,5.41,4.52,1.71Zm-11.9,41.11c1.42-1.25-.89-3.14-2.11-1.86-.92,1.57.7,2.99,2.11,1.86Zm-2.75,2.66c.16-.83,0-1.49-.63-2.09-.65.06-1.24.11-1.87.17-.47,1.76.98,3.35,2.5,1.92Zm.92-10.58c-.96,1.7.41,3.17,2.19,2.37-.42-1.77.53-2.72-2.19-2.37Zm-4.7,11.29c-2.07.13-1.65,3.17.34,2.73,1.29-.44,1.05-2.57-.34-2.73Zm-22.21,12.13c-.07-.1-.15-.19-.23-.27-.18.91-.33,1.69-.45,2.3,1.17-.5.78-.7.68-2.03Zm29.54-29.89c1.64.54,2.95-.59,1.88-2.43-.58.05-1.37-.22-1.67.35,0,.76-1.11,1.5-.2,2.08Zm-16.21,11.89c.68-.21,1.16-.58,1.35-1.3-.86-3.53-4.82.75-1.35,1.3Zm17.07,2.96c-.68.16-.46.96-.91,1.32-.11.09-.1.5,0,.66.63,1.14,2.52.97,2.54-.46,0-.67-.98-1.6-1.64-1.52Zm-24.24,16.49c-.35-1.43-1.25-3.01-2.36-1.35-1.17,1.8,1.05,2.6,2.36,1.35Zm34.18-47.65c-1.22-1.08-2.53-.16-2.37,1.38.93.7,1.99,1.12,2.65.1-.1-.51-.18-.97-.28-1.48Zm-10.55,5.14h1.02c.98-.76,1.27-1.55.55-2.5-1.16-.29-1.49-.14-2.21,1.03.2.47.42.96.64,1.47Zm29.75,2.89c-1.62.63-1.8,2.38,0,2.86,1.73-.44,1.46-2.14,0-2.86Zm-31.56,37.65c-.91-.01-1.56.22-1.68,1.18.54,1.27.92,1.45,2.47,1.14-.1-.46.04-.89.51-1.34-.54-.41-.94-.71-1.3-.98Zm-7.48-56.27c.52,1.32,1.81,1.28,2.82.5.55-1.94-2.33-2.4-2.82-.5Zm3.2,20.95c3.39,2.21,3.18-4.12-.2-1.22.08.52.14.86.2,1.22Zm4.79,3.42c1.31-.7.2-2.27-.78-2.78-2.03.51-.98,3.26.78,2.78Zm-2.66,23.14c-1.21-.33-2.45.69-2.17,1.83.96,1.46,3.62,0,2.17-1.83Zm-12.23-28.77c-.49.21-.95.4-1.4.59q-.07.86.38,1.92h1.38c1.13-.86.85-1.98-.35-2.52Zm15.52-19.19c-3.4-2.78-3.37,3.55,0,1.19.05-.46.03-.69,0-1.19Zm6.07,9.6c.7.23,1.32.43,1.9.62.66-.57.34-1.34.69-1.97-1.09-1.34-3.05-.24-2.6,1.35Zm-8.26-4.6c-.55.6-.15,1.24-.19,1.94q.97.62,1.72.6c1.09-1.35.29-3.06-1.53-2.54Zm-3.78,35.15c-.74-.69-2.08-1-2.59.13.45.76.56,1.85,1.68,1.85.4-.61,1.77-1.13.91-1.97Zm-9.96,16.35c.49-.24.83-.39,1.35-.61-.06-.84-.16-1.73-.93-2.2-1.65.52-2.37,2.08-.42,2.8Zm-5.2-14.36c-.49.19-1.03.39-1.51.57-.14.43-.25.77-.37,1.14.57.56,1.14,1.06,1.94,1.17.78-.96.99-1.89-.06-2.87Zm16.81-5.75c-1.06.76-1.63,1.84-.5,2.83,1.19.24,1.32-.94,2.04-1.38-.3-.88-1-1.03-1.54-1.44Zm11.06-43.58c.57.1,1.15.09,1.74.12.08-.54.15-.99.21-1.41-.19-.16-.36-.3-.53-.45-.68.34-1.35.68-2.02,1.02.06.34.25.63.6.72Zm19.24,30.92c1.79,2.61,4.55-.86,1.15-1.67-.69.35-.55,1.25-1.15,1.67Zm-21.72-10.46c3.22-1.24.43-4.06-1.3-1.37.24.71.61,1.2,1.3,1.37Zm-26.78,25.6c1.5.81,2.74-.7,2.02-2.15-.78-.18-1.46-.07-2.21.34.48.65-.35,1.3.19,1.8Zm19.23-40.53c.64-.57.49-1.07.09-1.48-.74.38-1.47.75-2.17,1.12,0,.08-.02.16-.03.25.65.51,1.62,1.3,2.11.12Zm-23.15,50.24c-.35-.36-.81-.41-1.22-.28-.14.71-.27,1.4-.4,2.07,1.29,1.07,2.5-.25,1.62-1.79Zm3.39-13.03c.18-1.19-.81-1.88-1.82-1.8-.12.63-.24,1.26-.36,1.89.47.52,1.31.56,2.18-.09Zm-4.74,20.87c.81.48,1.81-.6,1.82-1.48-1.83-2.08-3.57-.17-1.82,1.48Zm23.78,3.1c-2.01.21-1.9,2.64.12,2.71.62-.25.55-.86.79-1.29q-.33-1-.91-1.42Zm-7.73-13.65c-.25-.28-.51-.57-.77-.86-1.02.22-1.55.68-1.78,1.48.66,1.99,2.88,1.11,2.55-.62Zm-15.51,13.83c-1.19-.14-1.28,1.18-.82,1.96.38.13.8.26,1.27.41,1.25-.53,1.16-2.32-.45-2.37Zm10.27-17.2c0,.86-.16,1.7.64,2.26.51-.11.97-.2,1.41-.29q.05-.6.53-1.25c-.65-1.17-1.61-.85-2.57-.72Zm28.21-8.23c-.37-.24-.72-.47-1.06-.68-.75.39-1.51,1.17-1.07,2.06.59-.09.94.37,1.33.8.4-.27.75-.51,1.12-.76-.13-.58-.23-.99-.33-1.41Zm-11.26,11.79c-.47-.34-.88-.64-1.29-.95-.47.53-1.3.78-1.36,1.54.7,1.48,3.23,1.31,2.65-.6Zm11.59.26c-.47-.34-.94-.69-1.47-1.08-3.26,1.05,1.24,4.55,1.47,1.08Zm-33.13,1.91c-1.53-.54-1.62,2.67.14,2.33.63-.15,1.05-.76,1.16-1.38.46-.86-.8-.75-1.3-.95Zm18.8,15.84q.62.73,1.44,1.1c.75-.21,1.01-.88,1.34-1.5-.77-1.74-2.23-1.01-2.78.39Zm25.54-.93c-.36-.18-.72-.35-1.03-.5-.4.1-.74.18-1.21.3-.66,1.78,1.55,2.94,2.48,1.22-.08-.32-.16-.66-.24-1.02Zm-19.56-62.22c.94,1.14,1.49,1.17,2.37.19-.1-.49-.21-1.02-.34-1.62-1.33-.66-1.94.08-2.03,1.43Zm-13.41,32.38c1.2.79,1.83-1.1,1.31-2.01-1.88-1.29-2.84.62-1.31,2.01Zm2.07-10.41c-.68,1.8,1.33,2.07,2.38.92.53-1.33-1.9-2.26-2.38-.92Zm9.73-12.44c1.55-1.39,1.97-2.57-.63-2.46-1.01.86-.87,2.41.63,2.46Zm-5.68,14.48c-1.52.61-1.65,1-.91,2.52.59.24,1.04-.27,1.56-.21.2-.39.37-.73.58-1.14-.42-.4-.84-.8-1.24-1.17Zm7.65-31.14q-.51.94-.01,2.25c1.39.36,1.96-.57,1.94-1.88-.26-.22-.52-.45-.75-.66-.41.1-.76.18-1.18.28Zm-27.06,36.12c.63-.58.01-1.07-.28-1.71-.15.78-.3,1.57-.45,2.37.26-.07.47-.29.73-.66Zm14.7-14.41c-.04-.35-.08-.74-.13-1.17q-.72-.69-1.57-.76c-1.82,1.57.53,3.3,1.7,1.93Zm-16.74,31.54c.46.89,1.68.88,2.34.16-.32-.65-.03-1.54-.69-2.1-1.37-.02-1.48.88-1.65,1.94Zm52.41,21.49c-1.33.57-.65,2.18.58,2.1,2.16.24,1.09-3.1-.58-2.1Zm-34.21-49.72c2.1-.06,1.93-1.81.24-2.52-1.36.51-1.71,1.93-.24,2.52Zm-10.79,9.26c-.55-.13-.94.22-1.37.31-.11.34-.2.63-.29.89.19.47.29.62.56,1.12,1.89.4,2.59-1.14,1.1-2.31Zm11.57-20.76c.22-.63.91-1.12.53-1.96-1.2-.68-1.88-.34-2.55.86.47.77,1,1.34,2.02,1.1Zm-8.92,43.25c1.32-.2,1.04-2.42-.34-2.55-1.8.5-1.27,2.77.34,2.55Zm15.87,16.62q.82.51,2.02.29c.37-1.15.67-1.71-.73-2.25-1.22.53-1.35.74-1.29,1.96Zm9.8-45.14c-2.97.94.53,4.29,1.42,1.37-.45-.53-.86-1-1.42-1.37Zm-21.27-.78c.54.51,1.16.58,1.86.45,1.74-2.47-2.43-3.38-1.86-.45Zm22.43-31.76c-.37.19-.74.37-1.11.55.55.05.93-.2,1.11-.55Zm-23.05,28.17c-.28-.61-.57-1.16-1.2-1.38-.66.35-.82,1-1.24,1.54.53,1.6,2.15,1.6,2.45-.16Zm-13.25,33.46c-.49.23-.72.67-.84,1.18,1.95,2.82,4.58-.96.84-1.18Zm11.12.27v1.66c.37.2.71.38,1,.54.83-.12.96-.83,1.45-1.38-.72-.75-1.53-1.87-2.45-.81Zm21.41,19.79c-.15.06-.28.12-.41.19.31.08.62.16.94.25-.15-.14-.31-.29-.53-.43Zm-10.11-41.55c.56,1.13,1.9.65,2.59-.15-.25-1.95-2.96-1.92-2.59.15Zm-19.24,3.59c.6-.42,1.34-.53,1.66-1.13-.55-1.79-2.67-1.61-2.8.3.26.48.69.73,1.13.82Zm37.9.54c-1.9.11-1.67,2.01-.2,2.61,1.58-.76,1.64-1.5.2-2.61Zm11.17,28.61c-1.72,1.34-.85,3.09,1.18,2.09,1.04-.77-.14-1.92-1.18-2.09Zm-45.75-40.15c-2.68.71-.88,3.58.97,1.81.06-.4.12-.74.16-1.06-.38-.25-.71-.46-1.14-.74Zm15.23-6.59c.92-2.18-1.78-3.21-2.24-.66.61,1.17,1.48.64,2.24.66Zm-23.34,27.14c-.13.67-.26,1.33-.38,1.98.81-.15,1.05-1.18.38-1.98Zm30.09-35.76c1.21.69,1.43.21,2.09-.6.68-.81-.7-1.16-1.22-1.67-1.59.76-1.01.88-.87,2.26Zm14.09-15.25c.67.52,1.43,1.77,2.34.91.95-1.61-1.94-3.59-2.34-.91Zm6.72,1.32c.84.05,1.08-.58,1.47-1,.62-.6-.55-1.02-.91-1.44-.69-.53-1.37.29-1.5.95.28.51.42,1.12.94,1.49Zm-20.46,63.77c-.22.41-.4.76-.61,1.17.23,1.47,2.22,2.1,2.15.35-.45-1.25.38-1.66-1.54-1.51Zm-.95-59.64c-.1-.17-.22-.37-.35-.6h-1.6c-1.56,2.52,1.74,3.2,1.95.6Zm-25.58,57.61c-.43,1.54,2.43,2.17,2.33.3-.21-1.28-1.97-1.83-2.33-.3Zm4.44-15.18c-.4.36-.86.22-1.27.44-.1.32-.2.62-.29.92.2.37.4.74.61,1.13.56.06,1.1.12,1.69-.07-.32-.93.39-1.79-.73-2.42Zm39.31,5.77q-.54.96-.52,1.71c.82.07,1.64.32,2.52.2.36-1.23-.78-2.36-2-1.91Zm-16.43-.31c-1.64.33-1.92,1.95-.32,2.53,1.92.45,1.28-1.91.32-2.53Zm3.42-31.47c-1.42-.1-1.56.17-2.21,1.29.86,1.32,1.8,1.08,2.77.06-.2-.49-.36-.85-.56-1.35Zm-31.17,27.1c-.27-.69-1.11-1.42-1.89-1.05-.16.41-.39.84-.64,1.21.26.58.71.91,1.21,1.33.52-.51,1.45-.7,1.32-1.49Zm13.43-15.63c-.38.22-.78.35-1.18.42-.31.71.16,1.28.23,1.88.42.54,1.53.18,2-.27-.16-.72-.38-1.43-1.05-2.03Zm-1.05,11.66c-.17.66-.34,1.26-.14,2.04,2.93.76,3.07-2.78.14-2.04Zm-8.67-25.76c-.25.36-.46.65-.68.97.65,1.34,2.58,1.58,2.76-.22-.48-1.11-1.2-.67-2.08-.75Zm45.08-13.33c.04-.33-.32-.45-.25-.81-.09-1.06-1.95-.53-2.05.28-.46,1.77,1.83,2.13,2.3.53Zm-5.06,76.99c0,.09.01.18.02.26.71.18,1.43.37,2.16.56.04-1.02-1.14-2.05-2.18-.82Zm9.2-9.15c-.37.4-.76.68-.95,1.24.46.9,1.62,1.05,2.52.79.32-1.21-.18-2.33-1.58-2.03Zm.57-34.6c-1.74.65-1.59,2.12.18,2.61.74-.29.68-1.06,1.11-1.55-.39-.41-.7-.88-1.29-1.06Zm-48.02,4.71v-1.34c-.71-.63-.81-.64-1.89-.11-1.02,1.51.76,2.74,1.89,1.45Zm42.02,24.12c-1.14.83-1.42.99-.62,2.32,1.34.12,1.65-.08,2.09-1.31-.36-.49-.81-.85-1.47-1Zm-36.43-29.4c1.01-1.45-.71-3.54-1.65-1.66-.21,1.45-.04,2.29,1.65,1.66Zm40.57-48c-1.55-1.06-3.22.56-1.65,1.96,1.15.14,1.73-.43,1.65-1.96Zm-32.93,25.42c-.58.37-.7.99-1.06,1.59,1.23,2.79,3.73-.84,1.06-1.59Zm-8.8,5.25c1.66.71,2.15-2.12.41-2.24-1.28.33-1.89,1.66-.41,2.24Zm6.01,14.83c-.41.34-.77.64-1.14.95.11.44.21.85.32,1.28.58.54,1.85.33,2.23-.54-.42-.53-.71-1.4-1.41-1.69Zm9.79,9.45c-.66-.82-1.66-.69-2.18.2.15.75.32,1.43,1.01,1.79.38-.03.59-.18.97-.31-.07-.66.42-1.13.2-1.68Zm4.84-4.01c.38-.4.93-.48,1.14-.96-.52-3.25-4.64.47-1.14.96Zm-18.26,11.27c.41.07.83.13,1.23.2,2.77-2.26-3.26-3.42-1.23-.2Zm16.32-20.6c-.26-.4.08-.76.04-1.21-.91-.9-2.05-.15-2.59.77.65.76,2.06,1.77,2.54.44Zm-25.62,36.99c-.58-1.35-1.67-1.48-2.64-.42.14.41.27.82.41,1.24,1.12.5,1.84.46,2.23-.81Zm22.96-56.55c-.61-1.31-.45-2.91-2.47-1.84-.29,1.68,1.04,2.3,2.47,1.84Zm7.2,49.06c3.13-.79-.69-3.93-1.29-1.08q.35.61,1.29,1.08Zm-28.78-8.26c-.32.21-.67.45-1.11.73-.38,1.28.81,2.36,1.91,1.45.14-.37.27-.73.41-1.1-.54-.28-.59-.95-1.21-1.09Zm27.75,23.82c-.11,1.36.79,2.48,2.03,1.36v-1.57c-1.02-.55-1.09-.54-2.03.21Zm14.53-60.94c-.16,1.78,1.71,3.04,2.19.82.19-1.2-1.46-1.66-2.19-.82Zm-23.25,12.49c.12.32.25.64.4,1.02,1.22.2,2.34-.22,1.94-1.67-1.68-.88-1.47-1.02-2.33.65Zm1.77,12.97c1.24-1.75.16-2.93-1.72-1.95-.34,1.32.51,1.85,1.72,1.95Zm9.03-39.15c-.66-1.05-1.35-.75-2.1-.48-.78,2.23,2.56,3.01,2.1.48Zm-14.29,37.06c-.25-.16-.55-.35-.8-.51-4.02,1.66,1.54,4.15.8.51Zm-8.5,32.99c-.15-1.67-.67-2.16-2.18-1.35-.67.56.51,1.42.76,1.99.53.56,1.01-.32,1.42-.64Zm5.68-6.49c-.16-.32-.33-.63-.53-1.02-2.9-.18-1.13.36-1.28,2.2,1.09.99,1.48-.24,1.81-1.17Zm21.93-56.3c.67.15,1.51-.86.82-1.38-.33-.97-.49-.9-1.47-.86-1.5,1.31-.57,1.84.65,2.24Zm-28.89,20.43c-1.62.47-.91,3.2.81,2.28.22-.32.45-.68.7-1.05-.32-.69-1-.87-1.51-1.24Zm34.6-37.61c.3-.05.58-.19.8-.39-.27.13-.53.26-.8.39Zm-36.29,19.76c.13-.57.05-.98-.15-1.29-.72.37-1.37.71-1.93,1.01.58.54,1.33.37,2.08.28Zm39.53,44.06c-.77.19-1.2.7-1.66,1.25.43,1.8,2.2.98,2.76-.3-.18-.55-.79-.59-1.09-.95Zm-34.71,2.53c2-1.43.54-3.38-1.38-1.83.06.9.46,1.52,1.38,1.83Zm36.53.51c-1.11,1.3.12,1.88,1.36,2.2.31-.29.6-.55.87-.8-.55-.82-1.26-2.18-2.22-1.4Zm-18.01-47.68c-.24-.71-.62-1.23-1.31-1.52-3.13.81-.05,3.48,1.31,1.52Zm-5.36,13.33c-.36,3.3,3.38,1.71,1.87-.11-.54-.13-1.66-.64-1.87.11Zm-5.31-4.12c1.41.31,1.44.3,2.02-.84-.26-.86-.95-.98-1.58-1.25-.34.24-.66.46-.98.68.1.53.29.98.54,1.42Zm-7.95,43.69c2.29-.6.19-3.33-.96-2.18-.87,1.26.28,1.4.96,2.18Zm-5.52,5.54c1.46-.56,1-1.8.13-2.51-1.36.88-2.71,2.29-.13,2.51Zm29.64-12.12c-.52-.7-.14-1.37-.93-1.86-.39.08-.74.14-1.09.21-.1.41-.2.79-.29,1.16.39,1.07,1.77,1.61,2.3.49Zm-36.77-23.79c-.05,1.52,2.06,1.91,2.33.24-.24-1.36-2.01-1.72-2.33-.24Zm18.18-24.06c-1.4.25-1.43,2.36.24,2.11,1.79.54.97-2.55-.24-2.11Zm26.86,25.99c-1.47-.33-2.04.74-1.52,2.03,1.54.96,2.45-.74,1.52-2.03Zm-39.75,35.88c-.26-.29-.91-.34-.71-.99-1.12-.71-1.71-.07-1.86,1.09.02.03.04.06.06.09.58.16,1.18.33,1.8.5.37-.11.67-.28.72-.7Zm22.87.57c-.07-1.9-1.85-2.6-2.35-.44.25,1.07,1.62,1.24,2.35.44Zm.14-35.12c-.26-1.54-3.27-1.46-2.4.24.71,1,2,1.03,2.4-.24Zm9.29-16.61c1.2.88,2.73-.38,1.66-1.75-.8-.06-1.64-.19-2.17.7.17.35.33.68.52,1.05Zm-4.65,15.14q-.85.34-1.32,1.21c.8,2.92,3.66.17,1.32-1.21Zm-5.19,11.67c-1.68.16-2.48.37-1.41,2.04.31.08.6.17.91.3.65-.33.78-.91,1.12-1.33-.23-.38-.44-.71-.62-1Zm-20.91-23.38c.27-.26.56-.53.87-.84v-1.26c-.35-.18-.67-.34-.99-.5-.28.13-.53.25-.75.35-.13.38-.24.71-.35,1.01.19.67.51,1.13,1.22,1.23Zm18.4,45.26c.06-1.21-1.22-2.23-2.22-1.36v1.24c.4.82,1.82,1.14,2.22.12Zm5.55-17.75c-.32-1.56-1.96-1.54-2.27-.01.42,1.65,2.33,1.41,2.27.01Zm-13.65,22.49q.32,1.14,1.15,1.8c1.59-.75,1.52-2.06-.2-2.59-.28.27-.64.56-.95.79Zm-12.89-49.61c-.84.11-1.3.58-1.54,1.32,1.48,2.66,3.31.21,1.54-1.32Zm32.32-13.49c-.29-.41-.25-.82-.61-1.21-.95.34-1.55.87-1.55,1.97.68.85,2.96.47,2.16-.77Zm-31.36,48.41c-.38-.13-.85-.33-1.19-.53-.6.4-1.04.82-1.02,1.64.21.22.48.5.7.75.71-.04,1.17-.39,1.65-.83,0-.34.05-.69-.14-1.03Zm-2.79-42.36c-.03.14-.05.29-.08.44.07-.14.1-.29.08-.44Zm29.36,8.84c.09,1.08,2.32,1.21,2.14-.14.1-1.63-2.38-1.77-2.14.14Zm15.65,18.44c-2.98.79-.76,4.23.87,1.43-.27-.45-.54-.89-.87-1.43Zm-1.5,35.48c.39.77.59,1.62,1.61,1.88q.51-.55.63-1.63c-.62-.82-1.58-1.38-2.24-.25Zm-13.8-15c0,.62-.86.97-.46,1.79.42.16.89.34,1.38.52.47-.37.72-.66,1.1-1.15-.7-.42-.94-1.42-2.02-1.16Zm-21.36-15.45c.11-.34.19-.59.27-.81-.25-.7-.82-.96-1.47-1.09-.67-.07-.8.74-1.33,1,.29,1.24,1.6.83,2.54.89Zm17.94-21.39c-.32,1.07.77,1.92,1.77,1.63.21-.33.42-.65.63-.98-.84-.96-1.3-1.87-2.4-.66Zm-25.55-14.74c-.01.06-.1.55-.27,1.41.41.67,1.71.74,2.22-.37.01-.86-.71-1.17-1.43-1.33-.3.16-.46.24-.5.26,0,0-.02.02-.02.03Zm6.71,51.52c-1.01-.13-1.55,1.24-.96,2.12,1.55.49,3.06-1.61.96-2.12Zm35.11-61.34c.19-.28.41-.6.62-.9-1.98-3.11-4.13,1.44-.62.9Zm-28.39,17.04c-.09-.51-.16-.93-.23-1.37-1.06-1.15-2.43.48-1.77,1.61.3.11.59.22.94.35.36-.2.73-.4,1.07-.59Zm-2.92,53.77c-.49-1.74-2.01-1.06-2.16.23.6.16,1.2.33,1.82.49-.04-.11-.1-.23-.21-.37.24-.15.4-.26.55-.36Zm30.99-15.23c-1.51.21-1.93,1.14-.93,2.34,2.02.31,1.91-1.06.93-2.34Zm-14.78,16.76c1.22-.73,1.89-.86.73-2.14-.72,0-1.67-.16-1.82.79.13.34.26.7.39,1.05.23.1.45.2.7.3Zm8.95-8.67c1.1-.41.8-1.42.44-2.33-2.09.04-2.64,1.77-.44,2.33Zm-9.86.88c-.04.59-.34,1.17.29,1.63-.04.54.41.76.92.6.28-.35.53-.65.77-.95,0-1.28-.82-1.76-1.98-1.28Zm-12.35,3.18c-.95-1.55-1.83-.04-2.35.7.62,1.75,2.37.88,2.35-.7Zm35.24,9.63c1.24,1.47,2.8.06,1.88-1.36-1.18-.43-2.01-.03-1.88,1.36Zm-5.28-57.11c1.91.36,1.99-1.11.91-2.29-1.51-.37-1.5,1.42-.91,2.29Zm-6.33,17.15c1.38.76,1.9.49,2.25-1.16q-.54-.38-1.41-.55c-.54.4-1.1.8-.84,1.71Zm-25.29,3.21c1.37-.18,1.55-.33,1.86-1.48-.34-.79-1.16-.51-1.79-.82-.57.52-.61,1.03-.11,1.57.14.23-.33.5.04.73Zm32.33,20.22c1.15.08,1.61-2.32.11-2.16-1.48-.27-1.59,2.23-.11,2.16Zm-23.98-2.15c-.11.34.42.61.12.99-.04.47.42.9.65,1.38.68-.23,1.24-.87,1.34-1.61-.82-1.09-1.13-1.21-2.11-.77Zm26.69-52.42c.29-.15.6-.32.89-.48.1-.41.19-.79.29-1.25-.6-.24-1.17-.47-1.73-.7-1.09.47-.21,2.15.54,2.42Zm-14.11-11.35c-.57-.07-.83.51-1.08.92-.84,1.12-.02,1.29.98,1.99.38-.53,1.23-1.15.57-1.75-.6-.24-.07-.87-.47-1.17Zm10.4,75.44c-.63,1.44,1.39,3.05,2,1.17.37-1.19-1.15-1.64-2-1.17Zm-4.08,7.77c.65-1.12.19-2.72-1.3-2.28.15.23.24.37.35.55-1.71.47-.27,2.46.95,1.73Zm11.03-65.73c-1.29.33-1.74,1.46-.64,2.31,1.63.37,2-1.57.64-2.31Zm-14.49-2.85c-.64.26-1.32.45-1.44,1.42,1.51,2.34,3.23-.29,1.44-1.42Zm2.09,31.88c-1.41.25-.22,2.15.76,1.9,2-.03.63-2.39-.76-1.9Zm-37.51,22.06c1.27.21,2.28-1.64,1.04-2-1.37-.15-2.91,1.58-1.04,2Zm17,9.8s0,.08-.01.13c.77.2,1.55.41,2.34.62,0-.18-.02-.35-.03-.54-.86-.33-1.43-1.04-2.3-.21Zm25.68-25.13c.08.25.17.52.28.84,1.96.47,2.95-1.78.83-1.99q-.75.37-1.11,1.15Zm5.21-37.73c-.27-1.45-2.16-.38-2.31.82.88,1.07,2.63.75,2.31-.82Zm-48.97,14.53c-.06-.44-.72-1.01-1.19-.98-.42.14-.49.59-.77.92-.06.3-.11.59-.17.9.51.92,2.19.3,2.13-.83Zm35.93-32.72q-.9.46-.8,1.76c2.06,1.07,3.35-1.2.8-1.76Zm-11.77,46.1c-.24.71-.65,1.3-.19,1.96.51-.02.91.08,1.3.37.75-.66.75-.66.37-1.36-.2-.78-.62-1.18-1.48-.97Zm14.87-6.12c2.55-.55.36-3.23-1.04-1.64.22.7.14,1.49,1.04,1.64Zm12.83-1.9c-.75-.55-2.32-1.21-2.17.39-.48,2.03,2.85.65,2.17-.39Zm-3.27,9.82c.3-1.36.06-1.54-1.11-1.81-.69-.07-.52,1.25-1.02,1.72.72.72,1.43.33,2.13.09Zm-3.04-33.18c-.83.12-1.94-.53-1.86.92.39,2.73,3.37-.6,1.86-.92Zm-35.6-.22c-.25.59-.37,1.13-.76,1.59-.1.93,3.39.5,1.36-.02.37-.16.63-.28.89-.39.37-.89-.76-1.58-1.49-1.17Zm41.88,41.49c.03-1.23-1.84-1.49-2.35-.33.06,1.44,2.05,1.69,2.35.33Zm-13.91.08c.38,1.11,1.81.96,2.27.06.76-1.72-2.2-1.58-2.27-.06Zm-27.76-35.68c-.99.47-1.43,1.69-.23,2.11,1.73,0,2.23-1.96.23-2.11Zm29.44.04c-.29-.04-.73-.12-1.04-.2-.18.55-.34,1.02-.53,1.61,1.07.65,1.89.95,2.36-.43-.27-.34-.51-.63-.79-.98Zm-16.91,42.19c.13-.53.22-.9.31-1.27q-.51-.57-1.26-.82c-.27.2-.55.41-.85.64.11,1.2.49,2.09,1.81,1.44Zm15.84-1.85c-.13.47-.25.92-.36,1.34,1.59,2.55,3.52-2.2.36-1.34Zm10.39,26.38c-.23-.2-.41-.34-.59-.5-.7.26-1.49.31-1.89,1.04.98,1.92,2.14,1.22,2.49-.55Zm-39.09-12.76c.54-.37,1.42-.07,1.65-.96-.15-.36-.29-.72-.45-1.1-1.33-.49-2.71,1.29-1.2,2.06Zm9.48-43.26c.26-.19.52-.37.81-.58-.08-3.62-4.04-.69-.81.58Zm31.65,20.18c1.2-.81.84-1.1.22-2.11-2.34-.41-2.11,1.6-.22,2.11Zm-.67,38.27c.36.09.73.19,1.09.28-.04-.12-.09-.23-.14-.35-.36-.1-.68-.05-.95.07Zm-44.39-45.34c-.37-.79-1.09-.64-1.78-.76-.22.22-.45.43-.72.7.36,1.76,2.1,1.65,2.5.05Zm41.27,7.61c0,.72-.56,1.06-.36,1.79.53.09,1.03.49,1.77.26.55-.64.46-1.24-.12-1.86-.39-.06-.81-.12-1.3-.19Zm-18.5,9.16c-.54-.16-1.06-.31-1.58-.47-.84.63-.21,1.19-.28,2,.42.07.84.14,1.23.21.64-.45.98-.97.63-1.74Zm-4.31,2.59c-2.3,1.03,1.19,3.45,1.53,1.11-.42-.58-.88-.98-1.53-1.11Zm27.14,3.22c-1.05-1.14-2.65.75-1.34,1.55,1.17.78,2.1-.47,1.34-1.55Zm-.64,5.07c-1.37.56-1.35,1.38-.51,2.43,1.64.06,1.92-1.67.51-2.43Zm-19.49-52.38c.08-.58.14-1.11.21-1.63-1.14-.78-1.37-.07-2.25.54.09.29.18.58.26.85.59.26,1.15.57,1.77.24Zm16.6,51.72q.79-.33,1.12-.85c-.18-.75-.82-1.03-1.48-1.42-.37.31-.7.58-1.05.87.12.89.95.97,1.41,1.4Zm-47.97-43.92c0-.62-.33-.96-.75-1.07-.11.59-.23,1.21-.35,1.85.53.18.98.19,1.1-.78Zm48.87-2.56c-.24-1.13-.29-1.96-1.76-1.59-.75,1.74.05,2.51,1.76,1.59Zm-16.61,31.14c.4.82.61.96,1.76.9,2.04-1.91-2.24-2.68-1.76-.9Zm-23.99-7.72c.89-1.06.7-1.3-.22-2-.42.02-.83.04-1.26.06-.1.45-.2.89-.31,1.36.63.26,1.2.48,1.79.58Zm25.18-4.93c-.03-.2-.13-.29-.31-.24-.09.03-.22.18-.21.24.14.94-1.38.97-.32,2.05h1.41c.26-.38.5-.74.76-1.12-.31-.92-1.31.07-1.33-.93Zm-9.79,37.91c-.36.72-.11,1.31.71,1.71.14.04.28.07.42.11,1.63-1.21.56-2.99-1.12-1.82Zm12.2-23.54c-.29.27-.58.54-.82.77,1.15,3.16,4.2-.25.82-.77Zm-1.68,10.99c.24-.64.13-1.2-.07-1.75-1.09-.66-1.35,0-2.18.59.53.91,1.4.98,2.25,1.16Zm-16.42-4.22c-.12,1.33,1.32.37,2.08,1.06,1.38-1.27-2-2.89-2.08-1.06Zm-5.43-.41c-.09.28-.19.58-.29.87.72.95,1.04.75,1.84.45,1.4-1.06-.57-2.34-1.55-1.32Zm29.72-46.87c-.84.37-.86,1.12-1.11,1.94,2.01,1.15,3.12-.73,1.11-1.94Zm-6.83,36.73c.36.12.72.25,1.05.36.37-.18.51-.35.97-.67-.19-2.42-2.15-1.83-2.02.3Zm5.58-29.07c1.24,1.13,3.42-.62,1.8-1.41-.83-.05-2.12.27-1.8,1.41Zm-34.54-7.16c-.18,1.09.21,1.49,1.07,2.02,2.13-1.56,1.21-2.38-1.07-2.02Zm42.58,23.8c-.16-.65-.56-.92-1.11-1.02-.72.14-1.45,1.01-1.05,1.75,1.03.41,1.69.39,2.16-.73Zm-3.21-44.25c-1.75-.47-2.16,1-1.09,2.19,1.42-.81,1.46-.9,1.09-2.19Zm5.63,28.78c-.55-.02-1.04-.1-1.18.51-.96.39-.57.92.01,1.62,1.67.33,1.62-.87,1.17-2.12Zm-8.73,11.04c.22-.38.41-.72.58-1.02q-.35-.74-1.06-1.09c-1.07.21-1.73.54-.76,1.74.37.11.78.23,1.24.37Zm-2.54,41.31c-.92-1.19-1.73-.08-2.05.9.12.36.39.6.59.89,1.32.27,1.06-.99,1.46-1.78Zm-13.56-27.61c.14.54,1.29,1,1.67.5-.04-.15-.09-.29-.16-.54,2.99-1.37-1.61-1.83-1.51.04Zm-22.66-10.95c.62-.09,1.14-.16,1.69-.24v-1.4c-.26-.18-.51-.36-.77-.55-.41.1-1.08.27-1.07.73.32.43-.1.92.15,1.45Zm25.85,12.46c-.32.72.19,1.27.19,1.98,2.33.63,1.85-2.88-.19-1.98Zm13.18-22.92c-1.26-.2-2.42.48-1.54,1.78.41.04.84.08,1.27.12.23-.32.44-.6.64-.88-.12-.32-.22-.62-.37-1.02Zm-10.24,4.52c.83.04,1.53-.4,2-1.21-.99-1.76-2.87-.44-2,1.21Zm6.11,38.53c-.29.76-.6,1.53.16,2.22.32.03.59-.17.95-.26.17-.35.35-.73.51-1.08-.65-.6-.54-1.37-1.61-.88Zm10.31-13.62c-.35-.33-.66-.62-.96-.9-.82.25-1.45.57-1.57,1.44,1.17.8,2.14.77,2.54-.54Zm-13.83-51.55c.46.88,2.18,1.2,2.05-.14,0-1.79-1.76-1.41-2.05.14Zm-20.22,60.23c.12.96,1.61,1.36,2.21.74.68-1.57-1.52-2.22-2.21-.74Zm-10.51-47.37c-.97.3-1.33,2.49-.11,2.51.59-.1,1.6-1.18.97-1.7-.45-.05-.44-.54-.87-.82Zm27.77,58.97c.42,1.53,1.8.81,2.26-.2-.19-.25-.4-.52-.54-.72h-1.38c-.12.33-.21.58-.33.92Zm7.33-79.57c.36-.6.63-1.17.42-1.72-.55.27-1.1.54-1.65.81,0,.73.18,1.27,1.23.91Zm.62,28.23c.03-.38.07-.75.1-1.12-1.87-1.97-3.24,3.54-.1,1.12Zm-2.41,5.3c.41.12.64.4.88.71,1.23.91,2.05-1.82.76-2.17-.25-.08-.62.09-.7.48-.08.67-.68.54-.95.99Zm13.75-27.95c.13-.38.23-.67.32-.94-.21-.47-.36-.94-.92-1.1-.4.57-1.33.63-1.39,1.45.36.81,1.28.6,1.99.59Zm.57,56.95c-.34-.69-.75-1.18-1.61-1.11-.21.4-.59.79-.94,1.08.37,1.03,2.09,1.02,2.55.03Zm-19.63-41.33c.16.43-.07,1.12.19,1.5,1.09.74,2.61-.55,1.49-1.62-.54.34-1.06-.37-1.67.11Zm17.87-6.38c-.33.25-.66.51-.83.92.43.62.69,1.46,1.77,1.06.59-1.32.59-1.65-.94-1.98Zm-13.24,28.09c.05-.45.1-.87.15-1.33-2.86-1.32-2.68,2.48-.15,1.33Zm14.82-49.89c-.06-.18-.14-.32-.23-.43-.68.33-1.37.65-2.05.98.48.43,1.11.37,1.7.51.2-.36.36-.66.58-1.06Zm-3.28,13.68c-.45-.19-.79-.12-1.36-.22-1.55,2.31,2.41,2.91,1.36.22Zm-19.8,32.72c-.51-.57-1.27-.53-1.7-1.09-.39.2-.67.51-.94.91.84,1.19,1.95,1.72,2.64.19Zm.58,37.63c.29,1.09,1.23.74,1.95.32,1.36-1.61-1.57-1.91-1.95-.32Zm4.52-25.62c.63-.65.2-1.15.03-1.65-2.28-.54-2.4,2.23-.03,1.65Zm13.94-48.72c.33-.13.68-.27,1.03-.41-.1-.73-.57-1.09-1.18-1.53-.42.23-.8.43-1.12.6-.18,1.09.58,1.15,1.27,1.35Zm-5.11-.02c1.41-2.1-2.4-2.63-1.58-.21.64-.16,1,.33,1.58.21Zm-1.62,50.74c.35.52.52,1.27,1.36,1.28.87-.5.46-1.55-.09-2.25-.48.21-1.53.27-1.27.97Zm8.44-42.89c0,1.8,1.97.73,2.54-.32-.82-.7-1.89-.32-2.54.32Zm-16.23,17.87c.57.04,1-.36,1.01-.95-.33-2.12-3.93.86-1.01.95Zm15.42,2.62c.71-1.06-.59-1.58-1.51-1.38-1.13,1.32.46,2.19,1.51,1.38Zm-9.99,38.11c2.65.74.85-3.82-.57-1.14.2.41.37.75.57,1.14Zm3.27-56.88c-.9-.24-1.05,1.34-.77,1.96,1.52-.21,2.86-1.43.77-1.96Zm.01,59.59c.51-.25,1.14-.24,1.4-.94-1.57-1.85-3.68-.08-1.4.94Zm2.28-39.05c-.51.53-.33,1.55.48,1.6,2.22-.33,1.02-2.56-.48-1.6Zm0,7.32c4-.68-.21-3.5-.45-.4.14.13.31.28.45.4Zm-6.78,24.66c-.79-.04-1.1-.47-1.7-.56-1.73,1.48.77,2.93,1.7.56Zm-1.29,18.85c.4-.26.76-.49,1.18-.76-.52-.92-.71-2.55-1.85-.97q.29.48,0,1.12c.2.19.42.39.66.62Zm.55-46.76c1.36-1.63-1.43-1.79-1.92-.54.6.94.5.69,1.92.54Zm-4.04-27.08c-.18.38-.33.69-.46.97.34.76,1.03.56,1.55.79.18-.22.33-.39.52-.61-.7-.91.05-1.77-1.61-1.15Zm2.92,19.91c-.16.48-.3.92-.44,1.35.92.43,1.24.37,2.09-.47-.15-.35-.24-.57-.37-.89-.46-.09-.85-.06-1.28.01Zm8.3,15.2c.28,1.37,1.67,1.17,2.32.3-.61-1.04-1.48-1.47-2.32-.3Zm-3.93-33.61c-.18-.75-.23-1.27-.25-2.06-.71,0-.96.55-1.33.97v1.08c.53.03.96.63,1.58.01Zm-3.14,64.53c-.84.43-1.88.6-1.6,1.89,1,.02,1.59-.52,2.37-1.03-.27-.31-.53-.59-.77-.86Zm4.97-28.9c-.53.12-.88.4-1,.98,1.05,1.73,3.76-.09,1-.98Zm-8.27,27.71c.35-.39.6-.68.99-1.13-1.04-2.11-3.55,1.56-.99,1.13Zm-6.61-7.23c-.11.22-.21.43-.34.68,2.2,2.37,3.33-2.18.34-.68Zm13.95,14.33c.07.49.15.98.23,1.54.72-.1,1.42-.05,1.78-.85-.1-.19-.2-.4-.34-.66-.53,0-1.03-.62-1.67-.04Zm-6.63-42.49c-.74-.91-.94-1-1.81-.84-.1.29-.2.58-.32.95.52.38,1.01.79,1.57.71.18-.27.37-.55.56-.83Zm15.73-41.22c-1,1.22.26,1.89,1.29,1.72.38-.34-.12-.96-.04-1.45-.45-.1-.86-.18-1.25-.26Zm-16.23,86.62c-.16-.03-.47.09-.5.2-.15.34-.44.53-.65.79.49.13.99.26,1.49.39.3-.43.3-1.05-.34-1.38Zm6.24-68.32c.12-1.49-1.36-1.3-2.09-.71.3,1.04,1.28,1.11,2.09.71Zm-1.23.68v-.07s-.09.04-.09.04l.09.03Z"/>
    </g>
  </g>
  <g id="Letter">
    <g>
      <g>
        <path class="cls-3" d="m77.6,181.53l82.71,186.21c14.74-.47,141.99-60.52,140.39-65.28-4.39-13.03-83.32-186.27-87.58-185.67-4.31.6-136.98,61.23-135.52,64.74Z"/>
        <path class="cls-4" d="m76.84,181.97c.74,1.66,1.48,3.32,2.21,4.99,2.01,4.52,4.02,9.04,6.03,13.57,2.97,6.69,5.94,13.38,8.91,20.06,3.61,8.12,7.22,16.24,10.82,24.37,3.97,8.93,7.94,17.87,11.9,26.8,4.01,9.02,8.01,18.04,12.02,27.05,3.73,8.41,7.47,16.82,11.2,25.22,3.14,7.08,6.29,14.15,9.43,21.23,2.27,5.11,4.54,10.23,6.81,15.34,1.07,2.41,2.05,4.9,3.23,7.27.05.1.09.21.14.31.12.27.48.44.76.43,2.03-.07,4.06-.71,5.99-1.28,3.29-.99,6.52-2.16,9.74-3.36,9.29-3.49,18.44-7.38,27.53-11.34,11.08-4.82,22.08-9.82,33.03-14.94,10.62-4.97,21.18-10.05,31.66-15.3,8-4.01,15.98-8.07,23.74-12.53,2.32-1.33,4.64-2.68,6.82-4.24.9-.64,2.76-1.73,2.78-3.04,0-.52-.3-1.08-.48-1.56-.3-.77-.61-1.54-.92-2.31-.97-2.37-1.97-4.72-2.98-7.07-3.14-7.29-6.36-14.54-9.59-21.79-4.33-9.7-8.7-19.37-13.1-29.04-4.97-10.93-9.98-21.84-15.03-32.74-5.02-10.84-10.07-21.66-15.17-32.46-4.51-9.55-9.06-19.08-13.7-28.56-3.43-7.02-6.9-14.03-10.57-20.93-1.15-2.17-2.32-4.33-3.59-6.44-.66-1.11-1.34-2.4-2.29-3.29-.83-.79-1.69-.38-2.63-.03-2,.75-3.96,1.6-5.92,2.43-7.31,3.12-14.57,6.37-21.82,9.64-10.1,4.55-20.17,9.16-30.22,13.81-10.65,4.93-21.27,9.91-31.86,14.97-9.07,4.33-18.12,8.71-27.08,13.27-5.31,2.7-10.84,5.31-15.79,8.65-.7.47-2.49,1.49-2.09,2.6.38,1.05,2.08.6,1.69-.47,0,0,0,.39,0,.31-.04.23,0,.08-.04.1-.1.05.27-.26.39-.36.15-.13.23-.19.17-.14.14-.11.28-.21.43-.31.33-.23.67-.45,1.01-.67,2.15-1.37,4.4-2.59,6.64-3.8,7.49-4.03,15.14-7.79,22.78-11.51,10-4.88,20.05-9.65,30.12-14.37,10.44-4.9,20.9-9.74,31.39-14.52,8.73-3.98,17.47-7.94,26.24-11.81,4.84-2.14,9.65-4.38,14.6-6.21.29-.11.91-.18,1.15-.37-.04.03-.46-.01-.33.01-.15-.03-.14,0-.21-.12.07.12.26.24.35.35.3.34.09.08.35.46.19.27.38.55.56.83.47.73.92,1.47,1.36,2.22,3.1,5.32,5.86,10.86,8.63,16.37,4.23,8.42,8.33,16.91,12.4,25.41,4.89,10.22,9.72,20.46,14.51,30.73,5.08,10.87,10.11,21.76,15.11,32.66,4.72,10.28,9.4,20.57,14.05,30.88,3.81,8.45,7.6,16.92,11.34,25.41,2.39,5.43,4.8,10.88,7.03,16.35.31.77.62,1.54.92,2.31.1.27.2.54.3.81.04.09.05.25.11.33.12.15.01-.25.02-.23,0,0-.09.14-.06.12-.17.21-.37.39-.57.57-.65.58-1.11.89-1.91,1.44-5.65,3.86-11.84,7-17.89,10.17-9.39,4.92-18.91,9.62-28.46,14.22-10.87,5.24-21.81,10.35-32.8,15.32-10.13,4.58-20.32,9.06-30.6,13.29-7.17,2.95-14.4,5.93-21.84,8.14-1.07.32-2.15.62-3.24.86-.93.2-1.34.3-2.17.33.25.14.5.29.76.43-.74-1.66-1.48-3.32-2.21-4.99-2.01-4.52-4.02-9.04-6.03-13.57-2.97-6.69-5.94-13.38-8.91-20.06-3.61-8.12-7.22-16.24-10.82-24.37-3.97-8.93-7.94-17.87-11.9-26.8-4.01-9.02-8.01-18.04-12.02-27.05-3.73-8.41-7.47-16.82-11.2-25.22-3.14-7.08-6.29-14.15-9.43-21.23-2.27-5.11-4.54-10.23-6.81-15.34-1.07-2.41-2.05-4.9-3.23-7.27-.05-.1-.09-.21-.14-.31-.46-1.03-1.96-.14-1.51.88Z"/>
      </g>
      <path class="cls-4" d="m110.55,209.91c26.8-11.91,53.6-23.82,80.4-35.74,7.61-3.38,15.23-6.77,22.84-10.15,1.03-.46.14-1.96-.88-1.51-26.8,11.91-53.6,23.82-80.4,35.74-7.61,3.38-15.23,6.77-22.84,10.15-1.03.46-.14,1.97.88,1.51h0Z"/>
      <path class="cls-4" d="m117.16,224.15c26.8-11.91,53.6-23.82,80.4-35.74,7.61-3.38,15.23-6.77,22.84-10.15,1.03-.46.14-1.96-.88-1.51-26.8,11.91-53.6,23.83-80.4,35.74-7.61,3.38-15.23,6.77-22.84,10.15-1.03.46-.14,1.96.88,1.51h0Z"/>
      <path class="cls-4" d="m122.24,237.22c26.8-11.91,53.6-23.82,80.4-35.74,7.61-3.38,15.23-6.77,22.84-10.15,1.03-.46.14-1.96-.88-1.51-26.8,11.91-53.6,23.82-80.4,35.74-7.61,3.38-15.23,6.77-22.84,10.15-1.03.46-.14,1.97.88,1.51h0Z"/>
      <path class="cls-4" d="m127.33,250.28c26.8-11.91,53.6-23.82,80.4-35.74,7.61-3.38,15.23-6.77,22.84-10.15,1.03-.46.14-1.96-.88-1.51-26.8,11.91-53.6,23.83-80.4,35.74-7.61,3.38-15.23,6.77-22.84,10.15-1.03.46-.14,1.96.88,1.51h0Z"/>
      <path class="cls-4" d="m103.35,195.66c9.16-5.21,18.76-9.6,28.7-13.11,1.05-.37.6-2.06-.47-1.69-10.08,3.57-19.82,8.01-29.11,13.29-.98.56-.1,2.07.88,1.51h0Z"/>
      <path class="cls-4" d="m161.16,139.52c-.62-.89-.5-1.98.12-2.85.76-1.07,2.13-1.36,3.37-1.15,2.89.51,4.62,3.22,6.09,5.49.8,1.24,1.57,2.5,2.3,3.79.73,1.28,1.55,2.6,1.92,4.03.29,1.15.17,2.62-.9,3.35-1.23.85-2.62-.34-3.31-1.32-.97-1.37-1.71-2.94-2.52-4.4-.9-1.62-1.81-3.24-2.71-4.86-.55-.98-2.06-.1-1.51.88,1.05,1.88,2.1,3.76,3.15,5.64.92,1.65,1.75,3.65,3.2,4.92,1.16,1.02,2.83,1.55,4.28.82,1.31-.66,2.07-2.08,2.2-3.51.18-1.88-.75-3.66-1.62-5.25-.98-1.8-2.04-3.55-3.15-5.26-1.88-2.89-4.27-6.02-8.05-6.14-1.73-.05-3.38.7-4.31,2.17-.86,1.36-.99,3.18-.05,4.52.64.92,2.16.04,1.51-.88h0Z"/>
    </g>
  </g>
  <g id="Pencils">
    <g>
      <path class="cls-2" d="m397,298.69c-.64-.13-45.11-27.37-50.7-35.59-5.6-8.22,17.49-22.64,17.49-22.64,0,0,45.59,36.57,48.32,40.89,0,0,1.12,4.09-4.77,11.65-3.86,4.95-6.25,6.55-10.33,5.7Z"/>
      <path class="cls-4" d="m327.57,244.46s7.75,11.8,18.72,19.69c5.59-10.02,11.53-18.49,18.33-23.09,0,0-17.78-13.06-24.19-13.76,0,0-10.46,8.8-12.86,17.15Z"/>
      <path class="cls-4" d="m398.01,297.76c2.24-6.43,6.88-11.87,12.84-15.14.99-.54.11-2.05-.88-1.51-6.37,3.49-11.26,9.33-13.65,16.19-.37,1.07,1.32,1.52,1.69.47h0Z"/>
      <path class="cls-7" d="m357.96,258s25.36,21.62,27.13,21.01c1.77-.61,3.85-5.11,3.85-5.11,0,0-24.56-20.75-26.18-20.96-2.1-.28-4.8,5.06-4.8,5.06Z"/>
      <path class="cls-2" d="m331.74,238.89c3.67,3.93,8.36,7.9,13.99,8.26,2.56.17,5.14-1.04,5.67-3.75.56-2.81-1.13-5.32-2.91-7.33-2.42-2.73-5.23-5.11-8.22-7.18-.93-.64-1.8.87-.88,1.51,2.88,1.99,5.55,4.29,7.87,6.91,1.6,1.81,4.25,5.94,1.03,7.67-2.54,1.36-6.2-.32-8.45-1.58-2.65-1.47-4.81-3.56-6.86-5.76-.77-.82-2.01.41-1.24,1.24h0Z"/>
    </g>
    <g>
      <path class="cls-7" d="m110.32,72.64l6.92-15.61s-3.76-12.5,1.55-15.44,9.16.31,9.16.31c0,0,3.01-4.11,7.06-3.03,4.05,1.09,3.49,3.87,3.49,3.87,0,0,4.51-3.23,7.24.03,2.73,3.26,1.41,6.6,1.41,6.6,0,0,4.88.03,4.5,5.03-.38,5-7.96,9.64-7.96,9.64l-7.35,19.49s-2.57,3.67-15.11-.99-11.86-7.73-10.9-9.89Z"/>
      <path class="cls-2" d="m117.9,79.48c-.06,0-.49.97-1.24,2.74-8.17,19.52-53.82,136.61-53.82,136.61l8.22,3.68,55.87-138.49s1.57-5.28-9.04-4.55Z"/>
      <path class="cls-7" d="m71.07,222.55c-.11.27-4,6.17-7.28,10.54-.03.04-.07.12-.13.19-2.14,2.82-3.97,4.94-4.32,4.4-.34-.5.06-3.27.7-6.53,1.08-5.45,2.8-12.29,2.8-12.29,4.44-.57,8.41,3.24,8.23,3.68Z"/>
      <path class="cls-4" d="m63.83,233.01s-.02.03-.04.08c-.03.04-.07.12-.13.19-2.14,2.82-3.97,4.94-4.32,4.4-.34-.5.06-3.27.7-6.53.46-.05,2.48-.14,3.79,1.85Z"/>
      <path class="cls-4" d="m118,80.86c.1-.36-.05.04.05-.15.02-.04.17-.24.08-.13.16-.19.19-.19.4-.31.13-.07.25-.12.49-.17.26-.05.53-.04.79-.03,1.04.05,2.14.33,3.13.64.8.26,1.66.72,2.09,1.3.29.39.4.65.49,1.11-.03-.13,0,.03,0,.08,0,.11,0,.23,0,.34,0,.09,0,.09,0,0,0,.04-.02.09-.03.13-.04.13-.08.26-.14.39-.26.63.28,1.37.87,1.54.72.2,1.28-.25,1.54-.87.53-1.3.19-2.86-.59-3.98-.87-1.24-2.16-1.99-3.58-2.44-2.59-.84-7.04-1.59-8.02,1.89-.44,1.55,1.97,2.21,2.41.66h0Z"/>
      <path class="cls-4" d="m111.46,75.24c3.78-3.1,9.6-1.35,13.72.04,4.13,1.39,8.19,4,9.29,8.48.38,1.56,2.79.9,2.41-.66-1.31-5.35-6.09-8.56-11.03-10.23-5.17-1.75-11.54-3.18-16.16.6-1.25,1.02.53,2.78,1.77,1.77h0Z"/>
      <path class="cls-2" d="m139.75,51.46c-3.47-1.94-7.47-2.93-11.44-2.84-2.05.05-4.42.6-5.29,2.46-.58,1.23-.29,2.75.46,3.89.75,1.14,1.89,1.96,3.08,2.63,3.03,1.71,6.48,2.58,9.93,3,1.76.21,3.8.22,5.01-1.09.94-1.01,1.39-3.18,1.01-4.5s-1.04-2.44-2.75-3.55"/>
      <path class="cls-2" d="m123.22,42.51c-.77-.06-1.51.53-1.8,1.12-.29.59-.18,1.33.19,1.88.37.55.96.91,1.59,1.11.59.18,1.23.23,1.81.04.58-.19,1.1-.64,1.28-1.22.26-.82-.25-1.89-.97-2.35-.72-.47-1.01-.6-2.1-.58"/>
      <path class="cls-2" d="m133.75,41.63c-1.2.09-1.81.5-2.46,1.51-.32.5-.38,1.34-.31,1.92.14,1.13,1.31,1.93,2.45,1.92,1.4-.01,2.73-1.17,2.86-2.56.13-1.4-1.14-2.71-2.53-2.79"/>
      <path class="cls-2" d="m144.05,44.42c-1.24-.37-2.89-.27-3.65.77-.77,1.04-.8,2.57-.07,3.64.72,1.07,2.15,1.61,3.4,1.29,1.25-.32,2.24-1.48,2.36-2.77.09-.99-.45-2.58-2.03-2.93"/>
      <path class="cls-2" d="m148.59,52.22c-1.21-.31-2.24.03-3.01.82-.77.78-.95,2.08-.44,3.05.51.97,1.67,1.55,2.76,1.39,1.09-.16,2.03-1.03,2.28-2.1s-.09-2.76-1.6-3.16"/>
    </g>
    <g>
      <g>
        <path class="cls-7" d="m71.91,76.63l3.01,14.48c.04.2.04.41,0,.61-1.45,6.49-25.81,115.22-30.52,116.51-3.94,1.08-10.37-2.92-12.65-4.46-.51-.34-.74-.96-.59-1.55,2.77-10.89,27.98-110.03,30.64-115.41.03-.06-.04.06,0,0l7.5-10.71c.73-1.04,2.35-.71,2.61.54Z"/>
        <path class="cls-2" d="m45.07,208.79s-1.58,7.59-3.15,8.94c-1.57,1.34-12.63-1.06-12.89-3.93-.25-2.87,2.54-10.16,2.54-10.16l13.49,5.16Z"/>
        <path class="cls-4" d="m70.5,72.93c0,.35-.03.7-.06,1.05,0,.07-.02.15-.03.22.03-.22-.02.1-.02.14-.03.16-.06.32-.09.48-.14.68-.35,1.34-.62,1.97-.18.42.19.98.61,1.08.51.12.89-.16,1.08-.61.57-1.37.86-2.85.89-4.34,0-.46-.41-.9-.87-.88-.48.02-.87.38-.87.88h0Z"/>
      </g>
      <path class="cls-2" d="m70.32,91.12c-7.26,30.2-15.69,60.1-23.46,90.16-2.17,8.4-4.29,16.81-6.32,25.25-.26,1.09,1.42,1.56,1.69.47,7.26-30.2,15.69-60.1,23.46-90.16,2.17-8.4,4.29-16.81,6.32-25.25.26-1.09-1.42-1.56-1.69-.47h0Z"/>
      <path class="cls-2" d="m63.59,90.68c-7.26,30.2-15.69,60.1-23.46,90.16-2.17,8.4-4.29,16.81-6.32,25.25-.26,1.09,1.42,1.56,1.69.47,7.26-30.2,15.69-60.1,23.46-90.16,2.17-8.4,4.29-16.81,6.32-25.25.26-1.09-1.42-1.56-1.69-.47h0Z"/>
      <path class="cls-4" d="m74.53,90.42c-4.24.29-8.54-.95-11.9-3.58-.38-.29-.87-.36-1.24,0-.31.3-.37.95,0,1.24,3.73,2.91,8.4,4.41,13.14,4.09,1.12-.08,1.13-1.83,0-1.75h0Z"/>
      <path class="cls-4" d="m44.4,206.67c-4.61.18-9.19-1.36-12.71-4.35-.85-.73-2.1.51-1.24,1.24,3.86,3.29,8.86,5.07,13.94,4.87,1.12-.04,1.13-1.8,0-1.75h0Z"/>
    </g>
  </g>
  <g id="Coffee">
    <g>
      <circle class="cls-7" cx="353.98" cy="109.55" r="39.61" transform="translate(2.66 227.35) rotate(-35.73)"/>
      <circle class="cls-4" cx="353.98" cy="109.49" r="32.21" transform="translate(26.25 282.37) rotate(-45)"/>
      <path class="cls-7" d="m378.3,78.39s16.68-14.69,21.04-14.15,11.43,9.61,9.07,12.88c-2.36,3.26-18.6,15.78-18.76,15.43-.16-.35-11.34-14.16-11.34-14.16Z"/>
      <path class="cls-4" d="m364.12,72.37c14.07,3.54,25.24,15.67,27.67,29.96.19,1.11,1.88.64,1.69-.47-2.53-14.86-14.29-27.51-28.89-31.19-1.09-.27-1.56,1.41-.47,1.69h0Z"/>
      <path class="cls-2" d="m361.36,91.71s9.97-24.37,12.18-31.29c2.22-6.92,2.5-15.08,4.43-16.61,3.32-2.64,11.35,3.32,10.24,6.65-1.11,3.32-13.01,29.63-19.66,43.19,0,0-1.11,2.77-4.43,1.66-3.32-1.11-2.77-3.6-2.77-3.6Z"/>
      <path class="cls-2" d="m343.38,84.93c-6.42,3.24-11.51,8.83-14.1,15.55-2.67,6.92-2.17,14.64.97,21.31,1.82,3.86,4.52,7.27,7.83,9.95.87.7,2.11-.53,1.24-1.24-5.51-4.46-9.23-11.02-9.93-18.11-.67-6.78,1.58-13.58,5.91-18.81,2.47-2.98,5.51-5.39,8.96-7.14,1.01-.51.12-2.02-.88-1.51h0Z"/>
      <path class="cls-2" d="m357.71,88.49c-1.32,1.96-1.69,4.57-.87,6.8.79,2.15,2.47,3.79,4.6,4.61.44.17.96-.19,1.08-.61.14-.49-.17-.91-.61-1.08-1.56-.6-2.88-1.94-3.42-3.53-.61-1.8-.31-3.75.74-5.32.63-.94-.89-1.81-1.51-.88h0Z"/>
      <path class="cls-2" d="m369.88,99.01c1.13,0,1.13-1.75,0-1.75s-1.13,1.75,0,1.75h0Z"/>
    </g>
  </g>
  <g id="Note">
    <g>
      <path class="cls-3" d="m413.31,161.06c1.4,1.21,2.3,2.99,2.3,4.99,0,3.63-2.95,6.58-6.58,6.58s-6.58-2.95-6.58-6.58c0-2.97,1.96-5.47,4.66-6.29l-9.22-1.94c1.03,1.16,1.66,2.69,1.66,4.36,0,3.63-2.95,6.58-6.58,6.58s-6.58-2.95-6.58-6.58c0-2.65,1.58-4.94,3.84-5.98l-9.08-1.91c.99,1.15,1.6,2.65,1.6,4.29,0,3.63-2.95,6.58-6.58,6.58s-6.58-2.95-6.58-6.58c0-2.62,1.54-4.88,3.75-5.93l-8.92-1.88c.95,1.14,1.53,2.61,1.53,4.22,0,3.63-2.95,6.58-6.58,6.58s-6.58-2.95-6.58-6.58c0-2.59,1.5-4.82,3.67-5.89l-8.78-1.85c.92,1.13,1.47,2.57,1.47,4.14,0,3.63-2.95,6.58-6.58,6.58s-6.58-2.95-6.58-6.58c0-2.55,1.46-4.76,3.58-5.85l-5.59-1.18c-1.02,1.1-5.47,15.97-10.19,33.3-6.78,24.92-14.09,54.94-12.51,56.52,1.27,1.27,23.27,7.73,46.59,13.93,26.16,6.96,36.21,9.48,38.26,8.1,2.39-1.61,21.09-87.95,22.02-94.12l-4.86-1.02Z"/>
      <path class="cls-4" d="m328.42,165.33c21.63,4.49,43.12,9.58,64.69,14.33,6.81,1.5,13.63,2.96,20.46,4.38,1.1.23,1.57-1.46.47-1.69-21.63-4.49-43.12-9.58-64.69-14.33-6.81-1.5-13.63-2.96-20.46-4.38-1.1-.23-1.57,1.46-.47,1.69h0Z"/>
      <path class="cls-4" d="m323.25,182.72c22.01,4.56,43.97,9.34,65.95,13.99,6.88,1.46,13.76,2.9,20.64,4.33,1.1.23,1.57-1.46.47-1.69-22.01-4.56-43.97-9.34-65.95-13.99-6.88-1.46-13.76-2.9-20.64-4.33-1.1-.23-1.57,1.46-.47,1.69h0Z"/>
      <path class="cls-4" d="m318.45,203.06c22.06,4.58,44.06,9.48,66.09,14.19,6.88,1.47,13.77,2.93,20.66,4.36,1.1.23,1.57-1.46.47-1.69-22.06-4.58-44.06-9.48-66.09-14.19-6.88-1.47-13.77-2.93-20.66-4.36-1.1-.23-1.57,1.46-.47,1.69h0Z"/>
      <path class="cls-4" d="m313.98,223.54c21.95,4.56,43.66,10.12,65.52,15.11,6.85,1.56,13.71,3.06,20.58,4.49,1.1.23,1.57-1.46.47-1.69-21.95-4.56-43.66-10.12-65.52-15.11-6.85-1.56-13.71-3.06-20.58-4.49-1.1-.23-1.57,1.46-.47,1.69h0Z"/>
    </g>
  </g>
  <g id="Pencil_Case" data-name="Pencil Case">
    <g>
      <path class="cls-2" d="m29.03,248.43s-14.37,13.71-15.03,26.59c-.66,12.87,29.27,119.73,49.76,129.24,20.49,9.51,33.67-2.27,34.77-10.05s-23.75-85.6-28.03-98.21c-4.28-12.61-15.95-57.9-41.47-47.58Z"/>
      <path class="cls-4" d="m34.1,266.38c-.38.1-1.65,8.64,1.69,22.23,5.82,23.72,18.49,59.41,22.96,68.03,7.03,13.55,24.22,39.86,24.22,39.86,0,0-9.15-23.12-14.87-42.53-5.72-19.42-19.47-59.62-23.15-68.8-6.31-15.76-10.85-18.78-10.85-18.78Z"/>
      <path class="cls-4" d="m38.36,260.63c3.48,2.28,6.72,4.89,9.71,7.78.81.78,2.05-.45,1.24-1.24-3.1-2.99-6.47-5.7-10.07-8.05-.95-.62-1.82.9-.88,1.51h0Z"/>
      <path class="cls-4" d="m37.82,350.55c5.04,11.05,11.86,21.26,20.31,30,.78.81,2.02-.43,1.24-1.24-8.34-8.64-15.05-18.73-20.03-29.64-.47-1.02-1.98-.13-1.51.88h0Z"/>
      <path class="cls-7" d="m34.75,269.68s-12.6-11.63-12.22-17.97c.38-6.34,2.72-6.46,6.15-6.17,3.43.29,9.21,24.04,6.07,24.14Z"/>
    </g>
  </g>
  <g id="Character_hands" data-name="Character hands">
    <g>
      <g>
        <path class="cls-6" d="m177.93,313.8c-1.06-.71-7.65-17.88-11.89-28.83-4.24-10.96-10.73-40.06-17.44-42.55-6.72-2.49-12.72.69-12.02,9.88.71,9.19,10.3,38.72,10.3,38.72,0,0-14.13-32.28-20.28-38.05-5.31-4.98-20.42.39-10.88,15.59,0,0-2.82-2.47-3.89,6.72-1.06,9.19,2.12,18.73,2.12,18.73,0,0-9.19-3.4-8.48,10.14.71,13.54,13.08,31.99,23.68,43.97,10.6,11.98,14.14,16.22,10.25,30.01-3.89,13.78-22.97,33.23-22.97,33.23l48.06,15.81s25.46-33.83,30.41-56.1c4.95-22.27,6.97-42.95,5.21-54.26-1.77-11.31,7.52-24.21,4.34-30.57-3.18-6.36-11.32-6.85-17.32.71-7.78,9.79-9.19,26.86-9.19,26.86Z"/>
        <path class="cls-4" d="m114.09,267.99c5.56,15.42,13.52,29.87,23.56,42.82.69.89,1.92-.36,1.24-1.24-9.85-12.7-17.66-26.94-23.11-42.05-.38-1.05-2.07-.6-1.69.47h0Z"/>
        <path class="cls-4" d="m111.12,292.83c3.24,13.8,9.62,26.2,18.22,37.42.68.88,2.2.01,1.51-.88-4.2-5.47-8.01-11.25-11.08-17.43-3.1-6.23-5.37-12.8-6.96-19.57-.26-1.1-1.95-.63-1.69.47h0Z"/>
        <path class="cls-4" d="m116.71,269.93c2.83-1.75,4.83-4.7,5.29-8.01.49-3.48-.76-7.03-3.23-9.51-.8-.8-2.03.44-1.24,1.24,2.08,2.09,3.17,5.11,2.74,8.04-.4,2.78-2.08,5.27-4.45,6.74-.96.59-.08,2.11.88,1.51h0Z"/>
        <path class="cls-4" d="m138.84,258.05c3.07-.64,5.82-2.63,7.34-5.38,1.69-3.05,1.73-6.73.32-9.89-.46-1.03-1.97-.14-1.51.88,1.18,2.63,1.03,5.81-.42,8.3-1.33,2.29-3.62,3.86-6.19,4.39-1.1.23-.64,1.92.47,1.69h0Z"/>
        <path class="cls-4" d="m199.2,282.08c-2.61,2.55-3.85,6.27-3.27,9.88.55,3.41,2.86,6.45,5.91,8.03,1,.52,1.89-.99.88-1.51-2.62-1.35-4.51-3.83-5.06-6.74-.57-3.05.58-6.27,2.78-8.41.81-.79-.43-2.03-1.24-1.24h0Z"/>
        <path class="cls-4" d="m175.08,307.98c2.47,4.6,4.76,9.3,6.86,14.08.45,1.03,1.96.14,1.51-.88-2.1-4.78-4.39-9.48-6.86-14.08-.53-.99-2.04-.11-1.51.88h0Z"/>
        <path class="cls-4" d="m111.96,283.97c1-.08,1.97-.34,2.83-.88.84-.53,1.54-1.25,2.15-2.02,1.46-1.85,2.06-4.13,1.71-6.46-.07-.47-.66-.73-1.08-.61-.5.14-.68.61-.61,1.08.26,1.7-.26,3.52-1.34,4.86-.97,1.2-2.09,2.16-3.67,2.29-.47.04-.87.37-.87.88,0,.44.4.91.87.88h0Z"/>
        <path class="cls-4" d="m139.39,275.41c2.69,8.13,6.65,15.78,11.76,22.65.66.89,2.18.02,1.51-.88-5.02-6.75-8.94-14.24-11.58-22.23-.35-1.06-2.04-.61-1.69.47h0Z"/>
      </g>
      <g>
        <path class="cls-2" d="m97.25,425.45s14.74-28.13,26.36-32.38c0,0-5.58-33.6-1.7-35.82,3.87-2.21,24.39-6.07,53.17-.53,28.78,5.53,26.57,13.84,26.57,24.35s-6.97,24.63-6.97,24.63l7.42,22.18c-59.36,4.48-104.85-2.44-104.85-2.44Z"/>
        <path class="cls-4" d="m122.76,394.48c18.73.16,37.75.98,55.71,6.77,5.15,1.66,10.15,3.73,14.96,6.21,1,.51,1.89-1,.88-1.51-17.03-8.76-35.98-11.86-54.93-12.79-5.54-.27-11.08-.38-16.62-.42-1.13,0-1.13,1.74,0,1.75h0Z"/>
        <path class="cls-4" d="m128.89,356.6c-1.62,12.23-.45,24.74,3.39,36.46.35,1.07,2.04.61,1.69-.47-3.8-11.59-4.93-23.9-3.32-36,.15-1.11-1.6-1.1-1.75,0h0Z"/>
        <path class="cls-4" d="m148.36,393.79c-.29-12.94-.58-25.88-.87-38.82-.03-1.12-1.78-1.13-1.75,0,.29,12.94.58,25.88.87,38.82.03,1.12,1.78,1.13,1.75,0h0Z"/>
        <path class="cls-4" d="m167.39,397.16c2.75-13.03,3.75-26.39,2.93-39.68-.07-1.12-1.82-1.13-1.75,0,.81,13.14-.15,26.34-2.87,39.22-.23,1.1,1.45,1.57,1.69.47h0Z"/>
        <path class="cls-4" d="m184.47,401.18c4.06-12.9,5.92-26.44,5.49-39.96-.04-1.12-1.79-1.13-1.75,0,.42,13.37-1.41,26.73-5.43,39.49-.34,1.08,1.35,1.54,1.69.47h0Z"/>
        <path class="cls-3" d="m104.71,412.88s37.21-.92,49.61,8.38c12.4,9.3,9.98,7.7,9.98,7.7l9-.36s-10.02-5.34-14.98-9.23-17.89-19.24-50.21-11.44l-3.4,4.95Z"/>
      </g>
    </g>
    <g>
      <path class="cls-6" d="m262.54,221.28l-25.85.61s-32.57,18.81-35.84,26.88c-3.97,9.79,9.28,13.03,9.28,13.03,0,0,.78,12.17,17.53,8.22,0,0-.39,8.74,11.15,6.23,11.53-2.52,24.26-14.29,24.26-14.29l11.03-23.21-11.56-17.47Z"/>
      <path class="cls-6" d="m300.03,259.67c-1.01-.34-26.32-59.33-48.84-67.85-18.75-7.1-63.53,18.28-58.7,29.25,4.26,9.67,15.58,3.02,15.58,3.02l27.73-13.17,24.16,26.53s-8.08,35.69,1.35,48.15c9.43,12.46,34.35,31.31,34.35,31.31l32.86-34.01-28.48-23.23Z"/>
      <g>
        <g>
          <path class="cls-7" d="m176.56,245.97l9.16-11.61c.13-.16.29-.29.47-.39,5.91-3.06,104.88-54.25,108.89-51.47,3.36,2.32,4.43,9.82,4.71,12.56.06.61-.26,1.18-.81,1.45-10.13,4.88-102.29,49.25-108.12,50.67-.07.02.07,0,0,0l-13.03,1.13c-1.27.11-2.05-1.35-1.26-2.34Z"/>
          <path class="cls-7" d="m295.08,181.63s6.83-3.67,8.87-3.33c2.04.34,7.3,10.36,5.27,12.4-2.04,2.04-9.42,4.59-9.42,4.59l-4.72-13.65Z"/>
          <path class="cls-4" d="m174.69,249.37c.07-.05.13-.11.2-.16-.19.14.04-.03.08-.06.14-.1.28-.2.42-.29.28-.19.58-.36.88-.53.15-.08.3-.16.46-.23.08-.04.15-.07.23-.11.04-.02.3-.15.08-.04.3-.15.64-.25.96-.35.44-.14.76-.62.61-1.08-.14-.44-.61-.76-1.08-.61-1.5.47-2.86,1.22-4.08,2.21-.36.29-.32.94,0,1.24.38.35.86.31,1.24,0h0Z"/>
        </g>
        <path class="cls-2" d="m188.76,237.84c27.79-13.83,56.1-26.57,84.11-39.92,7.85-3.74,15.67-7.53,23.46-11.41,1.01-.5.12-2.01-.88-1.51-27.79,13.83-56.1,26.57-84.11,39.92-7.85,3.74-15.67,7.53-23.46,11.41-1.01.5-.12,2.01.88,1.51h0Z"/>
        <path class="cls-2" d="m192.75,243.28c27.24-13.56,55-26.03,82.47-39.11,7.77-3.7,15.51-7.45,23.21-11.29,1.01-.5.12-2.01-.88-1.51-27.24,13.56-55,26.03-82.47,39.11-7.77,3.7-15.51,7.45-23.21,11.29-1.01.5-.12,2.01.88,1.51h0Z"/>
        <path class="cls-4" d="m185.5,235.16c2.95,3.07,4.7,7.18,4.85,11.44.04,1.12,1.79,1.13,1.75,0-.17-4.72-2.08-9.27-5.36-12.67-.78-.81-2.02.43-1.24,1.24h0Z"/>
        <path class="cls-4" d="m293.94,183.57c3.11,3.42,4.81,7.94,4.77,12.55,0,1.13,1.74,1.13,1.75,0,.04-5.08-1.87-10.04-5.28-13.79-.76-.84-1.99.41-1.24,1.24h0Z"/>
      </g>
      <path class="cls-6" d="m264.5,244.6c-4.68-2.36-17.67-8.25-25.07-10.61-7.41-2.36-24.57-10.23-27.94-.46-3.37,9.76,6.6,14.14,28.51,27.46,8.9,5.41,12.74,22.96,26.79,31.49,14.05,8.52,27.52-19.42,27.52-19.42l-29.81-28.45Z"/>
      <path class="cls-4" d="m210.44,232.29c-1.13,3.76-.04,7.78,2.22,10.9,2.38,3.29,5.91,5.48,9.54,7.18,5.71,2.67,13.09,4.33,16.97,9.69,2.26,3.12,4.03,6.55,6.3,9.67,2.71,3.73,5.99,7.12,10.13,9.26,6.09,3.15,13.05,3.12,19.61,1.65,1.1-.25.63-1.93-.47-1.69-5.71,1.29-11.85,1.47-17.28-.99-4.04-1.83-7.32-4.91-9.97-8.42-2.28-3.01-4.08-6.33-6.18-9.45-.77-1.14-1.59-2.3-2.61-3.22-2.81-2.53-6.39-4.1-9.83-5.54-4.29-1.8-8.85-3.44-12.4-6.55-3.36-2.95-5.68-7.51-4.33-12.01.32-1.08-1.36-1.54-1.69-.47h0Z"/>
      <path class="cls-4" d="m212.07,233.18c1.79-3.83,6.23-4.68,10.06-4.28,4.37.45,8.75,1.77,12.99,2.87,8.45,2.2,16.79,4.92,24.72,8.59,1.02.47,1.91-1.04.88-1.51-8.64-4-17.73-6.91-26.96-9.23-4.51-1.13-9.37-2.72-14.06-2.57-3.68.12-7.52,1.75-9.15,5.25-.47,1.01,1.03,1.9,1.51.88h0Z"/>
      <path class="cls-4" d="m211.44,233.56c3.5.29,6.76,2.07,10.33,1.84,3.3-.21,5.6-2.24,7.22-4.99.57-.97-.94-1.85-1.51-.88-.69,1.17-1.5,2.3-2.62,3.08-1.25.88-2.74,1.12-4.24,1.05-3.13-.16-6.05-1.59-9.18-1.85-1.12-.09-1.12,1.66,0,1.75h0Z"/>
      <path class="cls-4" d="m261.71,238.62c-3.76-6.1-10.37-9.49-14.84-14.96-.71-.87-1.94.37-1.24,1.24,4.37,5.34,10.9,8.66,14.57,14.6.59.96,2.1.08,1.51-.88h0Z"/>
      <path class="cls-4" d="m208.3,262.71c6.35-1.73,12.22-4.91,17.17-9.25.85-.74-.39-1.98-1.24-1.24-4.72,4.14-10.34,7.15-16.4,8.8-1.09.3-.62,1.98.47,1.69h0Z"/>
      <path class="cls-4" d="m219.19,271.21c8.49,0,16.74-2.98,23.3-8.36.87-.71-.37-1.95-1.24-1.24-6.19,5.08-14.06,7.85-22.07,7.84-1.13,0-1.13,1.75,0,1.75h0Z"/>
      <path class="cls-2" d="m275.73,321.61s-24.22-22.91-24.22-29.33,36.44-57.61,57.11-49.06l13.57,29.6s20.21-1.65,43.02,16.88c22.81,18.53,70.57,126.16,70.57,126.16-8.66,8.73-102.16,11.72-127.03,8.52,0,0-27.36-54.55-31.87-68.84-3.65-11.57-1.15-33.94-1.15-33.94Z"/>
      <path class="cls-4" d="m257.32,281.76c5.21,11.82,12.99,22.42,22.69,30.95.84.74,2.09-.49,1.24-1.24-9.6-8.44-17.25-18.9-22.41-30.59-.45-1.03-1.96-.14-1.51.88h0Z"/>
      <path class="cls-4" d="m269.65,267.01c7.91,9.45,15.11,19.48,21.54,30,.59.96,2.1.08,1.51-.88-6.51-10.64-13.81-20.79-21.81-30.35-.72-.86-1.96.38-1.24,1.24h0Z"/>
      <path class="cls-4" d="m286.23,250.62c8.91,9.01,16.01,19.73,20.78,31.48.42,1.03,2.11.58,1.69-.47-4.89-12.03-12.09-23.01-21.23-32.25-.79-.8-2.03.44-1.24,1.24h0Z"/>
      <path class="cls-4" d="m276.68,323.21c8.32-15.48,19.76-29.21,33.48-40.21,3.93-3.15,8.04-6.05,12.31-8.72.95-.6.08-2.11-.88-1.51-15.15,9.48-28.3,22.02-38.51,36.68-2.88,4.14-5.51,8.44-7.9,12.88-.53.99.98,1.88,1.51.88h0Z"/>
      <g>
        <path class="cls-3" d="m408.97,359.59c-1.79-.03-3.41-.33-4.74-1.05-9.99-5.37-20.93-8.79-30.91-14.17-7.09-3.82-13.71-8.64-21.33-11.25-16.94-5.8-35.41.25-52.28,6.26,8.87-6,17.09-12.94,24.5-20.68,10.81-11.28,20.14-25.53,22.02-40.66-2.42-1.05-4.71-1.89-6.87-2.56,5.05,21.53-19.18,42.25-35.32,51.11-3.39,1.86-6.99,3.47-9.89,6.03-2.9,2.56-5.06,6.37-4.48,10.19,1.04,6.79,9.83,9.56,16.48,7.84,6.65-1.72,12.21-6.27,18.68-8.58,15.52-5.56,47.75,2.18,61.15,11.79,8.92,6.39,22.38,20.81,35.19,30.51-3.66-7.64-7.8-16.11-12.19-24.79Z"/>
        <path class="cls-3" d="m359.98,425.32c3.02-7.66,6.9-24.67,2.44-34.87-6.57-15.04-56.96-14.83-76.79-14.01.76,1.5,1.49,3.4,2.28,4.94,10.27.27,27.85.51,36.99-.29,13.48-1.19,26.38,5.29,34.59,15.84,4.52,5.81-4.04,21.15-9.2,28.4h9.7Z"/>
      </g>
    </g>
  </g>
</svg>