<?xml version="1.0" encoding="UTF-8"?>
<svg xmlns="http://www.w3.org/2000/svg" viewBox="0 0 650 500">
  <defs>
    <style>
      .cls-1 {
        fill: #407bff;
      }

      .cls-1, .cls-2, .cls-3, .cls-4, .cls-5, .cls-6, .cls-7, .cls-8, .cls-9 {
        stroke-width: 0px;
      }

      .cls-10 {
        stroke-width: 1.61px;
      }

      .cls-10, .cls-11, .cls-12, .cls-13, .cls-14, .cls-15 {
        stroke: #272754;
        stroke-linecap: round;
        stroke-linejoin: round;
      }

      .cls-10, .cls-11, .cls-13, .cls-14, .cls-15 {
        fill: none;
      }

      .cls-16 {
        isolation: isolate;
      }

      .cls-2, .cls-7 {
        fill: #bdd5ff;
      }

      .cls-11, .cls-12 {
        stroke-width: 1.97px;
      }

      .cls-3 {
        fill: #ffb980;
      }

      .cls-4 {
        fill: #ffa25c;
      }

      .cls-5 {
        fill: #272754;
      }

      .cls-6, .cls-12 {
        fill: #fff;
      }

      .cls-13 {
        stroke-width: 1.63px;
      }

      .cls-14 {
        stroke-width: 2.22px;
      }

      .cls-15 {
        stroke-width: 1.56px;
      }

      .cls-7 {
        mix-blend-mode: multiply;
      }

      .cls-8 {
        fill: #272753;
      }

      .cls-9 {
        fill: #18183d;
      }
    </style>
  </defs>
  <g class="cls-16">
    <g id="OBJECTS">
      <g>
        <path class="cls-2" d="m31.41,385.15c4.51-.98,9.14-.57,13.67.09,4.02.6,8.03,1.41,12.09,1.68,3.94.28,7.88-.06,11.71-1.09,7.33-1.98,13.99-6.29,18.71-12.26,5.95-.78,11.95-.69,17.82.24-2.76.77-5.41,1.88-7.91,3.29-5.5,3.1-10.14,7.64-13.32,13.1-3.02,5.18-4.73,11.1-4.92,17.09,0,.25.25.47.49.4,3.08-.97,5.98-2.44,8.62-4.29,4.77-3.34,8.65-7.76,11.84-12.59,3.39-5.13,6.02-10.72,8.56-16.31.01-.02.02-.04.01-.05,7.92,1.69,15.52,4.91,22.3,9.5.68.61,1.37,1.22,2.06,1.82,3.43,2.94,7.02,5.68,10.76,8.21-3.06-.78-6.18-1.27-9.32-1.47-7.41-.47-14.91.65-21.85,3.33-6.91,2.68-13.22,6.8-18.42,12.07-.23.24-.08.7.27.69,4.56-.09,9.12-.19,13.68-.27,4.02-.08,8.06-.11,12.08-.3,3.91-.19,7.83-.59,11.59-1.72,5.78-1.73,11.27-5.39,13.8-11.02.1.03.19.05.28.08,7.68,4.97,15.93,9.04,24.56,12.12.97.35,1.41-1.19.45-1.54-7.59-2.7-14.88-6.2-21.75-10.4-.7-.43-1.4-.87-2.07-1.31.54-4.3,1.05-8.61,1.26-12.94.19-4.07.11-8.16-.48-12.21-.6-4.05-1.81-7.94-3.3-11.75-2.97-7.59-6.92-14.94-7.99-23.13-.06-.42-.65-.36-.77-.01-1.55,4.49-2.57,9.16-3.07,13.89-.88,8.44-.08,17.06,2.28,25.22,1.95,6.74,4.99,13.14,9,18.89-4.14-2.84-8.09-5.95-11.83-9.31-.04-.05-.08-.1-.14-.15l-.09-.05c-5.51-4.97-10.54-10.46-15-16.39-1.63-2.17-3.17-4.39-4.65-6.67,1.98-3.36,3.64-6.9,4.94-10.57,2.56-7.28,3.78-15.04,3.6-22.76-.18-7.71-1.77-15.36-4.76-22.47-.11-.26-.58-.28-.7,0-1.73,3.91-3.16,7.95-4.28,12.07-1.98,7.29-2.98,14.85-3,22.41-.01,5.82.57,11.63,1.73,17.32-2.49-4.22-4.72-8.58-6.66-13.08-.89-3.74-1.54-7.54-2.16-11.34-1.38-8.33-2.72-16.84-6.46-24.51-3.07-6.29-7.9-12-14.39-14.91-.31-.15-.67.07-.59.44.86,4.42,1.73,8.85,2.75,13.24,1.72,7.39,3.92,14.71,7.27,21.54,3.08,6.29,7.15,12.15,12.39,16.82.86,1.97,1.77,3.91,2.74,5.83,1.22,2.4,2.52,4.77,3.9,7.09-1.87-1.47-3.81-2.82-5.84-4.05-5.99-3.63-12.61-6.23-19.46-7.66-6.85-1.43-13.91-1.69-20.84-.71-.37.05-.35.55-.11.73l11.59,8.67c2.93,2.19,5.78,4.46,9.08,6.09,2.92,1.45,6.03,2.48,9.23,3.08,6.39,1.19,13.08.69,19.15-1.66,4.19,6.35,8.99,12.31,14.32,17.74-1.75-.93-3.53-1.79-5.36-2.55-4.07-1.71-8.3-2.96-12.59-3.79-6.84-1.3-13.85-1.48-20.75-.55-3.89-1.79-8.02-3.05-12.25-3.73-8.01-1.29-16.3-.56-23.92,2.24-7.71,2.83-14.65,7.64-19.97,13.89-.25.29-.03.77.37.67Z"/>
        <path class="cls-2" d="m619.23,431.24c-4.51-.98-9.14-.57-13.67.09-4.02.6-8.03,1.41-12.09,1.68-3.94.28-7.88-.06-11.71-1.09-7.33-1.98-13.99-6.29-18.71-12.26-5.95-.78-11.95-.69-17.82.24,2.76.77,5.41,1.88,7.91,3.29,5.5,3.1,10.14,7.64,13.32,13.1,3.02,5.18,4.73,11.1,4.92,17.09,0,.25-.25.47-.49.4-3.08-.97-5.98-2.44-8.62-4.29-4.77-3.34-8.65-7.76-11.84-12.59-3.39-5.13-6.02-10.72-8.56-16.31-.01-.02-.02-.04-.01-.05-7.92,1.69-15.52,4.91-22.3,9.5-.68.61-1.37,1.22-2.06,1.82-3.43,2.94-7.02,5.68-10.76,8.21,3.06-.78,6.18-1.27,9.32-1.47,7.41-.47,14.91.65,21.85,3.33,6.91,2.68,13.22,6.8,18.42,12.07.23.24.08.7-.27.69-4.56-.09-9.12-.19-13.68-.27-4.02-.08-8.06-.11-12.08-.3-3.91-.19-7.83-.59-11.59-1.72-5.78-1.73-11.27-5.39-13.8-11.02-.1.03-.19.05-.28.08-7.68,4.97-15.93,9.04-24.56,12.12-.97.35-1.41-1.19-.45-1.54,7.59-2.7,14.88-6.2,21.75-10.4.7-.43,1.4-.87,2.07-1.31-.54-4.3-1.05-8.61-1.26-12.94-.19-4.07-.11-8.16.48-12.21.6-4.05,1.81-7.94,3.3-11.75,2.97-7.59,6.92-14.94,7.99-23.13.06-.42.65-.36.77-.01,1.55,4.49,2.57,9.16,3.07,13.89.88,8.44.08,17.06-2.28,25.22-1.95,6.74-4.99,13.14-9,18.89,4.14-2.84,8.09-5.95,11.83-9.31.04-.05.08-.1.14-.15l.09-.05c5.51-4.97,10.54-10.46,15-16.39,1.63-2.17,3.17-4.39,4.65-6.67-1.98-3.36-3.64-6.9-4.94-10.57-2.56-7.28-3.78-15.04-3.6-22.76.18-7.71,1.77-15.36,4.76-22.47.11-.26.58-.28.7,0,1.73,3.91,3.16,7.95,4.28,12.07,1.98,7.29,2.98,14.85,3,22.41.01,5.82-.57,11.63-1.73,17.32,2.49-4.22,4.72-8.58,6.66-13.08.89-3.74,1.54-7.54,2.16-11.34,1.38-8.33,2.72-16.84,6.46-24.51,3.07-6.29,7.9-12,14.39-14.91.31-.15.67.07.59.44-.86,4.42-1.73,8.85-2.75,13.24-1.72,7.39-3.92,14.71-7.27,21.54-3.08,6.29-7.15,12.15-12.39,16.82-.86,1.97-1.77,3.91-2.74,5.83-1.22,2.4-2.52,4.77-3.9,7.09,1.87-1.47,3.81-2.82,5.84-4.05,5.99-3.63,12.61-6.23,19.46-7.66,6.85-1.43,13.91-1.69,20.84-.71.37.05.35.55.11.73l-11.59,8.67c-2.93,2.19-5.78,4.46-9.08,6.09-2.92,1.45-6.03,2.48-9.23,3.08-6.39,1.19-13.08.69-19.15-1.66-4.19,6.35-8.99,12.31-14.32,17.74,1.75-.93,3.53-1.79,5.36-2.55,4.07-1.71,8.3-2.96,12.59-3.79,6.84-1.3,13.85-1.48,20.75-.55,3.89-1.79,8.02-3.05,12.25-3.73,8.01-1.29,16.3-.56,23.92,2.24,7.71,2.83,14.65,7.64,19.97,13.89.25.29.03.77-.37.67Z"/>
        <path class="cls-2" d="m311.88,469.81c4.51-.98,9.14-.57,13.67.09,4.02.6,8.03,1.41,12.09,1.68,3.94.28,7.88-.06,11.71-1.09,7.33-1.98,13.99-6.29,18.71-12.26,5.95-.78,11.95-.69,17.82.24-2.76.77-5.41,1.88-7.91,3.29-5.5,3.1-10.14,7.64-13.32,13.1-3.02,5.18-4.73,11.1-4.92,17.09,0,.25.25.47.49.4,3.08-.97,5.98-2.44,8.62-4.29,4.77-3.34,8.65-7.76,11.84-12.59,3.39-5.13,6.02-10.72,8.56-16.31.01-.02.02-.04.01-.05,7.92,1.69,15.52,4.91,22.3,9.5.68.61,1.37,1.22,2.06,1.82,3.43,2.94,7.02,5.68,10.76,8.21-3.06-.78-6.18-1.27-9.32-1.47-7.41-.47-14.91.65-21.85,3.33-6.91,2.68-13.22,6.8-18.42,12.07-.23.24-.08.7.27.69,4.56-.09,9.12-.19,13.68-.27,4.02-.08,8.06-.11,12.08-.3,3.91-.19,7.83-.59,11.59-1.72,5.78-1.73,11.27-5.39,13.8-11.02.1.03.19.05.28.08,7.68,4.97,15.93,9.04,24.56,12.12.97.35,1.41-1.19.45-1.54-7.59-2.7-14.88-6.2-21.75-10.4-.7-.43-1.4-.87-2.07-1.31.54-4.3,1.05-8.61,1.26-12.94.19-4.07.11-8.16-.48-12.21-.6-4.05-1.81-7.94-3.3-11.75-2.97-7.59-6.92-14.94-7.99-23.13-.06-.42-.65-.36-.77-.01-1.55,4.49-2.57,9.16-3.07,13.89-.88,8.44-.08,17.06,2.28,25.22,1.95,6.74,4.99,13.14,9,18.89-4.14-2.84-8.09-5.95-11.83-9.31-.04-.05-.08-.1-.14-.15l-.09-.05c-5.51-4.97-10.54-10.46-15-16.39-1.63-2.17-3.17-4.39-4.65-6.67,1.98-3.36,3.64-6.9,4.94-10.57,2.56-7.28,3.78-15.04,3.6-22.76-.18-7.71-1.77-15.36-4.76-22.47-.11-.26-.58-.28-.7,0-1.73,3.91-3.16,7.95-4.28,12.07-1.98,7.29-2.98,14.85-3,22.41-.01,5.82.57,11.63,1.73,17.32-2.49-4.22-4.72-8.58-6.66-13.08-.89-3.74-1.54-7.54-2.16-11.34-1.38-8.33-2.72-16.84-6.46-24.51-3.07-6.29-7.9-12-14.39-14.91-.31-.15-.67.07-.59.44.86,4.42,1.73,8.85,2.75,13.24,1.72,7.39,3.92,14.71,7.27,21.54,3.08,6.29,7.15,12.15,12.39,16.82.86,1.97,1.77,3.91,2.74,5.83,1.22,2.4,2.52,4.77,3.9,7.09-1.87-1.47-3.81-2.82-5.84-4.05-5.99-3.63-12.61-6.23-19.46-7.66-6.85-1.43-13.91-1.69-20.84-.71-.37.05-.35.55-.11.73l11.59,8.67c2.93,2.19,5.78,4.46,9.08,6.09,2.92,1.45,6.03,2.48,9.23,3.08,6.39,1.19,13.08.69,19.15-1.66,4.19,6.35,8.99,12.31,14.32,17.74-1.75-.93-3.53-1.79-5.36-2.55-4.07-1.71-8.3-2.96-12.59-3.79-6.84-1.3-13.85-1.48-20.75-.55-3.89-1.79-8.02-3.05-12.25-3.73-8.01-1.29-16.3-.56-23.92,2.24-7.71,2.83-14.65,7.64-19.97,13.89-.25.29-.03.77.37.67Z"/>
      </g>
      <g>
        <path class="cls-2" d="m444.7,187.4l-41.11-18.27c-9.24,5.03-20.17,7.95-31.89,7.95-33.14,0-60.01-23.27-60.01-51.98s26.87-51.97,60.01-51.97,60.01,23.26,60.01,51.97c0,12.5-5.09,23.96-13.58,32.93l26.56,29.37Z"/>
        <path class="cls-7" d="m228.92,169.51l41.11-18.27c9.24,5.03,20.17,7.95,31.89,7.95,33.14,0,60.01-23.27,60.01-51.98s-26.87-51.97-60.01-51.97c-33.14,0-60.01,23.26-60.01,51.97,0,12.5,5.09,23.96,13.58,32.93l-26.56,29.37Z"/>
      </g>
      <g>
        <g>
          <path class="cls-5" d="m252.07,430.1l-55.83,15.07-20.35,54.82h-81.93l18.78-109.64s28.72,32.09,138.24,15.35l1.09,24.39Z"/>
          <polygon class="cls-9" points="255.22 500 175.89 500 196.24 445.18 252.07 430.1 255.22 500"/>
          <path class="cls-1" d="m248.03,340.16l2.95,65.55c-109.52,16.74-138.24-15.35-138.24-15.35l4-23.34,7.99-46.62s-30.28-84.03-22.07-109.1c.03-.1.06-.2.11-.31.03-.1.06-.18.1-.28,8.9-24.29,47.27-37.77,47.27-37.77,0,0,16.32,29.49,35.78,28.6,13.99-.64,12.39-12.19,12.39-12.19l-.45-8.73s29.71,2.42,42.76,23.02c13.05,20.6,37.6,136.51,37.6,136.51h-30.19Z"/>
          <line class="cls-14" x1="226.47" y1="236.65" x2="233.83" y2="269.66"/>
        </g>
        <g>
          <path class="cls-2" d="m332.71,348.45c-1.37.77-2.9,1.24-4.48,1.32,1.64,2.41,2.26,5.5,1.42,8.53-.76,2.74-2.55,4.9-4.85,6.22-2.3,1.29-5.08,1.73-7.82.97l-21.53-5.95-4.67,27.76c-.37,2.15-.91,4.29-1.77,6.3-2.57,5.95-6.34,8.69-10.03,9.78-5.6,1.66-10.83-3.66-9.27-9.29l2.04-7.38c1.81-6.57,1.14-13.56-1.91-19.66l-1.34-2.66c-2.38-4.78-6.13-8.75-10.74-11.43l-8.73-6.25-5.54-3.96-18.79-13.44,13.73-49.71,12.01.72,27.42,1.69c10.59.65,21.06,2.4,31.28,5.22l21,5.8c4.88,1.35,8.37,5.93,7.88,10.97-.33,3.56-2.39,6.42-5.18,8.01-.02.01-.06.03-.08.04,4.88,1.87,7.67,7.23,6.25,12.36-.75,2.73-2.55,4.89-4.84,6.2-.25.14-.5.27-.76.39,3.54,2.4,5.34,6.89,4.14,11.25-.75,2.73-2.55,4.9-4.84,6.2Z"/>
          <polygon class="cls-5" points="235.69 347.53 203.25 338.57 223.1 266.7 248.04 273.59 235.69 347.53"/>
        </g>
        <g>
          <path class="cls-3" d="m229.04,90v49.98c0,17.56-14.14,31.97-31.59,32.43l.41,8.23.45,8.73s1.6,11.55-12.39,12.19c-19.47.89-35.78-28.6-35.78-28.6l11.9-34.01c-3.14-.25-6.01-2.13-7.91-4.65-1.9-2.5-2.91-5.61-3.33-8.73-.38-2.8-.3-5.74.7-8.36.14-.39.31-.76.49-1.14,1.45-2.9,4.37-5.19,7.61-5.24,2.72-.05,5.43,1.78,6.27,4.29,3.01-8.19,6.04-16.37,9.06-24.55,12.89,2.19,25.96,4.29,38.95,2.93,5.13-.53,10.3-1.68,15.17-3.5Z"/>
          <polygon class="cls-4" points="213.27 118.02 204.75 144.18 217.16 144.01 213.27 118.02"/>
          <path class="cls-5" d="m251.86,69.89c-.5,2.24-1.74,4.24-3.13,6.07-4.98,6.53-11.97,11.14-19.69,14.03-4.87,1.82-10.04,2.97-15.17,3.5-13,1.36-26.06-.74-38.95-2.93-3.02,8.18-6.05,16.36-9.06,24.55-.84-2.5-3.55-4.34-6.27-4.29-3.24.05-6.15,2.34-7.61,5.24-.18.37-.35.74-.49,1.14-1.22-4.9-2.44-9.8-3.66-14.7-.91-3.68-1.84-7.4-1.88-11.2-.05-3.8.87-7.72,3.27-10.66,2.82-3.45,7.64-5.11,12-4.23-.92-4.59,2.39-9.24,6.59-11.36,4.23-2.14,9.16-2.33,13.9-2.48,8.82-.27,17.64-.54,26.46-.81,10.87-.34,21.74-.67,32.61-1,3.48-.11,7.46-.01,9.73,2.63,1.5,1.74,1.85,4.25,1.36,6.5Z"/>
          <path class="cls-5" d="m197.45,172.4l.41,8.23h0c-16.88.07-25.45-19.11-25.45-19.11,2.97,3.33,6.63,6.06,10.74,7.95s8.66,2.94,13.45,2.94c.29,0,.56,0,.85-.01"/>
          <polyline class="cls-13" points="213.27 118.02 217.16 144.01 204.75 144.18"/>
          <path class="cls-15" d="m153.57,122.17c.11-1.4.62-2.8,1.61-3.81s2.47-1.56,3.84-1.24c1.75.41,2.92,2.09,3.54,3.78.98,2.66.99,5.66.04,8.32-.4,1.13-1.07,2.29-2.2,2.69-1.19.43-2.57-.16-3.35-1.15s-1.06-2.29-1.12-3.55c-.04-.86.09-1.85.79-2.35.72-.51,1.79-.23,2.39.42s.81,1.57.87,2.45"/>
          <ellipse class="cls-5" cx="194.72" cy="117.39" rx="5.53" ry="4.64" transform="translate(42.5 286.29) rotate(-79.06)"/>
          <ellipse class="cls-5" cx="220.73" cy="119.05" rx="5.53" ry="4.64" transform="translate(61.95 313.16) rotate(-79.06)"/>
          <path class="cls-5" d="m198.37,105.05c-2.48-.19-4.96-.07-7.4.41-3.43.68-2.66,6.09.79,5.4,1.98-.39,3.93-.55,5.94-.4,3.49.27,4.18-5.15.67-5.41Z"/>
          <path class="cls-5" d="m220.06,106.29c2.48.12,4.93.53,7.29,1.32,3.32,1.1,1.9,6.37-1.45,5.26-1.91-.63-3.83-1.03-5.84-1.12-3.5-.17-3.52-5.62,0-5.45Z"/>
          <ellipse class="cls-6" cx="192.64" cy="146.89" rx="6.99" ry="4.98" transform="translate(-43.46 201.12) rotate(-50.26)"/>
          <circle class="cls-4" cx="179.24" cy="136.42" r="8.95"/>
        </g>
        <g>
          <path class="cls-1" d="m226.47,346.06l-4.42,36.27s-79.63,3.98-103.52-13.72c-20.49-15.18-23.91-113.36-17.05-152.87,3.15-18.15,23.51-27.74,39.31-18.28.1.06.19.12.29.17,12.75,7.79,19.95,22.15,19.35,37.07l-3.85,93.66,69.9,17.69Z"/>
          <path class="cls-3" d="m226.14,348.75l-3.81,31.26s35.25,2.25,48.22-1.36,18.58-11.13,17.4-13.27c0,0,8.7-7.37,6.78-11.5,0,0,1.55-3.62-1.18-5.13,0,0,5.27-5.75,1.18-6.67s-31.81,7.96-39.59,7c0,0,19.73-15.05,18.11-18.55s-25.23,9.63-25.23,9.63l-21.89,8.58Z"/>
          <path class="cls-14" d="m160.42,234.71l-3.85,93.66,69.9,17.69-4.42,36.27s-79.63,3.98-103.52-13.72c-2.56-1.9-4.86-5.09-6.9-9.31"/>
          <path class="cls-14" d="m293.65,348.51c-8.78,4.36-17.97,7.91-27.4,10.59"/>
          <path class="cls-14" d="m294.62,354.13c-8.28,6.13-17.9,10.44-27.99,12.51"/>
          <path class="cls-14" d="m287.88,365.87c-6.98,3.48-14.47,5.94-22.16,7.26"/>
        </g>
      </g>
      <g>
        <g>
          <path class="cls-1" d="m533.57,379.23c4.68,7.33,8.75,14.95,12.28,22.62-63.54,16.04-103.55,5.64-116.88.91,4.58-34.95,9.21-63.33,9.21-63.33l-37.92-2.76s25.31-89.86,33.26-99.3c7.1-8.4,38.93-17.08,43.81-17.93l-.53,6.63s-3.15,22.36,13.04,22.22c16.18-.15,33.1-31.29,33.1-31.29,13.04,5.15,29.82,15.83,29.82,15.83l-19.18,146.42Z"/>
          <path class="cls-5" d="m569.12,500h-76.45l-15.34-52.26-51.43-20.24c.99-8.41,2.03-16.75,3.08-24.74,13.33,4.73,53.34,15.13,116.88-.91,22.04,47.88,23.26,98.15,23.26,98.15Z"/>
          <path class="cls-9" d="m492.66,500h-72.62c.33-19.9,2.82-46.59,5.86-72.5l51.43,20.24,15.34,52.26Z"/>
          <line class="cls-14" x1="455.05" y1="255.77" x2="443.61" y2="285.11"/>
        </g>
        <g>
          <g>
            <path class="cls-12" d="m442.26,300.97l-7.05,57.73-13.52,1.19-30.86,2.68c-11.92,1.03-23.9.83-35.76-.62l-24.38-2.98c-5.67-.69-10.32-5.22-10.62-10.92-.22-4.02,1.6-7.56,4.44-9.79.02-.01.06-.04.08-.06-5.76-1.27-9.75-6.78-9.02-12.75.38-3.17,2.03-5.88,4.37-7.72.25-.2.5-.38.78-.56-4.35-2.1-7.11-6.8-6.49-11.86.38-3.16,2.03-5.89,4.37-7.72,1.39-1.09,3.03-1.87,4.78-2.22-2.23-2.42-3.44-5.77-3.01-9.28.39-3.19,2.04-5.9,4.37-7.74,2.36-1.83,5.39-2.77,8.57-2.38l25,3.05.59-31.75c.05-2.46.3-4.93.93-7.32,1.88-7.07,5.63-10.75,9.56-12.58,2.2-1.02,4.49-.98,6.48-.2,3.41,1.34,5.91,4.89,5.41,9.02l-1.05,8.57c-.93,7.63.99,15.32,5.4,21.62l1.94,2.74c3.45,4.93,8.29,8.73,13.88,10.96l10.78,5.52,6.83,3.5,23.2,11.87Z"/>
            <polygon class="cls-5" points="426.96 282.48 464.64 287.08 454.45 370.54 425.49 367 426.96 282.48"/>
            <line class="cls-12" x1="358.31" y1="279.02" x2="371.54" y2="280.62"/>
            <line class="cls-11" x1="323.38" y1="295.37" x2="336.44" y2="296.88"/>
            <line class="cls-11" x1="320.72" y1="317.17" x2="334.08" y2="318.29"/>
            <line class="cls-11" x1="324.51" y1="338.26" x2="334.22" y2="338.72"/>
          </g>
          <path class="cls-1" d="m430.32,350.63l1.6,30.53s87.25,5.24,101.66-1.93c14.41-7.17,54.07-125.21,19.18-146.42-36.4-22.13-47.67,111.72-47.67,111.72l-74.76,6.09Z"/>
          <path class="cls-3" d="m430.71,358.08l-18.28-7.15s-16.76-10.62-22.51-8.31c-5.75,2.31,13.17,14.99,13.17,14.99,0,0-29.64.29-38.14-1.47s0,7.77,0,7.77c0,0-5.35,1.82-2.87,5.41s4.94,3.34,4.94,3.34c0,0-5.15.79-4.94,3.24s7.69,4.47,14.86,5.6c0,0-6.88.39-6.59,2.65s12.53,8.16,61.63-3.93l-1.28-22.14Z"/>
          <path class="cls-14" d="m365.59,364.18c8.57,1.91,17.37,2.75,26.15,2.5"/>
          <path class="cls-14" d="m366.87,372.9c7.74,1.33,15.62,1.83,23.46,1.48"/>
          <path class="cls-14" d="m376.11,381.78c5.43.62,10.92.7,16.37.22"/>
          <path class="cls-14" d="m515.57,276.27l-10.49,68.27-74.76,6.09,1.6,30.53s87.25,5.24,101.66-1.93c1.47-.73,3.25-2.69,5.24-5.65"/>
        </g>
        <g>
          <path class="cls-3" d="m522.93,216.99s-16.92,31.15-33.1,31.29c-16.19.14-13.04-22.22-13.04-22.22l.53-6.63.81-10.11c-13.87-1.41-25.31-12.55-26.58-26.91l-3.03-34,.06-.67c.76.36,1.54.69,2.34.95,6.07,2.03,12.74,1.27,18.91-.41,10.83-2.96,20.87-8.72,28.9-16.59,2.41,8.72,4.82,17.43,7.22,26.15,1.26-1.94,3.55-3.26,5.9-3.32,3.35-.08,6.51,2.07,8.18,4.98.45.77.79,1.59,1.05,2.44.71,2.33.76,4.88.36,7.3-.94,5.64-4.4,10.81-9.22,13.88,1.51,4.76,3,9.52,4.51,14.27,2.06,6.55,4.13,13.08,6.2,19.61Z"/>
          <path class="cls-5" d="m521.09,161.93c-.27-.85-.6-1.67-1.05-2.44-1.67-2.91-4.83-5.06-8.18-4.98-2.34.06-4.64,1.38-5.9,3.32-2.41-8.72-4.82-17.43-7.22-26.15-8.03,7.87-18.07,13.63-28.9,16.59-6.17,1.69-12.85,2.44-18.91.41-.81-.27-1.58-.59-2.34-.95-7.72-3.76-12.93-12.4-12.34-21,.23-3.36,1.57-7.02,4.61-8.47,2.1-1,4.54-.72,6.85-.72,15.22.01,28.47-12.27,43.69-11.97,6.21.13,12.09,2.48,17.04,6.24,4.86,3.66,8.78,8.67,11.24,14.24,4.93,11.16,4.56,24.08,1.41,35.88Z"/>
          <path class="cls-5" d="m549.22,169.31c4.99,5.65,6.64,14.05,4.19,21.16-2.46,7.13-8.92,12.72-16.33,14.11-7.42,1.4-15.47-1.46-20.35-7.2-1.51-4.75-3-9.51-4.51-14.27,4.82-3.07,8.27-8.23,9.22-13.88.4-2.42.35-4.96-.36-7.3,3.15-11.8,3.52-24.72-1.41-35.88-2.46-5.57-6.39-10.58-11.24-14.24,2.54-4.91,7.74-8.38,13.28-8.74,5.81-.38,11.73,2.68,14.79,7.66,3.65,5.95,3.09,13.55,5.44,20.11,1.67,4.63,4.71,8.59,7.48,12.67,2.76,4.06,5.35,8.48,5.85,13.37.51,4.89-1.58,10.35-6.05,12.42Z"/>
          <path class="cls-5" d="m478.13,209.32c.99.11,1.99.16,3,.16.87,0,1.75-.04,2.63-.12,8.83-.8,16.42-5.41,21.31-12.07,0,0-6.7,19.12-27.61,20.35l.66-8.32"/>
          <path class="cls-5" d="m482.76,152.72c2.56-.07,5.11.18,7.6.8,3.49.88,2.43,6.41-1.09,5.52-2.01-.51-4.02-.77-6.09-.71-3.61.09-4.04-5.51-.41-5.61Z"/>
          <path class="cls-5" d="m458.74,152.97c-2.56,0-5.11.3-7.58.99-3.47.96-2.28,6.46,1.22,5.49,2-.56,4-.86,6.07-.86,3.61,0,3.91-5.61.28-5.62Z"/>
          <circle class="cls-4" cx="496.37" cy="180" r="8.41"/>
          <path class="cls-6" d="m472.98,194.39c1.87,3.99,7,5.52,11.45,3.43,4.45-2.09,6.54-7.02,4.67-11-1.87-3.99-4.9-.09-9.35,2s-8.64,1.58-6.77,5.57Z"/>
          <polygon class="cls-4" points="474.69 185.64 464.66 185.39 468.93 159.53 474.69 185.64"/>
          <polyline class="cls-10" points="468.76 160.98 464.66 185.39 473.21 185.64"/>
          <path class="cls-10" d="m519.24,164.83c-.12-1.45-.64-2.89-1.66-3.93s-2.55-1.61-3.96-1.28c-1.81.43-3.01,2.15-3.65,3.9-1.01,2.74-1.02,5.83-.04,8.58.41,1.16,1.1,2.36,2.27,2.77,1.22.44,2.64-.17,3.45-1.18s1.1-2.36,1.15-3.66c.04-.89-.09-1.91-.82-2.42-.74-.52-1.85-.24-2.46.43s-.84,1.62-.89,2.52"/>
          <path class="cls-10" d="m451.5,164.62c1.48,1.3,3.53,1.92,5.49,1.68s3.79-1.35,4.91-2.97"/>
          <path class="cls-10" d="m480.82,163.67c1.48,1.3,3.53,1.92,5.49,1.68s3.79-1.35,4.91-2.97"/>
        </g>
      </g>
      <g>
        <path class="cls-8" d="m302.08,226.19c-4.94,2.58-5.78,9.53-5.89,10.95-.12-1.42-.95-8.37-5.91-10.95,4.95-2.58,5.78-9.54,5.91-10.96.11,1.42.95,8.38,5.89,10.96Z"/>
        <path class="cls-8" d="m102.14,146.75c-4.94,2.58-5.78,9.53-5.89,10.95-.12-1.42-.95-8.37-5.91-10.95,4.95-2.58,5.78-9.54,5.91-10.96.11,1.42.95,8.38,5.89,10.96Z"/>
        <path class="cls-8" d="m590.83,220.9c-4.94,2.58-5.78,9.53-5.89,10.95-.12-1.42-.95-8.37-5.91-10.95,4.95-2.58,5.78-9.54,5.91-10.96.11,1.42.95,8.38,5.89,10.96Z"/>
        <path class="cls-8" d="m561.91,220.06c-2.16,0-2.17,3.36,0,3.36s2.17-3.36,0-3.36Z"/>
        <path class="cls-8" d="m584.92,201.57c-2.16,0-2.17,3.36,0,3.36,2.16,0,2.17-3.36,0-3.36Z"/>
        <path class="cls-8" d="m108.03,134.5c-2.16,0-2.17,3.36,0,3.36s2.17-3.36,0-3.36Z"/>
        <path class="cls-8" d="m118.62,160.67c-2.16,0-2.17,3.36,0,3.36s2.17-3.36,0-3.36Z"/>
        <path class="cls-8" d="m128.59,140.11c-2.16,0-2.17,3.36,0,3.36s2.17-3.36,0-3.36Z"/>
        <path class="cls-8" d="m277.8,232.89c-2.16,0-2.17,3.36,0,3.36s2.17-3.36,0-3.36Z"/>
        <path class="cls-8" d="m291.5,250.33c-2.16,0-2.17,3.36,0,3.36s2.17-3.36,0-3.36Z"/>
        <path class="cls-8" d="m74.26,448.02c-4.94,2.58-5.78,9.53-5.89,10.95-.12-1.42-.95-8.37-5.91-10.95,4.95-2.58,5.78-9.54,5.91-10.96.11,1.42.95,8.38,5.89,10.96Z"/>
        <path class="cls-8" d="m78.56,466.89c-2.16,0-2.17,3.36,0,3.36s2.17-3.36,0-3.36Z"/>
        <path class="cls-8" d="m63.69,472.16c-2.16,0-2.17,3.36,0,3.36s2.17-3.36,0-3.36Z"/>
        <path class="cls-8" d="m614.63,239.05c-4.94,2.58-5.78,9.53-5.89,10.95-.12-1.42-.95-8.37-5.91-10.95,4.95-2.58,5.78-9.54,5.91-10.96.11,1.42.95,8.38,5.89,10.96Z"/>
        <path class="cls-8" d="m591.35,246.6c-2.16,0-2.17,3.36,0,3.36s2.17-3.36,0-3.36Z"/>
        <path class="cls-8" d="m581.68,263.22c-2.16,0-2.17,3.36,0,3.36s2.17-3.36,0-3.36Z"/>
      </g>
    </g>
  </g>
</svg>