<?xml version="1.0" encoding="UTF-8"?>
<svg xmlns="http://www.w3.org/2000/svg" viewBox="0 0 441.74 255.5">
  <defs>
    <style>
      .cls-1, .cls-2 {
        opacity: .2;
      }

      .cls-2, .cls-3, .cls-4, .cls-5, .cls-6, .cls-7 {
        stroke-width: 0px;
      }

      .cls-2, .cls-5 {
        fill: #421b36;
      }

      .cls-3 {
        fill: #8380ff;
      }

      .cls-4 {
        fill: #fff;
      }

      .cls-8 {
        opacity: .3;
      }

      .cls-6 {
        fill: #ffae7a;
      }

      .cls-7 {
        fill: #a0d2f4;
      }
    </style>
  </defs>
  <g id="Speech_Bubble" data-name="Speech Bubble">
    <g>
      <path class="cls-7" d="m156.29,11.05C150.52,3.72,140.61-.34,130.92.02h.07c-7.05-.18-16.13,1.96-20.97,6.82-4.84,4.85-7.55,11.44-7.88,18.06-.49,9.73,4.5,19.54,12.7,25.31-1.51,2.66-3.7,4.93-6.33,6.5,4.31.76,8.91-.52,12.28-3.29.11.04.21.09.31.13,11.86,4.52,26.76.73,34.66-8.82,7.91-9.55,8.13-24.02.53-33.69Z"/>
      <path class="cls-3" d="m153.84,4.39c-1.7,1.28-23.95,29.74-23.95,29.74,0,0-12.49-18.59-12.74-19.15,0,0-6.07,2.7-6.57,4.7-.5,1.99,13.66,24.87,19.06,24.25s31.25-34.3,31.25-34.3l-7.05-5.24Z"/>
    </g>
  </g>
  <g id="Lines">
    <path class="cls-5" d="m197.39,50.79c-2.21-6.81-4.43-13.62-6.64-20.43-.39.26-.78.53-1.17.79,9.44,5.16,18.87,10.31,28.31,15.47.42.23.98.11,1.14-.39,4.47-13.44,8.93-26.89,13.4-40.33-.49-.03-.98-.06-1.46-.08,3.31,14.37,6.61,28.73,9.92,43.1.13.58.8.76,1.25.41,9.33-7.22,18.65-14.44,27.98-21.65-.41-.27-.82-.54-1.23-.81-2.5,8.68-4.99,17.35-7.49,26.03-.19.67.45,1.17,1.07.92,5.51-2.21,11.01-4.42,16.52-6.62.91-.36.21-1.72-.69-1.36-5.51,2.21-11.01,4.42-16.52,6.62.36.31.71.61,1.07.92,2.5-8.68,4.99-17.35,7.49-26.03.22-.75-.63-1.28-1.23-.81-9.33,7.22-18.65,14.44-27.98,21.65.42.14.83.27,1.25.41-3.31-14.37-6.61-28.73-9.92-43.1-.17-.72-1.22-.81-1.46-.08-4.47,13.44-8.93,26.89-13.4,40.33.38-.13.76-.26,1.14-.39-9.44-5.16-18.87-10.31-28.31-15.47-.51-.28-1.39.1-1.17.79,2.21,6.81,4.43,13.62,6.64,20.43.3.92,1.79.61,1.49-.32h0Z"/>
    <path class="cls-5" d="m155.42,206.05c-6.24.08-12.48.16-18.72.24-.71,0-1.09,1.07-.38,1.42,7.53,3.68,15.06,7.35,22.59,11.03v-1.31c-8.39,4.26-15.14,11.36-18.95,19.97-.24.55.17,1.35.86,1.12,8.73-2.93,17.45-5.87,26.18-8.8-.32-.24-.64-.49-.96-.73.87,8.59,1.74,17.19,2.61,25.78.07.73.99,1.06,1.42.38,4.18-6.53,8.35-13.05,12.53-19.58-.4.05-.8.1-1.19.15,5.37,4.55,10.75,9.09,16.12,13.64.52.44,1.24.14,1.3-.54.57-6.63,1.15-13.26,1.72-19.9.08-.98-1.44-.97-1.52,0-.57,6.63-1.15,13.26-1.72,19.9.43-.18.87-.36,1.3-.54-5.37-4.55-10.75-9.09-16.12-13.64-.38-.32-.91-.28-1.19.15-4.18,6.53-8.35,13.05-12.53,19.58.47.13.95.26,1.42.38-.87-8.59-1.74-17.19-2.61-25.78-.05-.46-.45-.91-.96-.73-8.73,2.93-17.45,5.87-26.18,8.8.29.37.57.75.86,1.12,3.72-8.4,10.21-15.27,18.4-19.42.49-.25.5-1.07,0-1.31-7.53-3.68-15.06-7.35-22.59-11.03-.13.47-.26.95-.38,1.42,6.24-.08,12.48-.16,18.72-.24.98-.01.98-1.53,0-1.52h0Z"/>
  </g>
  <g id="Characters">
    <g>
      <g>
        <path class="cls-5" d="m33.72,249.75l88.17-.63c1.17-2.29-2.88-33.59-2.88-33.59l-75.28,13.28-10.02,20.94Z"/>
        <path class="cls-7" d="m138.31,87.67c4.93-4.76,13.19-4.99,19.54-2.41,4.32,1.76,7.89,4.95,11.06,8.37,9.29,10.01,15.98,22.93,16.41,36.58.43,13.65-6.21,27.85-18.17,34.43-6.97,3.84-15.26,4.93-23.15,3.86-7.89-1.06-20.48-4.02-27.3-8.11l-2.09-42.16s30.69,11.55,30.07,11.01-25.67-22.95-6.35-41.57Z"/>
        <path class="cls-7" d="m30.99,83.54s-21.82,5.2-28.27,20.42c-6.46,15.22,11.3,27.49,11.3,27.49,0,0,15.45,93.81,27.9,97.04,12.45,3.23,76.1-7.15,79.1-14.99,0,0-1.27-87.33-4.04-93.79-2.77-6.46-32.63-3.76-32.63-3.76,0,0-12.78-36.1-53.36-32.41Z"/>
        <path class="cls-5" d="m121.78,181.41c-1.14-12.74-.34-25.57-1.49-38.31-.09-.97-1.61-.98-1.52,0,1.14,12.74.34,25.57,1.49,38.31.09.97,1.61.98,1.52,0h0Z"/>
        <path class="cls-7" d="m21.39,131.4s-9.38-1.9-16.6,10.61c-6.74,11.66-8.07,97.32,7.38,104.24,15.45,6.92,18.21,2.75,30.44-5.07,14.07-8.99,46.19-35.7,46.17-49.28,0-6.29-15.86-25.52-19.32-25.29s-26.86,21.98-26.86,21.98c0,0,1.38-41.28-.69-45.43-2.08-4.15-7.61-13.38-20.52-11.76Z"/>
        <path class="cls-5" d="m15.3,217.71c3.32-5.69,7.12-11.1,11.74-15.81,4.61-4.7,9.94-8.56,15.73-11.68.86-.46.09-1.78-.77-1.31-5.9,3.18-11.34,7.13-16.04,11.92-4.71,4.8-8.6,10.32-11.98,16.12-.49.85.82,1.61,1.31.77h0Z"/>
        <path class="cls-5" d="m16.49,198.93c7.54-5.1,16.9-7.76,25.9-8.6.97-.09.98-1.61,0-1.52-9.26.87-18.9,3.56-26.66,8.81-.81.55-.05,1.86.77,1.31h0Z"/>
        <path class="cls-5" d="m11.9,134.05c9.32-4.49,20.45-2.26,27.4,5.36.66.73,1.73-.35,1.08-1.08-7.43-8.15-19.33-10.37-29.24-5.59-.88.42-.11,1.74.77,1.31h0Z"/>
        <path class="cls-5" d="m37.23,135.01c15.24,5.66,33.02,2.62,45.59-7.66.76-.62-.32-1.69-1.08-1.08-12.16,9.95-29.4,12.73-44.11,7.27-.92-.34-1.32,1.13-.4,1.47h0Z"/>
        <path class="cls-5" d="m41.05,155.63c.86,11.29-.28,22.64.58,33.93.05.59.84,1.08,1.3.54,2.14-2.54,4.75-4.73,7.15-7,3.01-2.85,5.86-5.84,8.82-8.74,2.43-2.39,5.1-5.21,8.31-6.53,2.39-.98,4.36-.17,6.11,1.59.69.7,1.77-.38,1.08-1.08-1.76-1.77-3.92-2.91-6.45-2.34-3.13.7-5.8,3.22-8.07,5.32-3.42,3.16-6.56,6.62-9.94,9.83-2.71,2.57-5.67,5.02-8.08,7.87l1.3.54c-.86-11.29.28-22.64-.58-33.93-.07-.97-1.6-.98-1.52,0h0Z"/>
        <path class="cls-3" d="m65.17,129.8c0,1.93-1.56,2.53-3.49,2.53s-3.49-.6-3.49-2.53,1.56-3.49,3.49-3.49,3.49,1.56,3.49,3.49Z"/>
        <path class="cls-3" d="m76.44,125.74c.49,1.58-.63,2.47-2.21,2.97-1.58.49-3.01.4-3.51-1.18s.39-3.26,1.97-3.75c1.58-.49,3.26.39,3.75,1.97Z"/>
        <path class="cls-4" d="m73.43,127.2c4.17,7.44,5.22,15.55,7.99,23.44.31.88,1.8.82,1.73-.23-.54-7.89-4.71-17.06-8.87-23.71-.34-.54-1.17-.06-.86.5h0Z"/>
        <path class="cls-5" d="m43.95,241.72c3.64-2.15,7.03-4.72,10.35-7.33,4.78-3.75,9.38-7.73,13.77-11.93,4.59-4.4,8.96-9.05,12.81-14.11,3.24-4.25,6.29-8.93,7.83-14.09,1.36-4.57,1.12-9.41-2.1-13.13-.64-.74-1.71.34-1.08,1.08,6.4,7.4-.74,18.35-5.39,24.61-7.13,9.59-16.14,17.88-25.44,25.33-3.68,2.95-7.47,5.87-11.53,8.27-.84.5-.08,1.81.77,1.31h0Z"/>
        <g>
          <g>
            <path class="cls-5" d="m90.28,46.05c2.36,1.5,4.42,3.67,5.23,6.35.73,2.44.38,5.1-.54,7.47-.92,2.37-2.38,4.49-3.89,6.54l-8.49-23.7c2.65.91,5.33,1.82,7.7,3.33Z"/>
            <path class="cls-5" d="m83.91,44.64c.08-2.65-1.12-5.25-2.96-7.17s-4.27-3.19-6.8-3.99c-6.68-2.1-14.32-.85-19.99,3.27-3.02,2.2-6.43,4.92-9.38,7.22-2.95,2.3-8.79,7.54-13.84,12.74"/>
            <path class="cls-5" d="m49.26,44.7c2.06-1.29,4.45-1.96,6.71-2.87,3.02-1.21,5.84-2.86,8.81-4.18,2.97-1.32,6.18-2.32,9.42-2.12,3.25.2,7.31,3.09,8.9,5.93,1.04,1.86,2.12,4.93.9,6.67l-38.64,2.4c.07-2.43,1.83-4.54,3.89-5.84Z"/>
            <path class="cls-5" d="m49.16,43.03c-9.44,4.46-25.51,18.05-27.21,28.36-.34,2.09-.46,4.33.5,6.22s3.31,3.2,5.25,2.37c-3.57,2.25-4.63,7.65-2.18,11.09,2.45,3.43,7.9,4.19,11.19,1.55-2.6,2.48-2.6,7.16,0,9.65,2.6,2.49,7.27,2.28,9.64-.42-.97,3.65,1.29,7.67,4.67,9.35,3.38,1.68,7.53,1.28,10.92-.38,3.39-1.66,6.11-4.43,8.4-7.43"/>
            <path class="cls-6" d="m47.86,54.14c10.65-16.14,35.24-14.99,44.39,2.04,2.89,5.39,4.34,12.62,4.5,22.35.43,27.14-22.52,28-22.52,28l-1.39,10.38-23.5-1.69,2.46-15.26c-4.04-4.25-11.11-23.58-6.84-37.97.82-2.75,1.34-5.49,2.9-7.85Z"/>
            <path class="cls-5" d="m65.98,40.69c-14.67-.18-29.51,12.88-30.62,21.82-3.15,25.49,16.44,37.44,16.44,37.44-5.58-9.08-8.07-15.79-6.95-26.67,0,0,10.94,4.78,8.91-5.13-1.05-5.15-1.51-7.8-1.17-12.22,1.09-14.23,24.57-12.52,24.57-12.52,0,0,.04-2.6-11.18-2.74Z"/>
            <path class="cls-5" d="m84.2,65.45c.06.99-.62,1.84-1.52,1.89-.9.05-1.67-.71-1.72-1.71-.06-.99.62-1.84,1.52-1.89.9-.05,1.67.71,1.72,1.71Z"/>
            <path class="cls-5" d="m66.58,66.33c.06.99-.62,1.84-1.52,1.89-.9.05-1.67-.71-1.72-1.71-.06-.99.62-1.84,1.52-1.89s1.67.71,1.72,1.71Z"/>
            <path class="cls-5" d="m57.68,57.91c1.64-1.09,3.94-1.72,5.88-1.95,1.8-.21,3.46.24,5.24.32,1.02.05,1.2-1.44.39-1.86-4.05-2.13-8.94-.05-12.1,2.59-.52.43,0,1.3.6.9h0Z"/>
            <g class="cls-1">
              <path class="cls-5" d="m67.14,73.05c.08,1.47-2.16,2.8-5,2.96-2.84.16-5.22-.9-5.3-2.38-.08-1.47,2.16-2.8,5-2.96,2.84-.16,5.22.9,5.3,2.38Z"/>
            </g>
            <g class="cls-1">
              <path class="cls-5" d="m93.27,71.96c.08,1.47-2.16,2.8-5,2.96-2.84.16-5.22-.9-5.3-2.38-.08-1.47,2.16-2.8,5-2.96,2.84-.16,5.22.9,5.3,2.38Z"/>
            </g>
            <g>
              <path class="cls-6" d="m44.84,73.09c-3.41-1.69-5.55-.69-6.86.4-1.31,1.09-2.07,2.73-2.38,4.4-.52,2.78.19,5.87,2.22,7.85,2.03,1.98,5.42,2.56,7.8,1.02l-.77-13.68Z"/>
              <path class="cls-5" d="m39.83,80.61c.45-.33,1.55-.55,2.09-.58.9-.05,1.49.37,2.15.92.77.65,1.94-.3,1.35-1.17-.71-1.05-2.06-1.62-3.31-1.51-.59.05-1.25.26-1.72.64-.56.44-.55.88-.79,1.49-.06.14.09.32.24.21h0Z"/>
            </g>
            <path class="cls-5" d="m86.19,53.42c-3.21-3.26-8.47-2.36-10.49,1.65-2.83,5.63.24,14.32,3.8,18.95.82,1.06,2.35.03,1.72-1.14-2.01-3.77-4.06-7.59-4.41-11.96-.24-3.03.31-6.62,3.84-7.49,1.47-.36,3.69.06,5.07.67.43.19.8-.34.46-.68h0Z"/>
            <path class="cls-5" d="m61.63,103.31c4.47,3.38,10.17,4.64,15.71,3.89,1.09-.15,1.03-1.78-.1-1.73-5.42.26-10.39-.61-15.54-2.3-.08-.02-.13.09-.07.14h0Z"/>
            <path class="cls-5" d="m53.77,68.16c.69,3.08.76,8.77.31,11.89-.15,1.06-.48,2.17-1.28,2.88-.8.72-2.19.86-2.89.05-.24-.28-1.03-.98-1.25-1.28-2.8-3.79-3.21-6.27-4.71-10.21"/>
          </g>
          <path class="cls-5" d="m66.47,76.09c-1.18,2.52-1.37,5.57.09,7.93s4.23,3.83,7.02,3.81c2.78-.02,5.49-1.49,7.1-3.76.52-.73.94-1.66.61-2.5-.23-.61-.81-1.01-1.36-1.35-2.52-1.59-8.84-4.28-11.67-5.21,0,0-1.19-.22-1.8,1.07Z"/>
          <path class="cls-5" d="m83.32,44.22c3.71-4.78,2.36-11.26-2.21-14.99-1.07-.88-2.62.59-1.55,1.55,3.87,3.47,4.63,8.25,3.19,13.11-.09.31.36.61.57.33h0Z"/>
          <path class="cls-5" d="m82.3,44.72c3.05.13,6.24-2.03,8.37-4,1-.92-.52-2.44-1.49-1.49-1.1,1.08-2.31,2.05-3.62,2.88-1.15.72-2.41,1.27-3.48,2.1-.22.17-.02.5.21.51h0Z"/>
        </g>
        <path class="cls-5" d="m19.8,100.65c5.55,4.92,12.21,8.44,19.09,11.11,7.43,2.88,15.28,4.79,23.2,5.64,4.15.45,8.33.58,12.5.27.97-.07.98-1.6,0-1.52-7.32.55-14.71-.24-21.86-1.82-7.55-1.66-14.97-4.21-21.79-7.87-3.59-1.93-7.01-4.18-10.06-6.89-.73-.65-1.81.42-1.08,1.08h0Z"/>
        <path class="cls-5" d="m48.28,43.56c-9.07,3.54-20.48,8.74-26.67,16.59-3.65,4.63-3.84,12.53,3.2,13.67,1.06.17,1.54-1.35.46-1.65-4.69-3.73-5.2-7.45-1.53-11.16.81-.88,1.68-1.71,2.6-2.47,2.48-2.14,5.23-4.03,7.93-5.88,4.59-3.14,9.33-6.02,14.15-8.78.16-.09.05-.39-.13-.31h0Z"/>
        <path class="cls-4" d="m61.17,129.34c-2.06,8.07-1.35,17.61,1.68,25.37.55,1.4,2.65.89,2.29-.63-1.93-8.32-2.85-16.12-3.2-24.63-.02-.43-.66-.55-.77-.1h0Z"/>
      </g>
      <path class="cls-5" d="m314.69,64.96c1.84,13.33,3.07,26.74,3.69,40.17-5.11.5-9.82,3.95-11.84,8.67-2.02,4.72-1.27,10.51,1.89,14.55-6.13-.42-11.23,5.89-11.11,12.03.11,6.14,4.2,11.6,9.16,15.22,6.23,4.55,14.09,6.83,21.78,6.28,7.69-.55,15.16-3.93,20.61-9.39l19.68-24.84-16.13-60.44-37.73-2.25Z"/>
      <path class="cls-3" d="m376.33,101.66s-40.74,7.71-46.52,9.96c-5.78,2.25,0,26.96,0,26.96,0,0-17.01,17.03,2.57,28.72,0,0-1.28,25.17,4.17,25.81s76.69-3.53,80.21-8.02c3.53-4.49-21.19-84.73-40.43-83.43Z"/>
      <path class="cls-3" d="m103.13,78.06s-2.96,65.12,1.96,65.91c9.76,1.58,232.46,3.09,232.46,3.09v-69s-234.39-3.73-234.42,0Z"/>
      <path class="cls-2" d="m317.03,84.7q-1.09.73-2.75.13c-.39-.46-.54-.99-.84-1.57.88-1.12,1.63-2.08,3.05-.97.19.84.37,1.62.55,2.41Zm2.95,2.4c.22-2.26-3.14-2.32-3.05.05.48,1.7,3.12,2.32,3.05-.05Zm3.14-9.16h-1.84c.49.42,1.3.37,1.84,0Zm8.13,23.1c.18.47.43.94.69,1.4,2.4.6,3.45-2.62.93-3.08q-1.15.47-1.61,1.67Zm-8.68-15.82c1.1-.97,2.04-3.01-.18-3.32-.39.25-.79.51-1.22.8-.13.4-.26.81-.39,1.22.45.66.81,1.7,1.79,1.3Zm10.09,7.11c-2.48.34-1.29,4.06.97,3.07.23-.44.5-.94.79-1.49-.62-.57-1.05-1.19-1.76-1.58Zm2.8,10.93c-.26.58-.87.99-.94,1.8.85,1.27,2.3,1.15,3.02.13v-1.34c-.59-.48-1.16-.92-2.08-.6Zm-22.09-16.34c-.6-.85-1.74-1.69-2.61-1.07.3.89.64,1.81,1.05,2.77.74-.32,1.44-.64,1.56-1.69Zm17.51,17.55c-.55-1.54-2.94-2.29-3.07-.17,0,.01,0,.02,0,.04.9.35,1.84.68,2.83.96.18-.21.27-.48.24-.83Zm2.99-23.11c.46-2.53-1.42-3.78-2.84-1.3.44,1.78,1.23,1.74,2.84,1.3Zm-11,17.68c.36-.61.66-1.09,1-1.67-2.37-3.82-4.68,1.52-1,1.67Zm-7.23-21.16h-1.13s.04.07.06.12c.41.03.76-.02,1.07-.12Zm-2.81,3.16c1.28-.71-.19-2.38-1.33-2.32-.51.4-1.03.82-1.52,1.21.07,1.37,1.85,1.48,2.85,1.11Zm24.72,17.24v-1.56c-.1-.31-.29-.58-.62-.79-1.83.34-2.81,1.19-1.27,2.68,1.03.13,1.08.13,1.89-.33Zm-6.99.12c.83-1.82-1.61-2.83-2.49-1.37-.44,1.68,1.34,2.69,2.49,1.37Zm-3.55-5.1c-.17-.34-.78-.4-1.15-.2-4.71.02,2.26,5.32,1.15.2Zm-2.01-5.17c.45.11.91.23,1.43.36.89-.93.56-1.86.31-2.77-1.33-1.12-2.93,1.05-1.74,2.41Zm9.32-1.31c-.68-.52-1.37-1.04-2.31-1.11-.66.39-.51,1.14-.82,1.78.53.37.99.69,1.43,1q1.06-.44,1.7-1.66Zm2.27,2.36c-2.59.06-1.56,3.7.66,2.73.13-.33.22-.58.29-.81v-.99c-.15-.3-.46-.55-.95-.92Zm-7.1,2.79c-.04-.82,1.06-1.05,1.02-1.81-.26-.35-.46-.62-.65-.87-2.73-.47-2.95,2.99-.37,2.69Zm-6.21-2.34c-1.31-.81-1.97-.46-2.53.97.98,2.42,3.18.99,2.53-.97Zm-3.2-8.81c-.09-1.08-.46-1.7-1.22-2.44-.92.1-1.2.7-1.5,1.25.64,1.32,1.38,2.64,2.72,1.18Zm-6.07,9.96c.13.36.29.76.42,1.12.68.28,1.17-.07,1.67-.35.12-.37.23-.73.42-1.3-.77-1.67-2.35-1.3-2.51.52Zm11.86-12.31c-.53.33-1.05.66-1.65,1.04.16.59.29,1.1.43,1.61,1.2.96,1.96.04,2.22-1.22-.24-.56-.4-1.14-1-1.43Zm1.97,5.84c.34.22.69.46,1.1.73,4.32-1.91-1.63-4.4-1.1-.73Zm-7.4,9.78c-.6-1.88-2.39-1.32-3.24.14.52.44,1.02.87,1.48,1.27.77-.23,1.27-.66,1.76-1.41Zm14.86-9.4c.56-.29,1.21-.29,1.95.06.92-5.02-4.02-1.56-1.95-.06Zm-10.45,15.41c-.05.54-.09,1.05-.14,1.58,3.76,1.92,3.14-3.06.14-1.58Z"/>
      <path class="cls-5" d="m338.31,138.84v-61.62c0-.98-1.52-.98-1.52,0v61.62c0,.98,1.52.98,1.52,0h0Z"/>
      <g>
        <path class="cls-6" d="m138.55,72.08s-1.74-4.43-7.43-4.11c-5.69.32-13.88,6.95-12.08,10.27,1.8,3.32,3.22,2.85,6.86,1.26,3.64-1.58,6.16-3.95,6.16-3.95l2.37,1.58s-7.43,7.59-1.9,9.8c5.53,2.21,9.48-7.27,9.48-7.27,0,0-4.43,8.97,0,10.89,4.43,1.92,7.74-8.15,7.74-8.15,0,0-2.69,7.54,2.05,7.22,4.74-.32,6.16-12.64,6.16-12.64h8.38s-.16-8.22-14.38-4.74c0,0-1.58-1.9-6.16-.63,0,0-3.16-2.53-7.27.47Z"/>
        <path class="cls-5" d="m130.88,82.77c1.17-2.2,2.75-4.22,4.3-6.15.89-1.11,1.81-2.2,2.79-3.24.72-.77,1.48-1.57,2.35-2.17.8-.55.04-1.87-.77-1.31-2.13,1.47-3.84,3.64-5.44,5.64-1.63,2.03-3.31,4.15-4.54,6.46-.46.86.85,1.63,1.31.77h0Z"/>
        <path class="cls-5" d="m146.36,71.82c-2.98,3.18-5.51,7.06-6.79,11.25-.81,2.64-1.41,6.75,1.85,7.92.92.33,1.32-1.14.4-1.47-2.36-.85-1.23-4.75-.66-6.45,1.27-3.78,3.55-7.28,6.27-10.18.67-.71-.4-1.79-1.08-1.08h0Z"/>
        <path class="cls-5" d="m150.02,84.92c.61-4.72,1.57-10.95,6.64-12.96.9-.36.51-1.83-.4-1.47-5.84,2.32-7.04,8.9-7.76,14.42-.12.97,1.4.96,1.52,0h0Z"/>
      </g>
      <g>
        <path class="cls-7" d="m121.9,96.09c-.6,0-1.05-.17-1.33-.51-.29-.34-.43-.75-.43-1.25,0-.46.14-.88.43-1.25.28-.37.73-.56,1.33-.56,4.62-.07,9.26-.12,13.91-.16,4.66-.03,9.29-.07,13.91-.11.53-.04.94.13,1.23.51.28.37.43.81.43,1.31,0,.75-.29,1.25-.88,1.52-.59.27-1.31.38-2.16.35-1-.04-2.31-.05-3.95-.05s-3.45,0-5.44.03c-1.99.02-4.02.04-6.08.05-2.06.02-4.04.05-5.94.08-1.9.04-3.58.05-5.04.05Zm11.25-.96c.07-.64.29-1.11.67-1.41.37-.3.81-.45,1.31-.45s.94.15,1.33.45c.39.3.55.77.48,1.41-.36,4.62-.64,9.21-.85,13.78-.21,4.57-.32,9.16-.32,13.78,0,1.53,0,3.08.03,4.64.02,1.56.06,3.18.13,4.85.03.57-.14,1.02-.53,1.36-.39.34-.85.52-1.39.56-.53.03-.98-.14-1.33-.53-.36-.39-.53-.85-.53-1.39-.04-1.67-.07-3.29-.11-4.85-.04-1.56-.05-3.11-.05-4.64,0-4.62.11-9.21.32-13.78.21-4.57.5-9.16.85-13.78Z"/>
        <path class="cls-7" d="m157.46,94.71c0-.67.18-1.15.53-1.44.35-.28.8-.43,1.33-.43.36,0,.68.07.96.21.28.14.51.35.69.61.18.27.27.61.27,1.04-.07,4.23-.18,8.42-.32,12.58-.14,4.16-.3,8.33-.48,12.5-.18,4.18-.39,8.38-.64,12.61,0,.39-.1.72-.29.99-.2.27-.44.46-.72.59-.28.12-.59.19-.91.19-.5,0-.94-.14-1.33-.43s-.57-.73-.53-1.33c.25-4.23.47-8.43.67-12.61.19-4.18.36-8.34.48-12.5.12-4.16.22-8.35.29-12.58Zm19.62,18.98c-3.8,0-7.03.11-9.68.32-2.65.21-4.73.43-6.24.64-1.51.21-2.53.32-3.07.32-.6,0-1.08-.18-1.41-.53-.34-.36-.51-.78-.51-1.28,0-.39.13-.75.4-1.07.27-.32.67-.51,1.2-.59,2.03-.28,4.11-.52,6.24-.72,2.13-.19,4.3-.35,6.5-.45,2.2-.11,4.39-.16,6.56-.16,1.1,0,2.19,0,3.28.03,1.08.02,2.17.05,3.25.11,1.08.05,2.16.12,3.23.19.6.04,1.05.21,1.33.53.28.32.43.71.43,1.17s-.14.89-.43,1.28c-.29.39-.73.59-1.33.59-1.07-.07-2.14-.13-3.23-.19-1.08-.05-2.17-.1-3.25-.13-1.08-.04-2.18-.05-3.28-.05Zm7.09-19.35c0-.67.19-1.16.56-1.47.37-.3.83-.45,1.36-.45.5,0,.94.14,1.33.43.39.28.57.76.53,1.44,0,2.91,0,5.96-.03,9.14-.02,3.18-.05,6.41-.11,9.68-.05,3.27-.13,6.5-.21,9.7-.09,3.2-.19,6.29-.29,9.27,0,.61-.19,1.05-.56,1.33-.37.28-.81.43-1.31.43-.53,0-.99-.14-1.36-.43-.37-.28-.56-.73-.56-1.33.11-2.98.2-6.08.29-9.27.09-3.2.16-6.42.21-9.68.05-3.25.09-6.47.11-9.65.02-3.18.03-6.23.03-9.14Z"/>
        <path class="cls-7" d="m198.51,133.3c-.25.46-.52.78-.83.96-.3.18-.67.27-1.09.27-.36,0-.68-.08-.96-.24-.28-.16-.52-.37-.69-.64-.18-.27-.27-.52-.27-.77,0-.21.04-.41.11-.59.07-.18.14-.36.21-.53,2.27-4.87,4.25-9.09,5.92-12.66,1.67-3.57,3.11-6.66,4.32-9.25,1.21-2.59,2.23-4.8,3.07-6.61.83-1.81,1.54-3.33,2.11-4.56.57-1.23,1.07-2.3,1.49-3.23.43-.92.83-1.79,1.23-2.61.18-.46.42-.77.72-.93.3-.16.67-.24,1.09-.24.5,0,.94.18,1.33.53.39.36.71.89.96,1.6.67,1.99,1.55,4.23,2.61,6.72,1.07,2.49,2.24,5.09,3.52,7.81,1.28,2.72,2.59,5.46,3.92,8.21,1.33,2.75,2.6,5.42,3.81,8,1.21,2.58,2.31,4.93,3.3,7.06.07.18.14.37.21.59s.11.41.11.59c0,.46-.19.85-.56,1.17-.37.32-.82.48-1.36.48-.46,0-.85-.12-1.17-.35-.32-.23-.6-.59-.85-1.09-.96-2.03-1.99-4.22-3.09-6.58-1.1-2.36-2.23-4.8-3.39-7.3-1.16-2.51-2.3-5.01-3.44-7.52-1.14-2.51-2.22-4.96-3.25-7.36-1.03-2.4-1.96-4.65-2.77-6.74-1.46,3.27-2.88,6.45-4.26,9.54-1.39,3.09-2.75,6.12-4.11,9.09-1.35,2.97-2.69,5.87-4.02,8.72-1.33,2.84-2.64,5.67-3.92,8.48Zm5.65-13.01c-.53.04-.95-.12-1.25-.48-.3-.35-.45-.78-.45-1.28,0-.75.2-1.25.59-1.52.39-.27.96-.42,1.71-.45.25-.03.83-.08,1.76-.13.92-.05,2.07-.11,3.44-.19,1.37-.07,2.84-.14,4.42-.21,1.58-.07,3.18-.13,4.8-.19,1.62-.05,3.13-.11,4.53-.16,1.4-.05,2.59-.08,3.55-.08.6,0,1.08.17,1.44.51.35.34.53.79.53,1.36,0,.46-.15.84-.45,1.15-.3.3-.7.51-1.2.61-.5.11-1.03.16-1.6.16-1.88,0-3.73.02-5.54.05-1.81.04-3.62.1-5.41.19-1.79.09-3.59.19-5.38.29-1.79.11-3.62.23-5.46.37Z"/>
        <path class="cls-7" d="m245.47,132.77c-.04.68-.23,1.16-.59,1.44-.36.28-.78.43-1.28.43-.32,0-.63-.06-.93-.19-.3-.12-.54-.33-.72-.61-.18-.28-.25-.64-.21-1.07.25-3.38.46-6.83.64-10.37.18-3.54.31-7,.4-10.4.09-3.39.14-6.59.16-9.6.02-3,0-5.62-.08-7.86,0-.57.19-1.05.56-1.44.37-.39.81-.59,1.31-.59.39,0,.75.09,1.07.27.32.18.57.43.75.75.96,1.49,2.14,3.29,3.54,5.38,1.4,2.1,2.92,4.36,4.56,6.8,1.63,2.43,3.3,4.92,4.98,7.46,1.69,2.54,3.32,5.02,4.9,7.44,1.58,2.42,2.96,4.64,4.13,6.66.03-2.52.11-5.23.24-8.13.12-2.9.27-5.83.43-8.8.16-2.97.34-5.83.53-8.58.19-2.75.38-5.27.56-7.54.03-.57.21-1.01.53-1.33.32-.32.76-.5,1.33-.53.57-.03,1.03.13,1.39.51.36.37.52.86.48,1.47-.18,1.74-.35,3.81-.51,6.21-.16,2.4-.32,4.98-.48,7.76-.16,2.77-.31,5.61-.45,8.5-.14,2.9-.26,5.73-.35,8.5-.09,2.77-.15,5.37-.19,7.78,0,.43-.09.78-.27,1.07-.18.28-.41.5-.69.64-.28.14-.6.21-.96.21-.39,0-.75-.09-1.07-.27-.32-.18-.59-.46-.8-.85-1.63-2.81-3.34-5.62-5.12-8.42-1.78-2.81-3.59-5.62-5.44-8.42-1.85-2.81-3.71-5.6-5.57-8.37-1.87-2.77-3.72-5.53-5.57-8.26.04,5.62-.06,11.14-.29,16.58-.23,5.44-.54,10.7-.93,15.78Z"/>
        <path class="cls-7" d="m287.59,132.66c0,.64-.18,1.11-.53,1.41-.36.3-.82.45-1.39.45s-1.03-.15-1.39-.45c-.36-.3-.53-.79-.53-1.47.18-6.5.36-12.95.56-19.35.19-6.4.31-12.85.35-19.35,0-.68.19-1.15.56-1.44.37-.28.83-.43,1.36-.43.57,0,1.04.14,1.41.43.37.28.54.75.51,1.39-.04,6.54-.16,13.02-.37,19.43-.21,6.42-.39,12.88-.53,19.38Zm19.78-39.66c.25-.25.48-.43.69-.53.21-.11.43-.16.64-.16.35,0,.68.1.99.29.3.2.54.45.72.75.18.3.27.61.27.93,0,.25-.05.48-.16.69-.11.21-.28.43-.53.64-1.46,1.32-2.97,2.65-4.53,4-1.56,1.35-3.15,2.69-4.77,4.03-1.62,1.33-3.24,2.65-4.88,3.95-1.63,1.3-3.25,2.55-4.85,3.76,1.74,1.71,3.42,3.53,5.04,5.46,1.62,1.94,3.23,3.85,4.82,5.73,1.6,1.88,3.25,3.59,4.96,5.12,1.71,1.53,3.52,2.77,5.44,3.73.39.21.69.45.91.69.21.25.32.55.32.91,0,.32-.09.64-.27.96-.18.32-.4.58-.67.77-.27.19-.58.29-.93.29-.32,0-.68-.11-1.07-.32-1.95-1.03-3.78-2.25-5.49-3.65-1.71-1.4-3.29-2.91-4.75-4.5-1.46-1.6-2.83-3.18-4.1-4.74-1.28-1.63-2.59-3.24-3.95-4.82-1.35-1.58-2.86-3.15-4.53-4.72l.59-2.45c2.38-1.85,4.68-3.67,6.9-5.46,2.22-1.8,4.42-3.63,6.58-5.52,2.17-1.88,4.37-3.82,6.61-5.81Z"/>
      </g>
      <g>
        <g>
          <path class="cls-4" d="m341.74,138.98s-167.63,10.17-171.68,15.3c-4.05,5.13,2.15,66.46,7.93,69.12,0,0,169.3-10.81,176.4-16,7.1-5.19-12.66-68.41-12.66-68.41Z"/>
          <path class="cls-5" d="m341.74,138.22c-2.84.17-5.68.35-8.52.53-7.4.47-14.8.94-22.21,1.43-10.28.68-20.56,1.38-30.84,2.11-11.47.81-22.95,1.65-34.41,2.55-10.99.86-21.97,1.76-32.94,2.76-8.82.8-17.63,1.65-26.42,2.73-4.95.61-10.19,1.01-14.98,2.48-1.39.43-2.15.92-2.6,2.37-.99,3.18-.83,6.89-.81,10.18.05,11.39,1.2,22.84,2.78,34.11.73,5.16,1.56,10.32,2.79,15.38.66,2.71,1.3,6.41,3.26,8.56.78.86,1.41.72,2.43.65,1.76-.11,3.53-.23,5.29-.35,6.88-.45,13.76-.92,20.64-1.39,9.99-.69,19.98-1.39,29.97-2.11,11.47-.83,22.94-1.69,34.41-2.6,11.32-.89,22.64-1.83,33.95-2.84,9.54-.86,19.08-1.76,28.6-2.84,6.16-.7,12.38-1.36,18.46-2.6,1.31-.27,2.88-.49,4.05-1.2,1.94-1.18,2.02-4.24,2.06-6.22.08-4.39-.64-8.81-1.39-13.12-.96-5.51-2.19-10.97-3.51-16.41-2.35-9.68-5.02-19.29-7.87-28.83-.48-1.6-.96-3.2-1.45-4.79-.29-.93-1.76-.53-1.47.4,1.77,5.67,3.42,11.39,5.01,17.11,2.98,10.72,5.8,21.54,7.75,32.5.75,4.25,1.46,8.61,1.41,12.94-.02,1.64,0,4.39-1.54,5.21-.89.47-2.9.82-4.2,1.07-2.65.51-5.32.89-7.99,1.26-8.08,1.09-16.19,1.92-24.3,2.71-10.52,1.03-21.05,1.95-31.58,2.82-11.45.95-22.9,1.84-34.35,2.71-10.72.81-21.43,1.58-32.15,2.34-8.52.6-17.04,1.18-25.56,1.76-4.69.31-9.39.63-14.08.93-.4.03-.81.04-1.21.08-.07,0-.13.01-.2.01.44-.01.15.03-.15-.36-1.86-2.34-2.43-6.14-3.08-8.97-2.49-10.9-3.72-22.15-4.57-33.28-.4-5.2-.7-10.42-.67-15.64.01-2.92-.18-6.47.9-9.22.11-.28.29-.47.24-.43-.06.05.3-.16.43-.22-.09.04.45-.16.64-.22.34-.11.68-.2,1.03-.28,2.11-.53,4.27-.87,6.41-1.19,7.32-1.12,14.7-1.87,22.07-2.61,10.16-1.02,20.33-1.9,30.5-2.74,11.27-.93,22.54-1.79,33.81-2.62,10.81-.79,21.63-1.55,32.45-2.29,8.8-.6,17.6-1.18,26.4-1.74,5.1-.33,10.2-.65,15.3-.97.68-.04,1.36-.08,2.05-.13.97-.06.98-1.58,0-1.52Z"/>
        </g>
        <g>
          <path class="cls-3" d="m209.69,213.15c-.6.06-1.15-.08-1.67-.4-.52-.32-.83-.89-.96-1.71-.29-2.1-.53-4.41-.72-6.93-.19-2.52-.4-5.08-.62-7.67-.22-2.59-.55-4.97-.99-7.15-.18-.95-.44-1.86-.78-2.73-.34-.87-.74-1.65-1.23-2.34-1.36-2.18-2.87-4.43-4.52-6.75-1.65-2.32-3.26-4.59-4.84-6.82-1.57-2.23-2.95-4.26-4.14-6.09-.33-.57-.51-1.04-.55-1.41-.05-.5.05-.93.3-1.27.25-.35.55-.64.92-.88s.74-.38,1.1-.42c.41-.04.8.03,1.16.2.36.17.68.48.95.91.92,1.44,1.93,2.98,3.04,4.63,1.1,1.65,2.24,3.32,3.42,5.01,1.18,1.69,2.39,3.36,3.66,4.99.79.99,1.5,1.98,2.15,2.98.65,1,1.28,2.1,1.9,3.29.6-.98,1.35-2.24,2.24-3.78.89-1.54,1.87-3.2,2.93-4.99,1.06-1.78,2.11-3.57,3.17-5.36,1.05-1.79,2.05-3.45,2.99-4.99.94-1.54,1.71-2.83,2.3-3.86.28-.44.56-.78.84-1.01.28-.24.62-.37,1.04-.41.46-.04.88,0,1.26.16.38.15.69.38.93.71.24.32.38.69.42,1.1.03.37-.02.78-.16,1.23-.14.45-.35.9-.64,1.34-.53.74-1.25,1.9-2.17,3.46-.92,1.57-1.96,3.35-3.13,5.36-1.17,2.01-2.38,4.05-3.61,6.13-1.24,2.08-2.4,4.04-3.5,5.87-1.1,1.84-2.01,3.32-2.73,4.45.22.86.4,1.78.54,2.76.14.98.25,1.91.33,2.77.17,1.83.36,3.79.55,5.87.2,2.09.37,4.1.54,6.05.16,1.95.31,3.66.45,5.12.07.78-.11,1.39-.56,1.82-.44.44-.99.68-1.63.74Z"/>
          <path class="cls-3" d="m261.13,154.53c.8.16,1.4.43,1.81.83.41.4.64.9.7,1.49.02.28,0,.58-.09.91-.08.33-.26.63-.54.88-.28.26-.6.44-.99.54-.38.1-.88.09-1.49-.03-.63-.27-1.49-.49-2.59-.66-1.1-.17-2.45-.18-4.06-.03-3.21.3-6,1.29-8.38,2.97-2.38,1.68-4.34,3.82-5.88,6.41-1.53,2.59-2.62,5.41-3.26,8.45-.64,3.04-.82,6.05-.54,9.03.26,2.79.92,5.42,1.96,7.89,1.04,2.47,2.4,4.61,4.07,6.44,1.67,1.83,3.65,3.2,5.93,4.12,2.28.92,4.79,1.25,7.54.99,3.34-.32,6.29-1.49,8.85-3.54,2.55-2.04,4.47-4.88,5.75-8.51,1.27-3.63,1.68-7.94,1.21-12.93-.28-2.93-.8-5.59-1.58-7.99-.78-2.4-1.67-4.45-2.66-6.16-.99-1.71-1.9-3.01-2.72-3.9-.57-.68-1-1.19-1.28-1.51-.28-.32-.45-.71-.49-1.16-.03-.28.02-.57.12-.88.11-.31.27-.59.48-.84.21-.25.45-.46.74-.63.28-.17.59-.26.91-.29.64-.06,1.22.13,1.75.56.53.44,1.01.94,1.46,1.53.45.58.85,1.11,1.22,1.58,2.04,2.53,3.64,5.48,4.78,8.83,1.15,3.36,1.89,6.8,2.22,10.32.35,3.76.17,7.35-.54,10.79-.72,3.44-1.94,6.55-3.66,9.32-1.72,2.77-3.95,5.03-6.67,6.76-2.73,1.73-5.94,2.78-9.65,3.13-3.02.29-5.78.03-8.29-.78-2.5-.8-4.72-2-6.64-3.6-1.93-1.6-3.58-3.45-4.96-5.56-1.38-2.11-2.47-4.34-3.26-6.69-.8-2.35-1.31-4.67-1.52-6.96-.34-3.66-.05-7.31.88-10.93.93-3.62,2.39-6.95,4.39-9.98,2-3.03,4.46-5.52,7.37-7.49,2.91-1.96,6.15-3.11,9.72-3.45,1.24-.12,2.56-.11,3.98,0,1.42.12,2.72.36,3.91.71Z"/>
          <path class="cls-3" d="m307.74,204.19c-2.02.19-4,.08-5.96-.34-1.96-.41-3.76-1.12-5.4-2.12-1.64-1-3-2.3-4.08-3.91-.7-1.04-1.35-2.41-1.95-4.11-.6-1.7-1.11-3.56-1.53-5.57-.42-2.01-.79-4-1.11-5.96-.32-1.96-.56-3.74-.71-5.34-.22-2.34-.38-4.8-.49-7.4-.11-2.6-.19-5.22-.26-7.88-.07-2.65-.14-5.17-.23-7.57-.04-.92.17-1.6.64-2.03.47-.44,1-.68,1.59-.74.46-.04.88,0,1.26.16.38.15.72.38,1,.7.28.32.43.8.45,1.45.09,2.44.17,4.99.24,7.64.06,2.65.15,5.28.26,7.88.11,2.6.27,5.07.49,7.4.46,4.85,1.13,8.94,2.02,12.25.89,3.31,1.83,5.61,2.84,6.91,1.21,1.55,2.76,2.65,4.64,3.3,1.89.65,3.75.89,5.58.72,1.69-.16,3.27-.55,4.74-1.17,1.47-.62,2.74-1.52,3.84-2.68,1.09-1.17,1.92-2.63,2.5-4.39.4-1.19.65-3.11.78-5.76.12-2.64.14-5.83.07-9.57-.07-3.74-.25-7.81-.53-12.22-.28-4.41-.64-8.97-1.08-13.69-.07-.78.12-1.41.58-1.89.46-.48,1.04-.78,1.72-.89.69-.06,1.27.12,1.75.56.48.44.75,1.03.82,1.76.77,7.74,1.27,14.56,1.48,20.48.21,5.92.24,10.75.09,14.51-.16,3.76-.45,6.28-.88,7.57-.85,2.71-2.04,4.92-3.57,6.61-1.53,1.69-3.27,2.95-5.22,3.78-1.96.83-4.08,1.36-6.37,1.57Z"/>
        </g>
        <g>
          <path class="cls-6" d="m232.93,221.79s-1.84,4.68-7.86,4.35c-6.02-.33-14.68-7.36-12.77-10.87,1.91-3.51,3.41-3.01,7.26-1.34,3.85,1.67,6.52,4.18,6.52,4.18l2.51-1.67s-7.86-8.02-2.01-10.36c5.85-2.34,10.03,7.69,10.03,7.69,0,0-4.68-9.49,0-11.52,4.68-2.03,8.19,8.62,8.19,8.62,0,0-2.84-7.98,2.17-7.64,5.02.33,6.52,13.37,6.52,13.37h8.86s-.17,8.69-15.21,5.02c0,0-1.67,2.01-6.52.67,0,0-3.34,2.67-7.69-.5Z"/>
          <path class="cls-5" d="m226.99,216.23c1.66,3.14,4.09,5.82,7.02,7.82.34.23.84.06,1.04-.27.22-.38.07-.81-.27-1.04-2.72-1.86-4.93-4.37-6.48-7.28-.46-.87-1.77-.1-1.31.77h0Z"/>
          <path class="cls-5" d="m234.37,211.09c1.55,4.06,3.87,7.77,6.85,10.94.67.71,1.75-.36,1.08-1.08-2.8-2.96-5.01-6.46-6.46-10.27-.35-.91-1.82-.51-1.47.4h0Z"/>
          <path class="cls-5" d="m243.5,208.21c.75,5.82,2.02,12.77,8.17,15.21.91.36,1.31-1.11.4-1.47-5.38-2.14-6.41-8.73-7.05-13.75-.12-.96-1.65-.97-1.52,0h0Z"/>
        </g>
        <path class="cls-5" d="m441.61,243.76c-3.25-36.65-28-57.27-28.51-57.14-.51.13-69.74,5.16-74.51,6.57-4.77,1.41,3.47,50.79,3.69,52.09h99.33"/>
        <path class="cls-3" d="m351.31,226.76c3.16,1.35,6.32,2.7,9.48,4.05-.12-.21-.24-.42-.36-.63.33,4.8.67,9.6,1,14.4.06.94,1.53.94,1.47,0-.33-4.8-.67-9.6-1-14.4-.02-.24-.12-.53-.36-.63-3.16-1.35-6.32-2.7-9.48-4.05-.86-.37-1.61.9-.74,1.27h0Z"/>
        <path class="cls-3" d="m376.97,192.32c-.68,7.89,3.59,15.48,10.07,19.82,6.97,4.68,15.83,5.59,23.92,4,5.19-1.02,10.12-3.04,14.77-5.52.86-.46.1-1.78-.77-1.31-9.26,4.94-20.11,7.92-30.44,4.71-9.39-2.92-16.9-11.48-16.03-21.69.08-.98-1.44-.97-1.52,0h0Z"/>
        <g>
          <g>
            <path class="cls-5" d="m318.68,35.09c-4.78,1.91-9.02,5.54-10.85,10.36-1.83,4.81-.85,10.78,2.99,14.21.75.67,1.62,1.27,2.05,2.18.44.93.33,2.01.31,3.04-.07,4.08,1.49,8.17,4.26,11.16l16.42-42.81c-5.13-.37-10.41-.03-15.19,1.88Z"/>
            <g>
              <path class="cls-6" d="m353.77,38.63c-13.96-11.46-35.59-3.66-39.06,14.07-1.1,5.61-.39,12.46,2.15,21.19,7.1,24.35,27.82,18.78,27.82,18.78l8.98,16.04,5.39,1.16,14.29-14.45-8.95-17.87s-1.23-21.59-5.86-32.72c-1.03-2.48-2.71-4.53-4.75-6.21Z"/>
              <path class="cls-5" d="m325.65,58.66c.22.9,1.06,1.47,1.88,1.27.81-.2,1.29-1.1,1.07-2-.22-.9-1.06-1.47-1.88-1.27-.81.2-1.29,1.1-1.07,2Z"/>
              <path class="cls-5" d="m340.88,53.95c.22.9,1.06,1.47,1.88,1.27.81-.2,1.29-1.1,1.07-2-.22-.9-1.06-1.47-1.88-1.27-.81.2-1.29,1.1-1.07,2Z"/>
              <path class="cls-5" d="m346.13,42.44c-3.52-1.45-8.4-1.78-11.4,1.1-.53.51.01,1.58.75,1.3,1.63-.62,3.05-1.48,4.8-1.76,1.8-.29,3.85-.27,5.6.26.59.18.78-.67.25-.89h0Z"/>
              <path class="cls-5" d="m354.95,86.21c-3.99,2.95-8.35,5.4-13.24,6.41-.92.19-.53,1.6.39,1.41,5.16-1.07,9.76-3.44,12.94-7.73.04-.05-.04-.13-.09-.09h0Z"/>
              <g class="cls-8">
                <path class="cls-5" d="m340.57,60.99c.33,1.34,2.7,1.9,5.28,1.26,2.58-.64,4.41-2.25,4.08-3.58-.33-1.34-2.7-1.9-5.28-1.26-2.58.64-4.41,2.25-4.08,3.58Z"/>
              </g>
              <g class="cls-8">
                <path class="cls-5" d="m316.53,68.21c.33,1.34,2.7,1.9,5.28,1.26,2.58-.64,4.41-2.25,4.08-3.58-.33-1.34-2.7-1.9-5.28-1.26-2.58.64-4.41,2.25-4.08,3.58Z"/>
              </g>
              <path class="cls-5" d="m330.15,34.54c-3.78-5.62-13.46-5.29-18.02-.9-.47.45.13,1.19.68.89,2.81-1.51,5.31-2.8,8.58-2.69,3.2.1,5.76,1.6,8.61,2.84.08.04.2-.05.14-.14h0Z"/>
              <path class="cls-5" d="m316.02,25.14c6.43-.41,12.27,2.89,14.94,8.76.39.85,1.65.11,1.26-.74-2.95-6.5-9.26-9.81-16.24-8.31-.16.03-.13.3.04.29h0Z"/>
              <path class="cls-5" d="m319.95,49.02c3.85-3.46,8.47-1.94,9.85,3.04,1.15,4.14.35,8.46-.49,12.56-.21,1.03,1.23,1.43,1.57.43,1.81-5.17,2.36-14.08-2.15-18.17-2.87-2.6-7.49-1.71-9.33,1.71-.19.36.26.7.56.43h0Z"/>
            </g>
            <path class="cls-5" d="m357.92,34.56c-6.8-3.94-15.25-4.87-22.79-2.64-1.16.34-5.87,1.08-5.85,2.3,4.06,6.89,14.34,12.92,22.22,14.29.64.11,1.34.23,1.78.71.49.53.5,1.34.51,2.07.09,9.19,3.17,18.58,10.38,24.28,5.1-5.98,8.58-14.69,7.09-22.41-1.49-7.72-6.53-14.65-13.33-18.59Z"/>
          </g>
          <path class="cls-5" d="m368.16,147.37s-10.8.09-17.8-18.89c-7-18.98,9.17-27.28,9.17-27.28,0,0-8.27-17.13,4.64-25.64,1.19-.78-13.35-33.9-13.35-33.9l-3.68-9.81s15.95-1.97,23.18,10.4c7.23,12.37,16.81,37.64,16.81,37.64,0,0,27.51,4.73,28.99,18.6,1.48,13.87-1.77,14.41-1.77,14.41,0,0,18.85,2.54,11.22,21.48-7.63,18.94-21.23,19.58-21.23,19.58l-36.18-6.6Z"/>
          <path class="cls-6" d="m365.35,53.06c1.21-1.03,3.03-1.16,4.5-.54,1.47.61,2.6,1.87,3.34,3.27,1.23,2.34,1.45,5.29.19,7.61-1.26,2.32-4.13,3.78-6.68,3.06"/>
          <path class="cls-5" d="m371.24,58.86c-.31-.43-.46-.84-.96-1.11-.46-.24-1.07-.31-1.57-.24-1.17.15-2.2.91-2.73,1.95-.43.83.79,1.56,1.26.74.4-.7.95-1.15,1.76-1.26.54-.07,1.54-.11,2.05.12.11.05.29-.07.2-.2h0Z"/>
        </g>
        <path class="cls-3" d="m382.72,126.37c-3.87-14.47,14.76-24.1,24.23-12.5.13.17.27.33.4.5,10.87,13.73,33.2,53.73,34.26,63.76,1.02,9.63-3.98,18.45-14.82,20.32-10.84,1.87-39.99,4.11-44.1,0-4.11-4.11-8.22-24.29-1.87-25.41,6.35-1.12,23.54-4.11,23.54-4.11,0,0-18.31-32.51-19.06-33.63-.24-.37-1.29-4.09-2.58-8.93Z"/>
        <path class="cls-6" d="m341.74,138.98c1.01.29,14.83,3.91,20.39,15.44,5.56,11.53,5.35,22.24,5.35,22.24l14.6.32.83,19.05s-25.1.4-30.66-2.49c-4.76-2.47-4.99-16.26-4.96-20.17,0-.66.02-1.04.02-1.04,0,0-14.15,1.69-19.57.41-2.86-.68-4.73-7.61-.61-7.82,4.12-.21,19.15-1.44,19.15-1.44,0,0-16.96-4.73-18.87-5.64-2.83-1.36-1.31-7.56,2.81-6.62,0,0-2.27-5.44,3.71-4.83,5.33.55,11.98,2.91,16.57,5.61.55.32,1.07.65,1.55.98,4.53,3.09-17.3-9.26-15.65-12.15,1.65-2.88,3.61-2.35,5.35-1.85Z"/>
        <path class="cls-5" d="m404.39,168.6c8.01-1.34,16.32-.03,23.54,3.68.87.45,1.64-.87.77-1.31-7.61-3.91-16.28-5.25-24.72-3.83-.96.16-.55,1.63.4,1.47h0Z"/>
        <path class="cls-5" d="m404.89,167.98c6.37-3.5,13.35-5.81,20.56-6.76.96-.13.97-1.65,0-1.52-7.49.99-14.7,3.33-21.33,6.97-.86.47-.09,1.79.77,1.31h0Z"/>
        <path class="cls-5" d="m328.5,151.26c8.14,1.7,16.05,4.31,23.58,7.82.88.41,1.66-.9.77-1.31-7.65-3.57-15.68-6.25-23.95-7.98-.96-.2-1.36,1.27-.4,1.47h0Z"/>
        <path class="cls-5" d="m368.14,185c-.41-4.58-.83-9.17-1.24-13.75-.09-.97-1.61-.98-1.52,0,.41,4.58.83,9.17,1.24,13.75.09.97,1.61.98,1.52,0h0Z"/>
        <path class="cls-5" d="m382.84,176.99c-.05-2.41,2.59-3.58,4.47-4.42,1.8-.8,3.68-1.4,5.57-1.92,3.79-1.04,7.7-1.78,11.62-2.06.97-.07.98-1.59,0-1.52-4.51.32-9.03,1.19-13.36,2.5-1.97.6-3.94,1.3-5.78,2.25-2.06,1.06-4.1,2.63-4.05,5.17.02.98,1.54.98,1.52,0h0Z"/>
        <path class="cls-5" d="m405.16,167.45c-7.05-12.6-16.35-23.77-23.4-36.37-.48-.85-1.79-.09-1.31.77,7.05,12.6,16.35,23.77,23.4,36.37.48.85,1.79.09,1.31-.77h0Z"/>
        <path class="cls-5" d="m342.75,164.89c2.73-.35,5.46-.71,8.19-1.06.41-.05.76-.31.76-.76,0-.37-.35-.81-.76-.76-2.73.35-5.46.71-8.19,1.06-.41.05-.76.31-.76.76,0,.37.35.81.76.76h0Z"/>
        <path class="cls-5" d="m343.53,149.39c3.92,1.9,7.83,3.8,11.75,5.71.88.43,1.65-.89.77-1.31-3.92-1.9-7.83-3.8-11.75-5.71-.88-.43-1.65.89-.77,1.31h0Z"/>
        <path class="cls-5" d="m343.39,64.81c1.64,2.25,2.4,5.2,1.41,7.8-.99,2.6-3.43,4.57-6.16,5.08-2.73.51-5.68-.42-7.69-2.34-.65-.62-1.24-1.45-1.08-2.33.12-.64.6-1.14,1.07-1.59,2.17-2.04,7.87-5.88,10.47-7.33,0,0,1.13-.44,1.97.71Z"/>
        <path class="cls-5" d="m366.03,41.26c5.96,11.12,11.54,24,21.66,32.04,3.91,3.11,8.13,4.96,13.01,5.99,3.94.83,8.3,1.33,11.17,4.5,4.68,5.18,3.31,12.6-2.02,16.68-1.05.81-.44,2.31.89,2.11,4.84-.74,14.83-1.44,16.98,4.77,1.64,4.74-.78,9.04-4.72,11.45-2.26,1.39-4.98,2.28-7.43,3.27-.97.39-.63,1.83.44,1.6,6.99-1.48,17.15-6.06,15.04-15.05-2.18-9.26-13.34-8.71-20.62-8.31l.58,2.15c9.1-6.82,7.41-20.22-3.65-23.91-4.21-1.4-8.56-1.54-12.65-3.41-4.45-2.04-8.1-5.23-11.25-8.93-6.5-7.64-11.32-16.94-16.74-25.35-.27-.43-.92-.05-.68.4h0Z"/>
      </g>
      <g>
        <path class="cls-6" d="m73.86,168.89c-.14-.68,15.01-25.13,18.54-30.16,3.53-5.03,2.71-15.89,5.97-16.02,3.26-.14,4.75,1.22,4.89,3.8.14,2.58,0,17.37,0,17.37,0,0,38,.27,39.63,1.09,1.63.81,4.07,5.7,0,6.92-4.07,1.22-16.01.95-16.01.95,0,0,.81,4.89-3.39,6.79,0,0,.27,2.85-3.8,4.48,0,0-1.36,3.8-6.38,5.84s-16.56,0-16.56,0l-13.33,14.74-9.55-15.79Z"/>
        <path class="cls-5" d="m120.98,153.06c2.88.07,5.76.14,8.64.21.98.02.98-1.5,0-1.52-2.88-.07-5.76-.14-8.64-.21-.98-.02-.98,1.5,0,1.52h0Z"/>
        <path class="cls-5" d="m71.72,170.13s4.31-8.52,6.22-8.44c1.9.08,12.61,17.97,12.61,17.97,0,0-6.48,7.18-8.71,5.88-2.23-1.29-10.91-13.92-10.12-15.42Z"/>
        <path class="cls-5" d="m101.34,144.65c6.16.35,12.32.71,18.48,1.07.98.06.97-1.47,0-1.52-6.16-.35-12.32-.71-18.48-1.07-.98-.06-.97,1.47,0,1.52h0Z"/>
      </g>
    </g>
  </g>
</svg>