<?xml version="1.0" encoding="UTF-8"?>
<svg xmlns="http://www.w3.org/2000/svg" viewBox="0 0 483.2 425.72">
  <defs>
    <style>
      .cls-1 {
        fill: #ffbfbf;
      }

      .cls-1, .cls-2, .cls-3, .cls-4, .cls-5, .cls-6 {
        stroke-width: 0px;
      }

      .cls-2 {
        fill: #8380ff;
      }

      .cls-3 {
        fill: #fff;
      }

      .cls-7 {
        opacity: .3;
      }

      .cls-4 {
        fill: #421b36;
      }

      .cls-5 {
        fill: #a0d2f4;
      }

      .cls-6 {
        fill: #fcfcfc;
      }
    </style>
  </defs>
  <g id="Background_Simple" data-name="Background Simple">
    <g>
      <path class="cls-6" d="m468.05,117.78c-20.96-46.02-55.46-80.01-101.98-99.22C319.55-.65,267.43-4.06,217.83,4.25c-46.65,7.81-92.08,26.11-128.62,56.34-36.55,30.23-63.72,72.83-71.73,119.76-6.8,39.82.12,80.78,10.87,119.7,6.53,23.65,20.65,48.62,37.27,66.7,26.61,28.96,71.1,54.74,103.51,54.03l-3.63.21c108.1,13.7,210.58-1.25,261.97-58.83,51.39-57.58,72.64-174.01,40.59-244.38Z"/>
      <path class="cls-3" d="m317.86,112.5s17.33-25.76-6.52-36.77c0,0,15.47,4.4,22.63-6.1,7.17-10.5,8.32-22.31,8.32-22.31,0,0,5.84,19.17,18.58,20.6,17.51,1.97,24.42-4.78,24.42-4.78,0,0-5.44,13.86-1.77,24.34,3.67,10.48,14.73,11.92,14.73,11.92,0,0-20.11-1.24-27.38,10.33-7.27,11.57-6.71,24.27-6.71,24.27,0,0-4.69-18.52-24.2-22.24-19.51-3.71-22.11.73-22.11.73Z"/>
      <path class="cls-3" d="m231.15,105.47s-29.52-9.62-33.58,16.33c0,0,0-16.08-12.06-20.1-12.06-4.02-23.73-1.9-23.73-1.9,0,0,16.84-10.86,14.73-23.51-2.9-17.38-11.28-22.18-11.28-22.18,0,0,14.82,1.44,23.89-4.96,9.07-6.4,7.43-17.43,7.43-17.43,0,0,4.31,19.68,17.43,23.51,13.12,3.83,25.18-.19,25.18-.19,0,0-16.53,9.58-14.77,29.36,1.77,19.78,6.75,21.07,6.75,21.07Z"/>
      <path class="cls-3" d="m99.06,299.16s-29.52-9.62-33.58,16.33c0,0,0-16.08-12.06-20.1-12.06-4.02-23.73-1.9-23.73-1.9,0,0,16.84-10.86,14.73-23.51-2.9-17.38-11.28-22.18-11.28-22.18,0,0,14.82,1.44,23.89-4.96,9.07-6.4,7.43-17.43,7.43-17.43,0,0,4.31,19.68,17.43,23.51,13.12,3.83,25.18-.19,25.18-.19,0,0-16.53,9.58-14.77,29.36,1.77,19.78,6.75,21.07,6.75,21.07Z"/>
      <path class="cls-3" d="m365.83,294.66s13.03,28.18,34.81,13.5c0,0-11.79,10.94-6.53,22.51,5.26,11.58,14.75,18.69,14.75,18.69,0,0-19.42-4.96-27.25,5.19-10.76,13.95-8.59,23.36-8.59,23.36,0,0-9.03-11.84-19.89-14.14-10.86-2.29-17.83,6.41-17.83,6.41,0,0,11.5-16.55,5.38-28.77-6.12-12.22-17.27-18.33-17.27-18.33,0,0,18.27,5.6,31.56-9.15,13.3-14.75,10.85-19.28,10.85-19.28Z"/>
      <path class="cls-3" d="m453.27,194.09l1.48-4.5,1.68,4.5s3.36.57,3.39.88c.04.31-3.21,1.26-3.21,1.26,0,0-1.36,4.37-1.86,3.38s-.98-3.18-.98-3.18c0,0-4.23-.88-4.23-1.31,0-.47,3.73-1.04,3.73-1.04Z"/>
      <path class="cls-3" d="m421.97,299.26l2.95-8.98,3.35,8.98s6.69,1.14,6.77,1.76c.08.61-6.4,2.52-6.4,2.52,0,0-2.72,8.71-3.71,6.73s-1.96-6.34-1.96-6.34c0,0-8.42-1.75-8.42-2.61,0-.93,7.43-2.07,7.43-2.07Z"/>
      <path class="cls-3" d="m271.38,99.62l2.94-8.94,3.33,8.94s6.66,1.13,6.74,1.75c.08.61-6.38,2.51-6.38,2.51,0,0-2.71,8.67-3.7,6.71s-1.95-6.31-1.95-6.31c0,0-8.39-1.74-8.39-2.6,0-.93,7.4-2.06,7.4-2.06Z"/>
      <path class="cls-3" d="m83.8,94.97l1.48-4.5,1.68,4.5s3.36.57,3.39.88c.04.31-3.21,1.26-3.21,1.26,0,0-1.36,4.37-1.86,3.38-.5-.99-.98-3.18-.98-3.18,0,0-4.23-.88-4.23-1.31,0-.47,3.73-1.04,3.73-1.04Z"/>
      <path class="cls-3" d="m106.04,387.48l1.48-4.5,1.68,4.5s3.36.57,3.39.88c.04.31-3.21,1.26-3.21,1.26,0,0-1.36,4.37-1.86,3.38s-.98-3.18-.98-3.18c0,0-4.23-.88-4.23-1.31,0-.47,3.73-1.04,3.73-1.04Z"/>
      <path class="cls-3" d="m377.88,220.3l1.48-4.5,1.68,4.5s3.36.57,3.39.88c.04.31-3.21,1.26-3.21,1.26,0,0-1.36,4.37-1.86,3.38s-.98-3.18-.98-3.18c0,0-4.23-.88-4.23-1.31,0-.47,3.73-1.04,3.73-1.04Z"/>
      <path class="cls-3" d="m400.92,66.62l1.48-4.5,1.68,4.5s3.36.57,3.39.88c.04.31-3.21,1.26-3.21,1.26,0,0-1.36,4.37-1.86,3.38-.5-.99-.98-3.18-.98-3.18,0,0-4.23-.88-4.23-1.31,0-.47,3.73-1.04,3.73-1.04Z"/>
      <path class="cls-3" d="m439.8,142.2c-1.6-.25-6.62.2-6.62.2l-1.13-1.43s3.38-5.7,2.55-6.79c-.83-1.09-6.76-4.56-7.75-4.13-.99.43-3.96,4.62-3.96,4.62l-2.08-.28s-.81-5.77-3.15-5.65c-2.34.11-6.94,1.63-7.86,2.23-.92.59.46,6.23.46,6.23l-1.52,1.21-.65-.31s-4.51-2.82-5.79-1.85c-1.29.97-4.35,7.24-4.1,8.05.24.8,4.94,4.18,4.94,4.18l-.36,1.61s-5.31,1.61-5.55,3.14c-.24,1.53.72,7.81,2.33,7.97,1.61.16,6.6-.56,6.6-.56l1.21,1.37s-3.06,5.87-2.17,6.92c.89,1.05,7,4.18,7.97,3.7.97-.48,3.7-4.83,3.7-4.83l2.09.16s1.13,5.71,3.46,5.47c2.33-.24,6.84-2.01,7.72-2.66.88-.64-.8-6.2-.8-6.2l1.53-1.37s4.51,2.74,6.2,1.61c1.69-1.13,4.43-6.44,4.02-7.24-.4-.8-4.51-4.18-4.51-4.18l.02-.43c1.43-.4,4.84-1.47,5.1-2.66.33-1.51-.29-7.83-1.89-8.08Zm-20.32,15.99c-4.02,0-7.27-3.26-7.27-7.27s3.26-7.27,7.27-7.27,7.27,3.26,7.27,7.27-3.26,7.27-7.27,7.27Z"/>
      <path class="cls-3" d="m134.15,153.91c-1.6-.25-6.62.2-6.62.2l-1.13-1.43s3.38-5.7,2.55-6.79c-.83-1.09-6.76-4.56-7.75-4.13-.99.43-3.96,4.62-3.96,4.62l-2.08-.28s-.81-5.77-3.15-5.65c-2.34.11-6.94,1.63-7.86,2.23-.92.59.46,6.23.46,6.23l-1.52,1.21-.65-.31s-4.51-2.82-5.79-1.85c-1.29.97-4.35,7.24-4.1,8.05.24.8,4.94,4.18,4.94,4.18l-.36,1.61s-5.31,1.61-5.55,3.14c-.24,1.53.72,7.81,2.33,7.97,1.61.16,6.6-.56,6.6-.56l1.21,1.37s-3.06,5.87-2.17,6.92c.89,1.05,7,4.18,7.97,3.7.97-.48,3.7-4.83,3.7-4.83l2.09.16s1.13,5.71,3.46,5.47c2.33-.24,6.84-2.01,7.72-2.66.88-.64-.8-6.2-.8-6.2l1.53-1.37s4.51,2.74,6.2,1.61c1.69-1.13,4.43-6.44,4.02-7.24-.4-.8-4.51-4.18-4.51-4.18l.02-.43c1.43-.4,4.84-1.47,5.1-2.66.33-1.51-.29-7.83-1.89-8.08Zm-20.32,15.99c-4.02,0-7.27-3.26-7.27-7.27s3.25-7.27,7.27-7.27,7.27,3.26,7.27,7.27-3.26,7.27-7.27,7.27Z"/>
      <path class="cls-3" d="m124.36,339.02c-1.46-.69-6.41-1.67-6.41-1.67l-.68-1.69s4.84-4.51,4.36-5.8c-.48-1.28-5.2-6.28-6.27-6.15-1.07.13-5.1,3.31-5.1,3.31l-1.92-.85s.85-5.76-1.43-6.31c-2.28-.55-7.12-.39-8.17-.08-1.05.31-1.31,6.11-1.31,6.11l-1.8.74-.54-.48s-3.53-3.97-5.04-3.41c-1.51.56-6.21,5.72-6.2,6.56,0,.84,3.56,5.41,3.56,5.41l-.79,1.44s-5.55.05-6.21,1.45c-.66,1.4-1.5,7.69,0,8.3,1.5.61,6.49,1.32,6.49,1.32l.77,1.65s-4.59,4.77-4.03,6.03c.55,1.25,5.54,5.99,6.6,5.8,1.06-.19,4.91-3.59,4.91-3.59l1.96.74s-.53,5.8,1.78,6.22c2.31.43,7.13,0,8.16-.37,1.03-.37.97-6.17.97-6.17l1.85-.88s3.55,3.89,5.49,3.29c1.94-.6,6.06-4.93,5.9-5.82-.16-.89-3.14-5.28-3.14-5.28l.14-.41c1.48.02,5.06-.05,5.64-1.12.74-1.36,1.93-7.6.46-8.29Zm-24,9.62c-3.85-1.13-6.06-5.17-4.93-9.02,1.13-3.85,5.17-6.06,9.02-4.93s6.06,5.17,4.93,9.02c-1.13,3.85-5.17,6.06-9.02,4.93Z"/>
    </g>
    <path class="cls-3" d="m168.25,202.81l1.48-4.5,1.68,4.5s3.36.57,3.39.88c.04.31-3.21,1.26-3.21,1.26,0,0-1.36,4.37-1.86,3.38s-.98-3.18-.98-3.18c0,0-4.23-.88-4.23-1.31,0-.47,3.73-1.04,3.73-1.04Z"/>
    <path class="cls-3" d="m287.71,29.55c-1.29-.2-5.34.16-5.34.16l-.91-1.16s2.73-4.6,2.06-5.48c-.67-.88-5.45-3.68-6.25-3.34-.8.35-3.2,3.73-3.2,3.73l-1.68-.22s-.65-4.65-2.54-4.56c-1.89.09-5.6,1.32-6.34,1.8s.37,5.03.37,5.03l-1.22.98-.53-.25s-3.64-2.27-4.68-1.49-3.51,5.84-3.31,6.49c.19.65,3.99,3.38,3.99,3.38l-.29,1.3s-4.29,1.3-4.48,2.53c-.19,1.23.58,6.3,1.88,6.43,1.3.13,5.32-.45,5.32-.45l.97,1.1s-2.47,4.74-1.75,5.58c.71.84,5.65,3.38,6.43,2.99.78-.39,2.99-3.9,2.99-3.9l1.69.13s.91,4.61,2.79,4.42c1.88-.19,5.52-1.62,6.23-2.14s-.65-5-.65-5l1.23-1.1s3.64,2.21,5,1.3c1.36-.91,3.57-5.2,3.25-5.84-.32-.65-3.64-3.38-3.64-3.38l.02-.35c1.15-.32,3.9-1.18,4.11-2.15.26-1.22-.24-6.32-1.53-6.52Zm-16.4,12.9c-3.24,0-5.87-2.63-5.87-5.87s2.63-5.87,5.87-5.87,5.87,2.63,5.87,5.87-2.63,5.87-5.87,5.87Z"/>
  </g>
  <g id="Speech_Bubble" data-name="Speech Bubble">
    <g>
      <path class="cls-2" d="m463,231.8c-5.29-8.5-15.37-14.01-25.75-14.77h.07c-7.5-1.01-17.44.19-23.18,4.8-5.74,4.61-9.4,11.31-10.55,18.33-.02.1-.02.21-.04.31-7.08.69-17.29,3.66-15.64,4.68,1.79,1.1,10.28,4.34,16.01,5.98,1.42,6.65,4.99,12.91,10.22,17.53l5.97,4.13c.11.06.21.12.32.18,12.12,6.22,28.45,3.94,38.01-5.31,9.56-9.25,11.51-24.66,4.55-35.86Z"/>
      <path class="cls-5" d="m452.62,233.1c-11.98-9.46-17.32,7.03-17.81,7.75-.44-.75-4.04-16.94-16.61-8.27-12.57,8.66,12.18,30.2,15.85,31.54,3.75-1.1,30.54-21.55,18.56-31.01Z"/>
    </g>
  </g>
  <g id="Lines">
    <path class="cls-4" d="m31.94,220.46c-6.85,1.72-13.7,3.44-20.55,5.16.24.31.48.63.72.94,4.02-8.08,9.48-15.33,16.12-21.43.24-.22.26-.69,0-.91-9.05-7.42-18.09-14.83-27.14-22.25-.15.36-.3.73-.45,1.09,11.65.54,23.22,2.21,34.55,4.96.31.08.73-.1.79-.45,2.1-11.82,4.2-23.65,6.31-35.47-.39.05-.78.1-1.17.15,4.72,7.99,9.45,15.98,14.17,23.97.26.44.83.38,1.11,0l8.22-11.51c.48-.67-.63-1.31-1.11-.65-2.74,3.84-5.48,7.68-8.22,11.51h1.11c-4.72-7.99-9.45-15.98-14.17-23.97-.26-.44-1.07-.41-1.17.15-2.1,11.82-4.2,23.65-6.31,35.47.26-.15.52-.3.79-.45-11.44-2.78-23.13-4.46-34.89-5.01-.53-.02-.88.74-.45,1.09,9.05,7.42,18.09,14.83,27.14,22.25v-.91c-6.72,6.16-12.26,13.52-16.32,21.69-.25.5.16,1.08.72.94,6.85-1.72,13.7-3.44,20.55-5.16.8-.2.46-1.44-.34-1.23h0Z"/>
    <path class="cls-4" d="m137.88,71.36c-5.92-5.21-11.2-11.09-15.74-17.54-.24.31-.48.63-.72.94,11.07,2.35,22.15,4.7,33.22,7.05.5.11.88-.3.79-.79-2.19-11.65-2.8-23.54-1.86-35.35l-1.19.32c5.48,9.42,10.96,18.83,16.45,28.25.19.33.74.45,1.01.13,6.56-7.94,13.63-15.44,21.17-22.45-.36-.15-.73-.3-1.09-.45.19,6.9.37,13.81.56,20.71.02.82,1.3.83,1.28,0-.19-6.9-.37-13.81-.56-20.71-.02-.56-.68-.83-1.09-.45-7.54,7.01-14.61,14.51-21.17,22.45l1.01.13c-5.48-9.42-10.96-18.83-16.45-28.25-.34-.58-1.14-.28-1.19.32-.95,11.93-.3,23.93,1.91,35.69.26-.26.52-.52.79-.79-11.07-2.35-22.15-4.7-33.22-7.05-.5-.11-1.07.45-.72.94,4.6,6.54,9.94,12.51,15.94,17.8.62.54,1.52-.36.91-.91h0Z"/>
    <path class="cls-4" d="m427.01,91.1c7.19-4.62,14.38-9.24,21.56-13.86-.32-.26-.64-.53-.95-.79-3.29,7.35-6.59,14.69-9.88,22.04-.2.44.16.96.65.91,9.84-1.17,19.68-2.34,29.53-3.51-.15-.39-.29-.77-.44-1.16-6.19,5.46-13.04,10.12-20.42,13.83-.57.29-.52,1.07.12,1.23,8.33,2.01,16.39,4.96,24.05,8.78.07-.41.13-.81.2-1.22-8.82,1.63-17.48,4.01-25.9,7.12-.77.29-.32,1.48.46,1.2,8.31-3.07,16.86-5.43,25.58-7.04.61-.11.79-.92.2-1.22-7.77-3.88-15.94-6.85-24.38-8.88.04.41.08.82.12,1.23,7.48-3.76,14.44-8.44,20.71-13.98.45-.4.25-1.24-.44-1.16-9.84,1.17-19.68,2.34-29.53,3.51.22.3.43.6.65.91l9.88-22.04c.27-.6-.42-1.13-.95-.79-7.19,4.62-14.38,9.24-21.56,13.86-.69.45.05,1.49.75,1.04h0Z"/>
  </g>
  <g id="Arrows">
    <g>
      <path class="cls-4" d="m125.12,107.63c-16.01,5.63-31.02,18.7-37.41,34.43l10.3,3.38c6.43-13.09,16.76-26.09,30.4-31.23"/>
      <path class="cls-4" d="m121.66,105.46c-.76,1.02,6.87,13.14,8.14,12.63,1.12-.45,3.54-9.74,2.5-10.7-1.04-.95-9.94-2.88-10.64-1.93Z"/>
    </g>
    <path class="cls-4" d="m318.78,76.3c-.42.02-1.18,1.51-1.98,3.52-16.51-5.66-48.67-13.61-77.58-4.58l2.54,8.89c20.2-9.73,57.31-1.99,72.78,2.71-.5,2.01-.7,3.57-.31,3.78,1.06.58,9.77-3.48,9.84-4.88.07-1.41-4.12-9.5-5.29-9.44Z"/>
  </g>
  <g id="Device_2" data-name="Device 2">
    <g>
      <g>
        <g>
          <g>
            <path class="cls-2" d="m430.11,122.26c2.96-11.71-3-15.37-9.57-17.61-2.77-.95-28.12-7.56-34.08-9.06-5.92-1.63-14.94-4.07-17.81-4.62-6.82-1.29-15.18-.9-18.38,10.75,0,0-21.85,84-22.07,89.41s2.01,8.65,9.66,10.85l24.69,6.46c4.87,1.35,26.6,7.13,30.09,7.98,7.74,1.86,11.28.14,13.75-4.68,2.47-4.82,23.73-89.48,23.73-89.48Z"/>
            <path class="cls-4" d="m397.98,217.67c-1.59,0-3.39-.26-5.47-.76-3.61-.87-25.41-6.68-30.11-7.98l-24.69-6.46c-7.48-2.14-10.29-5.33-10.04-11.36.23-5.4,21.2-86.09,22.09-89.52,2.58-9.41,8.78-13.05,18.97-11.12,2.81.53,11.26,2.81,17.86,4.63,6.22,1.57,31.36,8.13,34.11,9.07,11.77,4.01,11.61,11.46,9.9,18.22-.87,3.47-21.3,84.77-23.77,89.59-2,3.9-4.66,5.7-8.86,5.7Zm-34.28-126.7c-5.12,0-10.52,2.08-12.94,10.89-.22.83-21.83,84-22.06,89.3-.19,4.68,1.29,8.04,9.29,10.33l24.68,6.46c4.69,1.3,26.48,7.11,30.08,7.97,8.09,1.95,11.04-.24,13.17-4.41,2.42-4.71,23.47-88.53,23.69-89.37h0c2.67-10.58-1.76-14.45-9.24-17-2.73-.93-27.81-7.48-34.04-9.05-5.4-1.49-14.87-4.06-17.78-4.61-1.51-.29-3.17-.51-4.85-.51Z"/>
          </g>
          <path class="cls-5" d="m425.17,124.37c2.06-8.16-1.06-10.89-7.53-13.07-.79-.27-18.62-5.03-23.34-6.28-2.65-.7-5.83-1.52-9.47-2.43l-.06-.02c-3.62-.99-6.79-1.85-9.44-2.55-4.72-1.24-6.68-1.69-7.5-1.85-8.1-1.55-12.38.78-14.3,7.75-8.03,30.9-20.06,78.24-20.25,82.01-.1,2.95.38,5.37,7.33,7.35,1.02.29,2.27.63,3.82,1.04l45.19,11.91c1.55.41,2.8.73,3.84.98,7.03,1.7,8.63-.17,10-2.77,1.69-3.44,14.21-52.16,21.7-82.07Z"/>
        </g>
        <path class="cls-2" d="m350.17,167.2s7.4-22.04,30-15.45c24.24,7.07,18.49,28.22,18.49,28.22-1.66,6.31-50.74-5.89-48.49-12.78Z"/>
        <path class="cls-2" d="m400.49,141.83c-3.18,8.94-11.79,10.16-20.72,6.98-8.94-3.18-14.83-9.57-11.64-18.51,3.18-8.94,13.01-13.6,21.95-10.42s13.6,13.01,10.42,21.95Z"/>
        <g class="cls-7">
          <path class="cls-4" d="m374.46,194.73c-1.01,2.84-3.74,3.22-6.57,2.21-2.83-1.01-4.7-3.04-3.69-5.87,1.01-2.83,4.13-4.31,6.96-3.3,2.83,1.01,4.31,4.13,3.3,6.96Z"/>
        </g>
        <g class="cls-7">
          <path class="cls-4" d="m350.37,187.76c-1.01,2.83-3.74,3.22-6.57,2.21-2.83-1.01-4.7-3.04-3.69-5.87,1.01-2.83,4.13-4.31,6.96-3.3,2.83,1.01,4.31,4.13,3.3,6.96Z"/>
        </g>
        <g class="cls-7">
          <path class="cls-4" d="m398.86,200.54c-1.01,2.84-3.74,3.22-6.57,2.21-2.83-1.01-4.7-3.04-3.69-5.87,1.01-2.84,4.13-4.31,6.96-3.3,2.83,1.01,4.31,4.13,3.3,6.96Z"/>
        </g>
      </g>
      <path class="cls-4" d="m395.95,102.23c-.37,1.41-1.68,1.74-3.09,1.37-1.41-.37-2.38-1.3-2.01-2.71.37-1.41,1.81-2.25,3.22-1.88,1.41.37,2.25,1.81,1.88,3.22Z"/>
      <path class="cls-3" d="m350,161.89c16.97-1.29,33.94-2.58,50.91-3.87.82-.06.82-1.34,0-1.28-16.97,1.29-33.94,2.58-50.91,3.87-.82.06-.82,1.34,0,1.28h0Z"/>
      <path class="cls-3" d="m381.42,165.74c7.45-.77,14.9-1.54,22.35-2.31.81-.08.82-1.37,0-1.28-7.45.77-14.9,1.54-22.35,2.31-.81.08-.82,1.37,0,1.28h0Z"/>
    </g>
  </g>
  <g id="Device_1" data-name="Device 1">
    <g>
      <g>
        <g>
          <g>
            <path class="cls-2" d="m204.89,81.03c-1.44-9.52-7.11-10.35-12.8-9.95-2.4.17-9.99,1.28-14.99,2.04-5.01.65-12.61,1.66-14.97,2.16-5.58,1.18-11.8,4.07-10.57,13.62,0,0,9.82,68.5,11.35,72.55,1.53,4.05,4.24,5.73,10.74,4.96,2.93-.35,7.5-1.04,11.61-1.66,0,0,0,0,0,0,.01,0,.03,0,.06,0,1.62-.25,3.17-.48,4.51-.68,1.35-.18,2.9-.38,4.52-.58.03,0,.05,0,.07,0,0,0,0,0,0,0,4.12-.53,8.7-1.12,11.61-1.59,6.46-1.04,8.6-3.41,8.96-7.72s-10.12-73.12-10.12-73.12Z"/>
            <path class="cls-4" d="m170.82,167.09c-4.49,0-6.94-1.66-8.38-5.47-1.53-4.05-10.98-69.86-11.38-72.66-1.01-7.78,2.58-12.42,10.97-14.19,2.3-.49,9.43-1.44,15.01-2.16,5.55-.84,12.67-1.88,15.01-2.04,5.76-.41,11.85.51,13.34,10.39h0c.43,2.81,10.48,68.92,10.12,73.24-.41,4.86-3.04,7.16-9.39,8.18-2.77.45-7.07,1.01-11.01,1.52l.17.5-.93-.41-.28.04h0s-.02,0-.02,0c-1.49.19-2.9.37-4.15.54-1.27.19-2.74.41-4.27.64l-.15.02-.73.62v-.51c-4.45.67-8.34,1.25-11.03,1.57-1.05.12-2.01.19-2.9.19Zm23.26-95.58c-.63,0-1.28.03-1.95.07-2.43.17-10.41,1.35-14.94,2.03-4.56.59-12.55,1.65-14.94,2.15-4.95,1.05-11.4,3.54-10.17,13.05.1.68,9.83,68.49,11.32,72.43,1.3,3.45,3.47,5.43,10.2,4.63,2.98-.35,7.84-1.09,11.45-1.64l.03-.03h.17s.53-.08.53-.08c1.43-.22,2.79-.42,3.99-.6,1.25-.16,2.67-.35,4.16-.54l.51-.07h0c4.07-.52,8.64-1.11,11.51-1.58,6.69-1.08,8.23-3.58,8.54-7.25.35-4.2-10.01-72.31-10.11-73h0c-1.15-7.64-4.92-9.59-10.31-9.59Z"/>
          </g>
          <path class="cls-5" d="m201.8,157.47c-2.42.34-5.21.7-8.1,1.07l-2.64.34-1.93.25c-.55.08-1.14.17-1.76.26l-2.77.42c-2.88.44-5.66.85-8.08,1.19-1.33.19-2.42.33-3.31.44-6.05.72-7.21-.97-8.09-3.25-1.07-2.94-7.04-42.91-10.79-69.07-.77-5.94,1.81-9.09,8.62-10.51.69-.14,2.36-.43,6.43-1,2.28-.32,5.03-.69,8.17-1.09h.05c3.12-.48,5.87-.88,8.15-1.2,4.07-.57,5.76-.75,6.46-.8,5.74-.41,9.05.66,10.08,7.55,3.85,25.22,9.88,66.41,9.68,69.58-.22,2.43-.86,4.37-6.88,5.33-.89.14-1.97.3-3.3.49Z"/>
        </g>
        <path class="cls-4" d="m170.92,79.83c-.57.08-1.06.48-1.2,1.04-.05.2-.05.42.04.64.32.78.66.8,2.14.53,1.29-.24,11.56-1.53,14.12-1.87.58-.08.65-.51.8-1.08.05-.22.06-.46-.03-.72-.34-.92-1.75-.44-2.31-.44-.48,0-10.79,1.5-13.56,1.9Z"/>
      </g>
      <path class="cls-2" d="m165.93,140.4s-1.39-19.06,17.83-21.24c20.62-2.33,22.98,15.52,22.98,15.52.74,5.31-40.33,11.65-40.81,5.71Z"/>
      <path class="cls-2" d="m196.01,105.2c.42,7.79-5.71,11.44-13.49,11.87-7.79.42-14.28-2.54-14.7-10.33-.42-7.79,5.54-14.44,13.33-14.87,7.79-.42,14.44,5.54,14.87,13.33Z"/>
      <g class="cls-7">
        <path class="cls-4" d="m193.4,152.42c.13,2.47-1.81,3.63-4.28,3.76-2.47.13-4.53-.81-4.66-3.28-.13-2.47,1.76-4.58,4.23-4.72,2.47-.13,4.58,1.76,4.72,4.23Z"/>
      </g>
      <g class="cls-7">
        <path class="cls-4" d="m177.75,154.62c.13,2.47-1.81,3.63-4.28,3.76-2.47.13-4.53-.81-4.66-3.28-.13-2.47,1.76-4.58,4.23-4.72,2.47-.13,4.58,1.76,4.72,4.23Z"/>
      </g>
      <g class="cls-7">
        <path class="cls-4" d="m209.06,150.23c.13,2.47-1.81,3.63-4.28,3.76s-4.53-.81-4.66-3.28c-.13-2.47,1.76-4.58,4.23-4.72,2.47-.13,4.58,1.76,4.72,4.23Z"/>
      </g>
      <path class="cls-3" d="m173.24,129.79c6.79-4.56,13.58-9.12,20.38-13.68.68-.46.04-1.57-.65-1.11-6.79,4.56-13.58,9.12-20.38,13.68-.68.46-.04,1.57.65,1.11h0Z"/>
      <path class="cls-3" d="m171.66,124.34c4.01-2.26,8.02-4.51,12.03-6.77.72-.4.07-1.51-.65-1.11-4.01,2.26-8.02,4.51-12.03,6.77-.72.4-.07,1.51.65,1.11h0Z"/>
    </g>
  </g>
  <g id="Character">
    <g>
      <path class="cls-4" d="m151.81,420.19c6.96-21.49,20.18-41.23,37.91-56.6h110.7s20.51,56.8,15.35,56.61c-.98-.04-163.96,0-163.96,0Z"/>
      <path class="cls-4" d="m371.47,259.08c4.83-7.46,4.48-18.4-.8-25.49s-15.04-9.69-22.73-6.08c3.92-8.75,3.24-19.74-1.72-27.84-4.96-8.1-14.02-13-22.94-12.4,1.83-11.39-.69-23.55-6.84-32.97-6.15-9.43-15.86-16.01-26.34-17.86l-36.79,185.87c11.28,3.36,101.83-6.6,112.07-12.76,8.79-5.29,16.69-13.63,18.89-24.3,2.21-10.68-3.07-23.48-12.81-26.16Z"/>
      <path class="cls-4" d="m254.23,138.88c-9.89-1.86-20.64,1.76-27.39,9.23-6.75,7.47-9.26,18.53-6.4,28.18-7.35-1.85-15.68,1.14-20.17,7.25-4.49,6.11-4.86,14.95-.91,21.41-11.81,1.95-21.41,13.11-21.56,25.08-.15,11.97,9.16,23.37,20.92,25.62,0,0,35.64,30.37,52.91,26.69,17.27-3.67,26.09-78.59,26.09-78.59l-23.49-64.88Z"/>
      <g>
        <g>
          <path class="cls-4" d="m223.3,151.5c4.19-6.38,10.58-11.13,17.59-14.17,7.46-3.23,15.71-4.63,23.82-4.03l-.15,80.52-29.56-19.25c-2.77-7.29-14.26-15.11-15.82-21.19-1.9-7.4-.08-15.5,4.12-21.88Z"/>
          <path class="cls-1" d="m292.8,150.07c-14.82-19.73-46.02-16.39-56.34,6.01-3.26,7.08-4.54,16.41-3.97,28.81,1.57,34.6,35.76,33.17,35.76,33.17l.29,15.52,27.89-.92-.17-30.68s3.4-25.86.84-42.13c-.57-3.62-2.13-6.89-4.3-9.78Z"/>
          <path class="cls-4" d="m249.42,167.13c0,1.27.94,2.29,2.08,2.29,1.14,0,2.07-1.04,2.06-2.31,0-1.27-.94-2.29-2.08-2.29-1.14,0-2.07,1.04-2.06,2.31Z"/>
          <path class="cls-4" d="m271.04,166.14c0,1.27.94,2.3,2.08,2.29,1.14,0,2.07-1.04,2.06-2.31,0-1.27-.94-2.3-2.08-2.29-1.14,0-2.07,1.04-2.06,2.31Z"/>
          <path class="cls-4" d="m280.82,153.72c-4.53-2.68-9.15-2.04-14.03-1.35-1.12.16-2.01-1.32-.84-1.97,5.01-2.83,11.19-.8,15.47,2.3.6.44.08,1.42-.59,1.02h0Z"/>
          <path class="cls-4" d="m279.11,213.74c-5.52,4.5-12.58,6.49-19.68,6.01-1.21-.08-1.25-1.89,0-1.9,6.94-.04,13.23-1.56,19.6-4.26.08-.03.15.09.09.15h0Z"/>
          <path class="cls-4" d="m316.65,159.88c5.46,14.62,1.33,29.78-9.65,40.85l-10.98,11.08c-1.26-10.36-2.28-37.56-4.06-47.38-1.78-9.82-20.64-22.46-28.27-27.22l-.02-4.58c9.43-3.35,20.89-1.44,29.83,3.07,5.04,2.55,10.29,6.04,13.95,10.35,0,0,6.86,7.55,9.2,13.84Z"/>
          <g class="cls-7">
            <path class="cls-4" d="m271.15,174.78c0,1.88,2.96,3.4,6.6,3.38,3.63-.01,6.57-1.55,6.56-3.43,0-1.88-2.96-3.4-6.6-3.38-3.63.01-6.57,1.55-6.56,3.43Z"/>
          </g>
          <g class="cls-7">
            <path class="cls-4" d="m234.91,174.92c0,1.88,2.96,3.4,6.6,3.38,3.63-.01,6.57-1.55,6.56-3.43,0-1.88-2.96-3.4-6.6-3.38-3.63.01-6.57,1.55-6.56,3.43Z"/>
          </g>
          <path class="cls-4" d="m262.54,134.47c-3.35-2.64-6.25-5.5-10.52-6.62-4.24-1.11-8.13-.31-12.26.8-.78.21-1.29-.91-.56-1.32,7.53-4.31,20.2-1.61,23.57,7,.05.14-.13.2-.22.13h0Z"/>
          <path class="cls-4" d="m247.12,119.56c9.66.22,17.06,6.8,18.83,16.3.23,1.21-1.63,1.74-1.86.52-1.57-8.61-8.39-15.04-17.02-16.45-.21-.03-.16-.38.05-.37h0Z"/>
          <path class="cls-1" d="m305.87,175.17c1.94-.98,4.4-.55,6.15.74,1.75,1.29,2.85,3.32,3.38,5.43.88,3.5.22,7.49-2.21,10.16-2.42,2.67-6.7,3.68-9.84,1.9l2.53-18.23Z"/>
          <path class="cls-4" d="m310.23,185.08c-.66-.46-2.11-.73-2.9-.7-1.12.05-1.84.62-2.59,1.37-.78.77-2.15-.22-1.55-1.19.82-1.33,2.4-2.13,3.95-2.1.73.01,1.56.22,2.18.64.7.47.81,1.03,1.16,1.73.08.15-.09.36-.25.25h0Z"/>
          <path class="cls-4" d="m244.01,152.16c3.85-4.19,10.43-3.55,13.27,1.33,4.03,6.93.71,18.06-3.36,24.24-.81,1.23-2.58.18-1.96-1.14,2.34-4.96,4.61-10.06,4.7-15.66.12-7.32-5.43-11.75-12.09-8.07-.45.25-.9-.33-.55-.71h0Z"/>
        </g>
        <path class="cls-4" d="m266.02,181.93c.46,2.31-1.66,4.67-3.44,5.86-2.18,1.46-4.95,2.11-7.42,1-.65-.29-.64-1.31.05-1.55,1.94-.68,3.98-1.12,5.68-2.33,1.43-1.02,2.31-2.69,3.79-3.58.58-.35,1.21-.05,1.34.61h0Z"/>
      </g>
      <path class="cls-1" d="m97.17,272.82s-15.18,0-16.9,5.16c-1.72,5.16,3.44,7.33,16.9,5.81,13.46-1.52,22.34.47,22.34.47,0,0-.18,66.42,4.34,82.23,6.15,21.54,31.4,22.05,48.02-2.59s34.65-62.81,34.65-62.81l-33.72-11.09-16.24,27.21s.77-40.11-1.24-44.4-59.89-15.56-68.51-15.78c-10.53-.28-7.51,6.14-4.53,8.34,2.3,1.7,14.9,7.45,14.9,7.45Z"/>
      <path class="cls-1" d="m249.91,228.32s74.83,7.42,74.49,11.1c-.34,3.68-35.86,22.08-56.19,15.78-20.32-6.3-18.31-26.88-18.31-26.88Z"/>
      <path class="cls-2" d="m215.51,259.11c.98.98,3.42,12.54,3.42,12.54,0,0-17.1,6.02-21.01,23.12-3.91,17.1,3.8,24.17,3.8,24.17,0,0-27.74,38.36-21.39,46.18,6.35,7.82,123.01,5.42,123.01,5.42,0,0,31.36-126.08,27.45-129.5-3.91-3.42-23.94-5.49-23.94-5.49,0,0-21.01,21.1-40.55,12.32-19.54-8.78-15.72-19.45-15.72-19.45,0,0-23.99-3.67-27.4,0-3.42,3.67-7.68,30.69-7.68,30.69Z"/>
      <path class="cls-3" d="m241.57,227.33s-8.42,23.85,28.52,30.83c36.95,6.97,56.84-19.03,56.84-19.03l-8.91-2.06s-14.12,20.22-46.19,14.47-24.25-23.54-24.25-23.54l-6.02-.66Z"/>
      <path class="cls-2" d="m232.88,227.71c-4.36-.44-16.54-.64-27.58,7.83-11.04,8.48-43.77,46.12-41.11,53.37,2.66,7.25,41.87,31.51,41.87,31.51l26.82-92.71Z"/>
      <path class="cls-3" d="m167.87,278.82l28.61,20.02,3.23-9.45-26.15-18.93s-4.66,6.6-5.7,8.36Z"/>
      <path class="cls-1" d="m267.78,328.96l39.57,25.89s-1.58-36.91-.57-38.19c4.2-5.33,41.13,2.15,41.13,2.15,0,0,11.36,75.8-3.3,88.5-14.66,12.7-28.7,1.54-40.92-6.69-12.14-8.18-48.4-44.78-54.26-51.13s18.35-20.53,18.35-20.53Z"/>
      <path class="cls-1" d="m242.66,292.84s-17.52-11.05-29.24-11.2c-10.07-.12-7.54,9.56-2.41,11.2,3.77,1.21,15.33,3.89,21.42,10.22,0,0-8.76,2.92-6.57,8.76,0,0-9.49,9.74-4.87,19.47s13.63,4.14,13.63,4.14c0,0,.6,15.78,11.31,16.34,10.71.56,14.19-2.47,14.19-2.47l8.1-16.31s-3.13-45.15-5.1-49.54c-2.02-4.5-9.75-4.99-9.26,2.8s2.43,14.36,2.43,14.36l-13.63-7.79Z"/>
      <path class="cls-4" d="m156.19,312.12c-.85,12.44-.32,24.88,0,37.32.02.82,1.3.83,1.28,0-.32-12.45-.85-24.88,0-37.32.06-.82-1.22-.82-1.28,0h0Z"/>
      <path class="cls-4" d="m156.51,336.84c2.74,1.54,5.19,3.51,7.28,5.86.55.62,1.45-.29.91-.91-2.15-2.42-4.71-4.47-7.54-6.06-.72-.4-1.37.7-.65,1.11h0Z"/>
      <path class="cls-4" d="m267.76,329.7c3.08,2.48,6.4,4.68,9.67,6.89,5.06,3.42,10.17,6.77,15.29,10.11,11.08,7.23,22.23,14.36,33.22,21.72,3.89,2.6,7.86,5.16,11.51,8.1.64.51,1.55-.39.91-.91-3.08-2.48-6.4-4.68-9.67-6.89-5.06-3.42-10.17-6.77-15.29-10.11-11.08-7.23-22.23-14.36-33.22-21.72-3.89-2.6-7.86-5.16-11.51-8.1-.64-.51-1.55.39-.91.91h0Z"/>
      <path class="cls-4" d="m225.29,314.12c2.55-1.8,6.07-1.8,8.62,0,.67.48,1.31-.63.65-1.11-2.89-2.04-7.02-2.04-9.91,0-.67.47-.03,1.58.65,1.11h0Z"/>
      <path class="cls-4" d="m235.34,338.94c-1.53-3.54-1.95-7.51-1.23-11.3.15-.81-1.08-1.15-1.23-.34-.79,4.15-.31,8.4,1.36,12.28.33.75,1.43.1,1.11-.65h0Z"/>
      <path class="cls-4" d="m118.55,285.22c4.83,2.06,10.39,2.52,15.58,2.36,5.01-.15,10.73-.84,14.94-3.8.67-.47.03-1.58-.65-1.11-4.03,2.84-9.5,3.48-14.3,3.62-4.95.15-10.33-.22-14.94-2.19-.75-.32-1.4.78-.65,1.11h0Z"/>
      <path class="cls-4" d="m201.34,318.49c-4.22-6.8-5.52-15.23-3.58-22.99,1.82-7.29,6.56-13.56,12.91-17.54,3.58-2.24,7.6-3.74,11.79-4.29.8-.11.82-1.39,0-1.28-7.66,1.01-14.8,4.91-19.79,10.83-5.28,6.26-7.73,14.47-6.91,22.61.47,4.72,1.98,9.27,4.48,13.31.43.7,1.54.06,1.11-.65h0Z"/>
      <path class="cls-4" d="m217.24,265.79c.77,3.19,2.78,6,5.53,7.79.69.45,1.34-.66.65-1.11-2.48-1.61-4.25-4.16-4.94-7.02-.19-.8-1.43-.46-1.23.34h0Z"/>
      <path class="cls-4" d="m226.07,328.21c1.87-1.78,4.95-1.47,6.39.69.45.68,1.56.04,1.11-.65-.88-1.32-2.28-2.24-3.86-2.45-1.66-.22-3.34.36-4.54,1.51-.6.57.31,1.47.91.91h0Z"/>
      <path class="cls-4" d="m231.66,303.94c3.39-1.14,7.15-.65,10.15,1.31.69.45,1.33-.66.65-1.11-3.26-2.13-7.44-2.67-11.13-1.43-.78.26-.44,1.5.34,1.23h0Z"/>
      <path class="cls-4" d="m248.15,297.27c5.87,2.77,11.18,6.56,15.7,11.22.57.59,1.48-.31.91-.91-4.59-4.73-10-8.61-15.96-11.42-.74-.35-1.39.75-.65,1.11h0Z"/>
      <g>
        <g>
          <path class="cls-2" d="m34.08,198.26s-1.84,2.45-.97,4.14c5.86,11.34,30.58,54.98,35.95,59.15,6.16,4.79,48.6,26.01,58.19,22.59,8.54-3.05,66.21-22.8,76.7-30.73,1.28-.97.93-2.77.64-3.29-2.74-4.79-53.37-24.16-53.37-24.16,0,0-24.06-60.4-29.54-60.4s-89.21,30.82-87.59,32.7Z"/>
          <path class="cls-4" d="m124.63,285.02c-13.32,0-49.88-18.39-55.88-23.06-5.57-4.33-30.69-48.87-36.09-59.32-.87-1.69.46-3.88.89-4.51,0-.07.03-.14.06-.2.96-2.1,32.82-14.01,42.55-17.62,19.87-7.35,42.59-15.26,45.51-15.26,1.03,0,3.76,0,17.29,30.5,6.2,13.98,11.89,28.13,12.64,30.01,4.03,1.55,50.69,19.52,53.43,24.31.45.8.71,2.84-.77,3.95-9.49,7.18-57.17,23.9-72.83,29.4-1.77.62-3.14,1.1-4,1.41-.75.27-1.69.39-2.79.39Zm-89.92-86.81l.03.03-.25.33c-.46.61-1.51,2.45-.92,3.6,6.3,12.2,30.7,55.01,35.81,58.99,6.27,4.88,48.36,25.84,57.7,22.51.86-.31,2.23-.79,4-1.41,15.63-5.48,63.19-22.17,72.56-29.25,1.05-.79.69-2.3.5-2.63-2.17-3.8-39.08-18.57-53.11-23.94l-.21-.08-.08-.21c-9.25-23.23-25.33-60.08-29.07-60.08-5.2,0-82.24,28.53-86.96,32.14Z"/>
        </g>
        <path class="cls-5" d="m71.18,251.12s-28.37-45.79-27.81-49.72c.56-3.93,74.16-30.9,77.25-29.22,3.09,1.69,28.09,47.48,23.88,51.13-4.21,3.65-71.75,30.36-73.32,27.81Z"/>
        <g class="cls-7">
          <path class="cls-4" d="m79.9,257.04s27.53,14.33,32.87,12.36c5.34-1.97,65.45-23.88,63.77-26.69s-24.16-12.64-28.09-12.36-71.63,24.72-68.54,26.69Z"/>
        </g>
        <path class="cls-2" d="m88.68,242.76s-8.22-18.33,13.99-27.18c15.39-6.14,30.59,9.21,29.18,9.87s-43.17,17.31-43.17,17.31Z"/>
        <path class="cls-2" d="m106.35,200.3c2.31,6.79-2.2,11.55-8.99,13.87s-13.27,1.3-15.59-5.48,1.31-14.17,8.1-16.48,14.17,1.31,16.48,8.1Z"/>
        <path class="cls-4" d="m36.04,201.43c1.26,2.75,2.98,5.35,4.48,7.96,3.15,5.47,6.32,10.93,9.51,16.38,6.01,10.28,11.93,20.67,18.36,30.7.5.78,1.01,1.84,1.71,2.46.64.55,1.61.88,2.36,1.25,5.05,2.59,10.14,5.1,15.27,7.54,6.87,3.27,13.8,6.43,20.87,9.24,3.08,1.22,6.19,2.39,9.37,3.35,2.3.69,5.26,1.84,7.63,1.08,22.96-7.37,46-15.31,67.56-26.22,2.32-1.17,4.62-2.39,6.89-3.65.72-.4.08-1.5-.65-1.11-20.43,11.3-42.62,19.31-64.72,26.66-3.14,1.04-6.27,2.1-9.43,3.08-1.3.4-2.52.06-3.83-.24-2.82-.65-5.57-1.59-8.29-2.58-7.04-2.57-13.9-5.64-20.69-8.8-5.75-2.68-11.45-5.46-17.1-8.32-1.35-.68-2.68-1.4-4.04-2.07-.12-.06-.24-.11-.35-.18-.15-.1.15.14-.03-.03-.14-.14-.43-.59-.65-.91-2.39-3.55-4.55-7.27-6.76-10.94-3.43-5.71-6.81-11.44-10.18-17.18-5.32-9.06-10.75-18.08-15.77-27.31-.15-.27-.3-.54-.43-.82-.34-.75-1.45-.1-1.11.65h0Z"/>
        <path class="cls-3" d="m78.62,183.14c.4.9-.23,1.45-1.13,1.85-.9.4-1.73.48-2.13-.41s0-1.95.91-2.34c.9-.4,1.95,0,2.34.91Z"/>
        <path class="cls-4" d="m134.51,262.51c-1.21.54-1.29,2.22-.14,2.88,3.77,2.14,10.81,5.93,12.53,5.45,2.39-.66,23.14-8.46,22.76-9.58-.38-1.12-13.61-6.83-15.31-6.26-1.81.61-14.36,5.06-19.84,7.51Z"/>
        <path class="cls-4" d="m69.55,258.87c21.04-8.73,42.17-17.23,63.4-25.5,6.03-2.35,12.07-4.68,18.11-6.99.76-.29.43-1.53-.34-1.23-21.27,8.14-42.46,16.5-63.55,25.1-5.99,2.44-11.98,4.91-17.96,7.38-.75.31-.42,1.55.34,1.23h0Z"/>
      </g>
      <path class="cls-4" d="m267.17,218.26c.03,6.96.31,13.92.84,20.86.06.82,1.34.82,1.28,0-.53-6.94-.81-13.9-.84-20.86,0-.82-1.28-.83-1.28,0h0Z"/>
      <path class="cls-2" d="m320.54,239.64s10.75-2.59,18.07,3.58c7.33,6.17,29.31,73.95,22.96,86.27-6.35,12.32-62.53,12.32-68.39,0-5.86-12.32,0-56.99,0-56.99,0,0,24.42-32.43,27.36-32.86Z"/>
      <path class="cls-3" d="m362.71,321.75c-22.73,5.26-46.58,5.55-69.43.84l.38-6.78c22.61,3.34,45.75,3.05,68.27-.86l.77,6.81Z"/>
      <path class="cls-4" d="m322.95,234.35l-19.61-30.59-10.15-36.77c-3.95,10.98-2.87,34.73-1.33,46.3-6.99.8-13.06,6.75-14,13.72-.94,6.97,3.32,14.32,9.85,16.95-6.54,4.93-7.87,15.17-3.48,22.07,4.4,6.9,13.54,10.08,21.51,8.22,7.97-1.86,14.51-8.24,17.46-15.87,2.95-7.64,2.52-16.33-.25-24.04Z"/>
      <path class="cls-4" d="m285.21,284.34c3.37,1.85,6.73,3.69,10.1,5.54.72.4,1.37-.71.65-1.11-3.37-1.85-6.73-3.69-10.1-5.54-.72-.4-1.37.71-.65,1.11h0Z"/>
      <path class="cls-4" d="m295.02,289.33c-1.15,10.54-1.96,21.12-2.4,31.72-.17,3.95-1.01,9.16,2.13,12.24,2.51,2.46,6.6,2.94,9.91,3.57,7.09,1.33,14.33,1.99,21.54,2.07,7.08.08,14.28-.36,21.2-1.95,5.51-1.27,11.75-3.39,15.17-8.22.48-.67-.63-1.31-1.11-.65-2.89,4.08-8.15,6.01-12.79,7.23-6.37,1.68-13.04,2.22-19.61,2.3-7.02.08-14.06-.4-21-1.5-3.19-.5-6.59-.97-9.62-2.11-2.17-.82-3.79-2.26-4.37-4.57-.52-2.07-.32-4.29-.24-6.4.42-11.27,1.26-22.52,2.48-33.73.09-.82-1.19-.81-1.28,0h0Z"/>
      <path class="cls-3" d="m118.8,201.51c-4.68,8.78-9.71,17.36-15.07,25.74-.45.7.66,1.34,1.11.65,5.36-8.38,10.39-16.96,15.07-25.74.39-.73-.72-1.37-1.11-.65h0Z"/>
      <path class="cls-3" d="m106.41,213.81c-4.46,7.36-9.24,14.53-14.3,21.49-.49.67.62,1.31,1.11.65,5.06-6.96,9.84-14.13,14.3-21.49.43-.71-.68-1.35-1.11-.65h0Z"/>
      <path class="cls-2" d="m220.41,370.41c-7.89,14.39-12.47,30.45-13.35,46.84-.04.82,1.24.82,1.28,0,.87-16.16,5.4-32,13.18-46.19.4-.72-.71-1.37-1.11-.65h0Z"/>
      <path class="cls-2" d="m207.95,412.62c5.7.03,11.4.07,17.11.1.82,0,.82-1.28,0-1.28-5.7-.03-11.4-.07-17.11-.1-.82,0-.82,1.28,0,1.28h0Z"/>
      <path class="cls-2" d="m225.91,412.75c2.41-14.81,7.59-29.06,15.27-41.95.42-.71-.68-1.35-1.11-.65-7.73,12.98-12.97,27.35-15.39,42.26-.13.81,1.1,1.15,1.23.34h0Z"/>
      <path class="cls-4" d="m311.29,114.16c-5.71-1.73-12.1-.74-17.24,2.3-3.22,1.9-6.04,4.69-7.33,8.19-1.29,3.51-.81,7.78,1.76,10.5l14.55,9.74c5.22,2.89,12.24,1.79,16.57-2.31,4.33-4.1,5.86-10.79,4.07-16.48-1.79-5.69-6.67-10.22-12.38-11.94Z"/>
    </g>
  </g>
</svg>